<svg width="9" height="14" viewBox="0 0 9 14" fill="none" xmlns="http://www.w3.org/2000/svg">
<path d="M0.842261 6.19089L6.55655 0.476606C6.77084 0.262008 7.06161 0.141328 7.36488 0.141114C7.66816 0.140899 7.95909 0.261169 8.17369 0.475464C8.38829 0.689759 8.50897 0.980525 8.50918 1.2838C8.5094 1.58707 8.38913 1.87801 8.17483 2.09261L3.2674 7.00003L8.17255 11.9052C8.28598 12.0094 8.37716 12.1355 8.44062 12.2759C8.50407 12.4163 8.53848 12.5681 8.54177 12.7221C8.54507 12.8762 8.5172 13.0293 8.45982 13.1723C8.40244 13.3152 8.31674 13.4451 8.20787 13.5542C8.09901 13.6632 7.96923 13.7491 7.82633 13.8067C7.68342 13.8642 7.53035 13.8923 7.37632 13.8892C7.22228 13.8862 7.07046 13.852 6.92998 13.7887C6.78949 13.7255 6.66325 13.6345 6.55883 13.5212L0.844547 7.80689C0.629991 7.59288 0.509219 7.30241 0.50879 6.99936C0.508362 6.69632 0.628311 6.40551 0.842261 6.19089Z" fill="white"/>
</svg>
