<svg width="32" height="32" viewBox="0 0 32 32" fill="none" xmlns="http://www.w3.org/2000/svg">
<g clip-path="url(#clip0_5741_18927)">
<path d="M29.2142 16.0001C29.2142 23.2981 23.298 29.2143 15.9999 29.2143C8.70188 29.2143 2.78564 23.2981 2.78564 16.0001C2.78564 8.702 8.70188 2.78577 15.9999 2.78577C23.298 2.78577 29.2142 8.702 29.2142 16.0001Z" fill="#03483F" stroke="#03483F"/>
<path d="M20.2379 16.8092L14.5236 22.5235C14.3093 22.7381 14.0185 22.8587 13.7152 22.859C13.412 22.8592 13.121 22.7389 12.9064 22.5246C12.6918 22.3103 12.5712 22.0195 12.5709 21.7163C12.5707 21.413 12.691 21.1221 12.9053 20.9075L17.8127 16L12.9076 11.0949C12.7941 10.9906 12.703 10.8645 12.6395 10.7241C12.5761 10.5837 12.5416 10.432 12.5383 10.2779C12.535 10.1239 12.5629 9.97079 12.6203 9.82781C12.6777 9.68483 12.7634 9.55492 12.8722 9.4459C12.9811 9.33688 13.1109 9.251 13.2538 9.19342C13.3967 9.13584 13.5498 9.10774 13.7038 9.11082C13.8578 9.11391 14.0097 9.1481 14.1501 9.21135C14.2906 9.27461 14.4169 9.36561 14.5213 9.4789L20.2356 15.1932C20.4501 15.4072 20.5709 15.6977 20.5713 16.0007C20.5718 16.3038 20.4518 16.5946 20.2379 16.8092Z" fill="white"/>
</g>
<defs>
<clipPath id="clip0_5741_18927">
<rect width="32" height="32" fill="white"/>
</clipPath>
</defs>
</svg>
