<svg width="48" height="48" viewBox="0 0 48 48" fill="none" xmlns="http://www.w3.org/2000/svg">
<g clip-path="url(#clip0_4489_59940)">
<path d="M23.9999 44.5716C35.3612 44.5716 44.5713 35.3614 44.5713 24.0001C44.5713 12.6389 35.3612 3.42871 23.9999 3.42871C12.6386 3.42871 3.42847 12.6389 3.42847 24.0001C3.42847 35.3614 12.6386 44.5716 23.9999 44.5716Z" fill="#E1E1E1" fill-opacity="0.3"/>
<path d="M30.3565 25.2139L21.7851 33.7853C21.4637 34.1072 21.0275 34.2882 20.5726 34.2886C20.1177 34.2889 19.6813 34.1085 19.3594 33.787C19.0375 33.4656 18.8565 33.0294 18.8562 32.5745C18.8558 32.1196 19.0362 31.6832 19.3577 31.3613L26.7188 24.0002L19.3611 16.6425C19.191 16.4861 19.0542 16.2969 18.959 16.0863C18.8638 15.8757 18.8122 15.6481 18.8073 15.417C18.8023 15.186 18.8441 14.9563 18.9302 14.7418C19.0163 14.5274 19.1448 14.3325 19.3081 14.169C19.4714 14.0054 19.6661 13.8766 19.8805 13.7903C20.0948 13.7039 20.3244 13.6617 20.5555 13.6664C20.7865 13.671 21.0142 13.7223 21.225 13.8172C21.4357 13.912 21.6251 14.0485 21.7817 14.2185L30.3531 22.7899C30.675 23.1109 30.8561 23.5466 30.8568 24.0012C30.8574 24.4558 30.6775 24.892 30.3565 25.2139Z" fill="white"/>
</g>
<defs>
<clipPath id="clip0_4489_59940">
<rect width="48" height="48" fill="white"/>
</clipPath>
</defs>
</svg>
