<svg width="48" height="48" viewBox="0 0 48 48" fill="none" xmlns="http://www.w3.org/2000/svg">
<g clip-path="url(#clip0_4489_59927)">
<path d="M24.0001 3.42843C12.6388 3.42843 3.42868 12.6386 3.42868 23.9999C3.42868 35.3611 12.6388 44.5713 24.0001 44.5713C35.3614 44.5713 44.5715 35.3611 44.5715 23.9999C44.5715 12.6386 35.3614 3.42844 24.0001 3.42843Z" fill="#E1E1E1" fill-opacity="0.3"/>
<path d="M17.6435 22.7861L26.2149 14.2147C26.5363 13.8928 26.9725 13.7118 27.4274 13.7114C27.8823 13.7111 28.3187 13.8915 28.6406 14.213C28.9625 14.5344 29.1435 14.9706 29.1438 15.4255C29.1442 15.8804 28.9638 16.3168 28.6423 16.6387L21.2812 23.9998L28.6389 31.3575C28.809 31.5139 28.9458 31.7031 29.041 31.9137C29.1362 32.1243 29.1878 32.3519 29.1927 32.583C29.1977 32.814 29.1559 33.0437 29.0698 33.2582C28.9837 33.4726 28.8552 33.6675 28.6919 33.831C28.5286 33.9946 28.3339 34.1234 28.1195 34.2097C27.9052 34.2961 27.6756 34.3383 27.4445 34.3336C27.2135 34.329 26.9858 34.2777 26.775 34.1828C26.5643 34.088 26.3749 33.9515 26.2183 33.7815L17.6469 25.2101C17.325 24.8891 17.1439 24.4534 17.1432 23.9988C17.1426 23.5442 17.3225 23.108 17.6435 22.7861Z" fill="white"/>
</g>
<defs>
<clipPath id="clip0_4489_59927">
<rect width="48" height="48" fill="white" transform="translate(48 48) rotate(-180)"/>
</clipPath>
</defs>
</svg>
