<svg width="32" height="32" viewBox="0 0 32 32" fill="none" xmlns="http://www.w3.org/2000/svg">
<g clip-path="url(#clip0_5741_19295)">
<path d="M29.2147 16.0001C29.2147 23.2981 23.2985 29.2143 16.0004 29.2143C8.70237 29.2143 2.78613 23.2981 2.78613 16.0001C2.78613 8.702 8.70237 2.78577 16.0004 2.78577C23.2985 2.78577 29.2147 8.702 29.2147 16.0001Z" fill="#03483F" stroke="#03483F"/>
<path d="M11.7622 15.1909L17.4765 9.47661C17.6908 9.26201 17.9815 9.14133 18.2848 9.14111C18.5881 9.1409 18.879 9.26117 19.0936 9.47546C19.3082 9.68976 19.4289 9.98052 19.4291 10.2838C19.4293 10.5871 19.3091 10.878 19.0948 11.0926L14.1873 16L19.0925 20.9052C19.2059 21.0094 19.2971 21.1355 19.3605 21.2759C19.424 21.4163 19.4584 21.5681 19.4617 21.7221C19.465 21.8762 19.4371 22.0293 19.3797 22.1723C19.3224 22.3152 19.2367 22.4451 19.1278 22.5542C19.0189 22.6632 18.8891 22.7491 18.7462 22.8067C18.6033 22.8642 18.4503 22.8923 18.2962 22.8892C18.1422 22.8862 17.9904 22.852 17.8499 22.7887C17.7094 22.7255 17.5832 22.6345 17.4788 22.5212L11.7645 16.8069C11.5499 16.5929 11.4291 16.3024 11.4287 15.9994C11.4283 15.6963 11.5482 15.4055 11.7622 15.1909Z" fill="white"/>
</g>
<defs>
<clipPath id="clip0_5741_19295">
<rect width="32" height="32" fill="white"/>
</clipPath>
</defs>
</svg>
