<svg width="56" height="56" viewBox="0 0 56 56" fill="none" xmlns="http://www.w3.org/2000/svg">
<g clip-path="url(#clip0_4600_57979)">
<path d="M31.492 13.9227C30.6479 13.9227 29.8227 13.6724 29.1208 13.2034C28.419 12.7345 27.8719 12.0679 27.5489 11.288C27.2258 10.5081 27.1413 9.64999 27.306 8.82208C27.4707 7.99416 27.8772 7.23368 28.4741 6.63679C29.071 6.0399 29.8314 5.63341 30.6594 5.46873C31.4873 5.30405 32.3454 5.38857 33.1253 5.7116C33.9052 6.03464 34.5717 6.58168 35.0407 7.28355C35.5097 7.98542 35.76 8.81059 35.76 9.65472C35.7579 10.786 35.3075 11.8704 34.5076 12.6703C33.7076 13.4703 32.6233 13.9206 31.492 13.9227ZM31.492 6.98672C30.9643 6.98672 30.4485 7.1432 30.0097 7.43636C29.571 7.72952 29.229 8.14621 29.0271 8.63372C28.8252 9.12124 28.7723 9.65768 28.8753 10.1752C28.9782 10.6928 29.2323 11.1682 29.6054 11.5413C29.9786 11.9144 30.454 12.1685 30.9715 12.2715C31.489 12.3744 32.0255 12.3216 32.513 12.1196C33.0005 11.9177 33.4172 11.5757 33.7104 11.137C34.0035 10.6982 34.16 10.1824 34.16 9.65472C34.16 8.94712 33.8789 8.26851 33.3786 7.76816C32.8782 7.26781 32.1996 6.98672 31.492 6.98672Z" fill="#888888"/>
<path d="M28.52 11.842C28.92 12.122 29.272 12.378 29.568 12.61C30.0851 12.99 30.5599 13.4245 30.984 13.906C31.2726 13.9361 31.5635 13.9361 31.852 13.906L31.108 13.246L28.656 11.358C28.2643 11.1848 27.8514 11.0637 27.428 10.998C27.428 11.042 27.452 11.09 27.468 11.138C27.856 11.386 28.208 11.622 28.52 11.842Z" fill="#888888"/>
<path d="M31.892 42.9273L31.744 38.5273C31.5388 39.9916 31.5889 41.4802 31.892 42.9273Z" fill="#888888"/>
<path d="M37.424 23.2722C37.4922 23.3189 37.5661 23.3565 37.644 23.3842L37.268 23.1602L37.424 23.2722Z" fill="#888888"/>
<path d="M51.144 36.328C51.052 36.116 50.952 35.928 50.844 35.708C50.8272 35.6729 50.8125 35.6369 50.8 35.6C50.7 35.42 50.6 35.244 50.492 35.068L50.332 34.82L50.176 34.588C49.236 33.23 47.9807 32.1202 46.5177 31.3539C45.0547 30.5875 43.4276 30.1875 41.776 30.188C41.1521 30.1891 40.5295 30.2467 39.916 30.36L39.8 30.4L39.684 30C39.4092 29.0266 39.2046 28.0347 39.072 27.032C38.992 26.452 38.936 25.864 38.904 25.284V25C38.904 24.944 38.904 24.884 38.904 24.828C38.5228 24.9897 38.1062 25.05 37.6947 25.003C37.2833 24.9561 36.891 24.8034 36.556 24.56L33.08 22L34.24 20.952L28.612 16.888C28.4577 16.7747 28.268 16.7205 28.0772 16.7352C27.8863 16.7499 27.7071 16.8325 27.572 16.968L22.752 21.768L17.344 20.296L24.088 13.552C24.4135 13.2259 24.8 12.9673 25.2256 12.7908C25.6511 12.6143 26.1073 12.5234 26.568 12.5234C27.0287 12.5234 27.4849 12.6143 27.9104 12.7908C28.336 12.9673 28.7225 13.2259 29.048 13.552L35.424 19.2L36.596 18.092L31.852 13.904C31.5634 13.934 31.2726 13.934 30.984 13.904C30.5598 13.4225 30.0851 12.988 29.568 12.608C29.272 12.376 28.924 12.12 28.52 11.84C28.208 11.62 27.856 11.384 27.468 11.132C27.468 11.084 27.444 11.036 27.428 10.992C26.623 10.8451 25.7944 10.8965 25.0138 11.1418C24.2332 11.3872 23.5242 11.819 22.948 12.4L15.228 20.132L15.164 20.208C14.6895 20.8527 14.4116 21.6209 14.364 22.42V22.548H12.364C12.1518 22.548 11.9483 22.6323 11.7983 22.7823C11.6483 22.9323 11.564 23.1358 11.564 23.348V24.504C11.564 24.9531 11.6524 25.3978 11.8243 25.8128C11.9962 26.2277 12.2481 26.6047 12.5657 26.9223C12.8833 27.2399 13.2603 27.4918 13.6752 27.6637C14.0901 27.8355 14.5349 27.924 14.984 27.924H16.276L15.724 30.324H15.6C15.1401 30.2602 14.6763 30.2281 14.212 30.228C11.6936 30.2299 9.26452 31.1613 7.39038 32.8435C5.51624 34.5257 4.32891 36.8404 4.05599 39.344C4.05599 39.344 4.05599 39.344 4.05599 39.368C4.05599 39.516 4.03199 39.66 4.02399 39.808C4.02399 39.836 4.02399 39.86 4.02399 39.888C4.02399 40.0613 4.02399 40.2333 4.02399 40.404C4.02399 40.6 4.02399 40.804 4.02399 40.988V41.132C4.02399 41.284 4.04799 41.432 4.06399 41.58C4.06399 41.624 4.06399 41.672 4.08399 41.716C4.08399 41.876 4.12799 42.032 4.15599 42.188C4.15599 42.22 4.15599 42.248 4.15599 42.28C4.30174 43.0551 4.53664 43.8108 4.85599 44.532L4.88399 44.592C4.95199 44.744 5.02399 44.892 5.09999 45.04L5.15599 45.144C5.22399 45.276 5.29599 45.408 5.37199 45.544L5.44399 45.668C5.53199 45.812 5.61999 45.952 5.71599 46.092C5.81199 46.232 5.87199 46.316 5.95199 46.428C5.97599 46.456 5.99599 46.488 6.01599 46.516C6.10799 46.64 6.20399 46.756 6.29999 46.876C6.8779 47.5874 7.55087 48.2159 8.29999 48.744L8.65599 48.996L8.73999 49.02C10.3351 50.0277 12.1813 50.5668 14.068 50.576L14.168 50.604C16.5811 50.6112 18.9182 49.7603 20.7618 48.2032C22.6054 46.6461 23.8353 44.4843 24.232 42.104L24.392 41.172C24.4366 40.055 24.3152 38.9375 24.032 37.856C24.0117 37.6332 23.9674 37.4133 23.9 37.2C23.3948 35.6894 22.5453 34.3169 21.4186 33.1909C20.2919 32.0649 18.9189 31.2163 17.408 30.712L17.288 30.672L17.936 27.872L22.672 30.6L23.872 35.824L24.584 39.348C24.7305 40.0781 25.134 40.7314 25.7212 41.1894C26.3083 41.6474 27.0402 41.8796 27.784 41.844C28.2226 41.8252 28.6522 41.7139 29.0447 41.5173C29.4372 41.3207 29.7836 41.0433 30.0613 40.7033C30.339 40.3633 30.5416 39.9684 30.6558 39.5446C30.77 39.1207 30.7932 38.6775 30.724 38.244L30.276 35.48L37.74 28.72L37.788 28.956C37.896 29.452 38.016 29.948 38.152 30.428L38.268 30.828L38.152 30.872C36.5568 31.4884 35.14 32.4919 34.0291 33.792C32.9181 35.0922 32.148 36.6482 31.788 38.32L31.744 38.536L31.892 42.936C32.4964 45.2949 33.9234 47.3603 35.916 48.76L36.272 49.012L36.468 49.072C38.0316 50.0404 39.829 50.5657 41.668 50.592L41.772 50.62C43.4359 50.622 45.0749 50.2161 46.5456 49.4379C48.0162 48.6597 49.2737 47.5328 50.208 46.156C50.256 46.088 50.296 46.024 50.34 45.956C50.384 45.888 50.48 45.744 50.544 45.636C50.608 45.528 50.736 45.3 50.828 45.124L50.888 45.008C51.5674 43.6705 51.9416 42.199 51.9838 40.6994C52.026 39.1998 51.7351 37.7096 51.132 36.336L51.144 36.328ZM14.98 26.328C14.4994 26.328 14.0385 26.1371 13.6987 25.7973C13.3589 25.4575 13.168 24.9966 13.168 24.516V24.164H14.54L14.568 24.264C14.7713 24.9331 15.0998 25.5575 15.536 26.104L15.72 26.328H14.98ZM17.876 32.644L17.936 32.672C19.264 33.3184 20.4038 34.2948 21.2463 35.5079C22.0889 36.7209 22.6059 38.1299 22.748 39.6V41.2C22.5926 42.8155 21.9848 44.3545 20.9942 45.6401C20.0036 46.9257 18.6705 47.9059 17.148 48.468C16.992 48.524 16.832 48.58 16.672 48.628L16.456 48.688C16.248 48.744 16.056 48.8 15.816 48.84H15.772C14.5968 49.0578 13.3892 49.0282 12.2261 48.7533C11.063 48.4783 9.96998 47.9639 9.01678 47.2429C8.06359 46.5219 7.27114 45.6101 6.69 44.5657C6.10885 43.5214 5.75176 42.3673 5.64152 41.1773C5.53128 39.9872 5.6703 38.7872 6.04971 37.6539C6.42912 36.5205 7.0406 35.4787 7.84513 34.5949C8.64965 33.711 9.62957 33.0046 10.7224 32.5206C11.8152 32.0367 12.9968 31.7858 14.192 31.784C14.5249 31.7842 14.8575 31.8042 15.188 31.844H15.308H15.34L13.74 38.72L13.404 40.164C13.375 40.2835 13.374 40.4081 13.4011 40.5281C13.4281 40.6481 13.4824 40.7602 13.5598 40.8557C13.6372 40.9513 13.7355 41.0278 13.8473 41.0791C13.959 41.1305 14.0811 41.1555 14.204 41.152C14.3911 41.1558 14.5737 41.0938 14.7199 40.9769C14.8661 40.8599 14.9666 40.6954 15.004 40.512L15.316 39.2L16.916 32.256C17.243 32.3641 17.5636 32.491 17.876 32.636V32.644ZM27.7 40.244C27.3411 40.2603 26.988 40.1487 26.7037 39.9289C26.4195 39.7091 26.2225 39.3955 26.148 39.044L25.4 35.32L24.16 29.9C24.1339 29.79 24.0847 29.6867 24.0157 29.5971C23.9468 29.5075 23.8596 29.4335 23.76 29.38L17.676 25.856C17.2503 25.5911 16.8839 25.2413 16.5997 24.8283C16.3154 24.4153 16.1194 23.9482 16.024 23.456C15.8972 22.8922 15.9333 22.304 16.128 21.76L16.172 21.644L22.572 23.412L26.06 26.9C26.9524 27.789 27.5524 28.9291 27.78 30.168L28.664 35.664L29.128 38.492C29.162 38.703 29.1511 38.9188 29.0959 39.1253C29.0406 39.3318 28.9424 39.5242 28.8075 39.69C28.6727 39.8559 28.5043 39.9913 28.3134 40.0875C28.1226 40.1836 27.9135 40.2383 27.7 40.248V40.244ZM29.956 33.572L29.364 29.896C29.2533 29.2846 29.0707 28.6885 28.82 28.12L28.732 27.924H36.188L29.956 33.572ZM27.708 26.32L27.664 26.272C27.512 26.088 27.352 25.916 27.196 25.756L24.128 22.688L28.224 18.592L37.292 25.16V25.228C37.292 25.54 37.328 25.856 37.356 26.168V26.32H27.708ZM49.828 43.556C49.7825 43.612 49.7449 43.6739 49.716 43.74C48.9595 45.5345 47.6168 47.0195 45.9073 47.9524C44.1978 48.8852 42.2225 49.2108 40.304 48.876H40.256C40.036 48.836 39.816 48.784 39.6 48.728L39.472 48.692C39.3 48.644 39.136 48.592 38.968 48.532L38.688 48.428C38.58 48.388 38.476 48.344 38.372 48.296C37.0666 47.7234 35.9234 46.8362 35.0445 45.7138C34.1657 44.5914 33.5787 43.2687 33.336 41.864C33.3294 41.5949 33.2973 41.327 33.24 41.064C33.24 40.844 33.212 40.624 33.212 40.396C33.2165 38.6665 33.7416 36.9783 34.719 35.5514C35.6965 34.1245 37.0809 33.025 38.692 32.396L41.008 40.628C41.0344 40.7314 41.0812 40.8284 41.1457 40.9134C41.2102 40.9985 41.291 41.0697 41.3835 41.123C41.4759 41.1763 41.5781 41.2106 41.684 41.2238C41.7898 41.237 41.8973 41.2289 42 41.2C42.1019 41.1719 42.1973 41.1238 42.2805 41.0586C42.3638 40.9933 42.4332 40.9122 42.4849 40.82C42.5367 40.7277 42.5696 40.6262 42.5817 40.5211C42.5939 40.4161 42.5852 40.3096 42.556 40.208L40.24 31.968L40.408 31.936C40.863 31.8627 41.3231 31.8252 41.784 31.824C43.458 31.8245 45.0956 32.3133 46.4959 33.2305C47.8963 34.1478 48.9987 35.4536 49.668 36.988C49.6995 37.0536 49.7385 37.1153 49.784 37.172C50.6207 39.2204 50.6364 41.5123 49.828 43.572V43.556Z" fill="#888888"/>
<path d="M39.564 24.4012C39.6422 24.3343 39.7157 24.2621 39.784 24.1852C40.1207 23.7914 40.3209 23.2994 40.3548 22.7824C40.3887 22.2655 40.2544 21.7515 39.972 21.3172H38.876C38.216 21.4372 37.276 20.8732 37.276 20.8732L35.424 19.2012L38.48 21.9572C38.6248 22.0861 38.7203 22.2614 38.75 22.453C38.7798 22.6445 38.7421 22.8405 38.6433 23.0074C38.5446 23.1742 38.3909 23.3015 38.2086 23.3675C38.0263 23.4335 37.8267 23.4341 37.644 23.3692L38.876 24.1092C38.876 24.3385 38.876 24.5665 38.876 24.7932C39.0464 24.7213 39.2086 24.6314 39.36 24.5252C39.4214 24.4739 39.4902 24.4321 39.564 24.4012Z" fill="#888888"/>
<path d="M37.2679 23.1591L34.2519 20.9551L34.2399 20.9631L37.2679 23.1551V23.1591Z" fill="#888888"/>
<path d="M39.6 20.8194L36.616 18.1074L39.98 21.2754C39.8725 21.1084 39.7449 20.9553 39.6 20.8194Z" fill="#888888"/>
<path d="M38.876 21.2954H39.972V21.2754L36.608 18.1074L35.424 19.1994L37.268 20.8354C37.268 20.8354 38.216 21.4154 38.876 21.2954Z" fill="#888888"/>
<path d="M37.644 23.3848C37.5661 23.3572 37.4922 23.3196 37.424 23.2728L37.268 23.1608L34.24 20.9648L33.08 22.0008L36.54 24.5288C36.875 24.7723 37.2673 24.9249 37.6787 24.9719C38.0902 25.0188 38.5068 24.9585 38.888 24.7968C38.888 24.5702 38.888 24.3422 38.888 24.1128L37.644 23.3848Z" fill="#888888"/>
<path d="M41.672 24.8655L38.608 23.7775L39.144 22.2695L42.208 23.3575C42.3094 23.3927 42.4027 23.448 42.4824 23.52C42.562 23.5921 42.6263 23.6794 42.6715 23.7768C42.7167 23.8743 42.7417 23.9798 42.7453 24.0871C42.7488 24.1944 42.7307 24.3014 42.692 24.4015C42.6166 24.597 42.4675 24.7552 42.2768 24.842C42.086 24.9287 41.8689 24.9372 41.672 24.8655Z" fill="#888888"/>
</g>
<defs>
<clipPath id="clip0_4600_57979">
<rect width="56" height="56" fill="white"/>
</clipPath>
</defs>
</svg>
