<svg width="16" height="16" viewBox="0 0 16 16" fill="none" xmlns="http://www.w3.org/2000/svg">
<g clip-path="url(#clip0_4559_57027)">
<path d="M7.99997 14.8574C11.7871 14.8574 14.8571 11.7873 14.8571 8.00021C14.8571 4.21311 11.7871 1.14307 7.99997 1.14307C4.21287 1.14307 1.14282 4.21311 1.14282 8.00021C1.14282 11.7873 4.21287 14.8574 7.99997 14.8574Z" fill="#0D4C3F"/>
<path d="M8.01363 8.05847C7.97248 8.0299 7.98963 7.98761 7.98963 7.94418C7.99763 7.93276 8.00563 7.9339 8.01363 7.94418V8.05847Z" fill="#454545"/>
<path d="M7.98963 8.05032C7.98963 8.01261 7.97248 7.97032 8.01363 7.93604V8.04346C8.00677 8.06061 7.99991 8.06175 7.98963 8.05032Z" fill="#454545"/>
<path d="M7.98979 8.02067C7.98979 7.99895 7.9795 7.97495 8.01265 7.96924V8.02181C8.00008 8.03438 8.00008 8.03438 7.98979 8.02067Z" fill="#8D8D8D"/>
<path d="M7.98869 7.97266H8.01269V8.02637H7.98755C7.98869 8.00808 7.98869 7.99094 7.98869 7.97266Z" fill="#606060"/>
<path d="M7.98853 7.97021H8.01138V8.02279C8.00453 8.03421 7.99767 8.03536 7.98853 8.02279V7.97021Z" fill="#606060"/>
<path d="M7.98982 7.9751H8.01267V8.02767C7.97953 8.02081 7.98753 8.00024 7.98982 7.9751Z" fill="#8D8D8D"/>
<path d="M11.1863 6.21035C11.185 6.28392 11.1689 6.35646 11.1388 6.42362C11.1088 6.49079 11.0655 6.55119 11.0115 6.60121C9.82673 7.78521 8.64082 8.96806 7.45378 10.1498C7.40453 10.2068 7.34357 10.2526 7.27503 10.284C7.2065 10.3154 7.13201 10.3316 7.05663 10.3316C6.98126 10.3316 6.90676 10.3154 6.83823 10.284C6.7697 10.2526 6.70873 10.2068 6.65949 10.1498C6.10558 9.59435 5.55054 9.03854 4.99435 8.48235C4.93927 8.43426 4.89465 8.37539 4.86322 8.30938C4.83179 8.24337 4.81423 8.17162 4.81162 8.09855C4.80901 8.02549 4.82141 7.95266 4.84805 7.88458C4.87469 7.81649 4.91501 7.75459 4.96651 7.7027C5.01801 7.6508 5.0796 7.61002 5.14748 7.58287C5.21537 7.55571 5.28809 7.54276 5.36118 7.54482C5.43426 7.54687 5.50614 7.56389 5.57239 7.59482C5.63864 7.62575 5.69784 7.66993 5.74635 7.72463C6.1532 8.12311 6.55625 8.52654 6.95549 8.93492C7.03435 9.01492 7.06978 9.02521 7.16006 8.93492C8.17835 7.90635 9.2012 6.89378 10.2218 5.87321C10.3886 5.70635 10.5761 5.62063 10.8126 5.69378C10.9221 5.72836 11.0176 5.79726 11.0849 5.89029C11.1522 5.98332 11.1878 6.09554 11.1863 6.21035Z" fill="white"/>
</g>
<defs>
<clipPath id="clip0_4559_57027">
<rect width="16" height="16" fill="white"/>
</clipPath>
</defs>
</svg>
