<svg width="56" height="56" viewBox="0 0 56 56" fill="none" xmlns="http://www.w3.org/2000/svg">
<g clip-path="url(#clip0_4602_58082)">
<path d="M10.6079 37.8177L7.42791 50.4017H5.40791C5.19574 50.4017 4.99225 50.486 4.84222 50.636C4.6922 50.786 4.60791 50.9895 4.60791 51.2017C4.60791 51.4139 4.6922 51.6173 4.84222 51.7674C4.99225 51.9174 5.19574 52.0017 5.40791 52.0017H50.6079C50.8201 52.0017 51.0236 51.9174 51.1736 51.7674C51.3236 51.6173 51.4079 51.4139 51.4079 51.2017C51.4079 50.9895 51.3236 50.786 51.1736 50.636C51.0236 50.486 50.8201 50.4017 50.6079 50.4017H48.6079L46.1039 40.4977C46.0082 40.1215 45.8119 39.7786 45.5359 39.5057L36.9879 31.1377L32.8839 22.1377C32.6698 21.6699 32.2926 21.2962 31.8229 21.0863C31.3532 20.8765 30.8232 20.845 30.3319 20.9977L19.0759 24.5017C18.7437 24.6048 18.442 24.7883 18.1978 25.036C17.9535 25.2838 17.7743 25.588 17.6759 25.9217L14.7999 35.6217L12.1319 36.2857C11.7633 36.3797 11.427 36.5718 11.1587 36.8415C10.8904 37.1113 10.7001 37.4486 10.6079 37.8177ZM19.2999 26.1217L31.2319 22.4017L35.6319 32.0697L44.4559 40.7377L46.8959 50.3817H20.9479L22.5159 44.8217L28.8239 41.2217L33.7199 43.7657L36.5199 50.3657H38.2679L35.2799 43.3017C35.087 42.8504 34.7435 42.48 34.3079 42.2537L29.8079 39.9377C29.4973 39.7782 29.152 39.6983 28.8029 39.7053C28.4538 39.7123 28.1119 39.8059 27.8079 39.9777L21.9119 43.3297C21.4294 43.6031 21.0743 44.0559 20.9239 44.5897L19.2759 50.4017H9.09191L12.2439 37.9377L21.7319 35.5657C21.835 35.5409 21.9321 35.4959 22.0176 35.4332C22.1032 35.3705 22.1754 35.2915 22.2301 35.2007C22.2848 35.1099 22.3209 35.0091 22.3363 34.9042C22.3518 34.7993 22.3462 34.6924 22.3199 34.5897C22.2951 34.4866 22.2501 34.3895 22.1874 34.3039C22.1248 34.2184 22.0457 34.1462 21.9549 34.0915C21.8641 34.0368 21.7633 34.0007 21.6584 33.9852C21.5535 33.9698 21.4466 33.9754 21.3439 34.0017L16.6279 35.2017L19.2999 26.1217Z" fill="#888888"/>
</g>
<defs>
<clipPath id="clip0_4602_58082">
<rect width="56" height="56" fill="white"/>
</clipPath>
</defs>
</svg>
