<svg width="56" height="56" viewBox="0 0 56 56" fill="none" xmlns="http://www.w3.org/2000/svg">
<g clip-path="url(#clip0_4600_57666)">
<path d="M14.8798 29.2563L14.2198 27.7283L17.5038 26.3203L18.1358 27.7923L14.8798 29.2563Z" fill="#888888"/>
<path d="M11.292 18.3993C10.4472 18.3993 9.6214 18.1486 8.91919 17.6789C8.21698 17.2092 7.66995 16.5417 7.34739 15.7609C7.02484 14.9801 6.94125 14.1211 7.10724 13.2927C7.27322 12.4644 7.6813 11.7039 8.27979 11.1077C8.87828 10.5114 9.64026 10.1062 10.4692 9.94335C11.2982 9.78048 12.1568 9.86729 12.9364 10.1928C13.716 10.5183 14.3815 11.0678 14.8485 11.7718C15.3156 12.4757 15.5632 13.3025 15.56 14.1473C15.5547 15.2761 15.1029 16.357 14.3032 17.1537C13.5034 17.9504 12.4209 18.3982 11.292 18.3993ZM11.292 11.4633C10.7643 11.4633 10.2485 11.6198 9.80976 11.9129C9.37101 12.2061 9.02904 12.6228 8.82711 13.1103C8.62518 13.5978 8.57234 14.1342 8.67528 14.6518C8.77823 15.1693 9.03233 15.6447 9.40546 16.0178C9.77859 16.391 10.254 16.6451 10.7715 16.748C11.2891 16.851 11.8255 16.7981 12.313 16.5962C12.8005 16.3943 13.2172 16.0523 13.5104 15.6135C13.8035 15.1748 13.96 14.659 13.96 14.1313C13.9547 13.4268 13.6715 12.7529 13.1718 12.2562C12.6721 11.7596 11.9965 11.4803 11.292 11.4793V11.4633Z" fill="#888888"/>
<path d="M22.024 4.0957L20.224 13.7077L19.704 16.4877L19.216 19.0757L18.908 20.7357L20.38 21.5557L20.84 19.1077L21.704 14.4877L22.116 12.2877L23.652 4.0957H22.024Z" fill="#888888"/>
<path d="M31.2921 29.8544C31.1738 29.7832 31.0493 29.723 30.9201 29.6744L26.0001 27.8144C25.9074 27.7823 25.8101 27.7661 25.712 27.7664H19.8201L19.4001 26.7984L18.4881 24.6704L19.6881 25.2704L21.3361 26.0944C21.4466 26.1495 21.5685 26.1782 21.692 26.1784H24.7601C25.3578 26.179 25.9363 25.9674 26.3927 25.5814C26.849 25.1954 27.1535 24.6599 27.2521 24.0704C27.6521 21.8064 24.8921 21.0984 24.8921 21.0984L21.9601 20.5984L21.7001 20.4544L22.9361 19.6304C23.0239 19.5719 23.0999 19.4972 23.1601 19.4104L24.8921 16.7984C26.0601 14.5744 24.8921 13.0864 24.8921 13.0864C24.5529 12.7034 24.1118 12.4248 23.6203 12.2832C23.1287 12.1415 22.607 12.1426 22.1161 12.2864L21.7161 14.4864L22.0881 14.1144C22.2873 13.9188 22.5518 13.8037 22.8307 13.7913C23.1097 13.7789 23.3834 13.87 23.5992 14.0471C23.815 14.2243 23.9578 14.4749 24 14.7509C24.0423 15.0269 23.981 15.3088 23.8281 15.5424L21.9161 18.3984L20.84 19.1184L20.4001 21.5544L21.3241 22.0664C21.4051 22.1112 21.4929 22.1422 21.5841 22.1584L24.9361 22.7184C25.1631 22.7608 25.3663 22.8861 25.5062 23.0698C25.6462 23.2536 25.7129 23.4827 25.6935 23.7129C25.674 23.9431 25.5698 24.1578 25.4011 24.3155C25.2323 24.4732 25.011 24.5626 24.7801 24.5664H21.8801L20.0001 23.6224L18.5041 22.8784L17.2521 22.2504C17.1052 22.1758 16.939 22.1484 16.776 22.1718C16.6131 22.1952 16.4613 22.2684 16.3414 22.3812C16.2215 22.4941 16.1394 22.6412 16.1062 22.8025C16.0731 22.9638 16.0905 23.1314 16.1561 23.2824L18.5561 28.8824C18.5835 28.945 18.6184 29.0041 18.6601 29.0584L24.1441 36.1104C24.3001 36.8744 24.8921 39.8424 25.3121 41.8904C25.3804 42.219 25.3157 42.5614 25.1321 42.8424C25.032 42.9897 24.9032 43.1153 24.7533 43.2115C24.6034 43.3078 24.4357 43.3727 24.2601 43.4024C23.9451 43.461 23.6197 43.3954 23.352 43.2195C23.0843 43.0435 22.8951 42.7707 22.8241 42.4584L21.6801 37.1984C21.6482 37.047 21.5732 36.908 21.4641 36.7984L15.9641 31.3024L11.4721 21.5664C11.3543 21.3161 11.2928 21.043 11.2921 20.7664V20.0504C11.2927 19.8908 11.341 19.7351 11.4308 19.6033C11.5206 19.4714 11.6478 19.3694 11.7961 19.3104L13.3761 18.6744C13.7076 18.5417 14.0646 18.4848 14.421 18.5076C14.7773 18.5304 15.1241 18.6325 15.4361 18.8064L18.9081 20.7344L19.2001 19.0744L17.3281 18.0344L18.8361 17.2824C18.9126 17.2423 18.9827 17.1911 19.0441 17.1304L19.6881 16.4864L20.2081 13.7064L18.0041 15.9104L15.5641 17.1104C14.6619 16.8077 13.6811 16.8389 12.8001 17.1984L11.2001 17.8304C10.755 18.0095 10.3738 18.3179 10.1057 18.7157C9.83765 19.1136 9.69495 19.5826 9.69605 20.0624V20.7984C9.69714 21.2942 9.80064 21.7844 10.0001 22.2384L14.5681 32.1024C14.6068 32.1888 14.661 32.2675 14.7281 32.3344L20.1601 37.7664L21.2561 42.7984C21.4217 43.5275 21.8671 44.1624 22.4962 44.5664C23.1254 44.9704 23.8881 45.1112 24.6201 44.9584C25.3654 44.8123 26.0224 44.3765 26.4469 43.7465C26.8713 43.1166 27.0285 42.3441 26.8841 41.5984V41.5744C26.4001 39.1984 25.68 35.5984 25.68 35.5984C25.6557 35.4775 25.6036 35.3638 25.5281 35.2664L24.2481 33.6184L24.9281 33.3904L29.408 34.5104C29.6092 34.5628 29.8162 34.5896 30.024 34.5904C30.4708 34.586 30.9083 34.4632 31.2921 34.2344C33.8961 31.9984 31.2921 29.8544 31.2921 29.8544ZM30.9441 32.2824C30.8818 32.524 30.7267 32.7313 30.5126 32.8594C30.2984 32.9874 30.0424 33.0259 29.8001 32.9664L25.0881 31.7904C24.9418 31.7477 24.7863 31.7477 24.64 31.7904L23.2001 32.2904L20.9281 29.3664H25.5481L30.3481 31.1704C30.5649 31.2518 30.7441 31.4101 30.8518 31.6152C30.9595 31.8202 30.9881 32.0577 30.9321 32.2824H30.9441Z" fill="#888888"/>
<path d="M43.9479 44.3632C43.7841 44.1525 43.5702 43.9862 43.3256 43.8793C43.0811 43.7724 42.8137 43.7284 42.5479 43.7512L34.3239 44.4352L34.9759 38.5632C34.9902 38.4417 34.9765 38.3186 34.9359 38.2032L34.3359 36.5432C34.3256 36.5132 34.3136 36.4838 34.2999 36.4552L32.6639 33.1992L34.9119 24.2152L39.0959 22.1232L42.1519 23.1392C42.3117 23.1929 42.4843 23.1947 42.6452 23.1444C42.8062 23.0942 42.9471 22.9943 43.0479 22.8592C43.1239 22.7569 43.1745 22.6379 43.1953 22.5122C43.216 22.3864 43.2065 22.2575 43.1673 22.1361C43.1282 22.0148 43.0606 21.9046 42.9703 21.8147C42.8799 21.7248 42.7694 21.6577 42.6479 21.6192L39.5999 20.5872C39.4001 20.5206 39.1891 20.4941 38.9791 20.5092C38.769 20.5243 38.5641 20.5807 38.3759 20.6752L34.7519 22.4872L33.4439 17.2312L34.9279 11.2992L42.0479 6.3112C42.1341 6.2509 42.2077 6.17416 42.2642 6.08539C42.3208 5.99662 42.3593 5.89755 42.3775 5.79388C42.3957 5.69021 42.3933 5.58396 42.3703 5.48122C42.3474 5.37849 42.3044 5.28129 42.2439 5.1952C42.1836 5.10893 42.1068 5.0354 42.018 4.97884C41.9293 4.92227 41.8302 4.88378 41.7265 4.86558C41.6229 4.84737 41.5166 4.8498 41.4139 4.87273C41.3111 4.89566 41.214 4.93864 41.1279 4.9992L33.9999 9.9992C33.6833 10.2204 33.4574 10.5485 33.3639 10.9232L31.8879 16.8432C31.8242 17.0979 31.8242 17.3645 31.8879 17.6192L33.3959 23.6512L31.1079 32.7992C31.0148 33.1697 31.0573 33.5613 31.2279 33.9032L33.3959 38.2432L32.9119 42.6112L32.6679 44.7992L26.7999 47.7232C26.5763 47.8341 26.3818 47.9957 26.2319 48.1952L24.4199 50.5952C24.3562 50.6794 24.3098 50.7753 24.2834 50.8775C24.257 50.9796 24.251 51.086 24.2659 51.1905C24.2808 51.295 24.3162 51.3955 24.3701 51.4862C24.4239 51.577 24.4952 51.6561 24.5799 51.7192C24.664 51.7829 24.76 51.8292 24.8621 51.8557C24.9643 51.8821 25.0707 51.888 25.1752 51.8731C25.2796 51.8583 25.3801 51.8229 25.4709 51.769C25.5616 51.7151 25.6408 51.6438 25.7039 51.5592L27.1999 49.5992C27.262 49.5172 27.3394 49.4479 27.4279 49.3952L29.0639 48.3992L29.1199 48.3672L33.5199 46.1752C33.6115 46.131 33.7105 46.1039 33.8119 46.0952L42.2679 45.3912C42.4006 45.3796 42.5342 45.4013 42.6564 45.4544C42.7787 45.5074 42.8857 45.5902 42.9679 45.6952L45.0319 48.3512L46.0359 49.6392L47.5599 51.5992C47.6244 51.6823 47.7047 51.7518 47.7961 51.8039C47.8876 51.8559 47.9884 51.8894 48.0928 51.9024C48.1972 51.9154 48.3032 51.9077 48.4046 51.8797C48.506 51.8517 48.6009 51.8039 48.6839 51.7392C48.767 51.6747 48.8365 51.5944 48.8885 51.5029C48.9406 51.4115 48.974 51.3107 48.987 51.2062C49 51.1018 48.9923 50.9959 48.9643 50.8945C48.9363 50.7931 48.8886 50.6982 48.8239 50.6152L43.9479 44.3632Z" fill="#888888"/>
</g>
<defs>
<clipPath id="clip0_4600_57666">
<rect width="56" height="56" fill="white"/>
</clipPath>
</defs>
</svg>
