<svg width="56" height="56" viewBox="0 0 56 56" fill="none" xmlns="http://www.w3.org/2000/svg">
<g clip-path="url(#clip0_4602_58124)">
<path d="M5.39203 24.6397L9.34803 25.9597C9.49432 26.0023 9.64975 26.0023 9.79603 25.9597L12.436 25.2997L16.556 31.7757L13.52 32.3997H11.2C11.0041 32.3981 10.8144 32.4685 10.667 32.5976C10.5195 32.7266 10.4245 32.9053 10.4 33.0997L9.62803 39.3317L8.28403 41.5717C8.03318 41.9784 7.94773 42.4657 8.04526 42.9335C8.14279 43.4013 8.41588 43.814 8.80836 44.0865C9.20084 44.3591 9.68286 44.4709 10.1553 44.399C10.6277 44.327 11.0545 44.0767 11.348 43.6997L14.224 40.0997C14.2832 40.0254 14.3292 39.9415 14.36 39.8517L14.996 37.9477L23.272 37.1997C23.3792 37.19 23.4834 37.1588 23.5782 37.1079C23.6731 37.0571 23.7567 36.9876 23.824 36.9037L29.312 30.0437L29.836 30.5637C30.3109 31.0401 30.9297 31.3466 31.5965 31.4356C32.2633 31.5245 32.9409 31.391 33.524 31.0557L34.068 31.5997C34.4407 32.0419 34.9662 32.3275 35.54 32.3997C36.4041 32.3513 37.2491 32.1265 38.023 31.7392C38.7969 31.3519 39.4834 30.8103 40.04 30.1477L46.556 30.6917H46.728C47.2415 30.699 47.7394 30.5154 48.1252 30.1764C48.511 29.8374 48.7572 29.3672 48.816 28.8571C48.8748 28.3469 48.742 27.8331 48.4434 27.4152C48.1448 26.9974 47.7017 26.7053 47.2 26.5957L45.356 26.1957L49.18 25.5597C50.0178 25.4338 50.7784 24.9998 51.3129 24.3426C51.8474 23.6854 52.1173 22.8523 52.0697 22.0065C52.0222 21.1607 51.6606 20.3632 51.0558 19.77C50.451 19.1768 49.6466 18.8308 48.8 18.7997V17.9997C48.8 17.7875 48.7157 17.584 48.5657 17.434C48.4157 17.2839 48.2122 17.1997 48 17.1997H47.2V13.9997C47.2 13.7875 47.1157 13.584 46.9657 13.434C46.8157 13.2839 46.6122 13.1997 46.4 13.1997H45.176C44.5278 12.4757 43.6751 11.9656 42.7307 11.7366C41.7864 11.5077 40.7947 11.5709 39.887 11.9177C38.9792 12.2645 38.1981 12.8786 37.6469 13.6789C37.0957 14.4792 36.8004 15.4279 36.8 16.3997V18.7997C36.8 18.8557 36.8 18.9077 36.8 18.9637L28.752 20.8197L26.968 19.0357C26.8937 18.9613 26.8055 18.9023 26.7084 18.862C26.6113 18.8217 26.5072 18.801 26.402 18.801C26.2969 18.801 26.1928 18.8217 26.0957 18.862C25.9986 18.9023 25.9103 18.9613 25.836 19.0357L22.636 22.2357C22.487 22.3855 22.4034 22.5883 22.4034 22.7997C22.4034 23.011 22.487 23.2138 22.636 23.3637L23.26 23.9997L19.404 26.5237L15.92 21.6317L15.16 19.3477L15.136 19.2837C15.0946 19.1869 15.0346 19.0993 14.9593 19.0258C14.884 18.9523 14.7949 18.8944 14.6972 18.8554C14.5994 18.8164 14.495 18.797 14.3898 18.7985C14.2846 18.7999 14.1807 18.822 14.084 18.8637L8.71203 21.1677L6.43603 20.7117C5.9278 20.6094 5.3997 20.7049 4.95943 20.9786C4.51917 21.2523 4.19989 21.6836 4.06673 22.1847C3.93357 22.6857 3.99654 23.2186 4.24281 23.6748C4.48908 24.131 4.9001 24.4761 5.39203 24.6397ZM13.576 37.1477L12.888 39.1997L10.088 42.6877C10.063 42.7188 10.0313 42.7439 9.99535 42.7612C9.95936 42.7785 9.91996 42.7875 9.88003 42.7877C9.83048 42.7882 9.78184 42.7743 9.74003 42.7477C9.6798 42.7104 9.63648 42.6511 9.6193 42.5823C9.60212 42.5136 9.61243 42.4409 9.64803 42.3797L11.08 39.9797C11.1354 39.8834 11.172 39.7775 11.188 39.6677L11.908 33.9997H12.944L13.576 37.1477ZM27.668 21.9997L25.6 24.0677L24.332 22.7997L26.4 20.7317L27.668 21.9997ZM42.636 13.3717C42.0191 13.5985 41.5016 14.0351 41.1743 14.6051C40.8469 15.1751 40.7305 15.8421 40.8454 16.4893C40.9603 17.1365 41.2993 17.7226 41.8029 18.145C42.3065 18.5674 42.9427 18.7991 43.6 18.7997H44V20.9157C43.5648 21.4094 42.9879 21.7568 42.3479 21.9107C41.708 22.0646 41.0362 22.0175 40.424 21.7757L40.22 21.0557C40.1095 20.6735 39.9213 20.3182 39.6674 20.0119C39.4134 19.7057 39.0991 19.4551 38.744 19.2757L38.668 19.2397C38.588 19.1997 38.504 19.1637 38.42 19.1317C38.4074 19.0214 38.4007 18.9106 38.4 18.7997V16.3997C38.4 15.8904 38.5214 15.3885 38.7544 14.9357C38.9873 14.4829 39.3249 14.0922 39.7391 13.796C40.1534 13.4999 40.6324 13.3069 41.1362 13.2331C41.64 13.1593 42.1542 13.2068 42.636 13.3717ZM45.6 17.1997H43.6C43.2818 17.1997 42.9765 17.0732 42.7515 16.8482C42.5265 16.6231 42.4 16.3179 42.4 15.9997C42.4 15.6814 42.5265 15.3762 42.7515 15.1511C42.9765 14.9261 43.2818 14.7997 43.6 14.7997H45.6V17.1997ZM47.2 20.3997H45.6V18.7997H47.2V20.3997ZM44.052 24.7997C43.3584 24.9154 42.6892 25.1466 42.072 25.4837L41.44 25.3437L40.932 23.5717C41.7143 23.681 42.5114 23.5946 43.2521 23.3203C43.9927 23.0459 44.6538 22.5922 45.176 21.9997H48C48.2122 21.9997 48.4157 21.9154 48.5657 21.7653C48.7157 21.6153 48.8 21.4118 48.8 21.1997V20.3997C49.2334 20.4448 49.6356 20.646 49.9316 20.9658C50.2277 21.2855 50.3974 21.702 50.4091 22.1376C50.4209 22.5731 50.2739 22.9981 49.9955 23.3334C49.7171 23.6686 49.3264 23.8912 48.896 23.9597L44.052 24.7997ZM38.94 28.4437L36.22 22.3277C36.1446 22.1555 36.1077 21.9689 36.1119 21.781C36.116 21.5931 36.1611 21.4083 36.244 21.2397C36.3188 21.0901 36.4223 20.9568 36.5487 20.8474C36.675 20.7379 36.8217 20.6544 36.9803 20.6016C37.1389 20.5489 37.3064 20.5279 37.4731 20.5399C37.6399 20.5519 37.8026 20.5967 37.952 20.6717L38.028 20.7077C38.1863 20.7884 38.326 20.9013 38.4382 21.039C38.5505 21.1768 38.6328 21.3364 38.68 21.5077L40.032 26.2317C40.0718 26.37 40.1482 26.495 40.2531 26.5936C40.358 26.6921 40.4875 26.7606 40.628 26.7917L46.832 28.1717C46.9446 28.2013 47.0422 28.2715 47.1061 28.3687C47.17 28.466 47.1958 28.5834 47.1784 28.6985C47.1611 28.8135 47.1018 28.9182 47.012 28.9922C46.9223 29.0662 46.8083 29.1045 46.692 29.0997L38.94 28.4437ZM35.52 30.7997L34.656 29.9357C35.0249 29.29 35.1472 28.5325 35 27.8037L36.72 27.4037L37.668 29.5357C37.7352 29.6857 37.8469 29.8114 37.988 29.8957C37.2678 30.425 36.4118 30.7385 35.52 30.7997ZM30.088 22.1557L34.596 21.1157C34.4432 21.7367 34.5009 22.3909 34.76 22.9757L36.06 25.9037L34.248 26.3037C34.22 26.2757 34.196 26.2477 34.164 26.2197L30.088 22.1557ZM29.932 28.3997L32 26.3317L33.036 27.3637C33.3108 27.6384 33.4652 28.0111 33.4652 28.3997C33.4652 28.7882 33.3108 29.1609 33.036 29.4357C32.7613 29.7104 32.3886 29.8648 32 29.8648C31.6115 29.8648 31.2388 29.7104 30.964 29.4357L29.932 28.3997ZM28.8 27.2677L26.732 25.1997L28.8 23.1317L30.868 25.1997L28.8 27.2677ZM21.756 32.3997C21.9049 32.37 22.0422 32.2985 22.152 32.1937C22.2618 32.0889 22.3395 31.955 22.376 31.8077L23.176 28.6077L23.912 25.6677L24.476 25.1997L28.172 28.8997L22.8 35.6357L15.044 36.3397L14.8 35.0837L14.548 33.8277L21.756 32.3997ZM13.82 24.5117L15.1 23.2317L18.548 28.0637C18.6682 28.2325 18.8492 28.348 19.0528 28.3861C19.2565 28.4242 19.467 28.3817 19.64 28.2677L22 26.7277L21.632 28.2037L20.956 30.9157L18.24 31.4557L13.82 24.5117ZM5.60003 22.7077C5.59806 22.6797 5.59806 22.6516 5.60003 22.6237C5.6232 22.5098 5.69046 22.4097 5.78713 22.3453C5.8838 22.2809 6.00203 22.2573 6.11603 22.2797L8.64403 22.7997C8.8026 22.8317 8.96717 22.815 9.11603 22.7517L13.916 20.6917L14.284 21.7997L12.4 23.6757L9.64003 24.3677L5.90803 23.1237C5.81932 23.0958 5.74173 23.0405 5.68639 22.9657C5.63106 22.891 5.60082 22.8006 5.60003 22.7077Z" fill="#888888"/>
</g>
<defs>
<clipPath id="clip0_4602_58124">
<rect width="56" height="56" fill="white"/>
</clipPath>
</defs>
</svg>
