<svg width="17" height="17" viewBox="0 0 17 17" fill="none" xmlns="http://www.w3.org/2000/svg">
<g clip-path="url(#clip0_4986_20793)">
<path d="M14.6755 1.58789H2.96118C2.69597 1.58789 2.44161 1.69325 2.25407 1.88078C2.06654 2.06832 1.96118 2.32267 1.96118 2.58789V3.91018C1.96148 4.04896 1.99046 4.18619 2.04632 4.31324C2.10217 4.44029 2.18369 4.55442 2.28575 4.64846L6.87547 8.84961C6.9479 8.91687 7.0056 8.99841 7.04494 9.08909C7.08428 9.17977 7.1044 9.27762 7.10404 9.37646V14.8736C7.10418 14.9515 7.12553 15.0278 7.1658 15.0945C7.20607 15.1611 7.26374 15.2156 7.33261 15.2519C7.40108 15.2883 7.47814 15.3055 7.5556 15.3017C7.63307 15.2979 7.70806 15.2732 7.77261 15.2302L10.0903 13.6862C10.227 13.5945 10.3388 13.4705 10.416 13.3251C10.4932 13.1798 10.5332 13.0176 10.5326 12.853V9.37646C10.5322 9.27762 10.5524 9.17977 10.5917 9.08909C10.631 8.99841 10.6888 8.91687 10.7612 8.84961L15.3475 4.64732C15.4502 4.55388 15.5325 4.44011 15.5889 4.31321C15.6454 4.18631 15.6749 4.04907 15.6755 3.91018V2.58789C15.6755 2.32267 15.5701 2.06832 15.3826 1.88078C15.195 1.69325 14.9407 1.58789 14.6755 1.58789Z" fill="white"/>
</g>
<defs>
<clipPath id="clip0_4986_20793">
<rect width="16" height="16" fill="white" transform="translate(0.818359 0.445312)"/>
</clipPath>
</defs>
</svg>
