<svg width="56" height="56" viewBox="0 0 56 56" fill="none" xmlns="http://www.w3.org/2000/svg">
<g clip-path="url(#clip0_4602_58116)">
<path d="M44.4679 25.0406C44.4679 24.0286 43.9439 23.2766 42.8959 22.8006C42.7739 22.7578 42.67 22.6746 42.6017 22.5648C42.5333 22.4549 42.5045 22.325 42.5199 22.1966C42.5199 21.0326 42.5199 19.8446 42.5199 18.7006V18.5366C42.5471 18.2345 42.4536 17.934 42.2599 17.7006C42.1858 17.6323 42.0988 17.5795 42.004 17.5451C41.9093 17.5108 41.8086 17.4957 41.7079 17.5006C41.1839 17.5006 40.9079 17.8406 40.9079 18.5006C40.9079 19.7366 40.9079 20.8526 40.9079 21.9926C40.9206 22.0707 40.9175 22.1505 40.899 22.2275C40.8805 22.3044 40.8468 22.3768 40.7999 22.4406C40.6785 22.5351 40.5248 22.5781 40.3719 22.5606C39.4719 22.5366 38.5439 22.5366 37.6159 22.5606C37.365 22.5784 37.1141 22.5252 36.892 22.407C36.6699 22.2889 36.4855 22.1106 36.3599 21.8926C35.2599 20.2046 34.0679 18.4046 32.6039 16.2166C31.476 14.5366 29.1639 13.2166 26.7519 14.2926C26.7015 14.3232 26.6451 14.3429 26.5866 14.3505C26.528 14.3581 26.4686 14.3533 26.4119 14.3366C26.3608 14.3052 26.3164 14.2639 26.2814 14.2151C26.2463 14.1664 26.2214 14.1111 26.2079 14.0526C26.0401 13.5578 25.7483 13.1142 25.3604 12.7641C24.9725 12.414 24.5014 12.169 23.9919 12.0526C22.3479 11.6246 20.7519 11.2006 19.1479 10.8006C18.8668 10.7194 18.5719 10.6969 18.2816 10.7344C17.9913 10.772 17.7119 10.8688 17.4606 11.0188C17.2093 11.1688 16.9915 11.3689 16.8208 11.6066C16.65 11.8443 16.5299 12.1145 16.4679 12.4006L16.4159 12.5926C16.3399 12.8566 16.2679 13.1166 16.1839 13.3926L15.9679 14.0486C14.5573 18.3473 13.1413 22.6526 11.7199 26.9646C11.4759 27.7166 11.4679 28.3006 11.7199 28.7486C11.8766 28.9963 12.0817 29.2098 12.323 29.3762C12.5643 29.5425 12.8367 29.6583 13.1239 29.7166C14.7239 30.1886 16.3039 30.7166 17.8479 31.2286L18.6479 31.4886C18.8041 31.5142 18.9439 31.6004 19.0368 31.7285C19.1297 31.8566 19.1682 32.0162 19.1439 32.1726C19.1079 33.8366 19.0959 35.1966 19.1079 36.4526C19.1185 37.2117 18.8686 37.9514 18.3999 38.5486C16.8919 40.5486 15.3719 42.5766 13.9039 44.5486L12.7959 46.0286C12.4068 46.505 12.1463 47.0731 12.0392 47.6789C11.932 48.2846 11.9819 48.9076 12.1839 49.4886C12.3572 50.077 12.6958 50.6032 13.1596 51.0046C13.6234 51.406 14.1928 51.6656 14.7999 51.7526C15.4119 51.8833 16.0488 51.8318 16.6318 51.6043C17.2148 51.3767 17.7183 50.9833 18.0799 50.4726C19.0039 49.2726 19.9279 48.0286 20.8239 46.8326C21.8879 45.4166 22.9839 43.9526 24.0839 42.5246C24.9439 41.4046 25.6839 40.3686 25.7799 39.0006C25.7835 38.9745 25.795 38.9501 25.8129 38.9308C25.8308 38.9114 25.8542 38.8981 25.8799 38.8926L26.0079 38.8366L26.0599 38.9006L26.5719 39.5046C26.9719 39.9766 27.372 40.4646 27.792 40.9326C28.3063 41.5017 28.5764 42.2502 28.5439 43.0166C28.5439 43.7726 28.5439 44.5286 28.5439 45.2846C28.5439 46.3126 28.5439 47.3406 28.5079 48.3686C28.4874 48.7847 28.5654 49.1998 28.7357 49.58C28.906 49.9603 29.1638 50.2949 29.4879 50.5566C29.9826 50.9674 30.5555 51.2736 31.1719 51.4566C31.8663 51.6905 32.6226 51.6594 33.2953 51.3692C33.9681 51.079 34.5097 50.5502 34.8159 49.8846C35.0858 49.3068 35.2173 48.6741 35.1999 48.0366C35.1999 45.2366 35.1999 42.3646 35.1999 39.5286C35.2159 38.9323 35.1138 38.3388 34.8996 37.7821C34.6854 37.2254 34.3634 36.7165 33.9519 36.2846C33.3279 35.6166 32.7159 34.9406 32.0999 34.2846C31.4119 33.5286 30.6999 32.7446 29.9879 31.9886C29.4547 31.4764 29.09 30.814 28.9421 30.0896C28.7942 29.3651 28.8702 28.6128 29.1599 27.9326C29.3719 27.3486 29.5599 26.7646 29.7839 26.1446C29.8839 25.8526 29.9879 25.5606 30.0919 25.2566L30.1679 25.0366L30.2879 25.2326C31.3319 26.9406 32.8799 27.6846 35.1719 27.6046C36.0999 27.5686 37.0439 27.5726 37.9719 27.5806C38.6999 27.5806 39.4559 27.5806 40.1999 27.5806H40.2559C40.4389 27.5594 40.6229 27.6111 40.7679 27.7246C40.8964 27.8934 40.9525 28.1064 40.9239 28.3166C40.9239 34.4726 40.9239 40.7366 40.9239 46.7886V50.6246C40.9239 51.7566 41.3239 51.9086 41.7239 51.9086C41.8185 51.9143 41.9133 51.9009 42.0026 51.8693C42.0919 51.8377 42.174 51.7885 42.2439 51.7246C42.4765 51.4108 42.5822 51.0209 42.5399 50.6326V28.0006C42.5157 27.8562 42.5423 27.7079 42.6153 27.5809C42.6882 27.454 42.803 27.3563 42.9399 27.3046C43.3924 27.124 43.78 26.8116 44.0525 26.4078C44.325 26.0041 44.4697 25.5277 44.4679 25.0406ZM17.2319 15.4126C17.4559 14.7086 17.7519 13.7846 18.0319 12.8446C18.0451 12.7568 18.0779 12.673 18.1278 12.5995C18.1777 12.5261 18.2436 12.4648 18.3204 12.4203C18.3972 12.3757 18.4831 12.349 18.5716 12.3421C18.6602 12.3353 18.7492 12.3484 18.8319 12.3806L20.1759 12.7366C21.2999 13.0326 22.4639 13.3406 23.5999 13.6606C24.4839 13.9126 24.7999 14.4606 24.7479 15.4926C24.7483 15.9389 24.6281 16.377 24.3999 16.7606C24.275 17.0006 24.1745 17.2525 24.0999 17.5126C24.0939 17.5535 24.0789 17.5926 24.0561 17.6272C24.0333 17.6617 24.0032 17.6909 23.9679 17.7126C23.926 17.7344 23.8792 17.7454 23.8319 17.7446C23.7627 17.7411 23.6942 17.729 23.6279 17.7086L22.3039 17.3086C20.7039 16.8473 19.1039 16.3899 17.5039 15.9366C17.4471 15.9285 17.3927 15.9082 17.3443 15.8771C17.296 15.846 17.255 15.8049 17.2239 15.7566C17.1816 15.6453 17.1845 15.5218 17.2319 15.4126ZM19.1039 29.8966C18.8822 29.883 18.6644 29.8316 18.4599 29.7446C16.907 29.1521 15.3234 28.6434 13.7159 28.2206C13.6197 28.218 13.526 28.1899 13.4442 28.1392C13.3624 28.0884 13.2955 28.017 13.2504 27.932C13.2052 27.847 13.1834 27.7515 13.1872 27.6554C13.191 27.5592 13.2203 27.4658 13.2719 27.3846C13.9599 25.3526 14.6439 23.2766 15.3039 21.2726C15.6679 20.1646 16.0319 19.0606 16.3999 17.9526C16.3999 17.9166 16.3999 17.8726 16.4319 17.8286C16.4559 17.6846 16.4999 17.4686 16.7319 17.4286H16.7559L17.2919 17.5886L18.1919 17.8566L19.2559 18.1606C20.4559 18.5086 21.6559 18.8606 22.8919 19.1926C23.0679 19.2446 23.2199 19.2926 23.2919 19.4246C23.317 19.494 23.3274 19.5679 23.3226 19.6415C23.3178 19.7152 23.2978 19.787 23.2639 19.8526C22.7119 21.3539 22.1653 22.8553 21.6239 24.3566C21.0613 25.9166 20.4946 27.4753 19.9239 29.0326C19.7719 29.4326 19.6319 29.7206 19.3999 29.8326C19.3078 29.8773 19.2063 29.8992 19.1039 29.8966ZM24.3039 38.1366C24.06 39.4162 23.5112 40.6182 22.7039 41.6406C21.2159 43.5446 19.7519 45.5166 18.3319 47.4246C17.8893 48.0273 17.4426 48.6286 16.9919 49.2286C16.8248 49.5032 16.5939 49.7335 16.3189 49.8999C16.0439 50.0663 15.7328 50.1639 15.4119 50.1846C15.2609 50.1847 15.1104 50.1659 14.9639 50.1286C14.6752 50.0633 14.4074 49.9271 14.1846 49.7322C13.9618 49.5374 13.7911 49.29 13.6879 49.0126C13.5809 48.6867 13.5553 48.3395 13.6131 48.0014C13.671 47.6632 13.8106 47.3444 14.0199 47.0726C14.7999 46.0006 15.5999 44.9486 16.3639 43.9166L17.3479 42.6126L17.9999 41.7446L19.7479 39.4166C20.3805 38.6227 20.7133 37.6314 20.6879 36.6166C20.6879 35.8166 20.6879 34.9686 20.6879 34.1646V33.0046L20.9919 32.9366L21.0359 32.9846L21.8359 33.9566C22.4759 34.7206 23.1359 35.5086 23.8359 36.2486C24.0798 36.49 24.2527 36.7937 24.3359 37.1266C24.4191 37.4595 24.4095 37.8088 24.3079 38.1366H24.3039ZM30.2759 34.6806C31.0759 35.5606 31.9119 36.4726 32.7399 37.3606C33.0108 37.6397 33.2238 37.9697 33.3666 38.3314C33.5094 38.6932 33.5792 39.0797 33.5719 39.4686C33.5719 41.1513 33.5719 42.8353 33.5719 44.5206C33.5719 45.6686 33.5719 46.8206 33.5719 47.9686C33.5757 48.2022 33.5543 48.4356 33.5079 48.6646C33.4727 48.9028 33.3847 49.1302 33.2505 49.3302C33.1162 49.5302 32.9391 49.6977 32.7319 49.8206C32.5386 49.9187 32.3247 49.9694 32.1079 49.9686C31.8408 49.9638 31.5771 49.9068 31.3319 49.8006C30.3119 49.3766 30.1319 49.0886 30.1319 47.9686C30.1319 47.3646 30.1319 46.7686 30.1319 46.1566C30.1319 45.1446 30.1319 44.1006 30.1319 43.0726C30.166 41.8684 29.7365 40.6972 28.9319 39.8006C27.1919 37.7726 25.4319 35.7006 23.7319 33.6966L21.0919 30.5806H21.3039C23.6039 30.3966 25.3999 29.8766 26.9519 28.9326L27.0199 28.8926L27.0799 28.9446C27.139 28.9954 27.1829 29.0614 27.2069 29.1355C27.2309 29.2096 27.234 29.2888 27.2159 29.3646C27.2142 29.3939 27.2142 29.4233 27.2159 29.4526C27.2511 30.7519 27.7621 31.9932 28.6519 32.9406L30.2759 34.6806ZM42.1319 25.8806C41.9196 25.9578 41.6933 25.9892 41.4679 25.9726H41.3679C39.0599 25.9726 36.7479 25.9726 34.4399 25.9726C33.8835 25.9874 33.3337 25.8485 32.851 25.5712C32.3683 25.2938 31.9714 24.8888 31.7039 24.4006C31.2119 23.5806 30.6999 22.7486 30.2079 21.9486C29.8639 21.3926 29.5199 20.8406 29.1839 20.2806C29.1011 20.0934 28.9537 19.9423 28.7686 19.8549C28.5835 19.7675 28.3731 19.7496 28.1759 19.8046C28.0639 19.8305 27.9596 19.8828 27.8719 19.9573C27.7842 20.0318 27.7157 20.1262 27.6719 20.2326C27.6203 20.366 27.6007 20.5097 27.6146 20.6521C27.6284 20.7945 27.6755 20.9317 27.7519 21.0526C28.0839 21.6126 28.4399 22.1726 28.7839 22.7086L28.8519 22.8166C28.9226 22.9201 28.9693 23.0381 28.9887 23.162C29.0081 23.2858 28.9996 23.4124 28.9639 23.5326C28.42 25.8766 26.9639 27.4406 24.4959 28.3086C23.6495 28.607 22.7696 28.8005 21.8759 28.8846H21.6999L25.1439 19.4166L25.3719 18.7766C25.5159 18.3766 25.6719 17.9326 25.8319 17.5166C25.9751 17.0577 26.2329 16.6429 26.5812 16.3115C26.9294 15.9801 27.3565 15.7431 27.822 15.623C28.2874 15.5028 28.7758 15.5034 29.241 15.6248C29.7061 15.7462 30.1326 15.9843 30.4799 16.3166C30.8592 16.6412 31.1869 17.0216 31.4519 17.4446L32.5439 19.0926C33.3439 20.2926 34.1839 21.5526 34.9839 22.7966C35.241 23.2476 35.6194 23.6175 36.0762 23.8643C36.533 24.1111 37.0498 24.2248 37.5679 24.1926C38.5119 24.1926 39.476 24.1926 40.4039 24.1926C40.8279 24.1926 41.2479 24.1926 41.6719 24.1926C41.7768 24.1787 41.8831 24.1787 41.9879 24.1926C42.5319 24.3286 42.8159 24.5926 42.8439 24.9926C42.8759 25.4966 42.4559 25.7326 42.1319 25.8646V25.8806Z" fill="#888888"/>
<path d="M32.7719 4.10752H32.7479C31.8213 4.11545 30.9176 4.39691 30.1504 4.91657C29.3831 5.43623 28.7864 6.17093 28.4352 7.02848C28.084 7.88603 27.9939 8.82821 28.1762 9.73679C28.3585 10.6454 28.8051 11.4798 29.4599 12.1355C29.8914 12.5674 30.404 12.9096 30.9684 13.1423C31.5327 13.375 32.1375 13.4937 32.7479 13.4915C33.9692 13.4559 35.1284 12.9457 35.9796 12.0693C36.8308 11.1929 37.3069 10.0192 37.3069 8.79752C37.3069 7.57579 36.8308 6.40216 35.9796 5.52575C35.1284 4.64935 33.9692 4.13917 32.7479 4.10352L32.7719 4.10752ZM34.9639 10.9515C34.6779 11.2432 34.3369 11.4753 33.9607 11.6346C33.5845 11.7939 33.1805 11.8771 32.7719 11.8795C31.9567 11.8753 31.1762 11.5493 30.6001 10.9725C30.0241 10.3957 29.6991 9.61472 29.6959 8.79952C29.7023 7.98155 30.0325 7.19943 30.6143 6.6244C31.196 6.04938 31.982 5.72832 32.7999 5.73152C33.6057 5.75194 34.3726 6.08222 34.941 6.65365C35.5095 7.22508 35.8357 7.99366 35.8519 8.79952C35.8532 9.19907 35.7754 9.59492 35.623 9.96427C35.4706 10.3336 35.2466 10.6691 34.9639 10.9515Z" fill="#888888"/>
</g>
<defs>
<clipPath id="clip0_4602_58116">
<rect width="56" height="56" fill="white"/>
</clipPath>
</defs>
</svg>
