<svg width="25" height="25" viewBox="0 0 25 25" fill="none" xmlns="http://www.w3.org/2000/svg">
<path d="M12.3463 2.00563C10.3119 2.00181 8.32216 2.60132 6.62857 3.72836C4.93497 4.85539 3.61362 6.45932 2.83159 8.33733C2.04956 10.2153 1.84199 12.2831 2.23512 14.279C2.62826 16.275 3.60444 18.1096 5.04022 19.5508C6.476 20.9919 8.3069 21.975 10.3014 22.3756C12.2959 22.7762 14.3644 22.5764 16.2453 21.8015C18.1262 21.0265 19.7351 19.7111 20.8685 18.0218C22.0019 16.3324 22.6088 14.3449 22.6126 12.3106C22.615 9.58352 21.5354 6.96686 19.6107 5.03489C17.6859 3.10292 15.0733 2.01347 12.3463 2.00563Z" fill="#DD4F42"/>
<path d="M13.1941 7.1504C13.1938 7.31992 13.1432 7.48555 13.0488 7.62633C12.9543 7.76711 12.8202 7.87672 12.6635 7.9413C12.5068 8.00588 12.3344 8.02253 12.1682 7.98915C12.002 7.95576 11.8494 7.87384 11.7298 7.75374C11.6101 7.63364 11.5288 7.48076 11.496 7.31443C11.4632 7.1481 11.4805 6.97579 11.5457 6.81929C11.6109 6.66279 11.721 6.52913 11.8621 6.43521C12.0032 6.34129 12.1691 6.29133 12.3386 6.29165C12.5659 6.29207 12.7838 6.38279 12.9442 6.54384C13.1047 6.70488 13.1945 6.92307 13.1941 7.1504Z" fill="#FAFAFA"/>
<path d="M14.2441 18.2951L10.387 18.2879C10.1596 18.2874 9.94178 18.1967 9.78134 18.0357C9.62089 17.8746 9.531 17.6564 9.53142 17.4291C9.53185 17.2018 9.62257 16.9839 9.78361 16.8235C9.94466 16.6631 10.1628 16.5732 10.3902 16.5736L11.4616 16.5756L11.4712 11.4327L10.8284 11.4315C10.6011 11.4311 10.3832 11.3404 10.2228 11.1794C10.0623 11.0183 9.97243 10.8001 9.97286 10.5728C9.97329 10.3455 10.064 10.1276 10.225 9.96717C10.3861 9.80673 10.6043 9.71683 10.8316 9.71726L12.3316 9.72007C12.5589 9.7205 12.7768 9.81121 12.9372 9.97226C13.0977 10.1333 13.1876 10.3515 13.1871 10.5788L13.1759 16.5788L14.2473 16.5808C14.4746 16.5812 14.6925 16.672 14.8529 16.833C15.0134 16.9941 15.1033 17.2122 15.1028 17.4396C15.1024 17.6669 15.0117 17.8847 14.8507 18.0452C14.6896 18.2056 14.4714 18.2955 14.2441 18.2951Z" fill="#FAFAFA"/>
</svg>
