<svg width="16" height="16" viewBox="0 0 16 16" fill="none" xmlns="http://www.w3.org/2000/svg">
<g clip-path="url(#clip0_1962_39541)">
<path d="M5.19925 4.60658C5.08528 4.60658 4.97598 4.5613 4.89539 4.48072C4.8148 4.40013 4.76953 4.29083 4.76953 4.17686V1.57229C4.76953 1.45833 4.8148 1.34903 4.89539 1.26844C4.97598 1.18785 5.08528 1.14258 5.19925 1.14258C5.31321 1.14258 5.42251 1.18785 5.5031 1.26844C5.58369 1.34903 5.62896 1.45833 5.62896 1.57229V4.17686C5.62866 4.29074 5.58329 4.39986 5.50277 4.48038C5.42224 4.56091 5.31312 4.60628 5.19925 4.60658Z" fill="#0D4C3F"/>
<path d="M10.8008 4.60658C10.6869 4.60628 10.5778 4.56091 10.4973 4.48038C10.4168 4.39986 10.3714 4.29074 10.3711 4.17686V1.57229C10.3711 1.45833 10.4164 1.34903 10.497 1.26844C10.5775 1.18785 10.6868 1.14258 10.8008 1.14258C10.9148 1.14258 11.0241 1.18785 11.1047 1.26844C11.1852 1.34903 11.2305 1.45833 11.2305 1.57229V4.17686C11.2305 4.29083 11.1852 4.40013 11.1047 4.48072C11.0241 4.5613 10.9148 4.60658 10.8008 4.60658Z" fill="#0D4C3F"/>
<path d="M1.79492 7.10059V13.0286C1.79492 13.5136 1.98757 13.9787 2.3305 14.3216C2.67342 14.6645 3.13853 14.8572 3.62349 14.8572H12.3709C12.8559 14.8572 13.321 14.6645 13.6639 14.3216C14.0068 13.9787 14.1995 13.5136 14.1995 13.0286V7.10059H1.79492Z" fill="#0D4C3F"/>
<path d="M14.2068 6.24074V4.27617C14.2068 3.7912 14.0142 3.3261 13.6713 2.98317C13.3283 2.64025 12.8632 2.4476 12.3783 2.4476H12.0937V4.17674C12.0937 4.34588 12.0604 4.51337 11.9956 4.66964C11.9309 4.8259 11.836 4.96789 11.7164 5.08749C11.5968 5.2071 11.4548 5.30197 11.2986 5.3667C11.1423 5.43143 10.9748 5.46474 10.8057 5.46474C10.6365 5.46474 10.4691 5.43143 10.3128 5.3667C10.1565 5.30197 10.0145 5.2071 9.89493 5.08749C9.77533 4.96789 9.68046 4.8259 9.61573 4.66964C9.551 4.51337 9.51768 4.34588 9.51768 4.17674V2.44531H6.48797V4.17674C6.48797 4.51834 6.35227 4.84595 6.11072 5.08749C5.86918 5.32904 5.54157 5.46474 5.19997 5.46474C4.85837 5.46474 4.53076 5.32904 4.28922 5.08749C4.04767 4.84595 3.91197 4.51834 3.91197 4.17674V2.44531H3.6274C3.14243 2.44531 2.67733 2.63797 2.3344 2.98089C1.99148 3.32381 1.79883 3.78892 1.79883 4.27388V6.24074H14.2068Z" fill="#0D4C3F"/>
</g>
<defs>
<clipPath id="clip0_1962_39541">
<rect width="16" height="16" fill="white"/>
</clipPath>
</defs>
</svg>
