<svg width="24" height="25" viewBox="0 0 24 25" fill="none" xmlns="http://www.w3.org/2000/svg">
<path d="M22.0269 19.8355L17.088 14.684C16.7332 14.3135 16.2909 14.1646 16.0989 14.3551C15.9069 14.5455 15.4629 14.3949 15.1098 14.0244L15.0378 13.95C16.1692 12.4321 16.6851 10.5358 16.4803 8.64727C16.2755 6.75874 15.3654 5.02009 13.9353 3.78549C12.5053 2.5509 10.663 1.91322 8.78359 2.00237C6.90421 2.09152 5.12917 2.90078 3.82007 4.26531C2.51096 5.62984 1.76626 7.44698 1.73767 9.34658C1.70908 11.2462 2.39874 13.0853 3.66617 14.4894C4.9336 15.8935 6.68346 16.7568 8.55929 16.9036C10.4351 17.0504 12.2958 16.4696 13.7623 15.2794L13.7932 15.3123C14.1463 15.681 14.2783 16.1328 14.0863 16.3215C13.8943 16.5102 14.0246 16.962 14.3795 17.3307L19.3149 22.4857C19.3992 22.5736 19.4998 22.6438 19.611 22.6924C19.7222 22.7411 19.8418 22.7671 19.9629 22.769C20.0841 22.7709 20.2044 22.7487 20.3171 22.7037C20.4297 22.6586 20.5325 22.5916 20.6195 22.5064L22.0046 21.1528C22.1802 20.9809 22.2812 20.7457 22.2854 20.4988C22.2895 20.2519 22.1966 20.0133 22.0269 19.8355ZM12.7492 13.0845C12.0341 13.8068 11.1229 14.2987 10.1309 14.4981C9.13889 14.6974 8.11062 14.5953 7.17613 14.2045C6.24163 13.8137 5.44289 13.1519 4.88093 12.3027C4.31896 11.4535 4.01901 10.4551 4.01901 9.43377C4.01901 8.41243 4.31896 7.41404 4.88093 6.56485C5.44289 5.71566 6.24163 5.05383 7.17613 4.66305C8.11062 4.27227 9.13889 4.17009 10.1309 4.36945C11.1229 4.56881 12.0341 5.06075 12.7492 5.78304C13.7045 6.75176 14.2409 8.06319 14.2409 9.4303C14.2409 10.7974 13.7045 12.1089 12.7492 13.0776V13.0845Z" fill="white"/>
</svg>
