<svg width="32" height="32" viewBox="0 0 32 32" fill="none" xmlns="http://www.w3.org/2000/svg">
<g clip-path="url(#clip0_4274_52146)">
<path d="M26.4433 29.2572V26.8183H27.529C28.1083 26.8177 28.6638 26.5873 29.0734 26.1776C29.4831 25.768 29.7135 25.2125 29.7141 24.6332V14.2286C29.7135 13.6492 29.4831 13.0938 29.0734 12.6841C28.6638 12.2745 28.1083 12.0441 27.529 12.0435H20.0181C19.9904 12.3587 19.9462 12.6723 19.8856 12.9829H27.5336C27.8638 12.9835 28.1803 13.1149 28.4137 13.3484C28.6472 13.5819 28.7787 13.8984 28.7793 14.2286V24.6332C28.7787 24.9634 28.6472 25.2799 28.4137 25.5134C28.1803 25.7468 27.8638 25.8783 27.5336 25.8789H25.977C25.8543 25.8819 25.7377 25.9329 25.6522 26.0209C25.5667 26.109 25.5192 26.227 25.5198 26.3497V28.2537L22.7633 26C22.633 25.8789 22.5187 25.8789 22.2421 25.8789H14.6558C14.3256 25.8783 14.0091 25.7468 13.7757 25.5134C13.5422 25.2799 13.4107 24.9634 13.4101 24.6332V19.8126C13.1009 19.8949 12.7872 19.9597 12.4707 20.0069V24.6332C12.4713 25.2125 12.7017 25.768 13.1114 26.1776C13.521 26.5873 14.0765 26.8177 14.6558 26.8183H22.265L25.6753 29.6092C25.7445 29.6646 25.8279 29.6995 25.9159 29.71C26.004 29.7205 26.0932 29.7061 26.1736 29.6686C26.2531 29.6329 26.3207 29.5751 26.3685 29.5023C26.4163 29.4294 26.4422 29.3443 26.4433 29.2572Z" fill="#0D4C3F"/>
<path d="M24.3475 22.8707C24.3711 22.8147 24.3833 22.7544 24.3833 22.6936C24.3833 22.6328 24.3711 22.5725 24.3475 22.5165L23.6755 20.9873L23.7624 20.9393C23.8584 20.8935 23.9354 20.8156 23.9802 20.719C24.0249 20.6225 24.0346 20.5134 24.0075 20.4105C23.9804 20.3076 23.9183 20.2173 23.8318 20.1553C23.7454 20.0933 23.64 20.0634 23.5338 20.0707H23.2664L21.5178 16.0845C21.4822 16.0015 21.4228 15.931 21.3471 15.8818C21.2715 15.8326 21.1829 15.8069 21.0927 15.8079C21.0024 15.8069 20.9139 15.8326 20.8382 15.8818C20.7626 15.931 20.7032 16.0015 20.6675 16.0845L18.919 20.0707H18.6538C18.5477 20.0634 18.4423 20.0933 18.3558 20.1553C18.2694 20.2173 18.2072 20.3076 18.1802 20.4105C18.1531 20.5134 18.1627 20.6225 18.2075 20.719C18.2522 20.8156 18.3292 20.8935 18.4253 20.9393L18.5121 20.9873L17.8424 22.5165C17.8168 22.5715 17.8025 22.631 17.8001 22.6916C17.7978 22.7522 17.8076 22.8127 17.8288 22.8695C17.8501 22.9263 17.8825 22.9783 17.9241 23.0224C17.9656 23.0666 18.0156 23.1021 18.071 23.1267C18.1261 23.1527 18.1858 23.1673 18.2467 23.1698C18.3075 23.1723 18.3683 23.1627 18.4254 23.1414C18.4824 23.1201 18.5347 23.0876 18.579 23.0458C18.6233 23.0041 18.6589 22.9539 18.6835 22.8982L19.511 21.0079H22.6607L23.4904 22.8982C23.5434 23.0072 23.6363 23.0917 23.7499 23.1343C23.8635 23.1768 23.989 23.1741 24.1007 23.1267C24.1568 23.1027 24.2076 23.0677 24.25 23.0237C24.2924 22.9798 24.3256 22.9277 24.3475 22.8707ZM19.9338 20.0707L21.0927 17.4262L22.2538 20.0707H19.9338Z" fill="#0D4C3F"/>
<path d="M14.2514 15.0422C14.6541 14.6393 14.8803 14.0929 14.8803 13.5233C14.8803 12.9537 14.6541 12.4074 14.2514 12.0045C14.2102 11.9656 14.1714 11.9267 14.1302 11.8925L14.0868 11.8536C13.829 11.6409 13.5457 11.4612 13.2434 11.3187H13.2251V11.2913C13.2251 11.225 13.2251 11.1587 13.2251 11.0902V10.4936C13.2251 10.3724 13.1769 10.2561 13.0912 10.1704C13.0055 10.0846 12.8892 10.0365 12.7679 10.0365C12.6467 10.0365 12.5304 10.0846 12.4447 10.1704C12.359 10.2561 12.3108 10.3724 12.3108 10.4936V11.0193H12.2765C11.9558 10.9641 11.6295 10.9488 11.3051 10.9736H11.2754V9.48789H13.7485C13.8698 9.48789 13.986 9.43972 14.0718 9.35399C14.1575 9.26826 14.2057 9.15199 14.2057 9.03074C14.2057 8.9095 14.1575 8.79323 14.0718 8.7075C13.986 8.62177 13.8698 8.5736 13.7485 8.5736H11.2754V7.07189C11.2754 6.95065 11.2272 6.83437 11.1415 6.74864C11.0557 6.66291 10.9395 6.61475 10.8182 6.61475C10.697 6.61475 10.5807 6.66291 10.495 6.74864C10.4093 6.83437 10.3611 6.95065 10.3611 7.07189V8.56674H8.37023C8.24899 8.56674 8.13271 8.61491 8.04698 8.70064C7.96125 8.78637 7.91309 8.90265 7.91309 9.02389C7.91309 9.14513 7.96125 9.26141 8.04698 9.34714C8.13271 9.43287 8.24899 9.48103 8.37023 9.48103H10.3542V11.1542H10.3359C9.98146 11.2758 9.64653 11.4482 9.34166 11.6662C9.13847 11.8112 8.96586 11.9949 8.83371 12.2066C8.70155 12.4184 8.61244 12.6542 8.57147 12.9004C8.5305 13.1467 8.53847 13.3986 8.59493 13.6418C8.65139 13.8849 8.75523 14.1146 8.90051 14.3176C8.91961 14.3461 8.94021 14.3736 8.96223 14.3999C9.13007 14.6072 9.33946 14.7771 9.57692 14.8986C9.81438 15.0201 10.0747 15.0906 10.341 15.1054C10.6073 15.1203 10.8738 15.0792 11.1233 14.9849C11.3728 14.8905 11.5998 14.745 11.7897 14.5576C12.4154 13.9351 12.8609 13.1547 13.0788 12.2993V12.2627L13.1131 12.281C13.2569 12.3686 13.3937 12.4672 13.5222 12.5759C13.7693 12.7882 13.9221 13.0899 13.9469 13.4147C13.9718 13.7396 13.8667 14.061 13.6548 14.3085L13.5908 14.377C13.5044 14.4634 13.4559 14.5806 13.4559 14.7027C13.4559 14.8249 13.5044 14.9421 13.5908 15.0285C13.6772 15.1148 13.7944 15.1634 13.9165 15.1634C14.0387 15.1634 14.1558 15.1148 14.2422 15.0285L14.2514 15.0422ZM10.3542 14.201H10.3222C10.1968 14.1864 10.0756 14.1471 9.96535 14.0856C9.85513 14.024 9.75815 13.9413 9.67994 13.8422L9.64337 13.7965C9.4978 13.5924 9.43587 13.3404 9.4703 13.0922C9.50473 12.8439 9.63291 12.6183 9.82852 12.4616C9.84202 12.4497 9.85655 12.439 9.87194 12.4296C10.0096 12.3301 10.1556 12.2429 10.3085 12.169L10.3497 12.1507L10.3542 14.201ZM12.2148 11.9679C12.0677 12.6147 11.7622 13.2147 11.3257 13.7142H11.2845V11.8856H11.3097C11.6073 11.8555 11.9078 11.8701 12.2011 11.929H12.2285L12.2148 11.9679Z" fill="#0D4C3F"/>
<path d="M11.1724 2.28564C9.61341 2.28521 8.08172 2.69513 6.7313 3.47422C6.38014 3.69908 6.04065 3.94168 5.71416 4.20107L5.65016 4.25136C5.54959 4.33136 5.45587 4.41136 5.36445 4.47993L5.25702 4.59422C3.94959 5.75536 3.48787 6.72222 3.48787 6.72222C2.86041 7.81142 2.4709 9.02124 2.34502 10.2719V10.3542C2.33435 10.4731 2.32521 10.5919 2.31759 10.7108C2.31759 10.8159 2.31759 10.9234 2.30616 11.0285C2.30616 11.0834 2.30616 11.1359 2.30616 11.1908V11.2159C2.30382 12.971 2.82336 14.6871 3.79873 16.1462L2.92102 18.0754C2.87659 18.174 2.86096 18.2832 2.87594 18.3904C2.89092 18.4975 2.9359 18.5983 3.00568 18.681C3.07547 18.7637 3.16721 18.8249 3.27033 18.8577C3.37344 18.8905 3.48372 18.8934 3.58845 18.8662L5.78959 18.2856C7.33347 19.4715 9.22572 20.1143 11.1724 20.1142C11.9629 20.112 12.7498 20.0067 13.513 19.8011C14.2034 19.5988 14.8659 19.3117 15.4856 18.9462C16.2692 18.5073 16.982 17.9525 17.5999 17.3005C17.8164 17.0705 18.0209 16.8294 18.2124 16.5782L18.3359 16.4182C18.377 16.3634 18.4159 16.3062 18.4547 16.2491C18.5256 16.1485 18.5942 16.0456 18.6627 15.9405L18.745 15.8125C18.9391 15.4973 19.1138 15.1706 19.2684 14.8342L19.3073 14.7451C19.3713 14.5927 19.433 14.4403 19.4924 14.2879L19.5222 14.2056C19.6576 13.838 19.7706 13.4624 19.8604 13.0811L19.8467 13.1016C19.8457 13.0948 19.8457 13.0879 19.8467 13.0811C19.9268 12.7041 19.9826 12.3224 20.0136 11.9382C20.0136 11.8079 20.0342 11.6799 20.0387 11.5519V11.5336C20.0387 11.4194 20.0387 11.3051 20.0387 11.1931V11.1702C20.0357 8.81797 19.1012 6.56266 17.4396 4.89766C15.7781 3.23265 13.5247 2.2935 11.1724 2.28564ZM11.1724 19.1428H11.1473C11.0284 19.1428 10.9187 19.1428 10.7907 19.1428H10.6856C10.5896 19.1428 10.4913 19.1314 10.3953 19.1222H10.3222C10.201 19.1222 10.0936 19.0948 9.98387 19.0788H9.94273C8.78809 18.904 7.68747 18.472 6.72216 17.8148C6.69473 17.7988 6.66959 17.7782 6.64216 17.7599L6.56445 17.7051L6.43645 17.6136L6.25359 17.4719L6.1713 17.3714C6.12766 17.3363 6.07605 17.3125 6.02103 17.3022C5.96601 17.2918 5.90929 17.2951 5.85587 17.3119L4.0273 17.7874L4.75187 16.1874C4.7776 16.132 4.78799 16.0708 4.78196 16.0101C4.77593 15.9494 4.7537 15.8914 4.71759 15.8422L4.6993 15.8148C4.58045 15.6502 4.47073 15.4879 4.37473 15.3325L4.3633 15.3119C4.27416 15.1656 4.18502 15.0079 4.0913 14.8296C4.07302 14.7908 4.05245 14.7519 4.03416 14.7154C3.9473 14.5439 3.87645 14.3885 3.80559 14.2354L3.78959 14.1714L3.77587 14.1302C3.72102 13.9954 3.67073 13.8605 3.62502 13.7211L3.60902 13.6776L3.57473 13.5794C3.52445 13.4216 3.47873 13.2571 3.43759 13.0902L3.4033 12.9394C3.36902 12.7908 3.3393 12.6422 3.31416 12.4822L3.29816 12.3885C3.27073 12.2216 3.25016 12.0479 3.23416 11.8514L3.22273 11.7142C3.19987 11.5176 3.19987 11.3394 3.19987 11.1725C3.19987 11.0056 3.19987 10.8502 3.21587 10.6902V10.5668C3.21587 10.4411 3.23873 10.3154 3.25245 10.1896L3.26616 10.0799C3.31153 9.75405 3.37641 9.43118 3.46045 9.11307V9.08107C3.50159 8.92869 3.54502 8.78469 3.59073 8.64907L3.62045 8.5645C3.66921 8.42584 3.72178 8.28641 3.77816 8.14622L3.79187 8.10964C3.85587 7.96107 3.92216 7.81479 3.99302 7.67079L4.04102 7.57479C4.09587 7.46507 4.1553 7.34622 4.21473 7.25022C4.9353 5.98575 5.98715 4.9418 7.25702 4.23079C7.36368 4.17136 7.47111 4.11422 7.5793 4.05936L7.6753 4.00907C7.8193 3.9405 7.9633 3.87422 8.10959 3.81479L8.1713 3.78964C8.2993 3.73707 8.43187 3.68679 8.56445 3.64107L8.66045 3.60907C8.79759 3.56336 8.93702 3.51993 9.08102 3.48107H9.11759C9.28216 3.43764 9.44902 3.39879 9.61359 3.36679C9.77816 3.33479 9.92673 3.30964 10.0707 3.28907L10.185 3.27307C10.3084 3.25936 10.4319 3.24564 10.5576 3.2365H10.6833C10.841 3.2365 11.001 3.2205 11.1633 3.2205C13.2638 3.22634 15.2777 4.05803 16.7702 5.536C18.2627 7.01396 19.114 9.01963 19.1404 11.1199V11.1725C19.138 13.2852 18.2978 15.3107 16.8041 16.8049C15.3104 18.299 13.2852 19.1398 11.1724 19.1428Z" fill="#0D4C3F"/>
</g>
<defs>
<clipPath id="clip0_4274_52146">
<rect width="32" height="32" fill="white"/>
</clipPath>
</defs>
</svg>
