<svg width="24" height="24" viewBox="0 0 24 24" fill="none" xmlns="http://www.w3.org/2000/svg">
<path d="M22.0264 19.411L17.0875 14.3093C16.7327 13.9425 16.2904 13.795 16.0984 13.9836C15.9064 14.1722 15.4624 14.023 15.1093 13.6562L15.0373 13.5825C16.1688 12.0793 16.6846 10.2013 16.4798 8.33099C16.275 6.46072 15.3649 4.73888 13.9348 3.51622C12.5048 2.29356 10.6625 1.66205 8.7831 1.75034C6.90372 1.83862 5.12869 2.64006 3.81958 3.9914C2.51047 5.34273 1.76578 7.14231 1.73718 9.02354C1.70859 10.9048 2.39825 12.7262 3.66568 14.1166C4.93311 15.5071 6.68297 16.3622 8.55879 16.5075C10.4346 16.6529 12.2953 16.0777 13.7618 14.899L13.7927 14.9316C14.1458 15.2967 14.2778 15.7442 14.0858 15.931C13.8938 16.1179 14.0241 16.5653 14.379 16.9305L19.3144 22.0356C19.3987 22.1226 19.4993 22.1922 19.6105 22.2404C19.7217 22.2885 19.8413 22.3143 19.9624 22.3162C20.0836 22.3181 20.2039 22.2961 20.3166 22.2515C20.4292 22.2069 20.532 22.1405 20.619 22.0562L22.0041 20.7156C22.1797 20.5454 22.2807 20.3125 22.2849 20.0679C22.289 19.8234 22.1961 19.5872 22.0264 19.411ZM12.7487 12.7253C12.0336 13.4406 11.1224 13.9278 10.1304 14.1252C9.1384 14.3227 8.11013 14.2215 7.17564 13.8345C6.24114 13.4475 5.4424 12.792 4.88044 11.9511C4.31847 11.1101 4.01852 10.1213 4.01852 9.10988C4.01852 8.09842 4.31847 7.10968 4.88044 6.26871C5.4424 5.42773 6.24114 4.77229 7.17564 4.38529C8.11013 3.99829 9.1384 3.8971 10.1304 4.09453C11.1224 4.29197 12.0336 4.77914 12.7487 5.49445C13.704 6.4538 14.2404 7.75256 14.2404 9.10645C14.2404 10.4604 13.704 11.7591 12.7487 12.7185V12.7253Z" fill="#03483F"/>
</svg>
