<svg width="32" height="32" viewBox="0 0 32 32" fill="none" xmlns="http://www.w3.org/2000/svg">
<g clip-path="url(#clip0_4312_54568)">
<path opacity="0.3" d="M15.9999 29.7137C23.5741 29.7137 29.7142 23.5736 29.7142 15.9994C29.7142 8.42525 23.5741 2.28516 15.9999 2.28516C8.42574 2.28516 2.28564 8.42525 2.28564 15.9994C2.28564 23.5736 8.42574 29.7137 15.9999 29.7137Z" fill="white"/>
<path d="M20.2376 16.8099L14.5233 22.5242C14.309 22.7388 14.0183 22.8595 13.715 22.8597C13.4117 22.8599 13.1208 22.7396 12.9062 22.5253C12.6916 22.311 12.5709 22.0203 12.5707 21.717C12.5705 21.4137 12.6908 21.1228 12.905 20.9082L17.8125 16.0008L12.9073 11.0956C12.7939 10.9914 12.7027 10.8653 12.6393 10.7249C12.5758 10.5845 12.5414 10.4327 12.5381 10.2787C12.5348 10.1246 12.5627 9.97152 12.6201 9.82854C12.6774 9.68556 12.7631 9.55565 12.872 9.44664C12.9809 9.33762 13.1107 9.25173 13.2536 9.19415C13.3965 9.13657 13.5495 9.10847 13.7036 9.11156C13.8576 9.11464 14.0094 9.14883 14.1499 9.21209C14.2904 9.27534 14.4166 9.36634 14.521 9.47963L20.2353 15.1939C20.4499 15.4079 20.5707 15.6984 20.5711 16.0014C20.5715 16.3045 20.4516 16.5953 20.2376 16.8099Z" fill="white"/>
</g>
<defs>
<clipPath id="clip0_4312_54568">
<rect width="32" height="32" fill="white"/>
</clipPath>
</defs>
</svg>
