<svg width="33" height="32" viewBox="0 0 33 32" fill="none" xmlns="http://www.w3.org/2000/svg">
<g clip-path="url(#clip0_4986_20371)">
<path d="M3.26315 14.0802L5.52372 14.8345C5.60731 14.8589 5.69613 14.8589 5.77972 14.8345L7.28829 14.4574L9.64258 18.1579L7.90772 18.5145H6.58201C6.47005 18.5136 6.36166 18.5539 6.27739 18.6276C6.19313 18.7013 6.13886 18.8034 6.12487 18.9145L5.68372 22.4757L4.91572 23.7557C4.77238 23.9881 4.72355 24.2666 4.77928 24.5339C4.83501 24.8012 4.99107 25.037 5.21534 25.1927C5.43961 25.3485 5.71505 25.4124 5.985 25.3713C6.25494 25.3301 6.49886 25.1871 6.66658 24.9717L8.31001 22.9145C8.34381 22.8721 8.3701 22.8241 8.38772 22.7728L8.75115 21.6848L13.4803 21.2574C13.5415 21.2518 13.6011 21.234 13.6552 21.2049C13.7094 21.1759 13.7572 21.1362 13.7957 21.0882L16.9317 17.1682L17.2311 17.4654C17.5025 17.7376 17.8561 17.9128 18.2371 17.9636C18.6182 18.0144 19.0053 17.9381 19.3386 17.7465L19.6494 18.0574C19.8624 18.3101 20.1627 18.4733 20.4906 18.5145C20.9843 18.4869 21.4672 18.3584 21.9094 18.1371C22.3517 17.9158 22.7439 17.6063 23.062 17.2277L26.7854 17.5385H26.8837C27.1771 17.5427 27.4617 17.4378 27.6821 17.2441C27.9026 17.0504 28.0432 16.7817 28.0768 16.4902C28.1104 16.1986 28.0346 15.905 27.8639 15.6663C27.6933 15.4275 27.4401 15.2606 27.1534 15.1979L26.0997 14.9694L28.2849 14.6059C28.7636 14.534 29.1982 14.286 29.5036 13.9105C29.8091 13.5349 29.9633 13.0589 29.9361 12.5756C29.909 12.0923 29.7023 11.6365 29.3567 11.2976C29.0112 10.9586 28.5515 10.7609 28.0677 10.7431V10.2859C28.0677 10.1647 28.0196 10.0484 27.9338 9.96269C27.8481 9.87696 27.7318 9.82879 27.6106 9.82879H27.1534V8.00022C27.1534 7.87898 27.1053 7.7627 27.0195 7.67697C26.9338 7.59124 26.8175 7.54308 26.6963 7.54308H25.9969C25.6265 7.1294 25.1392 6.83788 24.5996 6.70707C24.0599 6.57627 23.4933 6.61233 22.9745 6.81051C22.4558 7.00868 22.0095 7.35962 21.6945 7.81693C21.3796 8.27423 21.2108 8.81637 21.2106 9.37165V10.7431C21.2106 10.7751 21.2106 10.8048 21.2106 10.8368L16.6117 11.8974L15.5923 10.8779C15.5498 10.8354 15.4994 10.8017 15.4439 10.7787C15.3884 10.7557 15.3289 10.7439 15.2689 10.7439C15.2088 10.7439 15.1493 10.7557 15.0938 10.7787C15.0383 10.8017 14.9879 10.8354 14.9454 10.8779L13.1169 12.7065C13.0317 12.7922 12.9839 12.908 12.9839 13.0288C12.9839 13.1496 13.0317 13.2654 13.1169 13.3511L13.4734 13.7145L11.27 15.1568L9.27915 12.3614L8.84487 11.0562L8.83115 11.0196C8.8075 10.9644 8.77317 10.9143 8.73014 10.8723C8.6871 10.8303 8.63621 10.7972 8.58037 10.7749C8.52453 10.7526 8.46484 10.7416 8.40472 10.7424C8.3446 10.7432 8.28523 10.7559 8.23001 10.7796L5.16029 12.0962L3.85972 11.8356C3.5693 11.7772 3.26753 11.8318 3.01595 11.9882C2.76437 12.1446 2.58193 12.3911 2.50584 12.6774C2.42974 12.9637 2.46573 13.2682 2.60645 13.5289C2.74718 13.7896 2.98204 13.9868 3.26315 14.0802ZM7.93972 21.2277L7.54658 22.4002L5.94658 24.3934C5.93228 24.4111 5.91418 24.4255 5.89362 24.4354C5.87305 24.4453 5.85054 24.4504 5.82772 24.4505C5.79941 24.4508 5.77161 24.4429 5.74772 24.4277C5.7133 24.4063 5.68855 24.3725 5.67873 24.3332C5.66891 24.2939 5.6748 24.2524 5.69515 24.2174L6.51344 22.8459C6.54507 22.7909 6.56601 22.7304 6.57515 22.6677L6.98658 19.4288H7.57858L7.93972 21.2277ZM15.9923 12.5717L14.8106 13.7534L14.086 13.0288L15.2677 11.8471L15.9923 12.5717ZM24.5454 7.64136C24.1929 7.77098 23.8972 8.02049 23.7101 8.34619C23.5231 8.6719 23.4565 9.05304 23.5222 9.42286C23.5879 9.79268 23.7816 10.1276 24.0694 10.369C24.3572 10.6103 24.7207 10.7428 25.0963 10.7431H25.3249V11.9522C25.0761 12.2343 24.7465 12.4329 24.3808 12.5208C24.0151 12.6088 23.6312 12.5818 23.2814 12.4436L23.1649 12.0322C23.1017 11.8138 22.9942 11.6108 22.8491 11.4358C22.704 11.2608 22.5243 11.1176 22.3214 11.0151L22.278 10.9945C22.2323 10.9716 22.1843 10.9511 22.1363 10.9328C22.1291 10.8698 22.1253 10.8065 22.1249 10.7431V9.37165C22.1248 9.08067 22.1942 8.79388 22.3273 8.53511C22.4604 8.27635 22.6533 8.05308 22.8901 7.88386C23.1268 7.71465 23.4005 7.60437 23.6884 7.56219C23.9763 7.52002 24.2701 7.54716 24.5454 7.64136ZM26.2391 9.82879H25.0963C24.9144 9.82879 24.74 9.75655 24.6114 9.62795C24.4828 9.49935 24.4106 9.32494 24.4106 9.14308C24.4106 8.96122 24.4828 8.7868 24.6114 8.65821C24.74 8.52961 24.9144 8.45736 25.0963 8.45736H26.2391V9.82879ZM27.1534 11.6574H26.2391V10.7431H27.1534V11.6574ZM25.3546 14.1717C24.9582 14.2378 24.5758 14.3699 24.2232 14.5625L23.862 14.4825L23.5717 13.4699C24.0187 13.5324 24.4742 13.4831 24.8974 13.3263C25.3207 13.1695 25.6984 12.9102 25.9969 12.5717H27.6106C27.7318 12.5717 27.8481 12.5235 27.9338 12.4378C28.0196 12.352 28.0677 12.2357 28.0677 12.1145V11.6574C28.3154 11.6832 28.5452 11.7982 28.7144 11.9809C28.8835 12.1636 28.9805 12.4015 28.9872 12.6505C28.9939 12.8994 28.9099 13.1422 28.7508 13.3338C28.5918 13.5253 28.3685 13.6525 28.1226 13.6917L25.3546 14.1717ZM22.4334 16.2539L20.8792 12.7591C20.8361 12.6607 20.815 12.5541 20.8174 12.4467C20.8197 12.3393 20.8455 12.2338 20.8929 12.1374C20.9356 12.0519 20.9947 11.9758 21.0669 11.9132C21.1391 11.8506 21.2229 11.8029 21.3136 11.7728C21.4042 11.7426 21.4999 11.7306 21.5952 11.7375C21.6905 11.7444 21.7835 11.77 21.8689 11.8128L21.9123 11.8334C22.0027 11.8795 22.0826 11.944 22.1467 12.0227C22.2108 12.1014 22.2579 12.1926 22.2849 12.2905L23.0574 14.9899C23.0802 15.069 23.1238 15.1404 23.1837 15.1967C23.2437 15.2531 23.3177 15.2922 23.398 15.3099L26.9431 16.0985C27.0075 16.1155 27.0632 16.1556 27.0998 16.2111C27.1363 16.2667 27.151 16.3338 27.1411 16.3995C27.1312 16.4653 27.0973 16.5251 27.046 16.5674C26.9947 16.6097 26.9296 16.6316 26.8632 16.6288L22.4334 16.2539ZM20.4792 17.6002L19.9854 17.1065C20.1962 16.7376 20.2661 16.3047 20.182 15.8882L21.1649 15.6597L21.7066 16.8779C21.745 16.9637 21.8088 17.0355 21.8894 17.0837C21.4779 17.3861 20.9887 17.5653 20.4792 17.6002ZM17.3752 12.6608L19.9511 12.0665C19.8638 12.4214 19.8968 12.7952 20.0449 13.1294L20.7877 14.8025L19.7523 15.0311C19.7363 15.0151 19.7226 14.9991 19.7043 14.9831L17.3752 12.6608ZM17.286 16.2288L18.4677 15.0471L19.0597 15.6368C19.2167 15.7938 19.3049 16.0068 19.3049 16.2288C19.3049 16.4508 19.2167 16.6638 19.0597 16.8208C18.9027 16.9778 18.6898 17.066 18.4677 17.066C18.2457 17.066 18.0327 16.9778 17.8757 16.8208L17.286 16.2288ZM16.6392 15.5819L15.4574 14.4002L16.6392 13.2185L17.8209 14.4002L16.6392 15.5819ZM12.614 18.5145C12.6991 18.4975 12.7776 18.4567 12.8403 18.3968C12.903 18.3369 12.9474 18.2604 12.9683 18.1762L13.4254 16.3476L13.846 14.6677L14.1683 14.4002L16.2803 16.5145L13.2106 20.3637L8.77858 20.7659L8.63915 20.0482L8.49515 19.3305L12.614 18.5145ZM8.07915 14.0071L8.81058 13.2757L10.7809 16.0368C10.8495 16.1333 10.9529 16.1993 11.0693 16.221C11.1857 16.2428 11.306 16.2185 11.4049 16.1534L12.7534 15.2734L12.5432 16.1168L12.1569 17.6665L10.6049 17.9751L8.07915 14.0071ZM3.38201 12.9762C3.38088 12.9602 3.38088 12.9442 3.38201 12.9282C3.39525 12.8632 3.43368 12.806 3.48892 12.7692C3.54416 12.7323 3.61172 12.7188 3.67687 12.7317L5.12144 13.0288C5.21205 13.0471 5.30609 13.0376 5.39115 13.0014L8.13401 11.8242L8.34429 12.4574L7.26772 13.5294L5.69058 13.9248L3.55801 13.2139C3.50732 13.198 3.46298 13.1664 3.43136 13.1237C3.39974 13.081 3.38246 13.0294 3.38201 12.9762Z" fill="#0D4C40"/>
</g>
<defs>
<clipPath id="clip0_4986_20371">
<rect width="32" height="32" fill="white" transform="translate(0.181641)"/>
</clipPath>
</defs>
</svg>
