<svg width="26" height="32" viewBox="0 0 26 32" fill="none" xmlns="http://www.w3.org/2000/svg">
<path d="M21.1428 14.2856H19.4285V9.14279C19.4285 7.32416 18.7061 5.58002 17.4201 4.29405C16.1341 3.00809 14.39 2.28564 12.5714 2.28564C10.7527 2.28564 9.00859 3.00809 7.72263 4.29405C6.43666 5.58002 5.71422 7.32416 5.71422 9.14279V14.2856H3.99993C3.54527 14.2856 3.10924 14.4663 2.78775 14.7877C2.46626 15.1092 2.28564 15.5453 2.28564 15.9999V27.9999C2.28564 28.4546 2.46626 28.8906 2.78775 29.2121C3.10924 29.5336 3.54527 29.7142 3.99993 29.7142H21.1428C21.5974 29.7142 22.0335 29.5336 22.355 29.2121C22.6765 28.8906 22.8571 28.4546 22.8571 27.9999V15.9999C22.8571 15.5453 22.6765 15.1092 22.355 14.7877C22.0335 14.4663 21.5974 14.2856 21.1428 14.2856ZM15.9999 14.2856H9.14279V9.14279C9.14279 8.23347 9.50401 7.3614 10.147 6.71842C10.79 6.07544 11.662 5.71422 12.5714 5.71422C13.4807 5.71422 14.3527 6.07544 14.9957 6.71842C15.6387 7.3614 15.9999 8.23347 15.9999 9.14279V14.2856Z" fill="#0D4C3F"/>
<path d="M13.4284 22.6286V24.5806C13.4284 24.8079 13.3381 25.0259 13.1773 25.1867C13.0166 25.3474 12.7985 25.4377 12.5712 25.4377C12.3439 25.4377 12.1259 25.3474 11.9651 25.1867C11.8044 25.0259 11.7141 24.8079 11.7141 24.5806V22.6286C11.3873 22.4399 11.1318 22.1487 10.9874 21.8C10.843 21.4514 10.8177 21.0648 10.9153 20.7003C11.013 20.3358 11.2282 20.0137 11.5276 19.7839C11.827 19.5542 12.1938 19.4297 12.5712 19.4297C12.9486 19.4297 13.3154 19.5542 13.6148 19.7839C13.9142 20.0137 14.1294 20.3358 14.2271 20.7003C14.3248 21.0648 14.2994 21.4514 14.155 21.8C14.0106 22.1487 13.7552 22.4399 13.4284 22.6286Z" fill="white"/>
</svg>
