<svg width="24" height="24" viewBox="0 0 24 24" fill="none" xmlns="http://www.w3.org/2000/svg">
<g clip-path="url(#clip0_4821_58535)">
<path d="M21.8794 1.79201C21.7771 1.74125 21.6644 1.71484 21.5502 1.71484C21.436 1.71484 21.3234 1.74125 21.2211 1.79201L2.12052 11.344C1.98537 11.4141 1.87537 11.5245 1.80577 11.6599C1.73617 11.7953 1.71041 11.949 1.73208 12.0997C1.75374 12.2504 1.82174 12.3907 1.92667 12.501C2.03159 12.6113 2.16824 12.6862 2.31766 12.7154L9.89823 14.0954L11.2697 21.676C11.2952 21.8312 11.3697 21.9741 11.4823 22.0839C11.5949 22.1937 11.7396 22.2646 11.8954 22.2863C11.9302 22.2889 11.9651 22.2889 11.9999 22.2863C12.1363 22.2863 12.27 22.2483 12.386 22.1765C12.502 22.1047 12.5957 22.0021 12.6565 21.88L22.2085 2.77772C22.2954 2.60333 22.3096 2.40159 22.2479 2.21677C22.1862 2.03196 22.0536 1.87919 21.8794 1.79201Z" fill="#D33731"/>
</g>
<defs>
<clipPath id="clip0_4821_58535">
<rect width="24" height="24" fill="white"/>
</clipPath>
</defs>
</svg>
