<svg width="33" height="32" viewBox="0 0 33 32" fill="none" xmlns="http://www.w3.org/2000/svg">
<g clip-path="url(#clip0_4986_20510)">
<path d="M25.9234 28.2352C24.248 28.2352 22.4788 27.7255 21.5805 27.4215C21.3447 27.3448 21.1154 27.2493 20.8948 27.1358C13.9463 23.5426 12.5657 16.8912 12.296 14.1986C12.2229 13.5354 12.3365 12.8649 12.624 12.2627C12.9116 11.6606 13.3616 11.1507 13.9234 10.7906C15.2194 9.98836 16.6251 10.2855 17.7817 11.5861C17.87 11.6905 17.9822 11.7722 18.1087 11.8243C18.2351 11.8764 18.3723 11.8974 18.5085 11.8855C18.5782 11.8839 18.6463 11.8651 18.7069 11.8308C18.7675 11.7965 18.8187 11.7478 18.856 11.6889C19.1737 11.1929 18.9085 9.93579 18.7257 9.39179C17.144 5.52893 14.6114 4.02493 11.2011 4.92093C9.75585 5.29872 8.43806 6.05651 7.38458 7.11562C6.33111 8.17472 5.58035 9.49653 5.21026 10.9438C3.40912 17.9952 10.3348 25.0238 10.4057 25.0924L9.75883 25.7392C8.4353 24.3421 7.28422 22.7912 6.33026 21.1198C4.22283 17.4512 3.53255 13.8558 4.33255 10.7175C4.74368 9.11438 5.57584 7.65029 6.74288 6.47682C7.90993 5.30334 9.36942 4.46315 10.9703 4.04322C13.6697 3.33464 17.3565 3.6295 19.5783 9.07179V9.09922C19.6491 9.3095 20.264 11.1906 19.6148 12.1941C19.5042 12.3653 19.3559 12.5089 19.1811 12.6139C19.0064 12.7189 18.8099 12.7825 18.6068 12.7998C18.3246 12.8258 18.0402 12.784 17.7774 12.6779C17.5146 12.5717 17.2809 12.4043 17.096 12.1895C16.5017 11.5152 15.5531 10.8592 14.4057 11.5678C13.9905 11.8385 13.6588 12.2194 13.4477 12.6679C13.2366 13.1164 13.1544 13.6147 13.2103 14.1072C13.4663 16.6512 14.7691 22.9346 21.3154 26.3244C21.4944 26.4147 21.6801 26.4911 21.8708 26.5529C22.8765 26.8912 26.2914 27.9106 27.992 26.8615C28.2529 26.6985 28.4724 26.4772 28.6335 26.2151C28.7945 25.9529 28.8925 25.6571 28.92 25.3506L29.8343 25.2249C29.8214 25.7068 29.6915 26.1784 29.4558 26.5989C29.2201 27.0194 28.8855 27.3763 28.4811 27.6386C27.7565 28.0775 26.856 28.2352 25.9234 28.2352Z" fill="#0D4C40"/>
<path d="M3.40007 19.1584C3.365 19.2135 3.31909 19.261 3.26512 19.2979C3.21116 19.3347 3.15026 19.3602 3.08613 19.3729C3.022 19.3855 2.95597 19.3849 2.89206 19.3712C2.82815 19.3575 2.76769 19.331 2.71435 19.2932L2.75321 19.323C2.65539 19.2513 2.58797 19.1456 2.56428 19.0267C2.54058 18.9078 2.56232 18.7843 2.62521 18.6807C3.08235 17.9492 3.99664 16.2235 4.05378 14.2578L4.96807 14.2898C4.88349 16.4795 3.89835 18.3447 3.40007 19.1584Z" fill="#0D4C40"/>
<path d="M8.20685 12.8505C8.14527 12.8371 8.08712 12.8111 8.03606 12.7742C7.98501 12.7372 7.94214 12.6901 7.91016 12.6358C7.87818 12.5815 7.85777 12.5212 7.85022 12.4586C7.84267 12.396 7.84813 12.3326 7.86628 12.2722C8.41028 10.3774 10.0103 7.60936 12.9497 7.80364C13.0127 7.80906 13.0739 7.8275 13.1295 7.85779C13.185 7.88809 13.2336 7.92957 13.2723 7.97963C13.311 8.02969 13.3388 8.08722 13.3541 8.1486C13.3694 8.20998 13.3718 8.27387 13.3611 8.33621C13.342 8.44928 13.2812 8.55104 13.1906 8.62132C13.1 8.6916 12.9863 8.72527 12.872 8.71564C10.2251 8.5625 9.0777 11.4585 8.7417 12.5419C8.70727 12.6509 8.63325 12.743 8.53425 12.8002C8.43524 12.8573 8.31844 12.8752 8.20685 12.8505Z" fill="#0D4C40"/>
<path d="M29.3223 25.6842H18.6594V24.7699H29.3223C29.4486 24.7649 29.5718 24.8103 29.6647 24.896C29.7577 24.9817 29.8129 25.1007 29.8183 25.227C29.8123 25.3532 29.757 25.4719 29.6641 25.5574C29.5713 25.643 29.4485 25.6885 29.3223 25.6842Z" fill="#0D4C40"/>
<path d="M25.3887 14.8754C24.9596 14.8758 24.54 14.749 24.183 14.5109C23.826 14.2729 23.5476 13.9343 23.3831 13.5379C23.2185 13.1416 23.1752 12.7054 23.2587 12.2845C23.3421 11.8636 23.5485 11.4768 23.8518 11.1732C24.1551 10.8697 24.5416 10.6628 24.9624 10.579C25.3832 10.4951 25.8195 10.5379 26.216 10.702C26.6125 10.8661 26.9514 11.1441 27.1899 11.5009C27.4283 11.8577 27.5556 12.2771 27.5556 12.7063C27.555 13.281 27.3266 13.832 26.9204 14.2386C26.5142 14.6452 25.9634 14.8742 25.3887 14.8754ZM25.3887 11.4468C25.1403 11.4464 24.8974 11.5196 24.6907 11.6574C24.484 11.7951 24.3228 11.991 24.2275 12.2204C24.1323 12.4498 24.1072 12.7023 24.1556 12.9459C24.2039 13.1896 24.3235 13.4134 24.4991 13.589C24.6747 13.7646 24.8986 13.8842 25.1422 13.9325C25.3858 13.9809 25.6383 13.9558 25.8677 13.8606C26.0971 13.7653 26.2931 13.6041 26.4308 13.3974C26.5685 13.1907 26.6417 12.9478 26.6413 12.6994C26.6389 12.3686 26.5059 12.0521 26.2713 11.8188C26.0368 11.5855 25.7196 11.4543 25.3887 11.4537V11.4468Z" fill="#0D4C40"/>
<path d="M23.7613 22.1712L20.3739 20.8226C18.9613 20.002 19.1785 18.2854 19.4916 17.4786L19.5213 17.4192L21.2196 14.4477C22.2551 12.9597 23.4276 13.186 23.4779 13.1952L23.2905 14.0912L23.3842 13.634L23.3019 14.0912C23.2768 14.0912 22.6482 14.0043 21.9808 14.9529L20.3328 17.8397C20.2551 18.0683 19.8208 19.4146 20.8059 20.0134L23.5968 21.1197L24.8676 20.0843L22.8105 18.4272L24.0562 16.5049L24.8219 17.0032L24.0242 18.2352L25.7682 19.6569C25.8323 19.7094 25.8839 19.7755 25.9194 19.8504C25.9549 19.9253 25.9733 20.0071 25.9733 20.09C25.9733 20.1729 25.9549 20.2547 25.9194 20.3296C25.8839 20.4045 25.8323 20.4706 25.7682 20.5232L23.7613 22.1712Z" fill="#0D4C40"/>
<path d="M17.8504 24.8088C17.5707 24.5687 17.389 24.2342 17.3397 23.8689C17.2904 23.5035 17.377 23.1328 17.583 22.8271L19.9213 19.3574L22.5819 20.7837L20.0676 24.5048C19.9492 24.6796 19.7953 24.8275 19.616 24.9388C19.4367 25.0502 19.2359 25.1226 19.0268 25.1512C18.8177 25.1799 18.6049 25.1642 18.4022 25.1053C18.1995 25.0463 18.0115 24.9453 17.8504 24.8088ZM18.447 24.1231C18.51 24.1772 18.5838 24.2174 18.6635 24.2409C18.7431 24.2644 18.8269 24.2708 18.9092 24.2595C18.9915 24.2483 19.0704 24.2197 19.1409 24.1757C19.2113 24.1317 19.2717 24.0733 19.3179 24.0043L21.2584 21.1197L20.2162 20.562L18.3419 23.346C18.2632 23.4649 18.2304 23.6085 18.2498 23.7498C18.2691 23.8911 18.3392 24.0206 18.447 24.114V24.1231Z" fill="#0D4C40"/>
<path d="M24.7625 25.6848C24.3537 25.6842 23.9619 25.5213 23.673 25.2321C23.3842 24.9428 23.2219 24.5507 23.2219 24.1419V21.8219L25.9648 20.0459L26.2916 24.1419C26.2917 24.5487 26.131 24.9391 25.8446 25.228C25.5582 25.517 25.1693 25.6811 24.7625 25.6848ZM24.7511 24.7705C24.9133 24.7705 25.069 24.7063 25.1842 24.592C25.2994 24.4777 25.3647 24.3225 25.3659 24.1602L25.1831 21.303L24.1362 22.231V24.1533C24.1359 24.2343 24.1516 24.3145 24.1824 24.3893C24.2131 24.4642 24.2584 24.5322 24.3155 24.5896C24.3726 24.6469 24.4405 24.6924 24.5152 24.7235C24.59 24.7545 24.6701 24.7705 24.7511 24.7705Z" fill="#0D4C40"/>
<path d="M28.7532 16.3841L28.7327 16.4161C28.7424 16.4057 28.7508 16.3942 28.7578 16.3818L28.7532 16.3841Z" fill="#0D4C40"/>
<path d="M29.0458 14.9007C28.6778 14.039 27.3681 13.9384 27.2172 13.9293H27.1006L26.9932 13.9796C25.6812 14.6059 24.4355 13.655 24.3829 13.6162L24.2664 13.5224H24.1178C23.7178 13.5064 22.5178 13.4562 22.1201 14.2562C21.7224 15.0562 22.4881 15.9613 22.6412 16.1373L22.7121 16.2036C23.6726 16.9272 24.8443 17.3151 26.0469 17.3076C27.9829 17.191 28.6069 16.5807 28.7349 16.4276L28.7555 16.3956C29.1304 15.8333 29.2309 15.335 29.0458 14.9007ZM23.6378 15.7144C23.3651 15.5537 23.1469 15.3148 23.0115 15.0287C22.945 14.915 22.9223 14.7809 22.9475 14.6516C22.9726 14.6013 23.0664 14.5327 23.2744 14.487C23.6275 14.4145 23.995 14.4713 24.3098 14.647C25.1043 15.0957 26.0433 15.2147 26.9246 14.9784C27.2227 14.8827 27.5439 14.8875 27.8389 14.9922C27.9889 15.0347 28.1187 15.1296 28.2046 15.2596C28.2324 15.3536 28.2243 15.4546 28.1818 15.543C28.1174 15.7052 28.0151 15.8496 27.8835 15.9641C27.7519 16.0786 27.5947 16.16 27.4252 16.2013C26.7937 16.38 26.1326 16.429 25.4817 16.3453C24.8308 16.2616 24.2035 16.047 23.6378 15.7144Z" fill="#0D4C40"/>
</g>
<defs>
<clipPath id="clip0_4986_20510">
<rect width="32" height="32" fill="white" transform="translate(0.181641)"/>
</clipPath>
</defs>
</svg>
