<svg width="25" height="24" viewBox="0 0 25 24" fill="none" xmlns="http://www.w3.org/2000/svg">
<path d="M22.3763 7.69704L16.7963 1.91133C16.7074 1.81909 16.5929 1.75551 16.4676 1.72876C16.3423 1.70202 16.2119 1.71332 16.0931 1.76122C15.9743 1.80912 15.8725 1.89143 15.8007 1.99759C15.729 2.10376 15.6907 2.22893 15.6906 2.35705V5.14276H15.4763C13.2607 5.14548 11.1366 6.02684 9.5699 7.59352C8.00322 9.16019 7.12186 11.2843 7.11914 13.4999V14.7856C7.12019 14.9298 7.17034 15.0694 7.26134 15.1812C7.35234 15.2931 7.47874 15.3706 7.61971 15.401C7.66581 15.4118 7.71295 15.4176 7.76028 15.4182C7.88237 15.4171 8.00181 15.3825 8.10552 15.3181C8.20924 15.2537 8.29322 15.162 8.34828 15.053C8.93137 13.8752 9.83303 12.8844 10.9509 12.1932C12.0687 11.502 13.358 11.1381 14.6723 11.1428H15.6906V13.9285C15.6907 14.0566 15.729 14.1818 15.8007 14.2879C15.8725 14.3941 15.9743 14.4764 16.0931 14.5243C16.2119 14.5722 16.3423 14.5835 16.4676 14.5568C16.5929 14.53 16.7074 14.4664 16.7963 14.3742L22.3763 8.58847C22.4919 8.46891 22.5566 8.30909 22.5566 8.14276C22.5566 7.97643 22.4919 7.81661 22.3763 7.69704Z" fill="#0D4C3F"/>
<path d="M19.9761 22.2857H4.5475C3.86552 22.2857 3.21146 22.0148 2.72923 21.5325C2.24699 21.0503 1.97607 20.3962 1.97607 19.7142V7.71425C1.97607 7.03227 2.24699 6.37821 2.72923 5.89598C3.21146 5.41374 3.86552 5.14282 4.5475 5.14282H7.11893C7.34626 5.14282 7.56428 5.23313 7.72502 5.39387C7.88577 5.55462 7.97607 5.77264 7.97607 5.99997C7.97607 6.22729 7.88577 6.44531 7.72502 6.60606C7.56428 6.7668 7.34626 6.85711 7.11893 6.85711H4.5475C4.32017 6.85711 4.10216 6.94741 3.94141 7.10816C3.78067 7.2689 3.69036 7.48692 3.69036 7.71425V19.7142C3.69036 19.9416 3.78067 20.1596 3.94141 20.3203C4.10216 20.4811 4.32017 20.5714 4.5475 20.5714H19.9761C20.2034 20.5714 20.4214 20.4811 20.5822 20.3203C20.7429 20.1596 20.8332 19.9416 20.8332 19.7142V12.8571C20.8332 12.6298 20.9235 12.4118 21.0843 12.251C21.245 12.0903 21.463 12 21.6904 12C21.9177 12 22.1357 12.0903 22.2964 12.251C22.4572 12.4118 22.5475 12.6298 22.5475 12.8571V19.7142C22.5475 20.3962 22.2766 21.0503 21.7943 21.5325C21.3121 22.0148 20.6581 22.2857 19.9761 22.2857Z" fill="#0D4C3F"/>
</svg>
