<svg width="33" height="32" viewBox="0 0 33 32" fill="none" xmlns="http://www.w3.org/2000/svg">
<g clip-path="url(#clip0_4986_20427)">
<path d="M21.3905 9.07793C21.5117 9.07793 21.628 9.02977 21.7137 8.94404C21.7995 8.85831 21.8476 8.74203 21.8476 8.62079V6.33507C21.8476 6.21383 21.7995 6.09755 21.7137 6.01182C21.628 5.92609 21.5117 5.87793 21.3905 5.87793C21.2692 5.87793 21.153 5.92609 21.0672 6.01182C20.9815 6.09755 20.9333 6.21383 20.9333 6.33507V8.62079C20.9333 8.74203 20.9815 8.85831 21.0672 8.94404C21.153 9.02977 21.2692 9.07793 21.3905 9.07793Z" fill="#0D4C40"/>
<path d="M23.2189 7.2498C23.3401 7.2498 23.4564 7.20164 23.5421 7.11591C23.6278 7.03018 23.676 6.9139 23.676 6.79266V4.50695C23.676 4.38571 23.6278 4.26943 23.5421 4.1837C23.4564 4.09797 23.3401 4.0498 23.2189 4.0498C23.0976 4.0498 22.9813 4.09797 22.8956 4.1837C22.8099 4.26943 22.7617 4.38571 22.7617 4.50695V6.79266C22.7617 6.9139 22.8099 7.03018 22.8956 7.11591C22.9813 7.20164 23.0976 7.2498 23.2189 7.2498Z" fill="#0D4C40"/>
<path d="M11.3331 21.8789C11.2119 21.8789 11.0956 21.9271 11.0099 22.0128C10.9241 22.0985 10.876 22.2148 10.876 22.336V25.0789C10.876 25.2001 10.9241 25.3164 11.0099 25.4022C11.0956 25.4879 11.2119 25.536 11.3331 25.536C11.4544 25.536 11.5706 25.4879 11.6564 25.4022C11.7421 25.3164 11.7903 25.2001 11.7903 25.0789V22.336C11.7903 22.2148 11.7421 22.0985 11.6564 22.0128C11.5706 21.9271 11.4544 21.8789 11.3331 21.8789Z" fill="#0D4C40"/>
<path d="M11.8701 12.6034C11.3113 12.6034 10.7651 12.4377 10.3005 12.1273C9.83591 11.8169 9.4738 11.3756 9.25997 10.8594C9.04615 10.3432 8.9902 9.77514 9.09921 9.22711C9.20822 8.67909 9.47729 8.1757 9.87239 7.78059C10.2675 7.38549 10.7709 7.11642 11.3189 7.00741C11.8669 6.8984 12.435 6.95435 12.9512 7.16818C13.4674 7.38201 13.9087 7.74411 14.2191 8.2087C14.5295 8.6733 14.6952 9.21951 14.6952 9.77827C14.6946 10.5274 14.3968 11.2456 13.8671 11.7753C13.3374 12.305 12.6192 12.6028 11.8701 12.6034ZM11.8701 7.86741C11.4921 7.86741 11.1227 7.97948 10.8085 8.18945C10.4942 8.39942 10.2493 8.69785 10.1047 9.04702C9.96004 9.39618 9.92219 9.78039 9.99593 10.1511C10.0697 10.5217 10.2516 10.8622 10.5189 11.1294C10.7861 11.3967 11.1266 11.5787 11.4973 11.6524C11.8679 11.7261 12.2522 11.6883 12.6013 11.5437C12.9505 11.399 13.2489 11.1541 13.4589 10.8399C13.6689 10.5256 13.7809 10.1562 13.7809 9.77827C13.7803 9.27166 13.5788 8.78598 13.2206 8.42776C12.8624 8.06953 12.3767 7.86802 11.8701 7.86741Z" fill="#0D4C40"/>
<path d="M14.3145 20.0498L14.3373 20.0841H15.2219L15.2516 20.0498H14.3145Z" fill="#0D4C40"/>
<path d="M14.1741 20.0498H14.0918V20.0841H14.3364L14.3135 20.0498H14.1741Z" fill="#0D4C40"/>
<path d="M16.9901 19.4787L16.9581 19.001C16.9468 19.0481 16.9331 19.0947 16.917 19.1404V19.5587L16.9901 19.4787Z" fill="#0D4C40"/>
<path d="M16.9901 19.4785L16.917 19.5585V19.5699L16.9901 19.4785Z" fill="#0D4C40"/>
<path d="M20.2637 20.1478L20.3048 20.1752L20.266 20.1455L20.2637 20.1478Z" fill="#0D4C40"/>
<path d="M16.917 18.4313V18.2599L16.9033 18.2188L16.917 18.4313Z" fill="#0D4C40"/>
<path d="M16.9581 19.0003C16.9792 18.9019 16.9899 18.8016 16.9901 18.7009C16.9906 18.5508 16.9658 18.4017 16.917 18.2598V18.4312L16.9581 19.0003Z" fill="#0D4C40"/>
<path d="M16.917 18.4316V19.1402C16.9331 19.0945 16.9468 19.0479 16.9581 19.0008L16.917 18.4316Z" fill="#0D4C40"/>
<path d="M13.1622 24.1641C13.041 24.1641 12.9247 24.2122 12.839 24.298C12.7532 24.3837 12.7051 24.5 12.7051 24.6212V26.9069C12.7051 27.0282 12.7532 27.1444 12.839 27.2302C12.9247 27.3159 13.041 27.3641 13.1622 27.3641C13.2835 27.3641 13.3997 27.3159 13.4855 27.2302C13.5712 27.1444 13.6194 27.0282 13.6194 26.9069V24.6212C13.6194 24.5 13.5712 24.3837 13.4855 24.298C13.3997 24.2122 13.2835 24.1641 13.1622 24.1641Z" fill="#0D4C40"/>
<path d="M22.81 19.1287L19.0088 16.475C18.5614 16.1774 18.1666 15.8074 17.8408 15.3801V14.107H19.1871C19.6584 14.1138 20.1196 13.9698 20.5033 13.6959C20.8869 13.422 21.173 13.0327 21.3197 12.5847C21.466 12.1019 21.4369 11.5829 21.2374 11.1195L20.3391 9.01898L19.6534 7.63612C19.5113 7.29432 19.2414 7.02155 18.901 6.87594C18.5607 6.73034 18.177 6.72343 17.8317 6.85669V3.61555C17.8339 3.50473 17.7971 3.39666 17.7277 3.31019C17.6584 3.22372 17.5609 3.16434 17.4523 3.1424C17.3861 3.13098 17.3182 3.13428 17.2534 3.15208C17.1886 3.16988 17.1285 3.20173 17.0775 3.24538C17.0264 3.28902 16.9856 3.34339 16.9579 3.4046C16.9303 3.46582 16.9164 3.53238 16.9174 3.59955V11.371H16.0031C15.7013 11.3184 15.3939 11.3061 15.0888 11.3344C14.1644 11.4179 13.2475 11.5707 12.346 11.7915C11.8111 11.9195 11.4431 12.0201 11.4431 12.0201L10.2683 12.7995L9.53911 13.3458C9.13126 13.6404 8.83126 14.0606 8.68511 14.542C8.53895 15.0234 8.55471 15.5394 8.72997 16.011L9.7814 18.9207C9.90144 19.2494 10.119 19.5336 10.4049 19.7354C10.6908 19.9372 11.0315 20.0469 11.3814 20.0498H13.21L14.2134 21.6498C14.3899 21.9943 14.6581 22.2833 14.9884 22.485C15.3187 22.6867 15.6984 22.7931 16.0854 22.7927H16.6751L15.4157 25.9653L15.1505 26.6647C15.0578 26.9106 15.026 27.1753 15.058 27.4362C15.09 27.6971 15.1848 27.9463 15.3342 28.1625C15.4837 28.3787 15.6833 28.5554 15.9161 28.6775C16.1488 28.7996 16.4077 28.8635 16.6705 28.8636C17.14 28.84 17.5942 28.6888 17.9841 28.4262C18.374 28.1635 18.6848 27.7995 18.8831 27.3733L19.1117 26.8293L20.1265 24.4933V24.987V25.979C20.1207 26.451 20.2933 26.9078 20.61 27.2579C20.9266 27.608 21.3638 27.8255 21.834 27.867C22.0841 27.8836 22.335 27.8486 22.571 27.7642C22.807 27.6797 23.0232 27.5477 23.206 27.3762C23.3889 27.2047 23.5345 26.9975 23.6339 26.7673C23.7332 26.5372 23.7842 26.2891 23.7837 26.0384V21.0007C23.7837 20.6334 23.6953 20.2715 23.5258 19.9456C23.3563 19.6197 23.1107 19.3395 22.81 19.1287ZM17.8317 10.5138L18.1128 11.355H17.8317V10.5138ZM17.8317 12.2693H18.7231C18.8419 12.2716 18.9572 12.2292 19.0461 12.1504C19.135 12.0716 19.1911 11.9623 19.2031 11.8441C19.2049 11.7775 19.1995 11.7108 19.1871 11.6453L18.3391 9.37098L17.882 8.37669C17.8564 8.2605 17.8727 8.13901 17.9279 8.03364C17.9832 7.92827 18.0738 7.84578 18.1839 7.8007C18.294 7.75562 18.4165 7.75085 18.5298 7.78723C18.643 7.8236 18.7398 7.89879 18.8031 7.99955L19.3814 9.09898L20.3871 11.4784C20.4935 11.7249 20.516 11.9996 20.4511 12.2601C20.3848 12.5264 20.2313 12.7629 20.0151 12.9319C19.7989 13.1008 19.5324 13.1927 19.258 13.1927H17.8317V12.2693ZM17.8317 16.7081C17.917 16.7828 18.0039 16.859 18.0923 16.9367L17.8317 17.2613V16.7081ZM16.9174 12.2693V13.1835H16.7437L16.2865 12.2693H16.9174ZM11.3974 19.1264C11.2334 19.1259 11.0735 19.0749 10.9394 18.9805C10.8053 18.886 10.7034 18.7527 10.6477 18.5984L9.5894 15.6978C9.48405 15.4159 9.47324 15.1074 9.55858 14.8188C9.64393 14.5302 9.82081 14.2771 10.0625 14.0978L10.3163 13.9081L11.9163 17.9264C11.9466 18.0051 11.9981 18.0738 12.065 18.1251C12.132 18.1763 12.2118 18.208 12.2957 18.2167H12.3368H14.1654H15.5985C15.7175 18.225 15.8288 18.2781 15.9101 18.3653C15.9914 18.4524 16.0366 18.5672 16.0366 18.6864C16.0366 18.8056 15.9914 18.9204 15.9101 19.0076C15.8288 19.0947 15.7175 19.1478 15.5985 19.1561L14.0831 19.1218L11.3974 19.1264ZM14.3368 20.075H14.0923V20.0407H15.2511L15.2214 20.075L14.698 20.6556L14.3368 20.075ZM22.8603 24.875V25.9904C22.8643 26.2222 22.7825 26.4473 22.6306 26.6224C22.4787 26.7975 22.2674 26.9102 22.0374 26.939C21.9099 26.9518 21.7811 26.9377 21.6594 26.8975C21.5377 26.8573 21.4258 26.792 21.3309 26.7058C21.2361 26.6196 21.1605 26.5144 21.1089 26.3971C21.0573 26.2797 21.031 26.1529 21.0317 26.0247V22.3675C21.1128 21.9697 21.0875 21.5575 20.9582 21.1726C20.829 20.7878 20.6004 20.4438 20.2957 20.1755L20.2545 20.1481L19.6603 19.7367C19.5742 19.672 19.4682 19.6398 19.3607 19.6456C19.2533 19.6515 19.1513 19.6951 19.0728 19.7687C19.027 19.8149 18.9916 19.8704 18.969 19.9314C18.9463 19.9924 18.9369 20.0575 18.9415 20.1224C18.946 20.1873 18.9644 20.2505 18.9953 20.3078C19.0262 20.365 19.069 20.415 19.1208 20.4544L19.7105 20.8887C19.929 21.0854 20.0784 21.3471 20.1368 21.6351C20.1953 21.9232 20.1596 22.2224 20.0351 22.4887L18.2477 26.5047L17.898 27.3641C17.821 27.5651 17.6804 27.7354 17.4975 27.8489C17.3147 27.9624 17.0997 28.0129 16.8854 27.9927C16.742 27.9753 16.6045 27.9256 16.4832 27.8472C16.3618 27.7689 16.2599 27.664 16.1851 27.5405C16.1102 27.417 16.0644 27.2781 16.0511 27.1343C16.0378 26.9905 16.0573 26.8455 16.1083 26.7104L16.2614 26.3081L17.6328 22.9024C17.6561 22.849 17.6685 22.7915 17.6694 22.7333C17.6557 22.0727 16.9037 21.8967 16.9037 21.8967H16.1105C15.9372 21.8983 15.7657 21.8621 15.6078 21.7906C15.4499 21.7192 15.3095 21.6142 15.1963 21.483L16.906 19.5767V18.4315L16.8923 18.219C16.7942 17.9551 16.6181 17.7273 16.3874 17.566C16.1567 17.4047 15.8823 17.3176 15.6008 17.3161H14.0808H12.6568L11.0797 13.3755L11.7243 12.9367C12.0158 12.8188 12.3143 12.7188 12.618 12.6373C13.4007 12.4375 14.2018 12.3188 15.0088 12.283L15.3425 12.2693L15.6465 13.0441L16.0443 13.8373L16.3391 14.5755C16.4925 14.9585 16.6863 15.324 16.9174 15.6658V18.2601C16.9662 18.4021 16.991 18.5512 16.9905 18.7013C16.9903 18.8019 16.9796 18.9023 16.9585 19.0007L16.9905 19.4784L17.3997 18.971L17.2511 19.1561L17.978 18.5481L18.8351 17.4761L22.2751 19.8853C22.4556 20.0116 22.603 20.1795 22.7049 20.3749C22.8067 20.5702 22.86 20.7872 22.8603 21.0076V24.875Z" fill="#0D4C40"/>
<path d="M16.9014 18.2168V21.874L17.6145 22.7197C17.6196 22.7258 17.6265 22.7302 17.6343 22.7322C17.642 22.7343 17.6501 22.7339 17.6576 22.7311C17.6651 22.7284 17.6716 22.7234 17.6761 22.7169C17.6807 22.7103 17.6831 22.7025 17.6831 22.6945L17.8317 17.2568L16.9014 18.2168Z" fill="#0D4C40"/>
</g>
<defs>
<clipPath id="clip0_4986_20427">
<rect width="32" height="32" fill="white" transform="translate(0.181641)"/>
</clipPath>
</defs>
</svg>
