<svg width="32" height="32" viewBox="0 0 32 32" fill="none" xmlns="http://www.w3.org/2000/svg">
<g clip-path="url(#clip0_4283_52118)">
<path d="M10.9302 16.2676L10.9325 16.2699L10.9302 16.2676Z" fill="black"/>
<path d="M15.9998 2.38184C13.299 2.38547 10.71 3.46041 8.80097 5.37076C6.89191 7.28111 5.81871 9.87081 5.81689 12.5716C5.81689 15.8036 8.45689 20.4824 10.0318 22.9853C10.9791 24.5149 12.0171 25.9865 13.1403 27.3921C14.6603 29.2527 15.3415 29.6184 16.0043 29.6184C16.6672 29.6184 17.3118 29.2618 18.8409 27.3898C19.9615 25.9879 20.9973 24.5201 21.9426 22.9944C23.5243 20.4801 26.178 15.7601 26.178 12.5807C26.1762 9.8799 25.104 7.28995 23.1961 5.37827C21.2883 3.4666 18.7005 2.38909 15.9998 2.38184ZM21.17 22.5076C20.2419 24.0011 19.2261 25.4383 18.1278 26.8116C16.5872 28.6996 16.178 28.6996 16.0043 28.6996C15.8306 28.6996 15.3918 28.6996 13.8512 26.8116C12.7516 25.4353 11.7357 23.9942 10.8089 22.4961C9.58375 20.551 6.73575 15.6847 6.73575 12.5716C6.73575 10.1146 7.71178 7.75825 9.44911 6.02091C11.1865 4.28358 13.5428 3.30755 15.9998 3.30755C18.4567 3.30755 20.8131 4.28358 22.5504 6.02091C24.2877 7.75825 25.2638 10.1146 25.2638 12.5716C25.2638 15.543 22.6992 20.0687 21.17 22.5076Z" fill="#0D4C3F"/>
<path d="M16.0361 8.12598C15.6078 8.12598 15.1892 8.25304 14.8331 8.49109C14.477 8.72914 14.1996 9.06747 14.0359 9.46326C13.8722 9.85905 13.8296 10.2945 13.9135 10.7145C13.9974 11.1345 14.204 11.5202 14.5072 11.8228C14.8104 12.1253 15.1965 12.3311 15.6167 12.4141C16.0369 12.4971 16.4722 12.4536 16.8677 12.289C17.2631 12.1245 17.6009 11.8464 17.8381 11.4898C18.0754 11.1332 18.2016 10.7143 18.2007 10.286C18.1989 9.71288 17.9701 9.16383 17.5645 8.75902C17.1588 8.3542 16.6093 8.12658 16.0361 8.12598ZM16.0361 11.5363C15.79 11.5363 15.5493 11.4633 15.3445 11.3266C15.1398 11.19 14.9801 10.9957 14.8857 10.7683C14.7913 10.541 14.7663 10.2907 14.814 10.0492C14.8617 9.80768 14.9799 9.58571 15.1537 9.41131C15.3275 9.23691 15.549 9.11791 15.7903 9.06933C16.0317 9.02075 16.282 9.04477 16.5097 9.13835C16.7374 9.23194 16.9323 9.39089 17.0697 9.59515C17.2071 9.7994 17.281 10.0398 17.2819 10.286C17.2822 10.4499 17.2502 10.6122 17.1877 10.7637C17.1253 10.9153 17.0336 11.053 16.9179 11.1691C16.8023 11.2852 16.6649 11.3774 16.5136 11.4404C16.3623 11.5034 16.2 11.536 16.0361 11.5363Z" fill="#0D4C3F"/>
<path d="M15.9998 5.79688C14.6524 5.79548 13.3329 6.18102 12.1983 6.90765C11.0636 7.63428 10.1615 8.67145 9.59915 9.89585C9.03678 11.1203 8.83783 12.4804 9.02594 13.8146C9.21406 15.1487 9.78133 16.4008 10.6603 17.422C10.7357 17.5089 10.802 17.5843 10.8729 17.6506C11.087 17.8753 11.3161 18.0853 11.5586 18.2792L11.5975 18.3112L11.666 18.366L11.7438 18.4254C11.8055 18.4734 11.8695 18.5214 11.9335 18.5649L12.0295 18.6334C12.0912 18.6746 12.1506 18.7157 12.2146 18.7546L12.3129 18.8163C12.3792 18.8597 12.45 18.8986 12.5186 18.9397L12.5986 18.9854C12.6946 19.038 12.7929 19.0906 12.8912 19.1386L12.9323 19.1592C13.0192 19.2003 13.1037 19.2414 13.1906 19.278L13.2889 19.3192L13.4969 19.4037L13.6089 19.4472L13.8192 19.518L13.9243 19.5546L14.1712 19.6346L14.2329 19.6529L14.5552 19.7283L14.6398 19.7443L14.8683 19.7877L14.9849 19.806C15.058 19.806 15.1289 19.8266 15.2135 19.8334L15.3346 19.8472L15.5632 19.8654H15.6706C15.8992 19.8654 16.1277 19.8654 16.3403 19.8654H16.4478C16.5255 19.8654 16.6032 19.8654 16.6763 19.8472H16.7975L17.026 19.8174L17.1449 19.7992L17.3735 19.7534L17.4672 19.7374C17.5746 19.7123 17.6957 19.6872 17.7917 19.6574L17.8466 19.6437L18.114 19.5637L18.2192 19.5294L18.434 19.454L18.546 19.4106L18.7563 19.3237L18.8592 19.2803L19.1038 19.166L19.1609 19.1363C19.2615 19.086 19.362 19.0334 19.4603 18.9763L19.5266 18.9374L19.7552 18.8049L19.8489 18.7432L20.0409 18.6152L20.1346 18.5466C20.1986 18.5009 20.2626 18.4529 20.3266 18.4026L20.4043 18.3409L20.4798 18.2792L20.5209 18.2449C20.7564 18.0447 20.9786 17.8294 21.186 17.6003C21.2546 17.5249 21.3232 17.4494 21.3872 17.3717C22.2522 16.346 22.806 15.0944 22.9833 13.7643C23.1605 12.4343 22.9539 11.0813 22.3877 9.86486C21.8215 8.64838 20.9193 7.61912 19.7876 6.89837C18.6558 6.17763 17.3415 5.79545 15.9998 5.79688ZM20.2763 17.2254C20.2055 17.294 20.1323 17.3626 20.0478 17.4289L19.9929 17.4769C19.9335 17.5272 19.874 17.5797 19.8123 17.6277L19.7003 17.7146L19.5678 17.8129L19.4626 17.886L19.314 17.9866L19.218 18.046L19.1998 18.0574L19.0603 18.142L18.9437 18.206L18.7929 18.2883L18.6695 18.3477L18.5163 18.4209L18.3906 18.4757L18.2352 18.5397L18.1049 18.59L17.9472 18.6449L17.8169 18.6883L17.6546 18.7363L17.522 18.7729L17.3552 18.8117H17.3255L17.2226 18.8346L17.0489 18.8666H17.0238L16.9209 18.8849L16.738 18.9077H16.6992H16.6169L16.4272 18.9237H16.3083C16.2055 18.9237 16.1026 18.9237 15.9998 18.9237C15.8969 18.9237 15.794 18.9237 15.6912 18.9237H15.5929L15.3872 18.91L15.2683 18.894C15.1952 18.894 15.1403 18.8803 15.0855 18.8712L14.9986 18.8574H14.962L14.7883 18.8277L14.6603 18.798C14.6055 18.798 14.5506 18.7752 14.4935 18.7592L14.3655 18.7432L14.2032 18.6974L14.0775 18.6563C14.0241 18.6411 13.9716 18.6228 13.9198 18.6014L13.7963 18.5557L13.6386 18.494L13.5198 18.4414L13.3643 18.3706L13.2569 18.3112L13.106 18.2312L12.994 18.1694L12.8432 18.078L12.7358 18.014L12.5918 17.918L12.4843 17.8449L12.338 17.7352L12.242 17.6643L12.05 17.5066L12.0066 17.47L11.778 17.2689L11.7323 17.2254L11.762 17.1432C11.7757 17.1081 11.7895 17.0761 11.8032 17.0472L11.8306 16.9809C11.8557 16.9237 11.8786 16.8666 11.906 16.8094L11.954 16.7134L11.9769 16.67C12.0112 16.6037 12.0409 16.5466 12.0729 16.4917L12.1346 16.3912L12.1575 16.3569C12.1917 16.302 12.226 16.2449 12.2649 16.1923C12.3038 16.1397 12.3152 16.1192 12.3426 16.0849L12.3586 16.062C12.3975 16.0094 12.4363 15.9569 12.4775 15.9066L12.5803 15.7854C12.623 15.7352 12.6664 15.6872 12.7106 15.6414C12.7472 15.6026 12.786 15.5637 12.8249 15.5272L12.9643 15.3946L13.0855 15.2872C13.1335 15.246 13.1838 15.2072 13.234 15.1683L13.362 15.07L13.522 14.9603L13.6569 14.8757C13.7118 14.8414 13.7689 14.8094 13.826 14.7774L13.9655 14.702L14.1415 14.6174H14.1643C14.2036 14.5969 14.2441 14.5785 14.2855 14.5626C14.3426 14.5374 14.402 14.5169 14.4615 14.494L14.5026 14.478L14.6192 14.4369L14.7998 14.3843L14.8569 14.366L14.962 14.3386C15.026 14.3226 15.0923 14.3089 15.1563 14.2974L15.2203 14.2837L15.3117 14.2677C15.3849 14.254 15.458 14.2472 15.5403 14.238H15.6089H15.6797C15.9232 14.2186 16.1678 14.2186 16.4112 14.238H16.4843H16.5323C16.626 14.238 16.6992 14.2563 16.7609 14.2677L16.8523 14.2837L16.9277 14.2997L17.1106 14.3363L17.2158 14.3637L17.282 14.382L17.4512 14.43L17.5563 14.4689L17.5975 14.4826L17.7803 14.5512L17.9106 14.6083C17.9838 14.6426 18.0432 14.6677 18.098 14.6974C18.1529 14.7272 18.1895 14.7432 18.2329 14.7683L18.4043 14.8643L18.5392 14.9512C18.5918 14.9854 18.6443 15.0197 18.6946 15.0563L18.8249 15.1523C18.8729 15.1889 18.9232 15.2277 18.9689 15.2689C19.0146 15.31 19.0535 15.3374 19.0923 15.374L19.2295 15.502L19.3438 15.6163C19.3872 15.662 19.4283 15.7077 19.4695 15.7557C19.5106 15.8037 19.5426 15.8403 19.5746 15.8792C19.6066 15.918 19.6523 15.9774 19.6912 16.0277L19.7072 16.0506C19.7346 16.0849 19.762 16.1214 19.7872 16.158C19.8123 16.1946 19.8535 16.2563 19.8832 16.3066L19.9152 16.3546C19.9358 16.3889 19.9586 16.4209 19.9769 16.4552C19.9952 16.4894 20.0432 16.574 20.0752 16.6334L20.0935 16.6677C20.1118 16.702 20.13 16.7363 20.146 16.7706C20.162 16.8049 20.1986 16.8849 20.2238 16.9443L20.2535 17.0083C20.2672 17.038 20.2786 17.0677 20.2923 17.0997L20.3152 17.1592V17.1729L20.2763 17.2254ZM21.1129 16.2129L21.0215 16.3249L20.9803 16.3729L20.946 16.3134C20.898 16.2152 20.8432 16.1192 20.7883 16.0254L20.7655 15.9843C20.7581 15.9674 20.7489 15.9513 20.738 15.9363C20.6695 15.8197 20.594 15.7077 20.5095 15.5957L20.4775 15.5432L20.4478 15.5043C20.3906 15.4243 20.3289 15.3466 20.2649 15.2757C20.242 15.246 20.2169 15.2186 20.1917 15.1889L20.1689 15.1637C20.1117 15.0997 20.0546 15.0357 19.9952 14.974C19.9358 14.9123 19.922 14.8986 19.8832 14.862C19.8443 14.8254 19.7643 14.7477 19.7003 14.6906L19.5815 14.5877C19.5175 14.5329 19.4512 14.4803 19.3826 14.4277L19.3483 14.4003L19.266 14.3386C19.1883 14.2814 19.1083 14.2289 19.026 14.1763L18.9849 14.1489L18.93 14.1123C18.818 14.0437 18.7015 13.9752 18.5803 13.9134L18.514 13.87C18.4135 13.8197 18.3129 13.7717 18.21 13.726L18.13 13.694L18.0798 13.6757C17.9975 13.6414 17.9129 13.6094 17.8283 13.582C17.7803 13.5637 17.73 13.5477 17.6798 13.534C17.6295 13.5203 17.5175 13.4837 17.4352 13.4632L17.2775 13.4243C17.1929 13.4037 17.1083 13.3877 17.0238 13.3717L16.8683 13.3443C16.7769 13.3306 16.6809 13.3214 16.5872 13.3123H16.5369H16.4523C16.1716 13.2894 15.8896 13.2894 15.6089 13.3123H15.522H15.4718C15.378 13.3123 15.2843 13.3329 15.1929 13.3489C15.1518 13.3489 15.1129 13.3626 15.0718 13.3694H15.0352C14.9506 13.3854 14.866 13.4014 14.7815 13.422C14.6969 13.4426 14.6763 13.4472 14.6238 13.4632C14.5712 13.4792 14.4592 13.5089 14.3769 13.534L14.226 13.5843C14.1415 13.614 14.0592 13.6483 13.9746 13.6803L13.9426 13.7146L13.858 13.7512C13.7529 13.7969 13.6523 13.8449 13.5518 13.8952L13.4877 13.9272C13.3689 13.9912 13.2592 14.0597 13.1335 14.1329L13.0809 14.1672L13.0398 14.1969C12.9575 14.2494 12.8752 14.3043 12.7975 14.3637L12.7106 14.4277L12.6786 14.4552L12.4752 14.6174L12.3563 14.7249C12.2946 14.7797 12.2329 14.8392 12.1712 14.8986L12.0615 15.0106C11.9998 15.0746 11.9426 15.1409 11.8832 15.2072L11.858 15.2392L11.7872 15.3192C11.7232 15.3969 11.6615 15.4792 11.602 15.5614L11.5723 15.6003L11.538 15.646C11.4603 15.758 11.3849 15.8746 11.3095 15.9934L11.2683 16.0689C11.2089 16.1694 11.154 16.2723 11.1015 16.3774L11.0649 16.4346L11.0009 16.3592L10.9712 16.3134L10.9346 16.2677C10.2458 15.2572 9.87851 14.0621 9.88089 12.8392C9.87908 11.8838 10.1008 10.9413 10.5284 10.0869C10.956 9.23258 11.5776 8.49015 12.3434 7.91897C13.1092 7.3478 13.998 6.96374 14.9388 6.79751C15.8796 6.63128 16.8463 6.68748 17.7615 6.96163C18.6766 7.23577 19.515 7.72026 20.2095 8.37634C20.9039 9.03241 21.4352 9.84189 21.7609 10.74C22.0866 11.6382 22.1976 12.6 22.0851 13.5488C21.9726 14.4975 21.6396 15.4067 21.1129 16.2037V16.2129Z" fill="#0D4C3F"/>
</g>
<defs>
<clipPath id="clip0_4283_52118">
<rect width="32" height="32" fill="white"/>
</clipPath>
</defs>
</svg>
