<svg width="32" height="32" viewBox="0 0 32 32" fill="none" xmlns="http://www.w3.org/2000/svg">
<path opacity="0.3" d="M16.0001 2.28627C8.42588 2.28627 2.28579 8.42637 2.28579 16.0006C2.28579 23.5747 8.42588 29.7148 16.0001 29.7148C23.5743 29.7148 29.7144 23.5747 29.7144 16.0006C29.7144 8.42637 23.5743 2.28628 16.0001 2.28627Z" fill="white"/>
<path d="M11.7624 15.1901L17.4767 9.4758C17.691 9.2612 17.9817 9.14052 18.285 9.14031C18.5883 9.14009 18.8792 9.26036 19.0938 9.47466C19.3084 9.68895 19.4291 9.97972 19.4293 10.283C19.4295 10.5863 19.3093 10.8772 19.095 11.0918L14.1875 15.9992L19.0927 20.9044C19.2061 21.0086 19.2973 21.1347 19.3607 21.2751C19.4242 21.4155 19.4586 21.5673 19.4619 21.7213C19.4652 21.8754 19.4373 22.0285 19.3799 22.1715C19.3226 22.3144 19.2369 22.4443 19.128 22.5534C19.0191 22.6624 18.8893 22.7483 18.7464 22.8058C18.6035 22.8634 18.4505 22.8915 18.2964 22.8884C18.1424 22.8854 17.9906 22.8512 17.8501 22.7879C17.7096 22.7247 17.5834 22.6337 17.479 22.5204L11.7647 16.8061C11.5501 16.5921 11.4293 16.3016 11.4289 15.9986C11.4285 15.6955 11.5484 15.4047 11.7624 15.1901Z" fill="white"/>
</svg>
