<svg width="33" height="32" viewBox="0 0 33 32" fill="none" xmlns="http://www.w3.org/2000/svg">
<g clip-path="url(#clip0_4986_20414)">
<path d="M25.1804 4.82291L25.0936 4.77262C24.817 4.61491 24.5336 4.46176 24.2524 4.31548C24.1838 4.25453 24.1068 4.20372 24.0238 4.16462C22.6114 3.44653 21.1012 2.93979 19.5416 2.66062H19.4753C17.2867 2.23031 15.0353 2.23031 12.8467 2.66062H12.8193C11.2604 2.94017 9.75102 3.44689 8.33927 4.16462C8.30119 4.18412 8.26453 4.20627 8.22956 4.23091C7.86934 4.40931 7.51979 4.6085 7.1827 4.82748C6.78663 5.08343 6.40509 5.36119 6.03984 5.65948C3.77241 7.50176 2.52441 9.88576 2.52441 12.3703C2.52508 12.8017 2.56255 13.2322 2.63641 13.6572C2.66868 13.8458 2.7553 14.0209 2.88563 14.1609C3.01596 14.301 3.18435 14.4 3.37013 14.4458C3.56537 14.4892 3.76914 14.4733 3.95527 14.4001L3.98727 14.3886L4.01013 14.4115L11.7816 22.0435H6.86956C6.4343 22.0435 6.01687 22.2164 5.70909 22.5242C5.40132 22.8319 5.22841 23.2494 5.22841 23.6846C5.22841 24.1199 5.40132 24.5373 5.70909 24.8451C6.01687 25.1529 6.4343 25.3258 6.86956 25.3258H11.809C11.9713 25.3264 12.1267 25.3911 12.2415 25.5058C12.3562 25.6206 12.421 25.7761 12.4216 25.9383V29.2092C12.4216 29.3304 12.4697 29.4467 12.5555 29.5324C12.6412 29.6182 12.7575 29.6663 12.8787 29.6663C12.9999 29.6663 13.1162 29.6182 13.2019 29.5324C13.2877 29.4467 13.3358 29.3304 13.3358 29.2092V28.5235L14.0993 27.6572C14.5108 27.1836 14.7373 26.5772 14.737 25.9498V22.9783H17.5736V25.9498C17.5734 26.5767 17.799 27.1828 18.209 27.6572L18.9678 28.5326V29.2183C18.9678 29.3396 19.016 29.4559 19.1017 29.5416C19.1875 29.6273 19.3037 29.6755 19.425 29.6755C19.5462 29.6755 19.6625 29.6273 19.7482 29.5416C19.834 29.4559 19.8821 29.3396 19.8821 29.2183V25.9452C19.8821 25.7827 19.9467 25.6269 20.0615 25.512C20.1764 25.3972 20.3322 25.3326 20.4947 25.3326H25.4867C25.922 25.3326 26.3394 25.1597 26.6472 24.8519C26.9549 24.5442 27.1278 24.1267 27.1278 23.6915C27.1278 23.2562 26.9549 22.8388 26.6472 22.531C26.3394 22.2232 25.922 22.0503 25.4867 22.0503H20.4581L20.5496 21.9612L28.2958 14.3612L28.3278 14.3772C28.5355 14.4722 28.7694 14.4932 28.9907 14.4366C29.1766 14.3918 29.3452 14.2934 29.4756 14.1537C29.6061 14.0139 29.6926 13.8389 29.7244 13.6503C29.7982 13.2253 29.8356 12.7948 29.8364 12.3635C29.8456 9.46976 28.145 6.72234 25.1804 4.82291ZM12.4216 24.5372L12.3507 24.512C12.1778 24.4458 11.9942 24.4117 11.809 24.4115H6.86956C6.67879 24.4109 6.496 24.3348 6.36111 24.1999C6.22621 24.065 6.15016 23.8822 6.14956 23.6915C6.15016 23.5007 6.22621 23.3179 6.36111 23.183C6.496 23.0481 6.67879 22.9721 6.86956 22.9715H12.4216V24.5372ZM13.8158 25.9452C13.8172 26.3346 13.684 26.7125 13.4387 27.0149L13.3496 27.1269V22.9715H13.8227L13.8158 25.9452ZM18.9678 27.1269L18.8764 27.0149C18.6294 26.7132 18.4945 26.3352 18.4947 25.9452V22.9738H18.9678V27.1269ZM25.4936 22.9715C25.6843 22.9721 25.8671 23.0481 26.002 23.183C26.1369 23.3179 26.213 23.5007 26.2136 23.6915C26.213 23.8822 26.1369 24.065 26.002 24.1999C25.8671 24.3348 25.6843 24.4109 25.4936 24.4115H20.5016C20.3164 24.4117 20.1328 24.4458 19.9598 24.512L19.889 24.5372V22.9715H25.4936ZM27.6101 13.7441L19.1324 22.0732L13.1004 22.0503L13.0844 22.0366L4.65927 13.7669L4.69127 13.7303C5.60191 12.6994 6.71131 11.8628 7.95299 11.2709L8.00099 11.248L8.13127 11.184C9.63097 10.5632 11.1994 10.1235 12.8033 9.87434L13.169 9.82634L13.2947 9.81262C14.9101 9.62568 16.54 9.59735 18.161 9.72805C18.161 9.72805 18.4878 9.76462 18.9564 9.82634C19.4867 9.89719 20.0078 9.97719 20.5016 10.0549C21.7761 10.2993 23.0223 10.6738 24.2204 11.1726C25.5132 11.7608 26.6709 12.6089 27.6216 13.664L27.6536 13.7006L27.6101 13.7441ZM28.8261 13.44C28.813 13.4812 28.7893 13.5182 28.7576 13.5475C28.7429 13.5496 28.728 13.5478 28.7143 13.5421C28.7006 13.5365 28.6887 13.5273 28.6798 13.5155C27.5875 12.1518 26.1878 11.0662 24.5953 10.3475C24.1838 10.1715 23.7564 10.0069 23.329 9.85834C22.4692 9.55971 21.5912 9.31617 20.7004 9.12919C20.2227 9.03091 19.7381 8.94633 19.2604 8.88005C18.9724 8.84119 18.6753 8.80691 18.3758 8.77719C16.9159 8.63972 15.4461 8.64507 13.9873 8.79319C13.6787 8.82519 13.361 8.86405 13.0433 8.90748L12.721 8.95776C11.009 9.20412 9.3363 9.67204 7.74499 10.3498L7.58499 10.4252C6.06227 11.1428 4.72438 12.2 3.67413 13.5155C3.65584 13.5383 3.62156 13.5589 3.56213 13.5155H3.54156V13.4903C3.47675 13.1182 3.44387 12.7412 3.44327 12.3635C3.44327 10.2629 4.48099 8.21034 6.36441 6.58062C6.77895 6.22232 7.21896 5.8946 7.68099 5.60005C8.01699 5.40348 8.3667 5.21834 8.7027 5.04462C9.84713 4.46594 11.0522 4.01595 12.2958 3.70291C14.8168 3.07782 17.4515 3.07076 19.9758 3.68234C21.2275 3.97786 22.4414 4.41496 23.5941 4.98519L23.6993 5.03776C24.0357 5.20637 24.363 5.39253 24.6798 5.59548C27.3816 7.31434 28.9244 9.78976 28.9244 12.3635C28.9244 12.7242 28.8946 13.0843 28.8353 13.44H28.8261Z" fill="#0D4C40"/>
<path d="M8.2595 4.43658L7.45142 4.86426L10.3137 10.2724L11.1218 9.84471L8.2595 4.43658Z" fill="#0D4C40"/>
<path d="M24.0761 4.43366L21.2139 9.8418L22.022 10.2695L24.8842 4.86134L24.0761 4.43366Z" fill="#0D4C40"/>
<path d="M14.3162 21.8518C13.8793 21.4829 13.5616 20.9928 13.4032 20.4433C13.2448 19.8939 13.2529 19.3098 13.4264 18.765C13.5999 18.2201 13.9311 17.7389 14.3781 17.3823C14.825 17.0257 15.3677 16.8095 15.9375 16.7613C16.5072 16.713 17.0785 16.8348 17.5791 17.1112C18.0797 17.3876 18.4871 17.8062 18.7497 18.3141C19.0124 18.822 19.1186 19.3964 19.0549 19.9647C18.9911 20.5329 18.7603 21.0695 18.3917 21.5066C17.8968 22.0925 17.1895 22.4579 16.4254 22.5226C15.6612 22.5873 14.9026 22.346 14.3162 21.8518ZM17.4568 18.1306C17.1586 17.8776 16.7921 17.7187 16.4036 17.6739C16.0151 17.6292 15.6221 17.7007 15.2742 17.8794C14.9263 18.058 14.6393 18.3358 14.4493 18.6777C14.2593 19.0195 14.175 19.41 14.207 19.7997C14.239 20.1895 14.3858 20.561 14.6289 20.8673C14.8721 21.1736 15.2006 21.4009 15.5729 21.5205C15.9453 21.6401 16.3447 21.6466 16.7207 21.5392C17.0967 21.4317 17.4324 21.2152 17.6854 20.9169C18.0245 20.5171 18.1909 19.9989 18.148 19.4764C18.1052 18.9539 17.8565 18.4699 17.4568 18.1306Z" fill="#0D4C40"/>
</g>
<defs>
<clipPath id="clip0_4986_20414">
<rect width="32" height="32" fill="white" transform="translate(0.181641)"/>
</clipPath>
</defs>
</svg>
