<svg width="32" height="32" viewBox="0 0 32 32" fill="none" xmlns="http://www.w3.org/2000/svg">
<g clip-path="url(#clip0_5039_21624)">
<path d="M31.9531 14.1215C31.9179 13.6387 31.914 13.1528 31.8209 12.6731C31.6018 11.549 31.2636 10.4514 30.8121 9.39897C29.8737 7.1938 28.466 5.32981 26.6877 3.74832C25.241 2.47051 23.5659 1.47804 21.7507 0.823222C20.8326 0.485951 19.9004 0.19172 18.9174 0.104859C18.456 0.0641675 17.9961 0.0680801 17.5394 0H14.4183C14.355 0.0539946 14.2791 0.025041 14.2088 0.0305187C13.5949 0.0837307 12.9747 0.0751229 12.3663 0.199545C10.6497 0.551684 9.05516 1.21683 7.54427 2.09249C6.09204 2.93762 4.85486 4.04333 3.74046 5.28521C2.59912 6.5706 1.68774 8.04323 1.04636 9.63842C0.599037 10.7261 0.2307 11.8405 0.107921 13.0205C0.0609986 13.4673 0.0782033 13.9204 0 14.3649V16.4887C0.046922 16.5419 0.0265891 16.6069 0.0312813 16.6671C0.0742931 17.243 0.0649087 17.8253 0.187688 18.3887C0.843936 21.5329 2.48812 24.3846 4.87988 26.527C4.97608 26.6119 5.0515 26.7178 5.10031 26.8365C5.14912 26.9553 5.17003 27.0836 5.16142 27.2117C5.15281 28.4504 5.15672 29.6892 5.16142 30.9279C5.15325 31.1257 5.17514 31.3236 5.22633 31.5148C5.30453 31.7746 5.44764 31.9405 5.74012 31.9844C6.1116 32.047 6.49309 31.9695 6.81072 31.7668C7.77653 31.1525 8.75877 30.5664 9.71988 29.9466C9.96857 29.7901 10.1961 29.7706 10.4816 29.8723C12.2302 30.4983 14.0453 30.7652 15.8948 30.8113C16.778 30.8249 17.6609 30.7649 18.5342 30.6321C21.7608 30.1759 24.5746 28.8323 26.9747 26.6412C28.7456 25.0323 30.1226 23.0369 30.999 20.8098C31.4143 19.7612 31.7638 18.6876 31.8835 17.5662C32.0104 16.4224 32.0337 15.2695 31.9531 14.1215ZM26.5078 11.6957C26.4415 11.7891 26.3664 11.8759 26.2833 11.9547C23.724 14.5146 21.1652 17.0745 18.6069 19.6345C18.1518 20.0899 17.8663 20.0993 17.3721 19.6759C16.0849 18.5734 14.7914 17.4747 13.5151 16.3611C13.3118 16.1835 13.1686 16.1561 12.9247 16.2907C10.8053 17.4645 8.67822 18.6164 6.55265 19.7761C6.03025 20.0609 5.71118 20.0414 5.4711 19.7111C5.23102 19.3809 5.30766 19.0663 5.72135 18.6524L13.354 11.0141C13.5331 10.8357 13.7114 10.6596 13.9992 10.6753C14.2338 10.6667 14.3996 10.8099 14.5661 10.9531C15.8682 12.0705 17.1734 13.1848 18.4693 14.3101C18.6523 14.4666 18.7821 14.4956 19.0065 14.3719C21.1344 13.1982 23.2709 12.0361 25.4059 10.8725C25.5214 10.8026 25.6441 10.7454 25.7719 10.7019C25.9016 10.6603 26.0411 10.6604 26.1708 10.702C26.3005 10.7436 26.414 10.8247 26.4954 10.934C26.5768 11.0433 26.6221 11.1753 26.6248 11.3116C26.6276 11.4479 26.5878 11.5816 26.5109 11.6941L26.5078 11.6957Z" fill="white"/>
</g>
<defs>
<clipPath id="clip0_5039_21624">
<rect width="32" height="32" fill="white"/>
</clipPath>
</defs>
</svg>
