<svg width="24" height="24" viewBox="0 0 24 24" fill="none" xmlns="http://www.w3.org/2000/svg">
<path d="M7.82 2.03912C6.9 2.21912 6.18 2.95912 5.7 3.73912C4.88 5.07912 4.5 6.73912 4.5 8.29912C4.5 8.97912 4.52 9.61912 4.82 10.2391C5.08 10.8191 5.5 11.3391 6.02 11.6991C6.22 11.8391 6.8 12.0391 6.86 12.2591C7.02 12.8191 6.82 13.6191 6.8 14.1991C6.74 15.7591 6.68 17.3191 6.6 18.8791C6.54 20.0191 6.36 21.7191 7.92 21.9391C8.12 21.9591 8.38 21.9791 8.58 21.9391C9.28 21.8191 9.78 21.2391 9.88 20.5591C9.94 20.1791 9.86 19.7991 9.86 19.4191C9.84 18.4391 9.74 17.4591 9.74 16.4991C9.74 15.4391 9.64 14.3991 9.62 13.3391C9.62 12.9991 9.52 12.6391 9.58 12.2791C9.62 12.0191 10.3 11.7791 10.52 11.6191C11.04 11.2191 11.46 10.6591 11.72 10.0591C11.96 9.45912 11.98 8.85912 11.98 8.21912C11.98 6.59912 11.56 4.69912 10.58 3.37912C9.94 2.55912 8.96 1.79912 7.82 2.03912Z" fill="#03483F"/>
<path d="M13.4396 2.01805C13.4396 3.57805 13.3196 5.13805 13.2796 6.69805C13.2596 7.29805 13.1596 7.93805 13.2596 8.53805C13.3596 9.21805 13.6796 9.85805 14.1796 10.338C14.3796 10.538 14.9996 10.778 15.0596 11.038C15.0996 11.198 15.0396 11.418 15.0396 11.578C15.0396 12.138 14.9996 12.698 14.9596 13.258C14.8796 14.518 14.8396 15.818 14.7996 17.078C14.7796 17.878 14.7396 18.698 14.7196 19.498C14.6996 19.918 14.6396 20.338 14.7196 20.738C14.8796 21.398 15.4596 21.958 16.1596 21.978C17.0396 22.018 17.8196 21.558 17.9996 20.658C18.0796 20.278 18.0196 19.898 17.9996 19.518C17.9596 18.718 17.9196 17.938 17.9196 17.138C17.9196 15.858 17.8396 14.518 17.7596 13.238C17.7196 12.678 17.6796 12.118 17.6796 11.558C17.6796 11.398 17.6196 11.178 17.6596 11.018C17.7196 10.758 18.2596 10.558 18.4596 10.378C18.8796 10.018 19.1996 9.47805 19.3596 8.93805C19.5796 8.19805 19.4596 7.41805 19.4396 6.67805C19.3996 5.11805 19.2796 3.55805 19.2796 1.99805H18.1996L17.9996 7.99805H17.2196L17.0196 1.99805H15.6996L15.4996 7.99805H14.7196L14.5196 1.99805H13.4396V2.01805Z" fill="#03483F"/>
</svg>
