<svg width="33" height="32" viewBox="0 0 33 32" fill="none" xmlns="http://www.w3.org/2000/svg">
<path d="M27.5325 6.91122C27.4808 6.88035 27.4234 6.86002 27.3638 6.85139C27.3042 6.84276 27.2435 6.846 27.1851 6.86093C27.1267 6.87572 27.0718 6.90192 27.0235 6.93801C26.9753 6.9741 26.9346 7.01937 26.9039 7.07122L26.4079 7.91007C26.3458 8.01495 26.3279 8.14021 26.3581 8.2583C26.3883 8.3764 26.4642 8.47765 26.5691 8.53979C26.674 8.60192 26.7992 8.61985 26.9173 8.58963C27.0354 8.55941 27.1367 8.48352 27.1988 8.37864L27.6879 7.54207C27.7195 7.49053 27.7405 7.43325 27.7497 7.37354C27.7589 7.31384 27.7563 7.25289 27.7418 7.19423C27.7274 7.13556 27.7014 7.08035 27.6655 7.03177C27.6296 6.98319 27.5844 6.94222 27.5325 6.91122Z" fill="#03483F"/>
<path d="M28.2637 9.90798L29.1277 9.4234C29.1796 9.39271 29.2248 9.35207 29.2609 9.30383C29.297 9.25558 29.3232 9.20067 29.338 9.14226C29.3529 9.08389 29.3562 9.02315 29.3475 8.96353C29.3389 8.9039 29.3186 8.84657 29.2877 8.79483C29.2283 8.69252 29.1314 8.61725 29.0176 8.58485C28.9038 8.55245 28.7819 8.56545 28.6774 8.62112L27.8157 9.10569C27.706 9.1641 27.6238 9.26352 27.5871 9.38226C27.5709 9.44053 27.5663 9.50144 27.5738 9.56147C27.5813 9.6215 27.6005 9.67946 27.6306 9.73198C27.6598 9.78585 27.6996 9.83329 27.7476 9.87146C27.7956 9.90964 27.8508 9.93778 27.9098 9.9542C27.9689 9.97062 28.0307 9.97499 28.0915 9.96705C28.1523 9.95911 28.2108 9.93902 28.2637 9.90798Z" fill="#03483F"/>
<path d="M29.4117 10.834H28.4152C28.2939 10.834 28.1776 10.8821 28.0919 10.9679C28.0062 11.0536 27.958 11.1699 27.958 11.2911C27.958 11.4124 28.0062 11.5286 28.0919 11.6144C28.1776 11.7001 28.2939 11.7483 28.4152 11.7483H29.4117C29.533 11.7483 29.6492 11.7001 29.735 11.6144C29.8207 11.5286 29.8689 11.4124 29.8689 11.2911C29.8689 11.1699 29.8207 11.0536 29.735 10.9679C29.6492 10.8821 29.533 10.834 29.4117 10.834Z" fill="#03483F"/>
<path d="M4.81032 28.6993C4.86859 28.7156 4.9295 28.7201 4.98953 28.7127C5.04956 28.7052 5.10752 28.6859 5.16003 28.6559L28.6709 15.0856C28.7764 15.025 28.8534 14.925 28.8852 14.8075C28.9169 14.6901 28.9007 14.5648 28.84 14.4593C28.7794 14.3538 28.6794 14.2768 28.5619 14.245C28.4445 14.2133 28.3192 14.2296 28.2137 14.2902L24.4926 16.4388V16.4136C24.4723 16.3725 24.447 16.3341 24.4172 16.2993L21.0115 12.9073C20.9296 12.8245 20.8192 12.7759 20.7029 12.7717C20.5865 12.7674 20.4728 12.8078 20.3852 12.8845L16.4995 16.2765C16.4537 16.3159 16.4161 16.364 16.389 16.418C16.3618 16.472 16.3455 16.5308 16.341 16.5911C16.3366 16.6514 16.344 16.7119 16.363 16.7693C16.3819 16.8267 16.412 16.8798 16.4515 16.9256C16.4909 16.9714 16.539 17.0089 16.593 17.0361C16.647 17.0633 16.7058 17.0796 16.7661 17.0841C16.8264 17.0885 16.8869 17.0811 16.9443 17.0621C17.0017 17.0432 17.0548 17.0131 17.1006 16.9736L20.6686 13.8605L20.6846 13.8765L23.6995 16.8936L23.672 16.9096L14.8469 22.0045V14.1713H14.936C15.3071 14.1565 15.6581 13.9987 15.9154 13.7309C16.1727 13.4631 16.3164 13.1061 16.3164 12.7348C16.3164 12.3634 16.1727 12.0064 15.9154 11.7386C15.6581 11.4708 15.3071 11.313 14.936 11.2982H14.8492V9.83533C14.8492 9.71409 14.801 9.59781 14.7153 9.51208C14.6296 9.42635 14.5133 9.37819 14.392 9.37819C14.2708 9.37819 14.1545 9.42635 14.0688 9.51208C13.9831 9.59781 13.9349 9.71409 13.9349 9.83533V11.2982H11.9692L9.51432 8.65133V8.3839C9.51432 8.26266 9.46616 8.14638 9.38043 8.06065C9.29469 7.97492 9.17842 7.92676 9.05718 7.92676H6.14746C6.02622 7.92676 5.90995 7.97492 5.82421 8.06065C5.73848 8.14638 5.69032 8.26266 5.69032 8.3839V14.1873C5.67997 17.3202 4.65956 20.3662 2.78061 22.873L2.74861 22.921C2.49857 23.3637 2.43176 23.8866 2.56248 24.3779C2.69321 24.8692 3.01107 25.2898 3.44803 25.5496C3.73813 25.7185 4.06777 25.8076 4.40346 25.8079C4.57088 25.8083 4.73763 25.7868 4.89946 25.7439C5.13794 25.6826 5.36183 25.5745 5.55806 25.4258C5.75428 25.277 5.9189 25.0907 6.04232 24.8776L6.83546 23.7348C7.82835 22.2845 8.56155 20.6727 9.00232 18.9713V18.9416L9.02975 18.9553L10.04 19.4673V20.9896C10.0548 21.3589 10.2119 21.7082 10.4784 21.9642C10.7449 22.2203 11.1002 22.3633 11.4697 22.3633C11.8393 22.3633 12.1946 22.2203 12.4611 21.9642C12.7276 21.7082 12.8847 21.3589 12.8995 20.9896V17.7142C12.8998 17.6336 12.8788 17.5544 12.8387 17.4846C12.7985 17.4147 12.7407 17.3567 12.6709 17.3165L9.49375 15.4879V15.4719C9.49375 15.417 9.49375 15.3622 9.49375 15.3073C9.49375 15.2525 9.49375 15.1428 9.49375 15.0605V12.4456L10.9589 14.0273C11.0016 14.074 11.0535 14.1113 11.1113 14.1369C11.1691 14.1624 11.2317 14.1757 11.2949 14.1759H13.928V22.4045C13.93 22.4332 13.9354 22.4616 13.944 22.489V22.5096H13.9257L4.70746 27.8582C4.6548 27.8877 4.60851 27.9273 4.57124 27.9748C4.53397 28.0222 4.50647 28.0766 4.49032 28.1348C4.47406 28.193 4.46953 28.2539 4.47698 28.314C4.48444 28.374 4.50373 28.432 4.53375 28.4845C4.56346 28.5367 4.60319 28.5826 4.65064 28.6194C4.6981 28.6563 4.75236 28.6835 4.81032 28.6993ZM8.59089 15.1702C8.57905 18.0387 7.70284 20.8369 6.07661 23.1999L5.26289 24.3862C5.13423 24.6133 4.92084 24.7803 4.66941 24.8506C4.41797 24.9208 4.14895 24.8886 3.92118 24.761H3.90746C3.68179 24.6281 3.51642 24.4128 3.4461 24.1605C3.37577 23.9082 3.40596 23.6384 3.53032 23.4079C5.32012 21.018 6.37562 18.1589 6.56803 15.1793V15.1565H8.59089V15.1702ZM8.59089 14.2262H6.60232V8.84333H8.59089V14.2262ZM11.9875 17.9793V20.985C11.9875 21.1202 11.9338 21.2499 11.8382 21.3455C11.7426 21.4411 11.6129 21.4948 11.4777 21.4948C11.3426 21.4948 11.2129 21.4411 11.1173 21.3455C11.0217 21.2499 10.968 21.1202 10.968 20.985V19.1793C10.9682 19.0945 10.9448 19.0113 10.9004 18.9391C10.856 18.8668 10.7923 18.8084 10.7166 18.7702L9.22175 18.0159V17.9953C9.31775 17.5085 9.38861 17.0216 9.43432 16.5485V16.5096L9.46861 16.5302L11.9875 17.9793ZM11.528 13.257L9.53261 11.1039V10.0022L9.55318 10.057L11.4275 12.0799C11.4704 12.1268 11.5227 12.1643 11.5809 12.1899C11.6392 12.2155 11.7021 12.2286 11.7657 12.2285H14.2412C14.2871 12.2478 14.3365 12.2577 14.3863 12.2577C14.4362 12.2577 14.4855 12.2478 14.5315 12.2285H14.936C15.0601 12.247 15.1734 12.3094 15.2554 12.4044C15.3373 12.4994 15.3823 12.6207 15.3823 12.7462C15.3823 12.8716 15.3373 12.9929 15.2554 13.0879C15.1734 13.183 15.0601 13.2454 14.936 13.2639L11.528 13.257Z" fill="#03483F"/>
<path d="M5.6244 4.37218C5.45205 4.63484 5.33343 4.92903 5.27537 5.23778C5.2173 5.54652 5.22096 5.86371 5.28611 6.17104C5.39837 6.71246 5.69466 7.19831 6.12461 7.546C6.55456 7.89369 7.09164 8.08177 7.64457 8.07827C8.1975 8.07477 8.73216 7.8799 9.15767 7.5268C9.58318 7.17369 9.87329 6.68413 9.97869 6.14132V6.12075H11.0164C11.1376 6.12075 11.2539 6.07259 11.3396 5.98686C11.4254 5.90113 11.4735 5.78485 11.4735 5.66361C11.4735 5.54237 11.4254 5.42609 11.3396 5.34036C11.2539 5.25463 11.1376 5.20647 11.0164 5.20647H9.98326V5.18589C9.86861 4.64775 9.5727 4.16528 9.14501 3.81913C8.71732 3.47298 8.18376 3.28414 7.63354 3.28418C7.46694 3.28416 7.30076 3.30101 7.13754 3.33447C6.82924 3.3988 6.53676 3.52364 6.27703 3.70177C6.0173 3.87989 5.79548 4.10776 5.6244 4.37218ZM9.01869 6.17104C8.91956 6.46148 8.73252 6.71389 8.48352 6.89327C8.23451 7.07266 7.93586 7.17013 7.62897 7.17218C7.32217 7.1698 7.02367 7.07219 6.77473 6.89286C6.52579 6.71352 6.33868 6.4613 6.23926 6.17104L6.22783 6.13675H9.03011L9.01869 6.17104ZM9.01869 5.18361L9.03011 5.21789H6.22783L6.23926 5.18361C6.33661 4.89206 6.52319 4.63851 6.7726 4.45884C7.022 4.27918 7.32159 4.18251 7.62897 4.18251C7.93635 4.18251 8.23594 4.27918 8.48534 4.45884C8.73475 4.63851 8.92133 4.89206 9.01869 5.18361Z" fill="#03483F"/>
<path d="M4.69366 7.33008C4.18645 7.33068 3.70019 7.53244 3.34153 7.89109C2.98288 8.24975 2.78112 8.73601 2.78052 9.24322V13.6066C2.78353 14.4987 3.13922 15.3533 3.76998 15.984C4.40073 16.6148 5.25536 16.9705 6.14737 16.9735C6.40109 16.9735 6.39652 16.6329 6.39652 16.3792L6.6068 9.24322C6.6062 8.73601 6.40444 8.24975 6.04579 7.89109C5.68714 7.53244 5.20087 7.33068 4.69366 7.33008ZM5.68795 16.0158L5.66737 15.9998C5.11575 15.8847 4.62032 15.5838 4.26381 15.1474C3.90729 14.7111 3.71129 14.1656 3.70852 13.6021V9.24322C3.70852 8.97952 3.81327 8.72662 3.99974 8.54016C4.1862 8.35369 4.4391 8.24894 4.7028 8.24894C4.9665 8.24894 5.2194 8.35369 5.40587 8.54016C5.59233 8.72662 5.69709 8.97952 5.69709 9.24322L5.68795 16.0158Z" fill="#03483F"/>
<path d="M25.0479 9.37109C24.6695 9.37109 24.2996 9.4833 23.985 9.69352C23.6704 9.90374 23.4252 10.2025 23.2804 10.5521C23.1356 10.9017 23.0977 11.2864 23.1715 11.6575C23.2453 12.0286 23.4276 12.3695 23.6951 12.637C23.9627 12.9046 24.3036 13.0868 24.6747 13.1606C25.0458 13.2344 25.4305 13.1966 25.78 13.0517C26.1296 12.9069 26.4284 12.6617 26.6386 12.3471C26.8488 12.0325 26.9611 11.6626 26.9611 11.2842C26.9604 10.777 26.7587 10.2908 26.4 9.93211C26.0414 9.57346 25.5551 9.3717 25.0479 9.37109ZM25.0479 12.2785C24.8506 12.279 24.6576 12.2209 24.4934 12.1115C24.3292 12.0022 24.2011 11.8466 24.1254 11.6644C24.0496 11.4822 24.0297 11.2816 24.0681 11.0881C24.1065 10.8946 24.2014 10.7168 24.3409 10.5773C24.4805 10.4378 24.6582 10.3428 24.8518 10.3044C25.0453 10.266 25.2459 10.286 25.4281 10.3617C25.6102 10.4374 25.7659 10.5655 25.8752 10.7297C25.9845 10.8939 26.0426 11.0869 26.0422 11.2842C26.0431 11.4155 26.0181 11.5456 25.9685 11.6672C25.919 11.7887 25.8459 11.8993 25.7535 11.9925C25.6612 12.0858 25.5513 12.1599 25.4302 12.2105C25.3091 12.2611 25.1792 12.2874 25.0479 12.2877V12.2785Z" fill="#03483F"/>
<path d="M21.6673 10.834H20.6593C20.538 10.834 20.4218 10.8821 20.336 10.9679C20.2503 11.0536 20.2021 11.1699 20.2021 11.2911C20.2021 11.4124 20.2503 11.5286 20.336 11.6144C20.4218 11.7001 20.538 11.7483 20.6593 11.7483H21.6673C21.7885 11.7483 21.9048 11.7001 21.9905 11.6144C22.0763 11.5286 22.1244 11.4124 22.1244 11.2911C22.1244 11.1699 22.0763 11.0536 21.9905 10.9679C21.9048 10.8821 21.7885 10.834 21.6673 10.834Z" fill="#03483F"/>
<path d="M22.2596 8.98705L21.3979 8.50248C21.3278 8.46427 21.2491 8.4446 21.1693 8.44533C21.0982 8.44472 21.028 8.46071 20.9641 8.49201C20.9003 8.52332 20.8446 8.56908 20.8016 8.62567C20.7585 8.68225 20.7293 8.7481 20.7161 8.81798C20.703 8.88785 20.7063 8.95983 20.7259 9.02819C20.7434 9.08732 20.7726 9.14231 20.8119 9.18984C20.8512 9.23737 20.8997 9.27646 20.9545 9.30476L21.8185 9.78933C21.871 9.81928 21.929 9.83849 21.9891 9.84585C22.0492 9.85321 22.1101 9.84857 22.1684 9.83219C22.2266 9.81582 22.2811 9.78805 22.3285 9.75048C22.3759 9.71291 22.4155 9.66629 22.4447 9.61333C22.4743 9.5602 22.493 9.50169 22.4997 9.44124C22.5064 9.38079 22.501 9.31961 22.4838 9.26129C22.4665 9.20296 22.4378 9.14867 22.3993 9.10158C22.3608 9.05448 22.3133 9.01555 22.2596 8.98705Z" fill="#03483F"/>
<path d="M23.2083 7.07188C23.1779 7.01895 23.1371 6.97266 23.0884 6.93576C23.0397 6.89886 22.9841 6.87208 22.9249 6.85702C22.8666 6.8421 22.8058 6.83886 22.7462 6.84749C22.6866 6.85612 22.6292 6.87645 22.5775 6.90731C22.5253 6.93793 22.4796 6.97863 22.4433 7.02704C22.4069 7.07544 22.3805 7.13059 22.3656 7.18928C22.3507 7.24798 22.3476 7.30904 22.3565 7.36893C22.3654 7.42882 22.3862 7.48635 22.4175 7.53817L22.9158 8.37702C22.9811 8.47176 23.0797 8.53839 23.192 8.56361C23.3042 8.58882 23.4219 8.57078 23.5214 8.51307C23.621 8.45536 23.6951 8.36224 23.729 8.25228C23.7629 8.14232 23.7541 8.02363 23.7043 7.91988L23.2083 7.07188Z" fill="#03483F"/>
<path d="M25.0526 6.2627C24.9314 6.2627 24.8151 6.31086 24.7294 6.39659C24.6436 6.48232 24.5955 6.5986 24.5955 6.71984V7.68898C24.5955 7.81022 24.6436 7.9265 24.7294 8.01223C24.8151 8.09796 24.9314 8.14613 25.0526 8.14613C25.1738 8.14613 25.2901 8.09796 25.3759 8.01223C25.4616 7.9265 25.5097 7.81022 25.5097 7.68898V6.72212C25.51 6.6619 25.4984 6.60221 25.4756 6.54648C25.4528 6.49075 25.4191 6.44009 25.3767 6.3974C25.3342 6.3547 25.2837 6.32083 25.2281 6.29771C25.1725 6.27459 25.1128 6.26269 25.0526 6.2627Z" fill="#03483F"/>
</svg>
