<svg width="24" height="24" viewBox="0 0 24 24" fill="none" xmlns="http://www.w3.org/2000/svg">
<g clip-path="url(#clip0_4301_53811)">
<path d="M11.9366 7.93892C12.888 7.93892 13.4589 8.4532 13.4589 9.31035C13.4589 10.8652 10.6834 11.2938 10.6834 13.1812C10.6834 13.6955 11.016 14.2423 11.6983 14.2423C12.7457 14.2423 12.6189 13.4658 12.9994 12.9103C13.5137 12.1646 15.8709 11.3675 15.8709 9.31035C15.8709 7.08177 13.8737 6.13892 11.8423 6.13892C9.90686 6.13892 8.13086 7.51892 8.13086 9.07377C8.13086 9.70806 8.60572 10.0406 9.15943 10.0406C10.6989 10.0321 9.90686 7.93892 11.9366 7.93892Z" fill="#D33731"/>
<path d="M13.0622 16.5687C13.0622 16.3114 12.9859 16.0598 12.843 15.8458C12.7 15.6319 12.4968 15.4651 12.259 15.3666C12.0213 15.2681 11.7597 15.2424 11.5073 15.2926C11.2549 15.3428 11.023 15.4667 10.8411 15.6487C10.6591 15.8306 10.5352 16.0625 10.485 16.3149C10.4348 16.5673 10.4605 16.8289 10.559 17.0666C10.6575 17.3044 10.8243 17.5076 11.0382 17.6506C11.2522 17.7936 11.5038 17.8699 11.7611 17.8699C12.1058 17.8685 12.4359 17.731 12.6797 17.4873C12.9234 17.2436 13.0609 16.9134 13.0622 16.5687Z" fill="#D33731"/>
<path d="M22.2853 12.0001C22.2853 9.96575 21.682 7.97712 20.5518 6.28564C19.4216 4.59416 17.8152 3.27582 15.9358 2.49731C14.0563 1.71881 11.9882 1.51512 9.99294 1.912C7.99771 2.30887 6.16497 3.28849 4.72649 4.72698C3.288 6.16546 2.30839 7.9982 1.91151 9.99343C1.51463 11.9887 1.71832 14.0568 2.49682 15.9362C3.27533 17.8157 4.59367 19.4221 6.28515 20.5523C7.97662 21.6825 9.96526 22.2858 11.9996 22.2858C14.7265 22.2826 17.3409 21.1979 19.2692 19.2697C21.1974 17.3414 22.2821 14.727 22.2853 12.0001ZM2.74244 12.0001C2.74244 10.1692 3.28536 8.37941 4.30255 6.85708C5.31974 5.33475 6.76551 4.14824 8.45703 3.44759C10.1486 2.74694 12.0099 2.56362 13.8056 2.92081C15.6013 3.27799 17.2507 4.15965 18.5454 5.45429C19.84 6.74892 20.7217 8.39839 21.0788 10.1941C21.436 11.9898 21.2527 13.8511 20.5521 15.5426C19.8514 17.2342 18.6649 18.6799 17.1426 19.6971C15.6202 20.7143 13.8305 21.2572 11.9996 21.2572C9.54569 21.2531 7.19347 20.2765 5.4583 18.5414C3.72314 16.8062 2.74652 14.454 2.74244 12.0001Z" fill="#D33731"/>
</g>
<defs>
<clipPath id="clip0_4301_53811">
<rect width="24" height="24" fill="white"/>
</clipPath>
</defs>
</svg>
