<svg width="32" height="32" viewBox="0 0 32 32" fill="none" xmlns="http://www.w3.org/2000/svg">
<g clip-path="url(#clip0_4274_52158)">
<path d="M29.5726 26.448L16.864 4.50511C16.7735 4.34745 16.643 4.21647 16.4857 4.12538C16.3284 4.03429 16.1498 3.98633 15.968 3.98633C15.7862 3.98633 15.6077 4.03429 15.4504 4.12538C15.293 4.21647 15.1625 4.34745 15.072 4.50511L2.42517 26.448C2.33451 26.6055 2.2869 26.784 2.28711 26.9658C2.28732 27.1475 2.33536 27.3259 2.42639 27.4832C2.51742 27.6405 2.64824 27.771 2.80571 27.8618C2.96317 27.9525 3.14174 28.0001 3.32346 28H28.6766C28.8581 27.9997 29.0364 27.9518 29.1936 27.8609C29.3507 27.77 29.4812 27.6394 29.572 27.4822C29.6627 27.325 29.7106 27.1467 29.7107 26.9652C29.7108 26.7837 29.6632 26.6053 29.5726 26.448ZM28.4755 26.8503C28.4354 26.9197 28.3777 26.9773 28.3083 27.0175C28.2389 27.0576 28.1602 27.0787 28.08 27.0788H3.91774C3.83754 27.0787 3.75877 27.0576 3.68934 27.0174C3.61991 26.9772 3.56226 26.9195 3.5222 26.85C3.48213 26.7806 3.46105 26.7018 3.46107 26.6216C3.46109 26.5414 3.48221 26.4626 3.52231 26.3931L15.5749 5.48568C15.615 5.41625 15.6726 5.35859 15.742 5.31847C15.8114 5.27835 15.8901 5.25719 15.9703 5.25711C16.0505 5.25719 16.1292 5.27835 16.1986 5.31847C16.268 5.35859 16.3257 5.41625 16.3657 5.48568L28.48 26.3863C28.5207 26.457 28.5418 26.5373 28.541 26.6189C28.5402 26.7005 28.5176 26.7804 28.4755 26.8503Z" fill="#0D4C3F"/>
<path d="M15.9996 10.7428C15.8793 10.7457 15.7647 10.7948 15.6796 10.8799C15.5945 10.965 15.5454 11.0796 15.5425 11.2V20.3611C15.5425 20.4854 15.5918 20.6046 15.6797 20.6924C15.7676 20.7803 15.8868 20.8297 16.0111 20.8297C16.1353 20.8297 16.2545 20.7803 16.3424 20.6924C16.4303 20.6046 16.4796 20.4854 16.4796 20.3611V11.2C16.4781 11.1384 16.4645 11.0778 16.4396 11.0215C16.4147 10.9652 16.3789 10.9144 16.3343 10.8719C16.2898 10.8295 16.2373 10.7962 16.1798 10.7741C16.1224 10.7519 16.0612 10.7413 15.9996 10.7428Z" fill="#0D4C3F"/>
<path d="M15.9999 24.1349C16.5831 24.1349 17.0559 23.6622 17.0559 23.0789C17.0559 22.4957 16.5831 22.0229 15.9999 22.0229C15.4166 22.0229 14.9438 22.4957 14.9438 23.0789C14.9438 23.6622 15.4166 24.1349 15.9999 24.1349Z" fill="#0D4C3F"/>
</g>
<defs>
<clipPath id="clip0_4274_52158">
<rect width="32" height="32" fill="white"/>
</clipPath>
</defs>
</svg>
