<svg width="33" height="32" viewBox="0 0 33 32" fill="none" xmlns="http://www.w3.org/2000/svg">
<g clip-path="url(#clip0_4986_20353)">
<path d="M8.68476 16.7178L8.30762 15.8446L10.1842 15.04L10.5453 15.8812L8.68476 16.7178Z" fill="#0D4C40"/>
<path d="M6.63415 10.5144C6.1514 10.5144 5.67952 10.3712 5.27825 10.1028C4.87699 9.83438 4.5644 9.45294 4.38008 9.00676C4.19576 8.56059 4.148 8.06975 4.24285 7.59641C4.3377 7.12307 4.57088 6.68852 4.91288 6.34781C5.25488 6.0071 5.69029 5.77554 6.16399 5.68247C6.63768 5.5894 7.12834 5.63901 7.57382 5.825C8.0193 6.011 8.39956 6.32501 8.66644 6.72728C8.93332 7.12955 9.07482 7.60197 9.07301 8.08472C9.06999 8.72977 8.81178 9.34741 8.3548 9.80268C7.89782 10.258 7.27921 10.5138 6.63415 10.5144ZM6.63415 6.55101C6.33262 6.55101 6.03786 6.64042 5.78715 6.80794C5.53643 6.97546 5.34102 7.21357 5.22563 7.49215C5.11024 7.77073 5.08005 8.07727 5.13888 8.37301C5.1977 8.66875 5.3429 8.9404 5.55612 9.15361C5.76933 9.36683 6.04099 9.51203 6.33672 9.57086C6.63246 9.62968 6.939 9.59949 7.21758 9.4841C7.49616 9.36871 7.73427 9.1733 7.90179 8.92258C8.06931 8.67187 8.15873 8.37711 8.15873 8.07558C8.15571 7.67301 7.99383 7.28792 7.70831 7.00411C7.42279 6.7203 7.03673 6.56074 6.63415 6.56015V6.55101Z" fill="#0D4C40"/>
<path d="M12.7669 2.34082L11.7383 7.83339L11.4412 9.42196L11.1623 10.9008L10.9863 11.8494L11.8275 12.318L12.0903 10.9191L12.584 8.27911L12.8195 7.02196L13.6972 2.34082H12.7669Z" fill="#0D4C40"/>
<path d="M18.0632 17.0609C17.9956 17.0202 17.9245 16.9858 17.8507 16.958L15.0392 15.8952C14.9863 15.8769 14.9307 15.8676 14.8747 15.8678H11.5078L11.2678 15.3146L10.7467 14.0986L11.4324 14.4415L12.3741 14.9123C12.4373 14.9438 12.5069 14.9603 12.5775 14.9603H14.3307C14.6722 14.9607 15.0028 14.8398 15.2636 14.6192C15.5243 14.3986 15.6984 14.0926 15.7547 13.7558C15.9832 12.462 14.4061 12.0575 14.4061 12.0575L12.7307 11.7718L12.5821 11.6895L13.2884 11.2186C13.3386 11.1852 13.382 11.1425 13.4164 11.0929L14.4061 9.60033C15.0735 8.32947 14.4061 7.47919 14.4061 7.47919C14.2123 7.26034 13.9602 7.10115 13.6793 7.02021C13.3985 6.93926 13.1003 6.9399 12.8198 7.02204L12.5912 8.27919L12.8038 8.06662C12.9177 7.95484 13.0688 7.8891 13.2282 7.882C13.3876 7.87491 13.544 7.92698 13.6673 8.0282C13.7906 8.12942 13.8722 8.27264 13.8964 8.43036C13.9205 8.58807 13.8855 8.74914 13.7981 8.88262L12.7055 10.5146L12.0907 10.926L11.8392 12.318L12.3672 12.6106C12.4135 12.6362 12.4637 12.654 12.5158 12.6632L14.4312 12.9832C14.561 13.0074 14.6771 13.079 14.757 13.184C14.837 13.289 14.8751 13.42 14.864 13.5515C14.8529 13.683 14.7934 13.8057 14.697 13.8958C14.6005 13.9859 14.4741 14.037 14.3421 14.0392H12.6849L11.6107 13.4998L10.7558 13.0746L10.0404 12.7158C9.95648 12.6732 9.86149 12.6575 9.76836 12.6709C9.67523 12.6842 9.5885 12.726 9.52 12.7905C9.45151 12.855 9.40458 12.9391 9.38562 13.0313C9.36666 13.1234 9.37661 13.2192 9.41409 13.3055L10.7855 16.5055C10.8012 16.5413 10.8212 16.575 10.8449 16.606L13.9787 20.6358C14.0678 21.0723 14.4061 22.7683 14.6461 23.9386C14.6852 24.1264 14.6482 24.322 14.5432 24.4826C14.4861 24.5668 14.4124 24.6386 14.3268 24.6936C14.2412 24.7486 14.1453 24.7856 14.0449 24.8026C13.865 24.8361 13.679 24.7987 13.5261 24.6981C13.3731 24.5975 13.265 24.4417 13.2244 24.2632L12.5707 21.2575C12.5525 21.1709 12.5096 21.0916 12.4472 21.0289L9.30437 17.8883L6.73752 12.3249C6.67023 12.1819 6.63512 12.0258 6.63466 11.8678V11.4586C6.63503 11.3674 6.66265 11.2785 6.71397 11.2031C6.76529 11.1278 6.83796 11.0695 6.92266 11.0358L7.82552 10.6723C8.01498 10.5965 8.21897 10.564 8.42261 10.577C8.62626 10.5901 8.82442 10.6484 9.00266 10.7478L10.9867 11.8495L11.1535 10.9009L10.0838 10.3066L10.9455 9.8769C10.9892 9.85402 11.0293 9.82475 11.0644 9.79004L11.4324 9.42204L11.7295 7.83347L10.4701 9.0929L9.0758 9.77862C8.5603 9.60565 7.99983 9.62349 7.49637 9.8289L6.58209 10.19C6.32777 10.2924 6.10996 10.4686 5.95676 10.6959C5.80357 10.9233 5.72203 11.1913 5.72266 11.4655V11.886C5.72328 12.1694 5.78242 12.4495 5.89637 12.7089L8.50666 18.3455C8.52879 18.3949 8.55978 18.4398 8.59809 18.478L11.7021 21.582L12.3284 24.4575C12.423 24.8741 12.6775 25.2369 13.0371 25.4678C13.3966 25.6986 13.8324 25.7791 14.2507 25.6918C14.6766 25.6083 15.052 25.3592 15.2946 24.9993C15.5371 24.6393 15.6269 24.1979 15.5444 23.7718V23.758C15.2678 22.4003 14.8564 20.3432 14.8564 20.3432C14.8424 20.2741 14.8127 20.2092 14.7695 20.1535L14.0381 19.2118L14.4267 19.0815L16.9867 19.7215C17.1016 19.7514 17.2199 19.7668 17.3387 19.7672C17.5939 19.7647 17.844 19.6945 18.0632 19.5638C19.5512 18.286 18.0632 17.0609 18.0632 17.0609ZM17.8644 18.4483C17.8288 18.5864 17.7402 18.7049 17.6178 18.778C17.4954 18.8512 17.3491 18.8732 17.2107 18.8392L14.5181 18.1672C14.4345 18.1428 14.3457 18.1428 14.2621 18.1672L13.4392 18.4529L12.1409 16.782H14.7809L17.5238 17.8129C17.6477 17.8594 17.7501 17.9499 17.8117 18.0671C17.8732 18.1842 17.8895 18.3199 17.8575 18.4483H17.8644Z" fill="#0D4C40"/>
<path d="M25.2946 25.3514C25.201 25.231 25.0788 25.1359 24.939 25.0749C24.7993 25.0138 24.6465 24.9886 24.4946 25.0017L19.7952 25.3925L20.1677 22.0371C20.176 21.9677 20.1681 21.8973 20.1449 21.8314L19.802 20.8828C19.7962 20.8657 19.7893 20.8489 19.7815 20.8325L18.8466 18.9719L20.1312 13.8382L22.522 12.6428L24.2683 13.2234C24.3596 13.2541 24.4583 13.2551 24.5502 13.2264C24.6422 13.1976 24.7227 13.1406 24.7803 13.0634C24.8238 13.0049 24.8527 12.9369 24.8645 12.8651C24.8764 12.7932 24.8709 12.7195 24.8486 12.6502C24.8262 12.5809 24.7876 12.5179 24.736 12.4665C24.6843 12.4151 24.6212 12.3768 24.5517 12.3548L22.81 11.7651C22.6959 11.727 22.5753 11.7119 22.4553 11.7205C22.3353 11.7291 22.2181 11.7614 22.1106 11.8154L20.0397 12.8508L19.2923 9.84738L20.1403 6.45766L24.2089 3.60738C24.2582 3.57292 24.3002 3.52907 24.3325 3.47834C24.3648 3.42761 24.3868 3.37101 24.3972 3.31177C24.4076 3.25252 24.4063 3.19181 24.3932 3.1331C24.3801 3.0744 24.3555 3.01886 24.3209 2.96966C24.2864 2.92036 24.2426 2.87835 24.1918 2.84603C24.1411 2.8137 24.0845 2.79171 24.0253 2.78131C23.966 2.7709 23.9053 2.77229 23.8466 2.78539C23.7879 2.7985 23.7324 2.82305 23.6832 2.85766L19.61 5.71481C19.4291 5.84118 19.3001 6.02872 19.2466 6.24281L18.4032 9.62566C18.3668 9.77123 18.3668 9.92352 18.4032 10.0691L19.2649 13.5159L17.9575 18.7434C17.9043 18.9551 17.9286 19.1789 18.026 19.3742L19.2649 21.8542L18.9883 24.3502L18.8489 25.6005L15.4957 27.2714C15.368 27.3347 15.2568 27.4271 15.1712 27.5411L14.1357 28.9125C14.0994 28.9606 14.0729 29.0154 14.0578 29.0738C14.0427 29.1322 14.0393 29.193 14.0478 29.2527C14.0563 29.3124 14.0765 29.3698 14.1073 29.4217C14.1381 29.4735 14.1788 29.5188 14.2272 29.5548C14.2753 29.5912 14.3301 29.6177 14.3885 29.6328C14.4469 29.6479 14.5076 29.6513 14.5673 29.6428C14.627 29.6343 14.6845 29.614 14.7363 29.5833C14.7882 29.5525 14.8334 29.5117 14.8695 29.4634L15.7243 28.3434C15.7598 28.2965 15.8041 28.2569 15.8546 28.2268L16.7895 27.6577L16.8215 27.6394L19.3357 26.3868C19.3881 26.3615 19.4447 26.346 19.5026 26.3411L24.3346 25.9388C24.4105 25.9322 24.4868 25.9446 24.5566 25.9749C24.6265 26.0052 24.6877 26.0525 24.7346 26.1125L25.914 27.6302L26.4877 28.3662L27.3586 29.4862C27.3955 29.5337 27.4414 29.5735 27.4936 29.6032C27.5459 29.6329 27.6035 29.652 27.6631 29.6595C27.7228 29.6669 27.7833 29.6625 27.8413 29.6465C27.8993 29.6305 27.9535 29.6032 28.0009 29.5662C28.0484 29.5294 28.0881 29.4835 28.1178 29.4312C28.1476 29.379 28.1667 29.3214 28.1741 29.2617C28.1816 29.202 28.1771 29.1415 28.1611 29.0835C28.1451 29.0256 28.1179 28.9713 28.0809 28.924L25.2946 25.3514Z" fill="#0D4C40"/>
</g>
<defs>
<clipPath id="clip0_4986_20353">
<rect width="32" height="32" fill="white" transform="translate(0.181641)"/>
</clipPath>
</defs>
</svg>
