<svg width="16" height="16" viewBox="0 0 16 16" fill="none" xmlns="http://www.w3.org/2000/svg">
<g clip-path="url(#clip0_3669_43936)">
<path d="M9.25731 8.00017L14.5979 2.6596C14.6804 2.57705 14.7459 2.47906 14.7906 2.3712C14.8352 2.26335 14.8582 2.14776 14.8582 2.03102C14.8582 1.91429 14.8352 1.79869 14.7906 1.69084C14.7459 1.58299 14.6804 1.485 14.5979 1.40245C14.5153 1.31991 14.4173 1.25443 14.3095 1.20976C14.2016 1.16508 14.086 1.14209 13.9693 1.14209C13.7335 1.14209 13.5074 1.23575 13.3407 1.40245L8.00017 6.74302L2.6596 1.4036C2.49289 1.23689 2.26678 1.14323 2.03102 1.14323C1.79526 1.14323 1.56916 1.23689 1.40245 1.4036C1.23575 1.5703 1.14209 1.79641 1.14209 2.03217C1.14209 2.26793 1.23575 2.49403 1.40245 2.66074L6.74302 8.00017L1.4036 13.3407C1.32105 13.4233 1.25557 13.5213 1.2109 13.6291C1.16623 13.737 1.14323 13.8526 1.14323 13.9693C1.14323 14.086 1.16623 14.2016 1.2109 14.3095C1.25557 14.4173 1.32105 14.5153 1.4036 14.5979C1.48614 14.6804 1.58414 14.7459 1.69199 14.7906C1.79984 14.8353 1.91543 14.8582 2.03217 14.8582C2.1489 14.8582 2.2645 14.8353 2.37235 14.7906C2.4802 14.7459 2.57819 14.6804 2.66074 14.5979L8.00017 9.25731L13.3407 14.5979C13.5074 14.7646 13.7335 14.8582 13.9693 14.8582C14.2051 14.8582 14.4312 14.7646 14.5979 14.5979C14.7646 14.4312 14.8582 14.2051 14.8582 13.9693C14.8582 13.7336 14.7646 13.5074 14.5979 13.3407L9.25731 8.00017Z" fill="#DD4F42"/>
</g>
<defs>
<clipPath id="clip0_3669_43936">
<rect width="16" height="16" fill="white"/>
</clipPath>
</defs>
</svg>
