<svg width="28" height="33" viewBox="0 0 28 33" fill="none" xmlns="http://www.w3.org/2000/svg">
<g clip-path="url(#clip0_4301_53650)">
<path d="M25.3235 9.8463C25.2915 9.12402 25.2915 8.43602 25.2915 7.74573C25.2937 7.61587 25.2697 7.4869 25.2209 7.36652C25.1722 7.24614 25.0996 7.13682 25.0077 7.04509C24.9158 6.95336 24.8063 6.88109 24.6858 6.8326C24.5653 6.78411 24.4363 6.7604 24.3064 6.76287C20.2081 6.76287 17.0904 5.58116 14.5007 3.05544C14.3133 2.88439 14.0687 2.78955 13.815 2.78955C13.5612 2.78955 13.3167 2.88439 13.1293 3.05544C10.5395 5.58116 7.41497 6.76287 3.32354 6.76287C3.19369 6.7604 3.06466 6.78411 2.94417 6.8326C2.82368 6.88109 2.71419 6.95336 2.62225 7.04509C2.5303 7.13682 2.45778 7.24614 2.40901 7.36652C2.36024 7.4869 2.33623 7.61587 2.3384 7.74573C2.3384 8.43145 2.3384 9.11716 2.3064 9.8463C2.16697 16.7286 1.9704 26.18 13.4858 30.148L13.8127 30.2143L14.1418 30.148C25.6184 26.18 25.4561 16.7674 25.3235 9.8463Z" fill="#0D4C3F"/>
<path d="M13.0285 19.3915C12.838 19.557 12.595 19.6493 12.3427 19.6521H12.3085C12.1774 19.6499 12.0484 19.6196 11.93 19.5632C11.8117 19.5068 11.7069 19.4257 11.6227 19.3252L8.56445 15.9469L10.0387 14.6349L12.4342 17.2909L17.7462 12.2395L19.0925 13.6841L13.0285 19.3915Z" fill="white"/>
</g>
<defs>
<clipPath id="clip0_4301_53650">
<rect width="27.6549" height="32" fill="white" transform="translate(0 0.5)"/>
</clipPath>
</defs>
</svg>
