<svg width="32" height="32" viewBox="0 0 32 32" fill="none" xmlns="http://www.w3.org/2000/svg">
<g clip-path="url(#clip0_4274_52162)">
<path d="M20.2079 14.0639C21.3187 13.9249 22.3518 13.4208 23.145 12.6308C24.0085 11.7672 24.5305 10.6204 24.6145 9.40208C24.6985 8.18373 24.339 6.97613 23.6021 6.00221C23.1616 5.4208 22.6006 4.94138 21.9577 4.5967C21.3148 4.25202 20.605 4.05021 19.8769 4.00507C19.1488 3.95993 18.4196 4.07252 17.739 4.33515C17.0584 4.59778 16.4426 5.00425 15.9336 5.52678C15.8851 5.57545 15.8482 5.63443 15.8256 5.69933C15.8031 5.76423 15.7954 5.83338 15.8033 5.90164C15.8107 5.97053 15.8332 6.03695 15.8692 6.09619C15.9051 6.15544 15.9536 6.20606 16.0113 6.24449C16.103 6.3071 16.2143 6.3342 16.3245 6.32074C16.4347 6.30728 16.5362 6.25418 16.6101 6.17135C16.9924 5.77438 17.4512 5.45909 17.9588 5.24458C18.4664 5.03006 19.0122 4.92078 19.5633 4.92335H19.6867C20.3051 4.93917 20.9119 5.09533 21.4611 5.38004C22.0103 5.66474 22.4876 6.07054 22.857 6.56678L22.8707 6.58506C23.4637 7.37938 23.75 8.36108 23.6769 9.34964C23.6039 10.3382 23.1763 11.2671 22.473 11.9656L22.4479 11.9931C21.8071 12.6274 20.9729 13.0296 20.0776 13.1359C19.9658 13.1502 19.8629 13.2043 19.7878 13.2882C19.7126 13.3722 19.6703 13.4804 19.6684 13.5931C19.6703 13.66 19.6863 13.7258 19.7155 13.7861C19.7446 13.8464 19.7862 13.8998 19.8376 13.9428C19.8866 13.989 19.9451 14.0238 20.0092 14.0448C20.0732 14.0657 20.141 14.0723 20.2079 14.0639Z" fill="#0D4C3F"/>
<path d="M12.599 7.34863C11.5777 7.34863 10.5795 7.65146 9.73033 8.21883C8.88121 8.78619 8.2194 9.59261 7.82859 10.5361C7.43778 11.4796 7.33553 12.5178 7.53476 13.5194C7.734 14.521 8.22576 15.441 8.94788 16.1632C9.67 16.8853 10.59 17.377 11.5916 17.5763C12.5932 17.7755 13.6314 17.6733 14.5749 17.2824C15.5184 16.8916 16.3248 16.2298 16.8922 15.3807C17.4596 14.5316 17.7624 13.5333 17.7624 12.5121C17.7606 11.1432 17.216 9.83091 16.2481 8.86297C15.2801 7.89503 13.9678 7.35045 12.599 7.34863ZM12.599 16.7589C11.7589 16.7594 10.9376 16.5107 10.2389 16.0443C9.54023 15.5779 8.99555 14.9148 8.67376 14.1388C8.35198 13.3629 8.26755 12.5089 8.43116 11.6849C8.59477 10.861 8.99906 10.1041 9.5929 9.50989C10.1867 8.91573 10.9435 8.51103 11.7673 8.34697C12.5912 8.18292 13.4452 8.26689 14.2214 8.58826C14.9975 8.90963 15.6609 9.45396 16.1277 10.1524C16.5944 10.8508 16.8435 11.672 16.8435 12.5121C16.8423 13.6376 16.3948 14.7168 15.5991 15.5129C14.8035 16.309 13.7245 16.7571 12.599 16.7589Z" fill="#0D4C3F"/>
<path d="M22.1211 22.7018C20.9948 21.8537 19.7661 21.151 18.4639 20.6104C13.6639 18.5396 9.42622 19.4676 6.71536 20.6104C5.47593 21.1286 4.30332 21.7939 3.22279 22.5921L3.06964 22.7064C2.82704 22.8871 2.62988 23.1219 2.49379 23.3921C2.35771 23.6623 2.28644 23.9605 2.28564 24.263V26.7773C2.28986 27.1111 2.42623 27.4297 2.66486 27.6632C2.90349 27.8966 3.22494 28.026 3.55879 28.023H21.6319C21.9658 28.026 22.2872 27.8966 22.5259 27.6632C22.7645 27.4297 22.9009 27.1111 22.9051 26.7773V24.2698C22.9052 23.9655 22.8344 23.6654 22.6983 23.3932C22.5622 23.1211 22.3646 22.8843 22.1211 22.7018ZM21.9634 26.7704C21.9628 26.8579 21.9276 26.9416 21.8655 27.0033C21.8034 27.065 21.7194 27.0996 21.6319 27.0996H3.57479C3.48728 27.0996 3.40333 27.065 3.34124 27.0033C3.27915 26.9416 3.24396 26.8579 3.24336 26.7704V24.2561C3.2436 24.0911 3.28287 23.9284 3.35794 23.7815C3.43302 23.6345 3.54178 23.5073 3.67536 23.4104L3.80336 23.3167C4.8257 22.5619 5.93545 21.9334 7.1085 21.4447C8.84409 20.6899 10.7165 20.3003 12.6091 20.3003C14.5017 20.3003 16.3741 20.6899 18.1096 21.4447C19.3358 21.9566 20.493 22.6201 21.5542 23.4196C21.6852 23.5182 21.7913 23.646 21.8643 23.7928C21.9373 23.9396 21.9751 24.1013 21.9748 24.2653L21.9634 26.7704Z" fill="#0D4C3F"/>
<path d="M29.7143 20.9393C29.7041 20.6626 29.6381 20.3908 29.5202 20.1402C29.4024 19.8897 29.2352 19.6654 29.0286 19.481C27.4286 17.881 24.9921 16.7816 21.9635 16.281C20.8022 16.0888 19.6274 15.9894 18.4503 15.9839C18.3255 15.9839 18.2057 16.0335 18.1174 16.1218C18.0291 16.2101 17.9795 16.3299 17.9795 16.4547C17.9795 16.5796 18.0291 16.6994 18.1174 16.7877C18.2057 16.876 18.3255 16.9256 18.4503 16.9256C20.0252 16.9256 25.3943 17.1816 28.3681 20.1507C28.4864 20.2489 28.584 20.3695 28.6554 20.5057C28.7268 20.6418 28.7706 20.7908 28.7841 20.9439V23.4399C28.7841 23.5005 28.76 23.5586 28.7171 23.6015C28.6742 23.6444 28.6161 23.6685 28.5555 23.6685H25.0103C24.8855 23.6685 24.7657 23.7181 24.6774 23.8064C24.5891 23.8947 24.5395 24.0144 24.5395 24.1393C24.5395 24.2642 24.5891 24.384 24.6774 24.4723C24.7657 24.5606 24.8855 24.6102 25.0103 24.6102H28.5486C28.856 24.6096 29.1507 24.4874 29.3682 24.2702C29.5858 24.0531 29.7086 23.7587 29.7098 23.4513L29.7143 20.9393Z" fill="#0D4C3F"/>
</g>
<defs>
<clipPath id="clip0_4274_52162">
<rect width="32" height="32" fill="white"/>
</clipPath>
</defs>
</svg>
