<svg width="33" height="32" viewBox="0 0 33 32" fill="none" xmlns="http://www.w3.org/2000/svg">
<g clip-path="url(#clip0_4986_20545)">
<path d="M18.1771 7.95682C17.6948 7.95682 17.2232 7.81378 16.8222 7.5458C16.4211 7.27781 16.1085 6.89691 15.9239 6.45127C15.7393 6.00563 15.691 5.51525 15.7851 5.04216C15.8792 4.56907 16.1115 4.13451 16.4526 3.79343C16.7937 3.45235 17.2282 3.22007 17.7013 3.12596C18.1744 3.03186 18.6648 3.08016 19.1104 3.26475C19.5561 3.44934 19.937 3.76194 20.205 4.163C20.473 4.56407 20.616 5.0356 20.616 5.51796C20.6148 6.16441 20.3574 6.78405 19.9003 7.24116C19.4432 7.69827 18.8236 7.95561 18.1771 7.95682ZM18.1771 3.99339C17.8756 3.99339 17.5808 4.0828 17.3301 4.25033C17.0794 4.41785 16.884 4.65595 16.7686 4.93453C16.6532 5.21311 16.623 5.51965 16.6819 5.81539C16.7407 6.11113 16.8859 6.38278 17.0991 6.596C17.3123 6.80921 17.584 6.95441 17.8797 7.01324C18.1754 7.07206 18.482 7.04187 18.7606 6.92648C19.0391 6.81109 19.2773 6.61568 19.4448 6.36497C19.6123 6.11425 19.7017 5.81949 19.7017 5.51796C19.7017 5.11362 19.5411 4.72584 19.2552 4.43993C18.9693 4.15401 18.5815 3.99339 18.1771 3.99339Z" fill="#0D4C40"/>
<path d="M16.4795 6.76842C16.708 6.92842 16.9092 7.0747 17.0783 7.20728C17.3738 7.4244 17.6451 7.67269 17.8875 7.94785C18.0524 7.96499 18.2186 7.96499 18.3835 7.94785L17.9583 7.5707L16.5572 6.49185C16.3333 6.39282 16.0974 6.32366 15.8555 6.28613C15.8555 6.31128 15.8692 6.3387 15.8783 6.36613C16.1 6.50785 16.3012 6.6427 16.4795 6.76842Z" fill="#0D4C40"/>
<path d="M18.4063 24.5309L18.3217 22.0166C18.2045 22.8533 18.2331 23.704 18.4063 24.5309Z" fill="#0D4C40"/>
<path d="M21.5667 13.2984C21.6056 13.3251 21.6479 13.3466 21.6924 13.3624L21.4775 13.2344L21.5667 13.2984Z" fill="#0D4C40"/>
<path d="M29.4072 20.7589C29.3546 20.6377 29.2975 20.5303 29.2357 20.4046C29.2261 20.3845 29.2177 20.3639 29.2106 20.3429C29.1535 20.24 29.0963 20.1394 29.0346 20.0389L28.9432 19.8971L28.854 19.7646C28.3169 18.9886 27.5996 18.3544 26.7636 17.9165C25.9275 17.4786 24.9978 17.25 24.054 17.2503C23.6975 17.2509 23.3418 17.2838 22.9912 17.3486L22.9249 17.3714L22.8586 17.1429C22.7015 16.5866 22.5847 16.0198 22.5089 15.4469C22.4632 15.1154 22.4312 14.7794 22.4129 14.448V14.2857C22.4129 14.2537 22.4129 14.2194 22.4129 14.1874C22.195 14.2798 21.957 14.3143 21.7219 14.2874C21.4868 14.2606 21.2626 14.1734 21.0712 14.0343L19.0849 12.5714L19.7477 11.9726L16.5317 9.65029C16.4436 9.58556 16.3352 9.55458 16.2261 9.56297C16.1171 9.57136 16.0147 9.61856 15.9374 9.696L13.1832 12.4389L10.0929 11.5977L13.9466 7.744C14.1326 7.55768 14.3535 7.40986 14.5966 7.309C14.8398 7.20814 15.1005 7.15623 15.3637 7.15623C15.627 7.15623 15.8877 7.20814 16.1308 7.309C16.374 7.40986 16.5949 7.55768 16.7809 7.744L20.4243 10.9714L21.094 10.3383L18.3832 7.94514C18.2183 7.96229 18.0521 7.96229 17.8872 7.94514C17.6448 7.66999 17.3735 7.4217 17.078 7.20457C16.9089 7.072 16.71 6.92572 16.4792 6.76572C16.3009 6.64 16.0997 6.50514 15.878 6.36114C15.878 6.33372 15.8643 6.30629 15.8552 6.28114C15.3952 6.19719 14.9217 6.22658 14.4756 6.36677C14.0296 6.50696 13.6244 6.75372 13.2952 7.08572L8.88373 11.504L8.84716 11.5474C8.57601 11.9158 8.41724 12.3548 8.39002 12.8114V12.8846H7.24716C7.12592 12.8846 7.00964 12.9327 6.92391 13.0185C6.83818 13.1042 6.79002 13.2205 6.79002 13.3417V14.0023C6.79002 14.2589 6.84057 14.5131 6.93878 14.7502C7.03699 14.9873 7.18094 15.2027 7.36241 15.3842C7.54389 15.5656 7.75933 15.7096 7.99643 15.8078C8.23354 15.906 8.48766 15.9566 8.7443 15.9566H9.48259L9.16716 17.328H9.0963C8.83349 17.2915 8.56849 17.2732 8.30316 17.2731C6.86408 17.2742 5.47604 17.8064 4.4051 18.7677C3.33416 19.729 2.65569 21.0517 2.49973 22.4823C2.49973 22.4823 2.49973 22.4823 2.49973 22.496C2.49973 22.5806 2.48602 22.6629 2.48145 22.7474C2.48145 22.7634 2.48145 22.7771 2.48145 22.7931C2.48145 22.8922 2.48145 22.9905 2.48145 23.088C2.48145 23.2 2.48145 23.3166 2.48145 23.4217V23.504C2.48145 23.5909 2.49516 23.6754 2.5043 23.76C2.5043 23.7851 2.5043 23.8126 2.51573 23.8377C2.51573 23.9291 2.54087 24.0183 2.55687 24.1074C2.55687 24.1257 2.55687 24.1417 2.55687 24.16C2.64016 24.6029 2.77439 25.0348 2.95687 25.4469L2.97287 25.4811C3.01173 25.568 3.05287 25.6526 3.0963 25.7371L3.1283 25.7966C3.16716 25.872 3.2083 25.9474 3.25173 26.0251L3.29287 26.096C3.34316 26.1783 3.39345 26.2583 3.4483 26.3383C3.50316 26.4183 3.53745 26.4663 3.58316 26.5303C3.59687 26.5463 3.6083 26.5646 3.61973 26.5806C3.6723 26.6514 3.72716 26.7177 3.78202 26.7863C4.11225 27.1928 4.4968 27.552 4.92487 27.8537L5.1283 27.9977L5.1763 28.0114C6.0878 28.5872 7.14275 28.8953 8.22087 28.9006L8.27802 28.9166C9.65695 28.9207 10.9924 28.4344 12.0459 27.5447C13.0994 26.6549 13.8022 25.4196 14.0289 24.0594L14.1203 23.5269C14.1458 22.8885 14.0765 22.25 13.9146 21.632C13.903 21.5047 13.8777 21.379 13.8392 21.2571C13.5505 20.3939 13.065 19.6097 12.4212 18.9662C11.7774 18.3228 10.9928 17.8379 10.1294 17.5497L10.0609 17.5269L10.4312 15.9269L13.1374 17.4857L13.8232 20.4709L14.23 22.4846C14.3138 22.9018 14.5443 23.2751 14.8798 23.5368C15.2153 23.7985 15.6336 23.9312 16.0586 23.9109C16.3092 23.9001 16.5547 23.8365 16.779 23.7242C17.0033 23.6118 17.2012 23.4533 17.3599 23.259C17.5186 23.0647 17.6343 22.8391 17.6996 22.5969C17.7649 22.3547 17.7782 22.1014 17.7386 21.8537L17.4826 20.2743L21.7477 16.4114L21.7752 16.5463C21.8369 16.8297 21.9054 17.1131 21.9832 17.3874L22.0494 17.616L21.9832 17.6411C21.0716 17.9934 20.262 18.5668 19.6272 19.3097C18.9924 20.0527 18.5523 20.9418 18.3466 21.8971L18.3214 22.0206L18.406 24.5349C18.7514 25.8828 19.5668 27.063 20.7055 27.8629L20.9089 28.0069L21.0209 28.0411C21.9144 28.5945 22.9414 28.8947 23.9923 28.9097L24.0517 28.9257C25.0025 28.9269 25.9391 28.6949 26.7795 28.2502C27.6199 27.8055 28.3384 27.1616 28.8723 26.3749C28.8997 26.336 28.9226 26.2994 28.9477 26.2606C28.9729 26.2217 29.0277 26.1394 29.0643 26.0777C29.1009 26.016 29.174 25.8857 29.2266 25.7851L29.2609 25.7189C29.6491 24.9546 29.863 24.1137 29.8871 23.2568C29.9112 22.3999 29.7449 21.5483 29.4003 20.7634L29.4072 20.7589ZM8.74202 15.0446C8.4674 15.0446 8.20404 14.9355 8.00986 14.7413C7.81568 14.5471 7.70659 14.2838 7.70659 14.0091V13.808H8.49059L8.50659 13.8651C8.62276 14.2475 8.81046 14.6043 9.05973 14.9166L9.16487 15.0446H8.74202ZM10.3969 18.6537L10.4312 18.6697C11.19 19.0391 11.8413 19.597 12.3228 20.2902C12.8042 20.9834 13.0997 21.7885 13.1809 22.6286V23.5429C13.0921 24.466 12.7447 25.3454 12.1787 26.0801C11.6127 26.8147 10.8509 27.3748 9.98088 27.696C9.89173 27.728 9.8003 27.76 9.70888 27.7874L9.58545 27.8217C9.46659 27.8537 9.35687 27.8857 9.21973 27.9086H9.19459C8.52307 28.033 7.83299 28.0161 7.16836 27.859C6.50373 27.7019 5.87915 27.4079 5.33447 26.9959C4.78979 26.5839 4.33696 26.0629 4.00488 25.4661C3.67279 24.8694 3.46875 24.2099 3.40575 23.5299C3.34275 22.8498 3.42219 22.1641 3.639 21.5165C3.85581 20.8689 4.20522 20.2735 4.66495 19.7685C5.12468 19.2635 5.68464 18.8598 6.30909 18.5832C6.93354 18.3067 7.60878 18.1633 8.29173 18.1623C8.48196 18.1624 8.67201 18.1738 8.86088 18.1966H8.92945H8.94773L8.03345 22.1257L7.84145 22.9509C7.8249 23.0192 7.82433 23.0903 7.83977 23.1589C7.85521 23.2275 7.88624 23.2915 7.93046 23.3461C7.97469 23.4008 8.0309 23.4444 8.09475 23.4738C8.15859 23.5032 8.22834 23.5174 8.29859 23.5154C8.40554 23.5176 8.50985 23.4822 8.59338 23.4153C8.67691 23.3485 8.73436 23.2545 8.75573 23.1497L8.93402 22.4L9.8483 18.432C10.0352 18.4938 10.2183 18.5663 10.3969 18.6491V18.6537ZM16.0106 22.9966C15.8055 23.0059 15.6037 22.9421 15.4413 22.8165C15.2789 22.6909 15.1663 22.5117 15.1237 22.3109L14.6963 20.1829L13.9877 17.0857C13.9728 17.0228 13.9447 16.9639 13.9053 16.9126C13.8659 16.8614 13.8161 16.8191 13.7592 16.7886L10.2826 14.7749C10.0394 14.6235 9.82999 14.4236 9.66756 14.1876C9.50513 13.9516 9.39314 13.6847 9.33859 13.4034C9.26613 13.0813 9.28674 12.7452 9.39802 12.4343L9.42316 12.368L13.0803 13.3783L15.0734 15.3714C15.5834 15.8794 15.9263 16.5309 16.0563 17.2389L16.5614 20.3794L16.8266 21.9954C16.8461 22.116 16.8398 22.2393 16.8082 22.3573C16.7767 22.4753 16.7205 22.5853 16.6435 22.68C16.5664 22.7748 16.4702 22.8522 16.3611 22.9071C16.2521 22.9621 16.1326 22.9933 16.0106 22.9989V22.9966ZM17.2997 19.184L16.9614 17.0834C16.8982 16.7341 16.7939 16.3934 16.6506 16.0686L16.6003 15.9566H20.8609L17.2997 19.184ZM16.0152 15.04L15.99 15.0126C15.9032 14.9074 15.8117 14.8091 15.7226 14.7177L13.9694 12.9646L16.31 10.624L21.4917 14.3771V14.416C21.4917 14.5943 21.5123 14.7749 21.5283 14.9531V15.04H16.0152ZM28.6552 24.8891C28.6292 24.9211 28.6077 24.9565 28.5912 24.9943C28.1589 26.0197 27.3916 26.8683 26.4148 27.4014C25.4379 27.9344 24.3092 28.1205 23.2129 27.9291H23.1854C23.0597 27.9063 22.934 27.8766 22.8106 27.8446L22.7374 27.824C22.6392 27.7966 22.5455 27.7669 22.4494 27.7326L22.2894 27.6731C22.2277 27.6503 22.1683 27.6251 22.1089 27.5977C21.3629 27.2705 20.7097 26.7635 20.2075 26.1222C19.7053 25.4808 19.3699 24.725 19.2312 23.9223C19.2274 23.7685 19.209 23.6154 19.1763 23.4651C19.1763 23.3394 19.1603 23.2137 19.1603 23.0834C19.1629 22.0951 19.4629 21.1305 20.0215 20.3151C20.58 19.4997 21.3711 18.8714 22.2917 18.512L23.6152 23.216C23.6303 23.2751 23.657 23.3305 23.6939 23.3791C23.7307 23.4277 23.7769 23.4684 23.8297 23.4989C23.8825 23.5293 23.9409 23.5489 24.0014 23.5565C24.0619 23.564 24.1233 23.5594 24.182 23.5429C24.2403 23.5268 24.2948 23.4993 24.3423 23.462C24.3899 23.4248 24.4296 23.3784 24.4591 23.3257C24.4887 23.273 24.5075 23.2149 24.5145 23.1549C24.5214 23.0949 24.5164 23.0341 24.4997 22.976L23.1763 18.2674L23.2723 18.2491C23.5323 18.2073 23.7952 18.1859 24.0586 18.1851C25.0152 18.1854 25.9509 18.4647 26.7511 18.9889C27.5513 19.513 28.1813 20.2592 28.5637 21.136C28.5818 21.1735 28.604 21.2087 28.63 21.2411C29.1081 22.4117 29.1171 23.7213 28.6552 24.8983V24.8891Z" fill="#0D4C40"/>
<path d="M22.7905 13.9431C22.8352 13.9049 22.8772 13.8637 22.9162 13.8197C23.1086 13.5947 23.223 13.3135 23.2424 13.0181C23.2618 12.7227 23.185 12.429 23.0237 12.1808H22.3974C22.0202 12.2494 21.4831 11.9271 21.4831 11.9271L20.4248 10.9717L22.1711 12.5465C22.2538 12.6202 22.3084 12.7204 22.3254 12.8298C22.3424 12.9393 22.3209 13.0513 22.2644 13.1466C22.208 13.242 22.1202 13.3147 22.016 13.3524C21.9118 13.3902 21.7978 13.3905 21.6934 13.3534L22.3974 13.7763C22.3974 13.9073 22.3974 14.0376 22.3974 14.1671C22.4947 14.126 22.5875 14.0747 22.674 14.014C22.709 13.9846 22.7483 13.9608 22.7905 13.9431Z" fill="#0D4C40"/>
<path d="M21.4783 13.234L19.7549 11.9746L19.748 11.9792L21.4783 13.2318V13.234Z" fill="#0D4C40"/>
<path d="M22.8109 11.8974L21.1057 10.3477L23.028 12.1579C22.9666 12.0625 22.8936 11.975 22.8109 11.8974Z" fill="#0D4C40"/>
<path d="M22.3974 12.1694H23.0237V12.1579L21.1014 10.3477L20.4248 10.9717L21.4785 11.9065C21.4785 11.9065 22.0202 12.2379 22.3974 12.1694Z" fill="#0D4C40"/>
<path d="M21.6927 13.3623C21.6482 13.3466 21.606 13.325 21.567 13.2983L21.4779 13.2343L19.7476 11.9795L19.0847 12.5715L21.0619 14.0161C21.2533 14.1552 21.4775 14.2424 21.7126 14.2692C21.9477 14.2961 22.1857 14.2616 22.4036 14.1692C22.4036 14.0397 22.4036 13.9094 22.4036 13.7783L21.6927 13.3623Z" fill="#0D4C40"/>
<path d="M23.995 14.208L22.2441 13.5863L22.5504 12.7246L24.3013 13.3463C24.3593 13.3664 24.4126 13.398 24.4581 13.4392C24.5036 13.4804 24.5403 13.5303 24.5662 13.5859C24.592 13.6416 24.6063 13.7019 24.6083 13.7632C24.6103 13.8245 24.6 13.8857 24.5779 13.9429C24.5348 14.0546 24.4496 14.145 24.3406 14.1946C24.2316 14.2441 24.1075 14.249 23.995 14.208Z" fill="#0D4C40"/>
</g>
<defs>
<clipPath id="clip0_4986_20545">
<rect width="32" height="32" fill="white" transform="translate(0.181641)"/>
</clipPath>
</defs>
</svg>
