<svg width="33" height="32" viewBox="0 0 33 32" fill="none" xmlns="http://www.w3.org/2000/svg">
<g clip-path="url(#clip0_4986_20408)">
<path d="M2.46686 23.8921C2.46686 24.0134 2.51502 24.1296 2.60075 24.2154C2.68648 24.3011 2.80276 24.3493 2.924 24.3493H3.93428C5.74759 24.3483 7.52831 23.8672 9.09543 22.955C9.99187 22.4287 10.6743 21.6034 11.0229 20.6241C11.3715 19.6447 11.364 18.5739 11.0017 17.5996L13.8383 17.9538C13.9377 17.9651 14.0381 17.9434 14.124 17.8921L17.7309 15.8853C17.7199 15.951 17.7145 16.0175 17.7149 16.0841C17.7128 16.3697 17.8115 16.6468 17.9936 16.8667C18.1757 17.0867 18.4295 17.2354 18.7104 17.2867C18.9913 17.338 19.2813 17.2886 19.5294 17.1473C19.7775 17.0059 19.9678 16.7816 20.0669 16.5138L20.3869 15.6636H21.5297C22.4491 15.665 23.3464 15.3822 24.0989 14.854C24.8513 14.3258 25.4221 13.5779 25.7331 12.7127L25.8817 12.5641L26.5034 12.8727C26.5889 12.9153 26.6856 12.93 26.7799 12.9149C26.8742 12.8997 26.9613 12.8554 27.0291 12.7881L27.6097 12.1961L27.7446 12.331C27.8302 12.4161 27.9461 12.4639 28.0669 12.4639C28.1876 12.4639 28.3035 12.4161 28.3891 12.331L29.7606 10.9596C29.8031 10.9171 29.8368 10.8667 29.8598 10.8112C29.8828 10.7557 29.8946 10.6962 29.8946 10.6361C29.8946 10.5761 29.8828 10.5166 29.8598 10.4611C29.8368 10.4056 29.8031 10.3552 29.7606 10.3127L29.2257 9.77556C29.2365 9.36108 29.1228 8.95289 28.8992 8.60371C28.6756 8.25454 28.3525 7.98042 27.9716 7.81676C27.5906 7.65311 27.1693 7.60745 26.7622 7.68567C26.355 7.76389 25.9806 7.9624 25.6874 8.25556L23.5823 10.3607L23.5251 10.315C23.2568 10.1146 22.9407 9.98799 22.6082 9.94788C22.2757 9.90778 21.9385 9.95554 21.6303 10.0864L19.2006 11.131C19.1377 11.1579 19.0816 11.1985 19.0365 11.2499C18.9914 11.3014 18.9584 11.3623 18.94 11.4281L18.924 11.4967L18.0509 11.9333C17.4412 11.53 16.7477 11.2709 16.023 11.1754C15.2982 11.08 14.5613 11.1508 13.868 11.3824L13.7331 11.4258C13.5293 10.8909 13.2169 10.404 12.8156 9.99566C12.4144 9.58734 11.933 9.26649 11.4017 9.05327L10.9446 8.87499L10.0966 8.02699C10.0189 7.94929 9.91592 7.90214 9.80637 7.89416C9.69683 7.88619 9.58807 7.91792 9.5 7.98356L6.49657 10.2418C4.80802 11.5036 3.56415 13.2693 2.94457 15.2841C2.90935 15.3969 2.91918 15.519 2.972 15.6247C3.0264 15.7328 3.12142 15.8149 3.23625 15.853C3.35107 15.8911 3.47633 15.8822 3.58457 15.8281L5.11829 15.0624L5.804 15.7481C5.84201 15.7857 5.88605 15.8166 5.93429 15.8396C5.98905 15.8644 6.04818 15.8782 6.10829 15.8802C6.1684 15.8821 6.22831 15.8722 6.28457 15.851C6.34084 15.8297 6.39237 15.7976 6.4362 15.7564C6.48003 15.7152 6.5153 15.6658 6.54 15.611L7.20057 14.1916C7.64824 13.2254 8.26257 12.3457 9.01543 11.5927L9.70114 10.907L12.1354 14.5641C12.1698 14.6163 12.2145 14.6608 12.2668 14.6951C12.3191 14.7293 12.3779 14.7524 12.4394 14.763L13.1617 14.8818L12.9331 15.1104C12.4559 14.8899 11.928 14.8022 11.405 14.8565C10.8821 14.9108 10.3835 15.1051 9.96171 15.419L9.612 15.6796H7.95257C7.89445 15.6794 7.83691 15.6911 7.78343 15.7138C7.72756 15.736 7.67662 15.769 7.63351 15.8109C7.5904 15.8527 7.55597 15.9027 7.53219 15.9579C7.50841 16.0131 7.49575 16.0724 7.49494 16.1325C7.49412 16.1926 7.50516 16.2523 7.52743 16.3081L8.44171 18.5801C8.59174 19.0341 8.68015 19.5061 8.70457 19.9836C7.48768 20.3372 6.18232 20.2205 5.04743 19.6567L4.50571 19.3847C4.41474 19.3412 4.31232 19.3276 4.21314 19.3458C4.09426 19.366 3.98815 19.4323 3.91794 19.5304C3.84773 19.6284 3.8191 19.7502 3.83828 19.8693L4.24743 21.915L2.59257 23.5698C2.51007 23.6567 2.46493 23.7724 2.46686 23.8921ZM9.49771 16.5778L9.78114 17.163C9.78738 17.1732 9.79274 17.1839 9.79714 17.195C9.83921 17.3017 9.83734 17.4207 9.79194 17.5261C9.74655 17.6314 9.66132 17.7145 9.55486 17.7573C9.45023 17.8007 9.3327 17.801 9.22783 17.7582C9.12296 17.7154 9.03923 17.6329 8.99486 17.5287L8.63829 16.5778H9.49771ZM7.03829 10.971L7.852 10.3607C7.95299 10.6058 8.13114 10.8112 8.35943 10.9458C7.5306 11.7733 6.85432 12.7405 6.36171 13.803L5.98457 14.6281L5.52743 14.171C5.45988 14.1034 5.37283 14.0586 5.27853 14.043C5.18423 14.0275 5.08742 14.0418 5.00171 14.0841L4.21771 14.4773C4.84613 13.0887 5.81661 11.8823 7.03829 10.971ZM10.0417 9.26127L9.19371 10.1116C9.17977 10.1262 9.16356 10.1386 9.14571 10.1481C9.07857 10.1903 8.99753 10.2044 8.92011 10.1873C8.84269 10.1701 8.77511 10.1232 8.732 10.0567C8.68959 9.99188 8.67332 9.91339 8.68647 9.83705C8.69962 9.7607 8.74121 9.69218 8.80286 9.64527L9.73771 8.94356L10.0417 9.26127ZM28.0669 11.3618L27.7034 10.9984C27.6449 10.9536 27.5967 10.8968 27.5621 10.8318C27.5275 10.7668 27.5072 10.6951 27.5027 10.6215C27.4982 10.548 27.5095 10.4744 27.536 10.4056C27.5624 10.3368 27.6033 10.2745 27.6559 10.2229C27.7084 10.1714 27.7715 10.1317 27.8408 10.1065C27.91 10.0814 27.9839 10.0715 28.0573 10.0774C28.1307 10.0833 28.202 10.1049 28.2664 10.1408C28.3307 10.1767 28.3866 10.2259 28.4303 10.2853L28.7914 10.6464L28.0669 11.3618ZM20.7274 14.7493L21.0703 13.835H22.3137C22.6094 13.8345 22.9009 13.7656 23.1654 13.6335C23.4299 13.5015 23.6603 13.3099 23.8383 13.0738L23.9069 12.9824C24.0576 12.7826 24.1671 12.5548 24.2291 12.3124C24.2911 12.0699 24.3043 11.8175 24.268 11.5698C24.245 11.4072 24.2013 11.2482 24.1377 11.0967L26.332 8.90242C26.5497 8.68495 26.8449 8.56281 27.1526 8.56281C27.4603 8.56281 27.7554 8.68495 27.9731 8.90242C28.0671 8.99262 28.1444 9.09861 28.2017 9.21556C28.1591 9.21322 28.1164 9.21322 28.0737 9.21556C27.8029 9.21538 27.5377 9.2923 27.309 9.43732C27.0803 9.58234 26.8976 9.78946 26.7823 10.0345C26.667 10.2795 26.6238 10.5523 26.6578 10.8209C26.6918 11.0896 26.8016 11.343 26.9743 11.5516L26.604 11.9081L25.9846 11.5973C25.8989 11.555 25.8021 11.5406 25.7078 11.5562C25.6135 11.5718 25.5264 11.6165 25.4589 11.6841L25.0017 12.1413C24.9514 12.1915 24.9131 12.2524 24.8897 12.3196C24.6546 13.0276 24.2023 13.6436 23.597 14.0798C22.9918 14.516 22.2644 14.7503 21.5183 14.7493H20.7274ZM18.6383 15.9996L19.7651 11.8853L21.9914 10.9298C22.1921 10.8442 22.4155 10.8271 22.6269 10.8812C22.8383 10.9353 23.0259 11.0576 23.1608 11.2292C23.2956 11.4007 23.3702 11.612 23.3728 11.8302C23.3755 12.0484 23.3061 12.2613 23.1754 12.4361L23.1069 12.5276C23.0145 12.6506 22.8947 12.7504 22.757 12.819C22.6193 12.8877 22.4676 12.9233 22.3137 12.923H20.7526C20.6596 12.9232 20.5688 12.9517 20.4924 13.0048C20.4161 13.0579 20.3577 13.133 20.3251 13.2201L19.2097 16.1916C19.1855 16.2673 19.1321 16.3304 19.0614 16.3668C18.9907 16.4032 18.9083 16.4101 18.8326 16.3858C18.7568 16.3616 18.6938 16.3082 18.6573 16.2375C18.6209 16.1668 18.614 16.0845 18.6383 16.0087V15.9996ZM18.0349 14.7378L12.7937 13.8738L10.3686 10.2373L10.8051 9.8007L11.0611 9.90356C11.5348 10.0936 11.9569 10.3928 12.2929 10.7769C12.629 11.161 12.8695 11.6191 12.9949 12.1138C12.9949 12.1138 12.9949 12.1367 12.9949 12.1481C13.0334 12.263 13.116 12.3578 13.2244 12.4118C13.3328 12.4658 13.4583 12.4745 13.5731 12.4361L14.1491 12.2441C14.7496 12.044 15.3897 11.9927 16.0144 12.0946C16.6391 12.1965 17.2297 12.4486 17.7354 12.8293C17.8032 12.8801 17.8838 12.911 17.9681 12.9187C18.0525 12.9263 18.1373 12.9104 18.2131 12.8727L18.5994 12.6807L18.0349 14.7378ZM13.804 17.0236L10.5377 16.6121L10.3617 16.2578L10.5263 16.1344C10.8506 15.8919 11.241 15.7539 11.6457 15.7388C12.0503 15.7237 12.45 15.8322 12.7914 16.0498C12.8805 16.1068 12.9867 16.1311 13.0917 16.1186C13.1967 16.1061 13.2942 16.0576 13.3674 15.9813L14.2634 15.0464L16.6383 15.4441L13.804 17.0236ZM10.284 18.3767C10.4034 18.9112 10.3959 19.4662 10.2621 19.9973C10.1284 20.5284 9.87204 21.0208 9.51371 21.435L9.55257 21.2796C9.6916 20.4215 9.65349 19.544 9.44057 18.7013C9.75086 18.6942 10.049 18.5795 10.284 18.3767ZM4.028 23.435L5.07486 22.3996C5.13177 22.3461 5.17405 22.279 5.19765 22.2045C5.22126 22.1301 5.22541 22.0509 5.20971 21.9744L4.93314 20.603C6.11333 21.1125 7.42652 21.2271 8.67714 20.9298C8.67714 21.0007 8.65886 21.0716 8.64743 21.1401L8.46 22.283C7.10119 23.0289 5.57805 23.4248 4.028 23.435Z" fill="#0D4C40"/>
</g>
<defs>
<clipPath id="clip0_4986_20408">
<rect width="32" height="32" fill="white" transform="translate(0.181641)"/>
</clipPath>
</defs>
</svg>
