<svg width="24" height="24" viewBox="0 0 24 24" fill="none" xmlns="http://www.w3.org/2000/svg">
<path d="M11.2423 2.00391C11.3023 2.00391 11.3423 2.00391 11.4023 2.00391C11.4223 2.02391 11.4623 2.02391 11.4823 2.00391C11.6223 2.00391 11.7623 2.00391 11.9023 2.00391C12.1623 2.04391 12.3223 2.18391 12.3623 2.42391C12.4223 2.70391 12.3423 2.96391 12.0823 3.12391C11.6623 3.40391 11.3023 3.7239 10.9623 4.0839C9.98231 5.0839 9.40231 6.28391 9.24231 7.66391C9.02231 9.52391 9.52231 11.1839 10.7423 12.6039C11.8023 13.8239 13.1423 14.5439 14.7423 14.7439C16.4823 14.9639 18.0623 14.5639 19.4423 13.4639C19.9623 13.0639 20.4023 12.5839 20.7823 12.0439C20.8423 11.9639 20.8823 11.9039 20.9423 11.8239C21.2823 11.4239 21.9023 11.5639 22.0023 12.0639C22.0023 12.2039 22.0023 12.3439 22.0023 12.4839C21.9823 12.5039 21.9823 12.5439 22.0023 12.5639C22.0023 12.6239 22.0023 12.6839 22.0023 12.7639C21.9623 13.3639 21.8623 13.9639 21.7023 14.5439C21.2423 16.2439 20.4023 17.7439 19.1623 19.0239C17.8423 20.3639 16.2623 21.2639 14.4623 21.7239C13.8223 21.8839 13.1823 21.9839 12.5223 21.9839C11.4623 22.0039 10.4223 21.9639 9.40231 21.6639C8.16231 21.3039 7.02231 20.7639 6.00231 19.9839C4.88231 19.1439 3.96231 18.0839 3.28231 16.8639C2.60231 15.6639 2.18231 14.3639 2.06231 12.9839C1.98231 12.0639 1.98231 11.1239 2.14231 10.2039C2.46231 8.48391 3.16231 6.9439 4.28231 5.5839C5.38231 4.2439 6.74231 3.28391 8.34231 2.64391C9.26231 2.28391 10.2023 2.02391 11.2023 2.00391C11.2023 2.02391 11.2223 2.02391 11.2423 2.00391Z" fill="#03483F"/>
<path d="M18.1027 5.48406C18.4227 5.48406 18.7027 5.48406 18.9827 5.48406C19.3627 5.48406 19.6227 5.74406 19.6227 6.08406C19.6227 6.42406 19.3627 6.66406 19.0027 6.66406C18.2627 6.66406 17.5027 6.66406 16.7627 6.66406C16.4827 6.66406 16.2827 6.56406 16.1627 6.30406C16.0627 6.04406 16.1227 5.82406 16.3227 5.62406C16.7427 5.20406 17.1827 4.78406 17.6427 4.32406C17.3227 4.32406 17.0427 4.32406 16.7627 4.32406C16.3827 4.32406 16.1227 4.08406 16.1227 3.74406C16.1227 3.40406 16.3827 3.16406 16.7627 3.16406C17.5027 3.16406 18.2427 3.16406 18.9827 3.16406C19.2827 3.16406 19.5027 3.28406 19.5827 3.52406C19.6827 3.78406 19.6027 4.00406 19.4227 4.20406C18.9827 4.60406 18.5627 5.02406 18.1027 5.48406Z" fill="#03483F"/>
<path d="M12.942 8.98422C12.622 8.98422 12.342 8.98422 12.062 8.98422C11.682 8.98422 11.422 8.74422 11.422 8.40422C11.422 8.06422 11.682 7.82422 12.062 7.82422C12.802 7.82422 13.542 7.82422 14.282 7.82422C14.562 7.82422 14.762 7.92422 14.882 8.18422C15.002 8.44422 14.922 8.68422 14.722 8.86422C14.302 9.28422 13.882 9.70422 13.422 10.1642C13.742 10.1642 14.002 10.1642 14.262 10.1642C14.662 10.1642 14.922 10.4042 14.922 10.7442C14.922 11.1042 14.662 11.3442 14.242 11.3442C13.522 11.3442 12.782 11.3442 12.062 11.3442C11.782 11.3442 11.562 11.2442 11.462 10.9842C11.342 10.7242 11.442 10.4842 11.642 10.3042C12.082 9.86422 12.502 9.44422 12.942 8.98422Z" fill="#03483F"/>
</svg>
