<svg width="32" height="32" viewBox="0 0 32 32" fill="none" xmlns="http://www.w3.org/2000/svg">
<path d="M15.9999 2.28564C13.2875 2.28564 10.636 3.08997 8.38069 4.59692C6.12538 6.10386 4.36759 8.24574 3.32959 10.7517C2.29159 13.2577 2.02 16.0151 2.54917 18.6755C3.07834 21.3358 4.38449 23.7794 6.30247 25.6974C8.22045 27.6154 10.6641 28.9215 13.3244 29.4507C15.9847 29.9799 18.7422 29.7083 21.2482 28.6703C23.7541 27.6323 25.896 25.8745 27.4029 23.6192C28.9099 21.3639 29.7142 18.7124 29.7142 15.9999C29.7142 12.3627 28.2693 8.87439 25.6974 6.30247C23.1255 3.73054 19.6372 2.28564 15.9999 2.28564ZM15.9999 28.7999C13.4683 28.7999 10.9936 28.0492 8.88864 26.6427C6.78369 25.2363 5.14308 23.2372 4.17428 20.8983C3.20548 18.5594 2.95199 15.9857 3.44588 13.5028C3.93978 11.0198 5.15886 8.73908 6.94897 6.94896C8.73908 5.15885 11.0198 3.93977 13.5028 3.44588C15.9857 2.95199 18.5594 3.20547 20.8983 4.17427C23.2372 5.14307 25.2363 6.78368 26.6427 8.88863C28.0492 10.9936 28.7999 13.4683 28.7999 15.9999C28.7999 19.3947 27.4514 22.6504 25.0509 25.0509C22.6504 27.4514 19.3947 28.7999 15.9999 28.7999Z" fill="#0D4C3F"/>
<path d="M21.4881 20.8342L16.4573 15.8033V7.54272H15.543V16.1804L20.8435 21.481L21.4881 20.8342Z" fill="#0D4C3F"/>
</svg>
