<svg width="33" height="32" viewBox="0 0 33 32" fill="none" xmlns="http://www.w3.org/2000/svg">
<g clip-path="url(#clip0_5233_4855)">
<path d="M16.7138 29.7147C13.0765 29.7147 9.58826 28.2698 7.01633 25.6979C4.44441 23.126 2.99951 19.6377 2.99951 16.0004C2.99951 12.3632 4.44441 8.87488 7.01633 6.30295C9.58826 3.73103 13.0765 2.28613 16.7138 2.28613C20.3511 2.28613 23.8393 3.73103 26.4113 6.30295C28.9832 8.87488 30.4281 12.3632 30.4281 16.0004C30.4281 19.6377 28.9832 23.126 26.4113 25.6979C23.8393 28.2698 20.3511 29.7147 16.7138 29.7147Z" fill="#0D4C3F"/>
<path d="M16.7137 9.82906C18.7206 9.82906 18.9583 9.82906 19.7514 9.87249C20.2282 9.87848 20.7005 9.96583 21.148 10.1308C21.4724 10.2563 21.7671 10.4482 22.0131 10.6942C22.2591 10.9402 22.451 11.2349 22.5766 11.5593C22.7415 12.0068 22.8288 12.4791 22.8348 12.9559C22.8714 13.7491 22.8783 13.9868 22.8783 15.9936C22.8783 18.0005 22.8783 18.2405 22.8348 19.0313C22.8288 19.5082 22.7415 19.9805 22.5766 20.4279C22.452 20.753 22.2605 21.0481 22.0143 21.2943C21.7682 21.5404 21.473 21.732 21.148 21.8565C20.7005 22.0214 20.2282 22.1088 19.7514 22.1148C18.9583 22.1513 18.7228 22.1582 16.7137 22.1582C14.7046 22.1582 14.4691 22.1582 13.676 22.1148C13.1991 22.1088 12.7268 22.0214 12.2794 21.8565C11.9549 21.731 11.6603 21.5391 11.4143 21.2931C11.1683 21.047 10.9764 20.7524 10.8508 20.4279C10.6859 19.9805 10.5985 19.5082 10.5925 19.0313C10.556 18.2473 10.5423 18.0073 10.5423 16.0005C10.5423 13.9936 10.5423 13.7559 10.5857 12.9628C10.5917 12.4859 10.679 12.0136 10.844 11.5662C10.9704 11.2422 11.1626 10.948 11.4085 10.7021C11.6544 10.4562 11.9486 10.264 12.2725 10.1376C12.72 9.97269 13.1923 9.88534 13.6691 9.87935C14.4691 9.84278 14.7068 9.82906 16.7137 9.82906ZM16.7137 8.47363C14.6726 8.47363 14.428 8.47363 13.6143 8.51935C12.9894 8.53177 12.3711 8.65002 11.7857 8.86906C11.2858 9.06149 10.8319 9.3566 10.4531 9.73534C10.0744 10.1141 9.77926 10.568 9.58683 11.0679C9.36779 11.6533 9.24954 12.2716 9.23712 12.8965C9.20055 13.6988 9.19141 13.9548 9.19141 15.9959C9.19141 18.0371 9.19141 18.2953 9.23712 19.0953C9.24954 19.7203 9.36779 20.3385 9.58683 20.9239C9.77926 21.4238 10.0744 21.8777 10.4531 22.2565C10.8319 22.6352 11.2858 22.9304 11.7857 23.1228C12.3711 23.3418 12.9894 23.4601 13.6143 23.4725C14.4166 23.5091 14.6726 23.5182 16.7137 23.5182C18.7548 23.5182 18.9994 23.5182 19.8131 23.4725C20.438 23.4601 21.0563 23.3418 21.6417 23.1228C22.1416 22.9304 22.5955 22.6352 22.9743 22.2565C23.353 21.8777 23.6481 21.4238 23.8406 20.9239C24.0596 20.3385 24.1778 19.7203 24.1903 19.0953C24.2268 18.2953 24.236 18.0371 24.236 15.9959C24.236 13.9548 24.236 13.7102 24.1903 12.8965C24.1778 12.2716 24.0596 11.6533 23.8406 11.0679C23.6481 10.568 23.353 10.1141 22.9743 9.73534C22.5955 9.3566 22.1416 9.06149 21.6417 8.86906C21.0563 8.65002 20.438 8.53177 19.8131 8.51935C19.0108 8.48278 18.7548 8.47363 16.7137 8.47363Z" fill="white"/>
<path d="M16.7136 12.1396C15.9501 12.1396 15.2036 12.3661 14.5688 12.7903C13.9339 13.2145 13.4391 13.8174 13.1469 14.5228C12.8547 15.2283 12.7782 16.0045 12.9272 16.7534C13.0762 17.5023 13.4439 18.1901 13.9838 18.7301C14.5237 19.27 15.2116 19.6376 15.9604 19.7866C16.7093 19.9356 17.4855 19.8591 18.191 19.5669C18.8964 19.2747 19.4993 18.7799 19.9235 18.145C20.3478 17.5102 20.5742 16.7638 20.5742 16.0002C20.5742 14.9763 20.1674 13.9944 19.4434 13.2704C18.7194 12.5464 17.7375 12.1396 16.7136 12.1396ZM16.7136 18.5145C16.2163 18.5145 15.7302 18.367 15.3167 18.0908C14.9033 17.8145 14.581 17.4218 14.3907 16.9624C14.2004 16.503 14.1506 15.9974 14.2476 15.5097C14.3446 15.022 14.5841 14.574 14.9357 14.2224C15.2874 13.8707 15.7354 13.6313 16.2231 13.5342C16.7108 13.4372 17.2164 13.487 17.6758 13.6773C18.1352 13.8676 18.5279 14.1899 18.8042 14.6034C19.0804 15.0168 19.2279 15.5029 19.2279 16.0002C19.2279 16.667 18.963 17.3066 18.4915 17.7781C18.0199 18.2496 17.3804 18.5145 16.7136 18.5145Z" fill="white"/>
<path d="M21.6303 11.9868C21.6325 12.1681 21.5808 12.346 21.4818 12.4979C21.3827 12.6497 21.2407 12.7687 21.0738 12.8396C20.907 12.9106 20.7228 12.9303 20.5447 12.8964C20.3666 12.8624 20.2026 12.7762 20.0736 12.6488C19.9446 12.5214 19.8564 12.3585 19.8202 12.1809C19.784 12.0032 19.8014 11.8188 19.8702 11.6511C19.9391 11.4833 20.0563 11.3399 20.2069 11.2389C20.3574 11.1379 20.5347 11.084 20.716 11.084C20.9565 11.084 21.1873 11.1787 21.3585 11.3477C21.5296 11.5167 21.6273 11.7463 21.6303 11.9868Z" fill="white"/>
</g>
<defs>
<clipPath id="clip0_5233_4855">
<rect width="32" height="32" fill="white" transform="translate(0.713867)"/>
</clipPath>
</defs>
</svg>
