<svg width="68" height="48" viewBox="0 0 68 48" fill="none" xmlns="http://www.w3.org/2000/svg">
<g clip-path="url(#clip0_3610_45539)">
<path d="M39.019 40.5674C39.019 40.573 39.019 40.5763 39.019 40.5819L39.0259 40.6243L39.019 40.5674Z" fill="#0D4C3F"/>
<path d="M17.7593 34.2631C17.8012 34.0858 17.8238 33.9854 17.8238 33.9854C17.7922 34.0754 17.7706 34.1685 17.7593 34.2631Z" fill="#0D4C3F"/>
<path d="M33.6154 10.5137C33.6148 10.5182 33.6148 10.5228 33.6154 10.5273V10.5137Z" fill="#0D4C3F"/>
<path d="M40.1558 20.2903C40.149 20.2144 40.1377 20.143 40.1275 20.0671L40.1162 19.9946C39.9452 18.9013 39.5173 18.5968 39.0554 18.0535C38.649 17.5726 38.3195 16.6813 38.2527 15.9639C38.2513 15.9373 38.2432 15.9115 38.2291 15.8887C38.2151 15.866 38.1956 15.847 38.1723 15.8334C38.1515 15.8224 38.1275 15.8188 38.1042 15.823C38.081 15.8273 38.0599 15.8392 38.0444 15.8568C37.544 16.3923 37.3651 17.1956 37.2519 17.9888C37.0742 19.2271 37.3787 20.2981 37.7874 20.8648C36.6463 20.6272 36.3757 18.6035 36.3734 18.5934C36.37 18.5706 36.3616 18.5487 36.3487 18.5294C36.3358 18.5101 36.3187 18.4939 36.2987 18.4819C36.2813 18.4715 36.2611 18.4667 36.2408 18.4681C36.2206 18.4695 36.2012 18.477 36.1855 18.4897C36.1606 18.5075 35.5741 18.9582 35.6851 20.5312C35.6851 20.5837 35.6919 20.6361 35.6975 20.6885C35.8402 22.2136 36.9565 23.366 38.1882 23.2544C39.4199 23.1429 40.303 21.8164 40.1558 20.2903Z" fill="#0D4C3F"/>
<path d="M40.5452 33.618C40.5577 33.2342 40.569 32.8371 40.5769 32.4065C40.5611 31.595 40.5633 30.9841 40.5837 30.5735C40.6041 30.163 40.6271 29.8101 40.6528 29.5148C40.6766 29.21 40.6766 28.9038 40.6528 28.5989C40.6301 28.2821 40.3845 26.795 40.3516 26.7715C40.2749 26.4568 40.1018 26.1728 39.8558 25.9583C39.8214 25.92 39.7835 25.8849 39.7426 25.8534C39.7301 25.8422 39.7165 25.8322 39.7029 25.8222C39.4921 25.6324 39.2531 25.4755 38.9942 25.3569C38.8097 25.261 38.6795 25.2075 38.6795 25.2075C38.6579 25.212 38.6377 25.2215 38.6206 25.2353C38.3223 25.1696 38.0133 25.1665 37.7137 25.2262C37.4141 25.286 37.1306 25.4073 36.8817 25.5823C36.7957 25.5957 36.7165 25.7396 36.644 26.0129C36.5586 26.3648 36.5067 26.7237 36.4889 27.085C36.4572 27.5791 36.4572 28.0747 36.4889 28.5688C36.4889 28.5688 36.5931 30.4363 36.6791 31.7985V31.8375C36.7153 32.4221 36.7493 32.9085 36.7697 33.1037C36.8029 33.3908 36.8349 33.7203 36.8659 34.0921C36.8968 34.464 36.9399 34.8136 36.9949 35.1408C37.0282 35.2972 37.0737 35.4509 37.1308 35.6004C37.4421 36.6335 38.221 39.0967 38.7305 39.6467C38.7305 39.6467 39.2003 40.2626 39.4833 40.4957C39.5133 40.5307 39.5525 40.5569 39.5965 40.5716C39.6063 40.5773 39.6171 40.5811 39.6284 40.5826C39.6397 40.5841 39.6512 40.5834 39.6622 40.5805C39.6622 40.5805 40.115 40.8036 40.1422 39.5363C40.1422 39.5363 40.6075 35.5982 40.5418 33.6169L40.5452 33.618Z" fill="#0D4C3F"/>
<path d="M23.7346 40.3164L23.7725 40.2959L23.7346 40.3164Z" fill="#0D4C3F"/>
<path d="M33.9473 45.8191C33.9473 45.8191 48.4756 38.687 63.0424 39.2024C63.0424 39.2024 71.5095 40.009 59.9597 40.9662C59.0959 41.0376 54.0999 40.3448 35.9228 46.4606C35.9274 46.4606 26.3022 50.3206 33.9473 45.8191Z" fill="#0D4C3F"/>
<path d="M7.92467 17.4605C8.18218 17.6243 8.47331 17.7298 8.77714 17.7695C8.82016 17.7606 8.88017 17.6758 8.95715 17.5141C9.04617 17.3202 9.1163 17.1185 9.16659 16.9116C9.23223 16.6437 9.27577 16.371 9.29678 16.0961C9.3219 15.795 9.3036 15.4919 9.24244 15.1958C9.20168 14.9947 9.1355 14.7995 9.04545 14.6146C8.98297 14.4692 8.88356 14.342 8.75677 14.2453C8.57889 14.166 8.37806 14.1522 8.19071 14.2063C8.00251 14.2399 7.82831 14.3268 7.68939 14.4564C7.55047 14.586 7.45284 14.7526 7.40842 14.9359C7.28465 15.3405 7.2888 15.8589 7.42088 16.491C7.47295 16.7387 7.50126 16.9752 7.67107 17.2073C7.73838 17.2995 7.81796 17.3824 7.90768 17.4538C7.90768 17.4538 7.92467 17.4639 7.92467 17.4605Z" fill="#0D4C3F"/>
<path d="M10.0689 23.1171C10.0689 22.9253 10.0689 22.7244 10.0599 22.5125C10.035 22.1086 10.0233 21.8041 10.0248 21.5988C10.0248 21.3935 10.0248 21.2173 10.0372 21.07C10.0429 20.9173 10.0368 20.7644 10.0191 20.6126C10.001 20.4553 9.84818 19.7201 9.83007 19.7078C9.78615 19.5523 9.69391 19.4142 9.56629 19.3129C9.548 19.2943 9.5279 19.2775 9.50628 19.2627L9.48591 19.2471C9.37675 19.157 9.25418 19.084 9.1225 19.0307C9.02854 18.986 8.96287 18.9615 8.96287 18.9615C8.9522 18.965 8.94224 18.9702 8.93344 18.9771C8.78314 18.9511 8.62896 18.9565 8.48092 18.993C8.33288 19.0295 8.1943 19.0963 8.07417 19.1891C8.03115 19.198 7.99492 19.2705 7.96096 19.4122C7.92622 19.5894 7.90803 19.7694 7.90662 19.9499C7.90128 20.1969 7.91186 20.4439 7.93832 20.6896C7.93832 20.6896 8.02888 21.6178 8.10134 22.296V22.315C8.13191 22.6062 8.15908 22.8483 8.17266 22.9442C8.19531 23.087 8.21795 23.2499 8.24172 23.4351C8.2655 23.6203 8.29493 23.7943 8.32776 23.955C8.34819 24.0311 8.3743 24.1057 8.40588 24.1781C8.58249 24.6868 9.02288 25.8995 9.28779 26.1627C9.40791 26.3089 9.53965 26.4455 9.68176 26.5711C9.69741 26.5884 9.71788 26.6008 9.74063 26.6068C9.75126 26.6104 9.76283 26.6104 9.77346 26.6068C9.77346 26.6068 9.99988 26.7083 9.99083 26.0757C9.99083 26.0757 10.1403 24.1033 10.0655 23.116L10.0689 23.1171Z" fill="#0D4C3F"/>
<path d="M26.8059 12.9327C26.7955 12.8531 26.7621 12.7781 26.7098 12.7166C26.6574 12.6551 26.5882 12.6097 26.5104 12.5858C26.3519 12.5374 26.0606 12.527 25.6364 12.5545C25.5051 12.5668 25.3251 12.5925 25.0953 12.6315C24.8655 12.6706 24.6017 12.7208 24.3028 12.781C23.8764 12.868 23.4115 12.9695 22.908 13.0856C22.4046 13.2016 21.9209 13.318 21.4567 13.4347C20.9903 13.5463 20.5725 13.6579 20.2012 13.7694C19.9277 13.8398 19.6601 13.9308 19.4008 14.0416L19.3147 14.0584C19.282 14.0707 19.2456 14.0698 19.2136 14.0558C19.1816 14.0418 19.1565 14.0158 19.1438 13.9836C18.1328 8.18247 17.7026 14.4934 17.7026 14.4957C17.5561 14.5828 17.3975 14.6482 17.2317 14.6898C17.0052 14.7578 16.6826 14.8482 16.275 14.9598C15.8675 15.0713 15.3512 15.2275 14.7252 15.4283C14.2353 15.5346 13.756 15.684 13.2931 15.8746C12.7021 16.1401 12.3874 16.4915 13.5353 16.8262C14.0901 16.6774 14.6837 16.5172 15.3161 16.3454C16.0452 16.1393 16.8452 15.9184 17.7162 15.6827C17.7581 15.6738 17.783 15.6827 17.7887 15.7117C17.7943 15.7407 17.8 15.8712 17.8124 16.1457C17.8249 16.4201 17.843 16.7581 17.8668 17.1553C17.8906 17.5524 17.9143 17.9686 17.9381 18.4025C17.9619 18.8365 17.9879 19.2258 18.0151 19.5706V19.613C18.0103 19.6212 18.0061 19.6298 18.0026 19.6386C17.8072 20.4099 17.623 20.897 17.4502 21.1001C17.2781 21.3031 17.1105 21.3433 16.9532 21.2228C16.7958 21.1023 16.6396 20.8769 16.489 20.5534C16.3384 20.2299 16.1913 19.9231 16.0441 19.6453C15.9501 19.4529 15.8439 19.2666 15.726 19.0875C15.666 18.9937 15.5924 18.9091 15.5075 18.8365C15.4607 18.7954 15.4003 18.7724 15.3377 18.7718C15.2688 18.7776 15.2004 18.7877 15.1327 18.8019C15.018 18.825 14.8233 19.0656 14.5486 19.5237C14.2739 19.9818 13.892 20.6408 13.4029 21.5006C13.2897 21.6969 13.2036 21.8665 13.1289 22.0048C13.0542 22.1431 13.0033 22.2168 12.975 22.2279C12.9721 22.2288 12.9691 22.229 12.9662 22.2286C12.9633 22.2281 12.9605 22.2271 12.958 22.2255C12.9555 22.2239 12.9534 22.2218 12.9519 22.2193C12.9503 22.2169 12.9493 22.2141 12.9489 22.2112L12.9399 22.1688C12.9399 22.1409 12.9285 22.0104 12.9251 21.7772C12.9217 21.5441 12.907 21.2652 12.8844 20.9405C12.8617 20.6159 12.8346 20.2712 12.804 19.9153C12.7783 19.5928 12.7337 19.2721 12.6704 18.9547C12.6279 18.6938 12.5188 18.4477 12.3534 18.2396C12.2837 18.1585 12.1918 18.0987 12.0888 18.0673C11.9857 18.0358 11.8756 18.0341 11.7715 18.0623C11.6328 18.0956 11.5117 18.1787 11.4319 18.2954C11.4319 18.2954 11.416 18.3133 11.3911 18.3467C11.2603 18.5243 11.1608 18.7223 11.0968 18.9324C11.0867 18.9647 11.0807 18.998 11.0787 19.0317C11.0674 19.1745 11.0572 19.3352 11.0515 19.5137C11.0402 19.8149 11.0357 20.1496 11.0379 20.5177C11.0402 20.8859 11.0379 21.2373 11.0481 21.5798C11.0583 21.9223 11.0651 22.2313 11.0843 22.5046C11.096 22.7058 11.1195 22.9062 11.1545 23.1048C11.1545 23.1048 11.4942 25.1452 12.9976 24.6834L13.0191 24.6555C13.0514 24.6436 13.0808 24.6249 13.1051 24.6008C13.2818 24.4636 13.6486 24.0296 13.9327 22.6842C13.937 22.6626 13.9431 22.6413 13.9508 22.6206C14.0459 22.3674 14.7139 20.6125 15.0365 20.6226C15.0365 20.6226 15.0977 20.6036 15.2516 20.7185C15.2765 20.7531 15.3014 20.7899 15.3297 20.8301C15.4724 21.0532 15.6399 21.2864 15.8347 21.5396C16.0188 21.7828 16.2192 22.0135 16.4347 22.2302C16.6407 22.4369 16.8294 22.5228 17.0007 22.4879C17.1434 22.4589 17.2951 22.3183 17.4536 22.0662C17.6269 21.7937 17.7754 21.5066 17.8973 21.2083C17.9807 21.0102 18.051 20.8072 18.1079 20.6003L18.1374 20.9182C18.1781 21.3935 18.2196 21.8055 18.2619 22.1543C18.3042 22.5031 18.3596 22.8378 18.4283 23.1583C18.4759 23.3815 18.52 23.5901 18.5619 23.7764C18.5619 23.7764 18.5619 23.7942 18.5732 23.8244C18.5845 23.8545 18.5823 23.8634 18.5891 23.888C18.8676 25.1319 19.2457 26.5542 19.9476 27.3932C19.9476 27.3932 20.3155 27.6542 20.3812 27.2816C20.3812 27.2816 20.3608 26.9815 20.2827 26.484C20.2827 26.4695 20.277 26.4538 20.2748 26.4393C20.2601 26.3423 20.2442 26.2408 20.2272 26.1303C20.0902 25.2378 19.8989 23.9259 19.7336 22.5492C19.6861 22.1788 19.6691 21.7482 19.6272 21.2964C19.5853 20.8446 19.5389 20.3236 19.4902 19.7346C19.451 19.3337 19.4193 18.8796 19.3951 18.3724C19.371 17.8652 19.3483 17.3817 19.3272 16.9221C19.3061 16.4662 19.2981 16.0731 19.3034 15.7429C19.3091 15.4082 19.3227 15.2309 19.3453 15.1963C19.4456 15.1405 19.5524 15.0971 19.6634 15.0669C19.8638 14.9966 20.1163 14.9174 20.414 14.8259C20.7118 14.7344 21.048 14.6429 21.4137 14.547L22.5118 14.2592C22.8775 14.1621 23.2194 14.0751 23.5364 13.9959C23.8534 13.9167 24.1024 13.8587 24.2903 13.8219C24.3793 13.8023 24.4692 13.7878 24.5598 13.7783C24.6243 13.7717 24.7047 13.7672 24.8009 13.7616C24.9357 13.7528 25.0698 13.7368 25.2028 13.7136C25.3749 13.6861 25.6319 13.6378 25.9738 13.5686C26.3587 13.4905 26.601 13.4113 26.704 13.3321C26.807 13.2529 26.8466 13.1291 26.8059 12.9327Z" fill="#0D4C3F"/>
<path d="M22.4903 17.6465C22.4688 17.6465 22.4461 17.6744 22.4224 17.7179C22.4433 17.6926 22.466 17.6687 22.4903 17.6465Z" fill="#0D4C3F"/>
<path d="M24.2338 18.8541C24.1827 18.4184 24.0177 18.0033 23.7549 17.6493C23.7458 17.637 23.7357 17.627 23.7255 17.6147C23.7153 17.6024 23.696 17.5768 23.6802 17.5589C23.4782 17.3157 23.2226 17.121 22.9329 16.9896C22.6432 16.8581 22.3269 16.7934 22.0081 16.8003C21.9809 16.8003 21.9515 16.8003 21.9118 16.8103C21.7821 16.8295 21.6541 16.859 21.5292 16.8985C21.3389 16.9504 21.1608 17.0387 21.005 17.1584C20.835 17.2984 20.6969 17.4721 20.5997 17.6682C20.4667 17.9362 20.3726 18.2212 20.3201 18.515C20.2398 18.9355 20.1835 19.3601 20.1514 19.7868C20.0894 20.4673 20.1664 21.1531 20.3778 21.8038C20.6246 22.6316 20.9752 23.2266 21.4296 23.5888C21.8839 23.951 22.4949 24.0172 23.2624 23.7873C23.4443 23.736 23.6383 23.5798 23.8443 23.3188C24.0746 23.0047 24.2422 22.6504 24.3379 22.2746C24.4706 21.7773 24.5353 21.2648 24.5304 20.7507C24.5254 20.1077 24.4255 19.4688 24.2338 18.8541ZM22.9273 20.918C22.886 21.1936 22.81 21.4631 22.7009 21.7201C22.655 21.845 22.5942 21.9641 22.5198 22.0749C22.4719 22.078 22.4241 22.0687 22.381 22.048C22.3379 22.0272 22.301 21.9957 22.2741 21.9566C21.8869 21.545 21.8881 19.8638 21.8881 19.8638C21.8632 18.5183 22.256 17.9126 22.4179 17.7218C22.4417 17.6783 22.4643 17.6549 22.4858 17.6504C22.5073 17.6459 22.5673 17.685 22.6454 17.7709C22.7543 17.9226 22.8348 18.0922 22.8832 18.2718C22.9912 18.6688 23.0468 19.0779 23.0485 19.4889C23.0611 19.9667 23.0205 20.4445 22.9273 20.9135V20.918Z" fill="#0D4C3F"/>
<path d="M13.6895 45.0957C13.7021 45.0969 13.7147 45.0969 13.7273 45.0957C13.7151 45.0972 13.7028 45.0972 13.6906 45.0957H13.6895Z" fill="#0D4C3F"/>
<path d="M67.9523 35.8995C67.9054 35.7744 67.8463 35.6541 67.7757 35.5403L67.7689 35.5291C67.6987 35.4176 67.6376 35.3306 67.6376 35.3306C66.5055 33.7565 66.2734 30.9541 66.1398 30.0872C66.1161 29.9333 66.1047 29.8463 66.1047 29.8463C66.1047 29.8463 65.8478 27.3172 65.661 25.0335C65.5353 23.4806 65.4798 22.6116 65.3723 20.5031C65.3723 20.5031 65.2919 11.8014 65.6564 6.06269C65.7787 4.13158 65.9519 2.53515 66.1942 1.71183C66.2259 1.09379 66.1874 0.828271 66.1602 0.723405C65.6111 -0.858523 64.7824 0.500284 64.3941 1.30352C64.3251 1.45078 64.2526 1.61143 64.179 1.78658C63.8267 2.65251 63.5321 3.54019 63.2971 4.44395C62.602 7.03103 61.8922 11.026 61.4597 17.1451C61.4454 17.3491 61.353 17.5402 61.2013 17.6797C61.0496 17.8193 60.8499 17.8969 60.6423 17.897C60.1874 17.9022 59.7334 17.9395 59.2838 18.0086C59.0643 18.0295 58.8466 18.0668 58.6328 18.1201C57.6801 18.3752 56.7723 18.7716 55.9407 19.296C55.268 19.6926 54.6679 20.198 54.1655 20.7909C54.1479 20.8124 54.129 20.8329 54.1089 20.8523C52.5817 22.3304 51.2787 24.6542 50.7919 28.2978C50.7866 28.3348 50.7839 28.372 50.7839 28.4094C50.7919 29.1702 50.9866 36.9705 55.8365 37.5763C55.8869 37.5821 55.9366 37.593 55.9848 37.6086C56.5764 37.795 57.2103 37.807 57.8087 37.6432C59.5181 37.2066 60.9367 36.2803 62.0642 34.8642C62.4633 34.3619 62.829 33.8346 63.159 33.2857C63.1998 33.337 63.2405 33.385 63.2813 33.434C63.2926 33.4463 63.3028 33.4597 63.313 33.472C63.3515 33.5177 63.3899 33.5634 63.4262 33.607L63.4477 33.636C64.1164 34.4345 64.8848 35.1467 65.7345 35.7556H65.7413C66.0148 35.9473 66.2986 36.1242 66.5916 36.2855C66.7048 36.3458 66.8112 36.3971 66.9131 36.4506C68.0474 36.7842 68.0712 36.2833 67.9523 35.8995ZM61.0782 21.6432C61.0782 21.6566 61.0782 21.67 61.0782 21.6823L61.0589 22.0794C61.0386 22.5465 61.0084 23.06 60.9684 23.6201C60.914 24.3638 60.848 25.0971 60.7703 25.82C60.6925 26.543 60.614 27.1268 60.5348 27.5715C60.1408 29.3565 59.6159 30.7997 58.96 31.9012C58.3041 33.0027 57.7834 33.6029 57.3977 33.7018C57.2807 33.7323 57.1249 33.6289 56.9301 33.3916C56.7354 33.1544 56.5486 32.7338 56.3698 32.1299C55.97 30.809 55.7869 29.4336 55.8275 28.0557C55.8565 26.8263 56.0807 25.6089 56.492 24.4478C56.8511 23.4296 57.4178 22.4945 58.1574 21.7001C58.8744 20.9437 59.6793 20.4514 60.5721 20.2231C60.8053 20.1628 60.9582 20.2588 61.0318 20.5064C61.0782 20.6849 61.0963 21.062 61.0782 21.6432Z" fill="#0D4C3F"/>
<path d="M33.6857 20.087C33.6857 20.087 33.6857 20.0412 33.6789 19.9598C33.6087 18.7326 32.9997 8.73122 31.4804 4.19964L31.4725 4.17956C31.3121 3.66959 31.0942 3.17899 30.8226 2.717C30.4072 1.96285 29.8286 1.20424 29.1811 1.22097C29.1811 1.22097 28.5709 1.28345 28.8279 1.47422C28.9159 1.63231 28.9916 1.79678 29.0543 1.9662C29.1985 2.3389 29.3191 2.72005 29.4154 3.10746C29.6232 3.9514 29.7696 4.80887 29.8536 5.67335C30.2781 11.4912 30.7932 27.8906 24.4738 39.2285C24.318 39.4931 24.1012 39.7178 23.8409 39.8845L23.8036 39.9046C21.1997 41.3482 16.3011 30.3104 16.3011 30.3104C16.1035 30.0271 15.8389 29.7955 15.5301 29.6354C14.5395 29.1724 13.7969 30.3104 13.7969 30.3104C12.6127 31.349 11.4489 34.1291 10.687 36.2576C9.92168 38.2423 9.06921 37.9456 9.06921 37.9456C7.95182 37.3733 7.05519 36.2878 6.3397 34.9245C5.74989 33.6745 5.26156 32.3805 4.87928 31.0545C3.63396 26.4872 3.45283 21.3186 3.42905 20.425C3.42905 20.3346 3.42905 20.2844 3.42905 20.2844C3.42113 20.1829 3.41207 20.0881 3.40188 19.9966C3.23546 18.37 2.90715 18.2618 2.90715 18.2618C2.45431 18.3254 1.94599 19.4031 1.94599 19.4031C1.29415 20.689 0.842649 22.0644 0.606709 23.4829C-1.2307 31.3947 1.68787 37.2528 1.68787 37.2528C5.17589 46.5748 11.0527 44.6581 11.0527 44.6581C11.313 44.5745 11.8248 44.2331 12.4882 42.9234C13.1425 41.6304 13.9452 39.3914 14.7965 35.5236C14.8237 35.3986 14.852 35.2726 14.8792 35.1432C14.9154 35.0071 14.9494 34.8765 14.9811 34.7549C15.0694 34.5519 15.2233 34.437 15.4679 34.9267C15.4679 34.9267 17.0528 41.1909 19.6465 44.6749C20.0121 45.1344 20.4077 45.5701 20.8307 45.979C21.7182 46.8347 22.7292 47.5409 23.867 47.9704C24.2584 48.0316 24.6589 48.0033 25.0376 47.8878C32.9623 46.394 33.5725 26.1335 33.5725 26.1235C33.7312 24.1153 33.769 22.0996 33.6857 20.087Z" fill="#0D4C3F"/>
<path d="M47.5394 37.1031H47.5326C47.3537 36.9781 47.1669 36.8375 46.9756 36.6836C47.3624 37.1082 47.8469 37.4353 48.3885 37.6374C48.0949 37.4771 47.8111 37.3001 47.5382 37.1075L47.5394 37.1031Z" fill="#0D4C3F"/>
<path d="M49.7447 37.2216C49.6979 37.0963 49.6383 36.9759 49.567 36.8624L49.5602 36.8512C49.49 36.7397 49.43 36.6527 49.43 36.6527C48.2979 35.0785 48.0714 32.275 47.9333 31.4093C47.9096 31.2554 47.8982 31.1683 47.8982 31.1683C47.8982 31.1683 47.6401 28.6393 47.4545 26.3567C47.3277 24.8027 47.2733 23.9336 47.1646 21.8263C47.1646 21.8263 47.0854 13.1246 47.4499 7.38589C47.5722 5.45589 47.7443 3.85946 47.9877 3.03503C48.0194 2.4181 47.9809 2.15147 47.9537 2.0466C47.4046 0.464677 46.5748 1.82348 46.1865 2.62783C46.1171 2.77658 46.0457 2.9376 45.9725 3.11089C45.6195 3.97619 45.3249 4.86354 45.0906 5.76715C44.3955 8.35535 43.6845 12.3492 43.2532 18.4694C43.2532 18.4694 43.14 23.0724 43.5476 27.6018C43.5476 27.6018 44.4419 34.0421 46.9722 36.6739C47.1635 36.8278 47.3503 36.9684 47.5292 37.0933H47.536C47.8088 37.2859 48.0927 37.4629 48.3862 37.6232C48.4994 37.6846 48.6047 37.7348 48.7066 37.7883C49.8398 38.1063 49.8636 37.6054 49.7447 37.2216Z" fill="#0D4C3F"/>
</g>
<defs>
<clipPath id="clip0_3610_45539">
<rect width="68" height="48" fill="white"/>
</clipPath>
</defs>
</svg>
