<svg width="56" height="56" viewBox="0 0 56 56" fill="none" xmlns="http://www.w3.org/2000/svg">
<g clip-path="url(#clip0_4600_57820)">
<path d="M22 22.3348C21.1553 22.3372 20.329 22.0889 19.6255 21.6214C18.9221 21.1538 18.3732 20.4881 18.0483 19.7084C17.7234 18.9288 17.6372 18.0702 17.8005 17.2415C17.9638 16.4128 18.3694 15.6512 18.9658 15.0532C19.5622 14.4551 20.3227 14.0474 21.1509 13.8817C21.9791 13.7161 22.8379 13.7999 23.6185 14.1226C24.3991 14.4452 25.0663 14.9923 25.5358 15.6944C26.0053 16.3965 26.256 17.2222 26.256 18.0668C26.256 19.1967 25.808 20.2804 25.0101 21.0805C24.2123 21.8806 23.1298 22.3316 22 22.3348ZM22 15.3988C21.4723 15.3988 20.9565 15.5553 20.5177 15.8485C20.079 16.1416 19.737 16.5583 19.5351 17.0458C19.3331 17.5333 19.2803 18.0698 19.3832 18.5873C19.4862 19.1049 19.7403 19.5802 20.1134 19.9534C20.4865 20.3265 20.9619 20.5806 21.4795 20.6835C21.997 20.7865 22.5335 20.7337 23.021 20.5317C23.5085 20.3298 23.9252 19.9878 24.2183 19.5491C24.5115 19.1103 24.668 18.5945 24.668 18.0668C24.668 17.3592 24.3869 16.6806 23.8865 16.1803C23.3862 15.6799 22.7076 15.3988 22 15.3988Z" fill="#888888"/>
<path d="M4.14805 32.1532C4.58147 33.454 5.24687 34.6655 6.11205 35.7292C6.17378 35.8225 6.2544 35.9018 6.34869 35.962C6.44298 36.0222 6.54885 36.062 6.65946 36.0787C6.77007 36.0954 6.88296 36.0888 6.99085 36.0592C7.09874 36.0296 7.19922 35.9777 7.2858 35.9069C7.37238 35.836 7.44315 35.7478 7.49352 35.6479C7.54389 35.548 7.57276 35.4387 7.57825 35.327C7.58373 35.2152 7.56573 35.1036 7.52539 34.9992C7.48505 34.8949 7.42327 34.8002 7.34405 34.7212C6.80286 34.0635 6.35095 33.3372 6.00005 32.5612L14.8 31.3892C15.5787 31.2855 16.371 31.3847 17.1 31.6772L20.116 33.9412L20.052 34.0052C19.9215 34.1587 19.8537 34.3558 19.8622 34.5571C19.8707 34.7584 19.9548 34.9492 20.0978 35.0911C20.2408 35.2331 20.4321 35.3159 20.6335 35.3229C20.8348 35.33 21.0315 35.2608 21.184 35.1292L21.444 34.8692C21.6465 34.9613 21.8604 35.0259 22.08 35.0612C22.7061 35.1544 23.3435 34.9965 23.8537 34.6219C24.3639 34.2473 24.7055 33.6864 24.804 33.0612C25.1228 32.9365 25.4305 32.7853 25.724 32.6092L27.152 31.7492C27.8643 31.3235 28.6783 31.0982 29.508 31.0972H31.2V34.2972C31.2 34.5094 31.2843 34.7128 31.4344 34.8629C31.5844 35.0129 31.7879 35.0972 32 35.0972H42.352C42.5339 35.097 42.7102 35.035 42.852 34.9212L46.284 32.1772L50.02 32.5772C49.6745 33.413 49.214 34.1966 48.652 34.9052C48.5458 35.0718 48.505 35.2718 48.5374 35.4667C48.5699 35.6616 48.6733 35.8376 48.8278 35.9608C48.9823 36.084 49.1769 36.1456 49.3741 36.1339C49.5714 36.1221 49.7573 36.0378 49.896 35.8972C50.7209 34.8602 51.3573 33.6863 51.776 32.4292L51.868 32.1452C51.888 32.0926 51.9002 32.0373 51.904 31.9812C51.9232 31.7732 51.8603 31.5661 51.7287 31.4039C51.5972 31.2417 51.4075 31.1374 51.2 31.1132L38.756 29.7292C37.457 29.5852 36.151 29.5131 34.844 29.5132H29.488C28.3684 29.5154 27.2705 29.8224 26.312 30.4012L25.244 31.0452L29.368 26.8972C29.815 27.1029 30.3144 27.1663 30.7986 27.0787C31.2828 26.9912 31.7283 26.7569 32.0749 26.4077C32.4215 26.0585 32.6524 25.6111 32.7363 25.1263C32.8203 24.6415 32.7531 24.1426 32.544 23.6972L33.024 23.2212L35.772 23.9052C35.9053 23.9383 36.0449 23.9366 36.1773 23.9002C36.3097 23.8637 36.4305 23.7938 36.528 23.6972L41.328 18.9172C41.4758 18.7675 41.5587 18.5656 41.5587 18.3552C41.5587 18.1448 41.4758 17.9429 41.328 17.7932L37.328 13.7932C37.1782 13.6442 36.9754 13.5605 36.764 13.5605C36.5527 13.5605 36.3499 13.6442 36.2 13.7932L31.424 18.5932C31.3239 18.6895 31.2506 18.8102 31.2113 18.9435C31.1721 19.0768 31.1682 19.218 31.2 19.3532L31.888 22.1012L31.412 22.5772C30.9465 22.3588 30.4231 22.2958 29.919 22.3973C29.4149 22.4989 28.9568 22.7596 28.612 23.1412L26.32 24.2852C26.1739 23.6378 25.8465 23.0454 25.376 22.5772C25.2001 22.4059 25.0071 22.2531 24.8 22.1212C24.8 22.1212 24.744 21.9372 24.148 21.7772C23.4531 22.1732 22.6603 22.3646 21.8612 22.3292C21.0621 22.2938 20.2893 22.0331 19.632 21.5772H19.3C18.8292 21.6541 18.3803 21.831 17.9836 22.0959C17.5869 22.3609 17.2515 22.7077 17 23.1132L13.784 28.2932C13.6792 28.463 13.6415 28.6658 13.6785 28.862C13.7155 29.0581 13.8245 29.2333 13.984 29.3532L14.588 29.8092L4.80005 31.1132C4.68423 31.1293 4.57335 31.1706 4.47521 31.2342C4.37708 31.2977 4.29408 31.3821 4.23205 31.4812C4.16975 31.5802 4.12994 31.6917 4.11543 31.8079C4.10092 31.924 4.11205 32.0418 4.14805 32.1532ZM32.864 19.4052L36.76 15.5052L39.6 18.3612L35.72 22.2612L33.436 21.6892L32.864 19.4052ZM29.6 24.7332C29.6 24.575 29.647 24.4203 29.7349 24.2887C29.8228 24.1572 29.9477 24.0546 30.0939 23.9941C30.2401 23.9335 30.4009 23.9177 30.5561 23.9486C30.7113 23.9794 30.8538 24.0556 30.9657 24.1675C31.0776 24.2794 31.1538 24.4219 31.1847 24.5771C31.2155 24.7323 31.1997 24.8931 31.1391 25.0393C31.0786 25.1855 30.9761 25.3105 30.8445 25.3984C30.7129 25.4863 30.5583 25.5332 30.4 25.5332C30.1879 25.5332 29.9844 25.4489 29.8344 25.2989C29.6843 25.1488 29.6 24.9454 29.6 24.7332ZM26.4 26.0252L28.04 25.2252C28.0784 25.4217 28.1416 25.6126 28.228 25.7932L26.4 27.6012V26.0252ZM40.736 31.5532L44.02 31.9172L42.048 33.4932H40.736V31.5532ZM36.736 31.1532C37.344 31.1892 37.936 31.2372 38.556 31.3052L39.124 31.3692V33.4892H36.724L36.736 31.1532ZM32.736 31.0972H35.136V33.4972H32.8L32.736 31.0972ZM21.584 32.6972C21.584 32.539 21.631 32.3843 21.7189 32.2527C21.8068 32.1212 21.9317 32.0186 22.0779 31.9581C22.2241 31.8975 22.3849 31.8817 22.5401 31.9126C22.6953 31.9434 22.8378 32.0196 22.9497 32.1315C23.0616 32.2434 23.1378 32.3859 23.1687 32.5411C23.1995 32.6963 23.1837 32.8571 23.1231 33.0033C23.0626 33.1495 22.9601 33.2745 22.8285 33.3624C22.6969 33.4503 22.5423 33.4972 22.384 33.4972C22.1803 33.486 21.9885 33.3973 21.848 33.2493C21.7074 33.1013 21.6288 32.9053 21.628 32.7012L21.584 32.6972ZM15.524 28.5172L18.364 23.9732C18.996 22.4932 22.892 23.1412 22.892 23.1412C23.3992 23.1464 23.8839 23.3513 24.241 23.7115C24.5982 24.0716 24.799 24.558 24.8 25.0652V29.2012L23.464 30.5452C23.164 30.396 22.835 30.3141 22.5 30.3052L20.532 28.7292L21.232 28.2012C21.3995 28.074 21.5101 27.8861 21.5401 27.678C21.57 27.4699 21.5168 27.2584 21.392 27.0892C21.2648 26.9206 21.0761 26.8092 20.867 26.7792C20.658 26.7492 20.4455 26.8031 20.276 26.9292L18.76 28.0812C18.7073 28.1212 18.659 28.1668 18.616 28.2172C18.4835 28.3827 18.4222 28.5941 18.4454 28.8048C18.4687 29.0156 18.5746 29.2085 18.74 29.3412L20.8 30.9692C20.4959 31.2508 20.2699 31.6063 20.144 32.0012L15.524 28.5172Z" fill="#888888"/>
<path d="M22.2359 21.5491H20.924C21.4226 21.5331 21.8599 21.5331 22.2359 21.5491Z" fill="#888888"/>
<path d="M19.6481 21.5771C20.1161 21.5771 20.5401 21.5411 20.9281 21.5371H22.2401C22.889 21.5449 23.5352 21.6213 24.1681 21.7651C23.4731 22.1611 22.6803 22.3525 21.8812 22.3171C21.0821 22.2817 20.3093 22.021 19.6521 21.5651L19.6481 21.5771Z" fill="#888888"/>
<path d="M4.8001 38.6238C13.7201 34.6718 19.7761 38.4598 20.6041 39.0238L20.6921 39.0758C27.9401 42.9478 35.2641 39.0238 35.3361 38.9838H35.3761C42.8001 35.4038 49.0681 37.5998 51.2001 38.5998C51.3026 38.646 51.3942 38.7133 51.4689 38.7974C51.5437 38.8814 51.5999 38.9802 51.6338 39.0874C51.6678 39.1946 51.6788 39.3077 51.6661 39.4195C51.6534 39.5312 51.6173 39.639 51.5601 39.7358C51.4602 39.9053 51.3014 40.032 51.114 40.0918C50.9265 40.1516 50.7237 40.1402 50.5441 40.0598C48.2545 39.0602 45.7742 38.5727 43.2765 38.6314C40.7789 38.6902 38.3242 39.2937 36.0841 40.3998C33.4682 41.7081 30.5849 42.3927 27.6601 42.3998C24.9273 42.411 22.2359 41.7312 19.8361 40.4238L19.7441 40.3678C19.6841 40.3238 14.0161 36.2758 5.4361 40.0758C5.2501 40.1286 5.05126 40.1123 4.87638 40.0298C4.70149 39.9473 4.56239 39.8043 4.48482 39.6272C4.40724 39.4501 4.39643 39.2509 4.45439 39.0664C4.51236 38.8819 4.63517 38.7247 4.8001 38.6238Z" fill="#888888"/>
</g>
<defs>
<clipPath id="clip0_4600_57820">
<rect width="56" height="56" fill="white"/>
</clipPath>
</defs>
</svg>
