<svg width="22" height="22" viewBox="0 0 22 22" fill="none" xmlns="http://www.w3.org/2000/svg">
<path d="M20.8794 0.79103C20.7771 0.740276 20.6645 0.713867 20.5503 0.713867C20.4361 0.713867 20.3234 0.740276 20.2211 0.79103L1.12056 10.343C0.985411 10.4131 0.875412 10.5235 0.805811 10.6589C0.736211 10.7943 0.710458 10.9481 0.732121 11.0988C0.753784 11.2495 0.821791 11.3897 0.926714 11.5C1.03164 11.6103 1.16828 11.6853 1.31771 11.7145L8.89828 13.0945L10.2697 20.675C10.2953 20.8302 10.3698 20.9731 10.4824 21.0829C10.5949 21.1927 10.7397 21.2636 10.8954 21.2853C10.9302 21.2879 10.9652 21.2879 11 21.2853C11.1364 21.2853 11.2701 21.2473 11.386 21.1755C11.502 21.1038 11.5957 21.0011 11.6566 20.879L21.2086 1.77674C21.2955 1.60236 21.3096 1.40061 21.2479 1.2158C21.1862 1.03099 21.0537 0.878216 20.8794 0.79103Z" fill="#D33731"/>
</svg>
