<svg width="120" height="86" viewBox="0 0 120 86" fill="none" xmlns="http://www.w3.org/2000/svg">
<g clip-path="url(#clip0_6050_20113)">
<path d="M68.8574 72.54V72.566L68.8694 72.6418L68.8574 72.54Z" fill="#F9CF4B"/>
<path d="M31.3401 61.2691C31.414 60.952 31.454 60.7725 31.454 60.7725C31.398 60.934 31.3601 61.0996 31.3401 61.2691Z" fill="#F9CF4B"/>
<path d="M70.8633 36.288C70.8513 36.1524 70.8313 36.0247 70.8133 35.8891L70.7934 35.7595C70.4917 33.8049 69.7365 33.2604 68.9214 32.289C68.2042 31.4294 67.6228 29.8358 67.5049 28.5533C67.4989 28.4576 67.447 28.3699 67.3631 28.32C67.2872 28.2801 67.1933 28.2961 67.1373 28.3619C66.2543 29.3192 65.9386 30.7553 65.7388 32.1734C65.4252 34.3873 65.9626 36.302 66.6838 37.3152C64.67 36.8904 64.1925 33.2723 64.1885 33.2544C64.1765 33.1726 64.1286 33.0988 64.0567 33.0549C63.9947 33.017 63.9148 33.023 63.8569 33.0689C63.8129 33.1008 62.7781 33.9066 62.9738 36.7188C62.9738 36.8126 62.9858 36.9063 62.9958 37.0001C63.2475 39.7265 65.2174 41.7869 67.3911 41.5874C69.5647 41.388 71.123 39.0165 70.8633 36.288Z" fill="#F9CF4B"/>
<path d="M71.5505 60.1163C71.5725 59.4302 71.5925 58.7201 71.6065 57.9503C71.5785 56.5003 71.5825 55.4073 71.6185 54.6733C71.6544 53.9393 71.6944 53.3091 71.7403 52.7805C71.7823 52.236 71.7823 51.6875 71.7403 51.143C71.7004 50.5766 71.2668 47.9179 71.2089 47.876C71.0731 47.3136 70.7674 46.805 70.3339 46.4221C70.2739 46.3542 70.206 46.2904 70.1341 46.2346C70.1121 46.2146 70.0881 46.1967 70.0642 46.1787C69.6926 45.8397 69.271 45.5584 68.8135 45.347C68.4879 45.1755 68.2581 45.0798 68.2581 45.0798C68.2202 45.0877 68.1842 45.1057 68.1542 45.1296C67.0894 44.8923 65.9746 45.1177 65.0855 45.7499C64.9337 45.7738 64.7939 46.0311 64.666 46.5198C64.5162 47.1481 64.4243 47.7903 64.3923 48.4365C64.3364 49.3201 64.3364 50.2056 64.3923 51.0892C64.3923 51.0892 64.5761 54.428 64.7279 56.8633V56.9331C64.7919 57.9782 64.8518 58.8478 64.8878 59.1968C64.9457 59.7094 65.0036 60.2998 65.0576 60.964C65.1115 61.6281 65.1874 62.2544 65.2853 62.8388C65.3433 63.118 65.4252 63.3933 65.5251 63.6605C66.0745 65.5074 67.449 69.9113 68.348 70.8946C68.348 70.8946 69.1771 71.9955 69.6766 72.4124C69.7305 72.4742 69.7984 72.5221 69.8764 72.548C69.9103 72.568 69.9523 72.574 69.9922 72.564C69.9922 72.564 70.7914 72.9629 70.8393 70.6971C70.8393 70.6971 71.6604 63.6565 71.5445 60.1143H71.5505V60.1163Z" fill="#F9CF4B"/>
<path d="M59.9073 81.9302C59.9073 81.9302 85.5455 69.1794 111.252 70.1009C111.252 70.1009 126.193 71.5429 105.812 73.2542C104.287 73.3818 95.4708 72.1432 63.3935 83.0771C63.4015 83.0771 46.4159 89.9781 59.9073 81.9302Z" fill="#F9CF4B"/>
<path d="M13.985 31.2299C14.4385 31.5231 14.954 31.7106 15.4894 31.7824C15.5653 31.7664 15.6712 31.6148 15.8071 31.3256C15.9649 30.9786 16.0888 30.6176 16.1767 30.2486C16.2925 29.7699 16.3684 29.2813 16.4064 28.7906C16.4504 28.2521 16.4184 27.7096 16.3105 27.1811C16.2386 26.8221 16.1227 26.473 15.9629 26.1419C15.853 25.8826 15.6772 25.6553 15.4534 25.4818C15.1398 25.3401 14.7842 25.3142 14.4545 25.4119C13.7753 25.5356 13.2338 26.0462 13.074 26.7163C12.8563 27.4404 12.8622 28.3658 13.096 29.4967C13.1879 29.9395 13.2378 30.3623 13.5375 30.7772C13.6554 30.9427 13.7972 31.0903 13.9551 31.2179C13.9551 31.2179 13.985 31.2359 13.985 31.2299Z" fill="#F9CF4B"/>
<path d="M17.7688 41.342C17.7688 40.9989 17.7688 40.6399 17.7528 40.261C17.7089 39.539 17.6889 38.9945 17.6909 38.6275C17.6909 38.2605 17.6909 37.9454 17.7129 37.6821C17.7229 37.4088 17.7129 37.1356 17.6809 36.8643C17.649 36.5831 17.3792 35.2687 17.3473 35.2468C17.2694 34.9696 17.1075 34.7222 16.8818 34.5407C16.8498 34.5068 16.8139 34.4769 16.7759 34.451L16.7399 34.4231C16.5481 34.2615 16.3304 34.1319 16.0986 34.0361C15.9328 33.9564 15.8169 33.9125 15.8169 33.9125C15.799 33.9185 15.781 33.9284 15.765 33.9404C15.2296 33.8467 14.6782 33.9843 14.2486 34.3194C14.1727 34.3353 14.1088 34.465 14.0489 34.7183C13.9869 35.0354 13.955 35.3565 13.953 35.6796C13.943 36.1204 13.9629 36.5632 14.0089 37.002C14.0089 37.002 14.1687 38.6614 14.2966 39.874V39.9079C14.3505 40.4285 14.3985 40.8613 14.4224 41.0328C14.4624 41.2881 14.5024 41.5793 14.5443 41.9104C14.5863 42.2415 14.6382 42.5526 14.6962 42.8399C14.7321 42.9755 14.7781 43.1091 14.834 43.2388C15.1457 44.1482 15.9228 46.3163 16.3903 46.787C16.6021 47.0483 16.8338 47.2916 17.0856 47.517C17.1135 47.5489 17.1495 47.5708 17.1895 47.5808C17.2074 47.5868 17.2294 47.5868 17.2474 47.5808C17.2474 47.5808 17.647 47.7623 17.631 46.6314C17.631 46.6314 17.8947 43.1051 17.7628 41.34H17.7688V41.342Z" fill="#F9CF4B"/>
<path d="M47.3048 23.1342C47.2669 22.843 47.0631 22.6017 46.7834 22.5139C46.5037 22.4282 45.9903 22.4082 45.2411 22.4581C45.0093 22.48 44.6917 22.5259 44.2861 22.5957C43.8805 22.6655 43.415 22.7553 42.8876 22.863C42.1344 23.0186 41.3153 23.2001 40.4263 23.4075C39.5373 23.6149 38.6842 23.8223 37.8651 24.0318C37.042 24.2312 36.3048 24.4307 35.6495 24.6301C35.166 24.7558 34.6945 24.9193 34.237 25.1168L34.0852 25.1467C33.9653 25.1926 33.8294 25.1327 33.7835 25.0131C31.9994 14.6416 31.2402 25.9245 31.2402 25.9285C30.9825 26.0841 30.7008 26.2018 30.4091 26.2756C30.0096 26.3972 29.4402 26.5588 28.721 26.7582C28.0017 26.9577 27.0907 27.2369 25.9859 27.5959C25.1209 27.7854 24.2758 28.0527 23.4587 28.3937C22.4158 28.8684 21.8604 29.4967 23.8862 30.095C24.8651 29.8298 25.912 29.5426 27.0288 29.2354C28.3154 28.8664 29.7279 28.4715 31.2642 28.0507C31.3381 28.0347 31.3821 28.0507 31.3921 28.1025C31.4021 28.1544 31.4121 28.3877 31.434 28.8784C31.456 29.369 31.488 29.9734 31.5299 30.6834C31.5719 31.3935 31.6138 32.1374 31.6558 32.9133C31.6977 33.6891 31.7437 34.3852 31.7916 35.0015V35.0773C31.7837 35.0913 31.7757 35.1072 31.7697 35.1232C31.424 36.5014 31.1004 37.373 30.7947 37.736C30.4911 38.099 30.1954 38.1708 29.9177 37.9554C29.64 37.74 29.3643 37.3371 29.0986 36.7587C28.8328 36.1803 28.5731 35.6318 28.3134 35.1351C28.1476 34.7921 27.9598 34.459 27.752 34.1379C27.6461 33.9704 27.5163 33.8188 27.3664 33.6891C27.2845 33.6153 27.1766 33.5754 27.0668 33.5735C26.9449 33.5834 26.825 33.6014 26.7052 33.6273C26.5034 33.6692 26.1597 34.098 25.6743 34.9177C25.1888 35.7375 24.5155 36.9142 23.6525 38.452C23.4527 38.803 23.3008 39.1062 23.169 39.3535C23.0371 39.6008 22.9472 39.7325 22.8973 39.7524C22.8773 39.7584 22.8573 39.7464 22.8533 39.7285C22.8533 39.7285 22.8533 39.7245 22.8533 39.7225L22.8373 39.6467C22.8373 39.5968 22.8174 39.3635 22.8114 38.9466C22.8054 38.5298 22.7794 38.0312 22.7394 37.4508C22.6995 36.8704 22.6515 36.2541 22.5976 35.6178C22.5517 35.0414 22.4737 34.467 22.3619 33.9005C22.2859 33.4338 22.0941 32.995 21.8025 32.6221C21.5507 32.3249 21.1512 32.2012 20.7756 32.3049C20.5298 32.3648 20.3161 32.5124 20.1762 32.7218C20.1762 32.7218 20.1483 32.7537 20.1043 32.8135C19.8726 33.1307 19.6987 33.4857 19.5849 33.8607C19.5669 33.9185 19.5569 33.9783 19.5529 34.0382C19.5329 34.2935 19.5149 34.5807 19.505 34.8998C19.485 35.4383 19.477 36.0367 19.481 36.6948C19.485 37.353 19.481 37.9813 19.499 38.5936C19.5169 39.2059 19.5289 39.7584 19.5629 40.247C19.5829 40.6061 19.6248 40.9651 19.6868 41.3201C19.6868 41.3201 20.2861 44.968 22.9392 44.1423L22.9772 44.0924C23.0351 44.0705 23.0851 44.0386 23.129 43.9947C23.4407 43.7494 24.088 42.9735 24.5894 40.5682C24.5974 40.5303 24.6074 40.4924 24.6214 40.4545C24.7892 40.0017 25.968 36.8644 26.5373 36.8823C26.5373 36.8823 26.6452 36.8484 26.9169 37.0539C26.9609 37.1157 27.0048 37.1815 27.0548 37.2533C27.3065 37.6522 27.6022 38.0691 27.9458 38.5218C28.2715 38.9566 28.6251 39.3695 29.0047 39.7564C29.3683 40.1254 29.7019 40.279 30.0036 40.2171C30.2553 40.1653 30.523 39.914 30.8027 39.4632C31.1084 38.9766 31.3701 38.462 31.5859 37.9294C31.7337 37.5744 31.8576 37.2114 31.9575 36.8424L32.0094 37.4109C32.0813 38.2605 32.1552 38.9965 32.2292 39.6208C32.3031 40.2451 32.401 40.8434 32.5228 41.4158C32.6068 41.8147 32.6847 42.1877 32.7586 42.5208C32.7586 42.5208 32.7586 42.5527 32.7786 42.6065C32.7986 42.6604 32.7946 42.6764 32.8065 42.7202C33.298 44.9441 33.9653 47.4871 35.2039 48.987C35.2039 48.987 35.8532 49.4537 35.9691 48.7875C35.9691 48.7875 35.9332 48.251 35.7953 47.3614C35.7953 47.3355 35.7853 47.3076 35.7813 47.2817C35.7553 47.1081 35.7274 46.9266 35.6974 46.7292C35.4557 45.1336 35.118 42.788 34.8264 40.3268C34.7424 39.6647 34.7125 38.8948 34.6386 38.087C34.5646 37.2792 34.4827 36.3478 34.3968 35.2947C34.3269 34.5787 34.271 33.7669 34.229 32.8594C34.187 31.9519 34.1471 31.0883 34.1091 30.2666C34.0712 29.4508 34.0572 28.7488 34.0672 28.1584C34.0772 27.56 34.1011 27.2429 34.1411 27.1811C34.3189 27.0813 34.5067 27.0036 34.7025 26.9497C35.0561 26.8241 35.5016 26.6825 36.0271 26.5189C36.5525 26.3554 37.1458 26.1918 37.7911 26.0203L39.729 25.5057C40.3743 25.3322 40.9777 25.1766 41.5371 25.035C42.0965 24.8934 42.536 24.7897 42.8676 24.7238C43.0255 24.6879 43.1833 24.662 43.3431 24.6461C43.457 24.6341 43.5988 24.6261 43.7687 24.6161C44.0064 24.6002 44.2442 24.5723 44.4779 24.5304C44.7816 24.4805 45.2351 24.3948 45.8384 24.2711C46.5177 24.1315 46.9452 23.9899 47.127 23.8483C47.3088 23.7067 47.3788 23.4853 47.3068 23.1342H47.3048Z" fill="#F9CF4B"/>
<path d="M39.6892 31.561C39.6512 31.561 39.6113 31.6109 39.5693 31.6887C39.6053 31.6428 39.6473 31.6009 39.6892 31.561Z" fill="#F9CF4B"/>
<path d="M42.7658 33.7212C42.6759 32.9413 42.3842 32.1994 41.9207 31.5671C41.9047 31.5452 41.8867 31.5272 41.8688 31.5053C41.8508 31.4833 41.8168 31.4375 41.7889 31.4056C41.0656 30.524 39.9788 30.0234 38.838 30.0493C38.7901 30.0493 38.7382 30.0493 38.6682 30.0672C38.4385 30.1012 38.2127 30.155 37.993 30.2248C37.6573 30.3186 37.3437 30.4761 37.068 30.6895C36.7683 30.9388 36.5246 31.25 36.3527 31.601C36.117 32.0797 35.9512 32.5903 35.8593 33.1148C35.7174 33.8668 35.6175 34.6267 35.5616 35.3886C35.4517 36.6052 35.5876 37.8318 35.9612 38.9946C36.3967 40.4746 37.016 41.5376 37.8172 42.1858C38.6183 42.834 39.6971 42.9517 41.0516 42.5409C41.3733 42.4491 41.7149 42.1699 42.0785 41.7032C42.4841 41.1427 42.7798 40.5085 42.9496 39.8363C43.1833 38.9468 43.2972 38.0313 43.2892 37.1118C43.2812 35.963 43.1034 34.8201 42.7658 33.7212ZM40.4603 37.411C40.3884 37.9036 40.2525 38.3863 40.0607 38.845C39.9788 39.0684 39.8729 39.2818 39.7411 39.4793C39.5693 39.4913 39.4034 39.4095 39.3075 39.2679C38.6243 38.5319 38.6263 35.5262 38.6263 35.5262C38.5823 33.1208 39.2756 32.0378 39.5613 31.6968C39.6032 31.619 39.6432 31.5771 39.6811 31.5691C39.7191 31.5611 39.825 31.6309 39.9628 31.7845C40.1546 32.0558 40.2965 32.3589 40.3824 32.68C40.5722 33.3901 40.6701 34.1221 40.6741 34.856C40.696 35.7097 40.6241 36.5653 40.4603 37.403V37.411Z" fill="#F9CF4B"/>
<path d="M24.158 80.6357C24.1799 80.6377 24.2019 80.6377 24.2239 80.6357C24.2019 80.6377 24.1819 80.6377 24.16 80.6357H24.158Z" fill="#F9CF4B"/>
<path d="M119.916 64.1951C119.834 63.9718 119.728 63.7564 119.604 63.5529L119.592 63.533C119.469 63.3335 119.361 63.178 119.361 63.178C117.363 60.3637 116.953 55.3535 116.718 53.8038C116.676 53.5286 116.656 53.373 116.656 53.373C116.656 53.373 116.202 48.8515 115.872 44.7687C115.651 41.9924 115.553 40.4387 115.363 36.669C115.363 36.669 115.221 21.1119 115.864 10.8522C116.08 7.39975 116.386 4.54562 116.813 3.07368C116.869 1.96873 116.801 1.49404 116.754 1.30655C115.785 -1.52165 114.322 0.907652 113.637 2.34369C113.515 2.60697 113.387 2.89417 113.257 3.20731C112.636 4.75504 112.117 6.34267 111.701 7.95821C110.474 12.5835 109.222 19.7258 108.458 30.6656C108.407 31.4215 107.775 32.0099 107.016 32.0099C106.213 32.0199 105.412 32.0857 104.619 32.2093C104.231 32.2472 103.847 32.3131 103.47 32.4088C101.788 32.8655 100.187 33.5736 98.719 34.511C97.5323 35.221 96.4735 36.1245 95.5864 37.1836C95.5545 37.2215 95.5225 37.2594 95.4865 37.2933C92.7915 39.936 90.492 44.0906 89.6329 50.6046C89.6229 50.6704 89.6189 50.7383 89.6189 50.8041C89.6329 52.1643 89.9765 66.1099 98.5352 67.1929C98.6251 67.2029 98.711 67.2228 98.797 67.2507C99.8418 67.5838 100.959 67.6057 102.015 67.3126C105.032 66.5327 107.535 64.8753 109.525 62.3442C110.231 61.4467 110.876 60.5033 111.457 59.522C111.529 59.6138 111.601 59.6995 111.673 59.7873C111.693 59.8092 111.711 59.8332 111.729 59.8551C111.797 59.9369 111.865 60.0187 111.929 60.0965L111.967 60.1483C113.147 61.5764 114.502 62.8489 116.002 63.9379H116.014C116.498 64.2809 116.997 64.596 117.515 64.8852C117.714 64.993 117.902 65.0847 118.082 65.1804C120.084 65.7768 120.126 64.8813 119.916 64.1951ZM107.785 38.7074V38.7772L107.751 39.4873C107.715 40.323 107.661 41.2404 107.591 42.2417C107.496 43.572 107.38 44.8824 107.242 46.1748C107.104 47.4673 106.966 48.5104 106.826 49.3062C106.131 52.4974 105.204 55.0783 104.047 57.0469C102.891 59.0154 101.972 60.0885 101.29 60.266C101.084 60.3198 100.809 60.1363 100.465 59.7115C100.122 59.2867 99.7919 58.5348 99.4762 57.4557C98.771 55.0942 98.4473 52.635 98.5193 50.1718C98.5712 47.9739 98.9668 45.7979 99.692 43.7216C100.325 41.9006 101.326 40.2292 102.631 38.8091C103.895 37.4569 105.316 36.5773 106.892 36.1684C107.304 36.0607 107.573 36.2323 107.703 36.675C107.785 36.9941 107.817 37.6683 107.785 38.7074Z" fill="#F9CF4B"/>
<path d="M59.4458 35.925C59.4458 35.925 59.4458 35.8433 59.4338 35.6977C59.3099 33.5037 58.2351 15.623 55.554 7.52136L55.54 7.48546C55.2563 6.57397 54.8727 5.69639 54.3933 4.87067C53.6601 3.52239 52.6392 2.16613 51.4964 2.19604C51.4964 2.19604 50.4196 2.30773 50.8731 2.64879C51.0289 2.93201 51.1628 3.22521 51.2727 3.52837C51.5264 4.19453 51.7401 4.87665 51.91 5.56874C52.2776 7.07659 52.5353 8.61036 52.6831 10.1561C53.4323 20.5574 54.3413 49.8766 43.1894 70.1467C42.9137 70.6194 42.5321 71.0223 42.0726 71.3194L42.0067 71.3554C37.4117 73.9362 28.767 54.2026 28.767 54.2026C28.4174 53.696 27.9519 53.2812 27.4065 52.996C25.6584 52.1683 24.3478 54.2026 24.3478 54.2026C22.2581 56.0595 20.2043 61.0298 18.8598 64.8353C17.5092 68.3835 16.0049 67.853 16.0049 67.853C14.033 66.8298 12.4507 64.8892 11.1881 62.4519C10.1472 60.2181 9.28614 57.9044 8.61087 55.533C6.41325 47.3675 6.0936 38.127 6.05164 36.5294V36.2781C6.03766 36.0966 6.02167 35.927 6.00369 35.7635C5.71001 32.8555 5.13064 32.662 5.13064 32.662C4.3315 32.7757 3.43448 34.7024 3.43448 34.7024C2.28372 37.0021 1.48659 39.4613 1.07104 41.9963C-2.17145 56.1413 2.97897 66.6144 2.97897 66.6144C9.1343 83.2805 19.5051 79.8539 19.5051 79.8539C19.9646 79.7043 20.8676 79.094 22.0383 76.7525C23.1931 74.4408 24.6095 70.4379 26.1119 63.5229C26.1599 63.2996 26.2098 63.0742 26.2577 62.8428C26.3217 62.5995 26.3816 62.3661 26.4376 62.1487C26.5934 61.7857 26.8651 61.5803 27.2966 62.4559C27.2966 62.4559 30.0936 73.655 34.6706 79.8838C35.3159 80.7056 36.0132 81.4834 36.7604 82.2154C38.3267 83.7452 40.1107 85.0077 42.1186 85.7756C42.8098 85.8853 43.5171 85.8354 44.1843 85.628C58.1692 82.9574 59.246 46.7352 59.246 46.7173C59.5257 43.1272 59.5936 39.5231 59.4458 35.925Z" fill="#F9CF4B"/>
<path d="M83.8931 66.3471H83.8811C83.5655 66.1237 83.2358 65.8724 82.8982 65.5972C83.5815 66.3571 84.4365 66.9415 85.3915 67.3025C84.8741 67.0153 84.3726 66.7001 83.8911 66.3551V66.3471H83.8931Z" fill="#F9CF4B"/>
<path d="M87.785 66.5586C87.7031 66.3352 87.5972 66.1198 87.4714 65.9163L87.4594 65.8964C87.3355 65.6969 87.2296 65.5414 87.2296 65.5414C85.2318 62.7271 84.8322 57.7149 84.5885 56.1672C84.5465 55.892 84.5266 55.7364 84.5266 55.7364C84.5266 55.7364 84.0711 51.2149 83.7434 47.1341C83.5197 44.3558 83.4237 42.8021 83.232 39.0345C83.232 39.0345 83.0921 23.4773 83.7354 13.2176C83.9512 9.76715 84.2549 6.91302 84.6844 5.43908C84.7403 4.33612 84.6724 3.85944 84.6244 3.67196C83.6555 0.843753 82.1911 3.27306 81.5058 4.71109C81.384 4.97636 81.2581 5.26556 81.1282 5.57471C80.5049 7.12244 79.9855 8.70807 79.5719 10.3236C78.3453 14.9509 77.0906 22.0912 76.3294 33.033C76.3294 33.033 76.1297 41.2623 76.8489 49.36C76.8489 49.36 78.4272 60.8742 82.8923 65.5793C83.23 65.8545 83.5596 66.1058 83.8753 66.3292H83.8873C84.3687 66.6742 84.8702 66.9894 85.3876 67.2766C85.5874 67.3863 85.7732 67.476 85.953 67.5718C87.9528 68.1402 87.9948 67.2447 87.785 66.5586Z" fill="#F9CF4B"/>
</g>
<defs>
<clipPath id="clip0_6050_20113">
<rect width="120" height="85.8333" fill="white"/>
</clipPath>
</defs>
</svg>
