<svg width="49" height="35" viewBox="0 0 49 35" fill="none" xmlns="http://www.w3.org/2000/svg">
<g clip-path="url(#clip0_3629_44334)">
<path d="M28.1168 29.5801C28.1168 29.5841 28.1168 29.5866 28.1168 29.5907L28.1217 29.6216L28.1168 29.5801Z" fill="white"/>
<path d="M12.7972 24.9838C12.8274 24.8545 12.8437 24.7812 12.8437 24.7812C12.8209 24.8469 12.8053 24.9148 12.7972 24.9838Z" fill="white"/>
<path d="M24.223 7.66602C24.2226 7.66932 24.2226 7.67267 24.223 7.67597V7.66602Z" fill="white"/>
<path d="M28.9358 14.7938C28.9309 14.7385 28.9228 14.6864 28.9154 14.6311L28.9072 14.5782C28.7841 13.781 28.4757 13.5589 28.1429 13.1628C27.85 12.8122 27.6126 12.1622 27.5645 11.6392C27.5634 11.6198 27.5576 11.6009 27.5475 11.5843C27.5374 11.5677 27.5233 11.5539 27.5066 11.544C27.4915 11.536 27.4742 11.5333 27.4575 11.5364C27.4407 11.5395 27.4255 11.5482 27.4144 11.5611C27.0538 11.9515 26.9249 12.5372 26.8433 13.1156C26.7152 14.0185 26.9347 14.7995 27.2292 15.2127C26.4069 15.0394 26.2119 13.5638 26.2103 13.5565C26.2078 13.5398 26.2018 13.5239 26.1924 13.5098C26.1831 13.4958 26.1708 13.4839 26.1564 13.4752C26.1439 13.4676 26.1293 13.4641 26.1147 13.4651C26.1001 13.4661 26.0862 13.4716 26.0749 13.4808C26.0569 13.4939 25.6343 13.8225 25.7143 14.9695C25.7143 15.0077 25.7192 15.046 25.7233 15.0842C25.826 16.1962 26.6304 17.0365 27.518 16.9551C28.4055 16.8738 29.0419 15.9066 28.9358 14.7938Z" fill="white"/>
<path d="M29.2164 24.5134C29.2254 24.2335 29.2336 23.944 29.2393 23.63C29.2279 23.0383 29.2295 22.5928 29.2442 22.2934C29.2589 21.9941 29.2754 21.7368 29.2939 21.5215C29.3111 21.2992 29.3111 21.0759 29.2939 20.8536C29.2776 20.6226 29.1006 19.5382 29.0769 19.5212C29.0216 19.2916 28.8969 19.0846 28.7196 18.9281C28.6948 18.9002 28.6675 18.8746 28.638 18.8517C28.6291 18.8435 28.6193 18.8362 28.6095 18.8289C28.4576 18.6906 28.2854 18.5762 28.0988 18.4897C27.9658 18.4197 27.872 18.3807 27.872 18.3807C27.8565 18.384 27.8419 18.391 27.8296 18.401C27.6146 18.353 27.392 18.3508 27.1761 18.3944C26.9602 18.438 26.7559 18.5264 26.5766 18.654C26.5146 18.6638 26.4575 18.7687 26.4053 18.968C26.3437 19.2245 26.3063 19.4863 26.2935 19.7497C26.2706 20.11 26.2706 20.4714 26.2935 20.8316C26.2935 20.8316 26.3685 22.1934 26.4305 23.1866V23.2151C26.4567 23.6413 26.4811 23.996 26.4958 24.1384C26.5197 24.3477 26.5429 24.5879 26.5652 24.8591C26.5874 25.1302 26.6184 25.3851 26.6581 25.6238C26.6821 25.7378 26.7149 25.8498 26.756 25.9589C26.9804 26.7122 27.5416 28.5083 27.9087 28.9093C27.9087 28.9093 28.2473 29.3584 28.4512 29.5284C28.4729 29.5539 28.5011 29.573 28.5328 29.5837C28.5399 29.5879 28.5477 29.5906 28.5558 29.5917C28.5639 29.5929 28.5722 29.5923 28.5801 29.5902C28.5801 29.5902 28.9064 29.7529 28.926 28.8288C28.926 28.8288 29.2613 25.9573 29.214 24.5126L29.2164 24.5134Z" fill="white"/>
<path d="M17.1029 29.3977L17.1302 29.3828L17.1029 29.3977Z" fill="white"/>
<path d="M24.462 33.4105C24.462 33.4105 34.931 28.21 45.4277 28.5858C45.4277 28.5858 51.5289 29.174 43.2063 29.8719C42.5838 29.924 38.9838 29.4188 25.8856 33.8782C25.8889 33.8782 18.9531 36.6928 24.462 33.4105Z" fill="white"/>
<path d="M5.71048 12.7325C5.89604 12.8519 6.10583 12.9288 6.32477 12.9578C6.35576 12.9513 6.399 12.8895 6.45448 12.7715C6.51862 12.6302 6.56916 12.4831 6.6054 12.3323C6.6527 12.1369 6.68407 11.938 6.69921 11.7376C6.71731 11.518 6.70412 11.297 6.66005 11.0812C6.63068 10.9345 6.58299 10.7921 6.51811 10.6573C6.47308 10.5513 6.40144 10.4586 6.31008 10.3881C6.18191 10.3303 6.03719 10.3202 5.90219 10.3596C5.76657 10.3841 5.64105 10.4475 5.54094 10.542C5.44084 10.6364 5.37049 10.7579 5.33848 10.8916C5.24929 11.1866 5.25228 11.5646 5.34746 12.0256C5.38498 12.2062 5.40538 12.3786 5.52774 12.5478C5.57625 12.6151 5.63359 12.6756 5.69824 12.7276C5.69824 12.7276 5.71048 12.7349 5.71048 12.7325Z" fill="white"/>
<path d="M7.25556 16.8567C7.25556 16.7168 7.25556 16.5704 7.24903 16.4158C7.23108 16.1214 7.22265 15.8993 7.22374 15.7496C7.22374 15.5999 7.22374 15.4714 7.23271 15.364C7.23678 15.2527 7.23242 15.1412 7.21966 15.0305C7.20661 14.9158 7.09648 14.3797 7.08343 14.3708C7.05178 14.2574 6.98531 14.1567 6.89335 14.0828C6.88017 14.0692 6.86569 14.057 6.85011 14.0462L6.83543 14.0348C6.75677 13.9691 6.66845 13.9159 6.57356 13.877C6.50585 13.8445 6.45854 13.8266 6.45854 13.8266C6.45085 13.8291 6.44367 13.833 6.43733 13.838C6.32902 13.819 6.21792 13.8229 6.11125 13.8496C6.00457 13.8762 5.90471 13.9249 5.81815 13.9925C5.78715 13.999 5.76104 14.0519 5.73657 14.1552C5.71153 14.2845 5.69843 14.4157 5.69741 14.5473C5.69356 14.7274 5.70119 14.9075 5.72025 15.0866C5.72025 15.0866 5.78551 15.7634 5.83772 16.258V16.2719C5.85975 16.4842 5.87933 16.6607 5.88912 16.7306C5.90544 16.8348 5.92175 16.9535 5.93888 17.0886C5.95601 17.2236 5.97722 17.3505 6.00088 17.4676C6.0156 17.5232 6.03442 17.5776 6.05717 17.6303C6.18443 18.0013 6.50177 18.8855 6.69267 19.0775C6.77923 19.1841 6.87416 19.2836 6.97656 19.3752C6.98783 19.3879 7.00258 19.3969 7.01898 19.4012C7.02664 19.4039 7.03498 19.4039 7.04264 19.4012C7.04264 19.4012 7.20579 19.4753 7.19927 19.014C7.19927 19.014 7.30695 17.5758 7.25311 16.8559L7.25556 16.8567Z" fill="white"/>
<path d="M19.3161 9.43011C19.3086 9.37204 19.2846 9.31734 19.2468 9.27249C19.2091 9.22765 19.1592 9.19455 19.1032 9.17712C18.989 9.14187 18.779 9.13428 18.4734 9.15434C18.3787 9.16329 18.249 9.182 18.0834 9.21047C17.9178 9.23894 17.7278 9.27555 17.5124 9.31948C17.2051 9.38293 16.8701 9.45695 16.5073 9.54155C16.1446 9.62615 15.796 9.71102 15.4615 9.79616C15.1254 9.87751 14.8244 9.95886 14.5568 10.0402C14.3597 10.0915 14.1669 10.1579 13.9801 10.2387L13.9181 10.2509C13.8945 10.2599 13.8683 10.2592 13.8452 10.249C13.8221 10.2388 13.804 10.2199 13.7949 10.1964C13.0664 5.96639 12.7564 10.5681 12.7564 10.5698C12.6508 10.6333 12.5365 10.681 12.417 10.7113C12.2539 10.7609 12.0214 10.8268 11.7277 10.9082C11.434 10.9895 11.062 11.1034 10.6109 11.2498C10.2578 11.3273 9.91246 11.4362 9.57891 11.5752C9.15307 11.7688 8.92628 12.025 9.75348 12.2691C10.1532 12.1606 10.581 12.0438 11.0367 11.9185C11.5621 11.7683 12.1386 11.6072 12.7662 11.4353C12.7964 11.4288 12.8143 11.4353 12.8184 11.4564C12.8225 11.4776 12.8265 11.5728 12.8355 11.7729C12.8445 11.973 12.8575 12.2195 12.8747 12.5091C12.8918 12.7987 12.9089 13.1021 12.9261 13.4185C12.9432 13.7349 12.962 14.0188 12.9815 14.2702V14.3011C12.9781 14.3071 12.9751 14.3134 12.9726 14.3198C12.8317 14.8822 12.699 15.2374 12.5745 15.3855C12.4505 15.5335 12.3297 15.5628 12.2163 15.4749C12.1029 15.3871 11.9904 15.2228 11.8819 14.9869C11.7734 14.751 11.6673 14.5273 11.5613 14.3247C11.4936 14.1844 11.417 14.0486 11.332 13.918C11.2888 13.8496 11.2358 13.7879 11.1746 13.7349C11.1408 13.705 11.0974 13.6882 11.0522 13.6878C11.0026 13.692 10.9533 13.6994 10.9046 13.7097C10.8219 13.7265 10.6816 13.902 10.4836 14.236C10.2856 14.5701 10.0105 15.0506 9.65804 15.6775C9.57646 15.8207 9.51446 15.9443 9.46062 16.0452C9.40678 16.146 9.37007 16.1997 9.34967 16.2079C9.34763 16.2085 9.34548 16.2086 9.34337 16.2083C9.34126 16.208 9.33924 16.2073 9.33746 16.2061C9.33567 16.2049 9.33416 16.2034 9.33303 16.2016C9.3319 16.1998 9.33118 16.1978 9.33091 16.1957L9.32438 16.1648C9.32438 16.1444 9.31622 16.0492 9.31378 15.8792C9.31133 15.7092 9.30072 15.5059 9.28441 15.2691C9.26809 15.0324 9.24851 14.7811 9.22649 14.5216C9.20798 14.2864 9.17584 14.0526 9.13023 13.8212C9.09956 13.6309 9.02097 13.4515 8.90181 13.2997C8.85155 13.2406 8.78538 13.197 8.71109 13.174C8.63679 13.1511 8.55748 13.1499 8.4825 13.1704C8.38252 13.1947 8.29524 13.2553 8.23776 13.3404C8.23776 13.3404 8.22634 13.3534 8.20839 13.3778C8.11414 13.5073 8.04244 13.6517 7.99629 13.8049C7.98905 13.8284 7.98467 13.8527 7.98324 13.8773C7.97508 13.9814 7.96774 14.0986 7.96366 14.2287C7.9555 14.4484 7.95224 14.6924 7.95387 14.9608C7.9555 15.2293 7.95387 15.4855 7.96121 15.7352C7.96855 15.985 7.97345 16.2103 7.98732 16.4096C7.99575 16.5563 8.01264 16.7025 8.03789 16.8472C8.03789 16.8472 8.28263 18.3351 9.36599 17.9983L9.38149 17.978C9.40479 17.9693 9.42594 17.9557 9.44349 17.9381C9.57075 17.838 9.83506 17.5216 10.0398 16.5406C10.0429 16.5248 10.0473 16.5093 10.0529 16.4942C10.1214 16.3096 10.6027 15.03 10.8352 15.0373C10.8352 15.0373 10.8793 15.0235 10.9902 15.1073C11.0082 15.1325 11.0261 15.1593 11.0465 15.1886C11.1493 15.3513 11.27 15.5213 11.4103 15.706C11.543 15.8833 11.6874 16.0515 11.8427 16.2095C11.9912 16.3603 12.1271 16.4229 12.2506 16.3974C12.3534 16.3763 12.4627 16.2738 12.5769 16.0899C12.7018 15.8912 12.8088 15.6819 12.8967 15.4644C12.9567 15.32 13.0074 15.1719 13.0484 15.021L13.0696 15.2529C13.099 15.5994 13.1289 15.8998 13.1594 16.1542C13.1898 16.4085 13.2298 16.6526 13.2793 16.8863C13.3136 17.049 13.3454 17.2011 13.3756 17.337C13.3756 17.337 13.3756 17.35 13.3837 17.3719C13.3919 17.3939 13.3902 17.4004 13.3951 17.4183C13.5958 18.3253 13.8683 19.3625 14.3741 19.9742C14.3741 19.9742 14.6392 20.1645 14.6865 19.8928C14.6865 19.8928 14.6718 19.674 14.6155 19.3112C14.6155 19.3006 14.6115 19.2893 14.6098 19.2787C14.5992 19.2079 14.5878 19.1339 14.5756 19.0534C14.4769 18.4026 14.339 17.446 14.2199 16.4421C14.1856 16.1721 14.1734 15.8581 14.1432 15.5286C14.113 15.1992 14.0796 14.8193 14.0445 14.3898C14.0162 14.0975 13.9934 13.7664 13.976 13.3965C13.9586 13.0267 13.9423 12.6742 13.927 12.339C13.9118 12.0066 13.9061 11.72 13.9099 11.4792C13.914 11.2352 13.9238 11.1058 13.9401 11.0806C14.0124 11.04 14.0893 11.0083 14.1693 10.9863C14.3137 10.935 14.4956 10.8773 14.7102 10.8106C14.9247 10.7438 15.167 10.6771 15.4305 10.6072L16.2218 10.3973C16.4853 10.3265 16.7317 10.2631 16.9601 10.2053C17.1885 10.1476 17.368 10.1053 17.5034 10.0784C17.5675 10.0642 17.6323 10.0536 17.6976 10.0467C17.7441 10.0418 17.802 10.0386 17.8713 10.0345C17.9684 10.0281 18.0651 10.0164 18.1609 9.99953C18.2849 9.97946 18.4701 9.94421 18.7165 9.89378C18.9938 9.83684 19.1684 9.77908 19.2427 9.72133C19.3169 9.66357 19.3455 9.57328 19.3161 9.43011Z" fill="white"/>
<path d="M16.2063 12.8672C16.1908 12.8672 16.1745 12.8875 16.1574 12.9193C16.1725 12.9008 16.1888 12.8834 16.2063 12.8672Z" fill="white"/>
<path d="M17.4626 13.7479C17.4258 13.4303 17.3069 13.1275 17.1176 12.8694C17.111 12.8605 17.1037 12.8531 17.0964 12.8442C17.089 12.8352 17.0752 12.8165 17.0637 12.8035C16.9182 12.6262 16.734 12.4842 16.5253 12.3884C16.3165 12.2925 16.0886 12.2453 15.8588 12.2504C15.8392 12.2504 15.818 12.2504 15.7895 12.2577C15.696 12.2717 15.6038 12.2932 15.5137 12.3219C15.3766 12.3598 15.2483 12.4242 15.136 12.5115C15.0136 12.6135 14.914 12.7402 14.844 12.8832C14.7481 13.0786 14.6803 13.2864 14.6425 13.5007C14.5847 13.8073 14.5441 14.1169 14.5209 14.428C14.4763 14.9242 14.5317 15.4243 14.6841 15.8987C14.8619 16.5023 15.1146 16.9362 15.442 17.2003C15.7694 17.4644 16.2096 17.5126 16.7627 17.3451C16.8938 17.3077 17.0335 17.1938 17.182 17.0034C17.348 16.7744 17.4687 16.516 17.5377 16.242C17.6333 15.8794 17.6799 15.5057 17.6764 15.1308C17.6728 14.662 17.6008 14.1961 17.4626 13.7479ZM16.5212 15.2529C16.4915 15.4538 16.4367 15.6503 16.3581 15.8377C16.325 15.9288 16.2811 16.0156 16.2276 16.0964C16.1931 16.0987 16.1586 16.0919 16.1275 16.0768C16.0965 16.0617 16.0699 16.0387 16.0505 16.0102C15.7715 15.71 15.7723 14.4841 15.7723 14.4841C15.7544 13.5031 16.0375 13.0614 16.1541 12.9223C16.1713 12.8906 16.1876 12.8735 16.2031 12.8702C16.2186 12.867 16.2618 12.8954 16.3181 12.9581C16.3965 13.0687 16.4546 13.1924 16.4894 13.3233C16.5673 13.6128 16.6073 13.9111 16.6085 14.2108C16.6176 14.5592 16.5883 14.9076 16.5212 15.2496V15.2529Z" fill="white"/>
<path d="M9.86444 32.8828C9.87352 32.8837 9.88266 32.8837 9.89174 32.8828C9.88295 32.8839 9.87406 32.8839 9.86527 32.8828H9.86444Z" fill="white"/>
<path d="M48.9657 26.1766C48.9319 26.0854 48.8893 25.9976 48.8385 25.9146L48.8336 25.9065C48.783 25.8252 48.7389 25.7617 48.7389 25.7617C47.9232 24.6139 47.7559 22.5705 47.6597 21.9384C47.6425 21.8262 47.6344 21.7627 47.6344 21.7627C47.6344 21.7627 47.4492 19.9186 47.3146 18.2535C47.224 17.1211 47.1841 16.4874 47.1066 14.95C47.1066 14.95 47.0486 8.60499 47.3113 4.42055C47.3994 3.01244 47.5242 1.84838 47.6988 1.24805C47.7217 0.797389 47.6939 0.603785 47.6743 0.52732C47.2787 -0.626169 46.6815 0.364627 46.4017 0.95032C46.352 1.0577 46.2998 1.17484 46.2467 1.30255C45.9928 1.93396 45.7805 2.58122 45.6112 3.24021C45.1103 5.12663 44.5988 8.03964 44.2872 12.5015C44.2769 12.6502 44.2103 12.7896 44.101 12.8913C43.9917 12.9931 43.8478 13.0497 43.6982 13.0497C43.3704 13.0535 43.0432 13.0807 42.7193 13.1311C42.5611 13.1463 42.4043 13.1735 42.2502 13.2124C41.5637 13.3984 40.9095 13.6875 40.3103 14.0698C39.8256 14.359 39.3931 14.7275 39.0311 15.1599C39.0184 15.1756 39.0048 15.1905 38.9903 15.2046C37.8898 16.2824 36.9509 17.9769 36.6001 20.6336C36.5963 20.6606 36.5944 20.6878 36.5944 20.715C36.6001 21.2698 36.7404 26.9575 40.2352 27.3992C40.2715 27.4035 40.3073 27.4114 40.3421 27.4228C40.7683 27.5587 41.2251 27.5674 41.6563 27.448C42.8881 27.1297 43.9103 26.4542 44.7228 25.4217C45.0104 25.0554 45.2739 24.6709 45.5117 24.2706C45.5411 24.3081 45.5704 24.343 45.5998 24.3788C45.608 24.3878 45.6153 24.3975 45.6226 24.4065C45.6504 24.4398 45.6781 24.4732 45.7042 24.5049L45.7197 24.5261C46.2016 25.1083 46.7553 25.6276 47.3676 26.0716H47.3725C47.5695 26.2114 47.7741 26.3404 47.9852 26.458C48.0667 26.502 48.1434 26.5394 48.2168 26.5784C49.0343 26.8216 49.0514 26.4564 48.9657 26.1766ZM44.0123 15.7814C44.0123 15.7911 44.0123 15.8009 44.0123 15.8098L43.9984 16.0994C43.9837 16.44 43.962 16.8144 43.9332 17.2228C43.894 17.7651 43.8464 18.2998 43.7904 18.827C43.7344 19.3541 43.6778 19.7798 43.6207 20.1041C43.3368 21.4056 42.9586 22.458 42.486 23.2611C42.0134 24.0643 41.6381 24.5019 41.3602 24.5741C41.2759 24.5963 41.1636 24.5209 41.0233 24.3479C40.8829 24.1749 40.7483 23.8682 40.6195 23.4279C40.3314 22.4647 40.1994 21.4618 40.2287 20.4571C40.2496 19.5607 40.4112 18.673 40.7076 17.8264C40.9663 17.0839 41.3747 16.4021 41.9076 15.8228C42.4242 15.2713 43.0043 14.9123 43.6476 14.7458C43.8157 14.7019 43.9258 14.7718 43.9788 14.9524C44.0123 15.0826 44.0253 15.3575 44.0123 15.7814Z" fill="white"/>
<path d="M24.2736 14.6473C24.2736 14.6473 24.2736 14.6139 24.2687 14.5545C24.2181 13.6597 23.7792 6.36705 22.6845 3.06277L22.6788 3.04812C22.5632 2.67627 22.4062 2.31854 22.2105 1.98168C21.9111 1.43178 21.4942 0.878621 21.0276 0.890823C21.0276 0.890823 20.5879 0.936377 20.7731 1.07548C20.8365 1.19075 20.8911 1.31068 20.9362 1.43422C21.0401 1.70598 21.1271 1.9839 21.1965 2.26639C21.3462 2.88176 21.4517 3.507 21.5122 4.13735C21.8181 8.37955 22.1893 20.3374 17.6356 28.6046C17.5233 28.7976 17.3671 28.9614 17.1796 29.083L17.1526 29.0976C15.2763 30.1502 11.7464 22.1018 11.7464 22.1018C11.604 21.8953 11.4134 21.7264 11.1909 21.6097C10.4771 21.2721 9.94194 22.1018 9.94194 22.1018C9.08863 22.8592 8.25 24.8863 7.70098 26.4384C7.14951 27.8855 6.53523 27.6692 6.53523 27.6692C5.73005 27.2519 5.08395 26.4604 4.56837 25.4663C4.14337 24.5549 3.79148 23.6113 3.51601 22.6444C2.61865 19.3141 2.48813 15.5453 2.471 14.8938C2.471 14.8279 2.471 14.7913 2.471 14.7913C2.46529 14.7172 2.45876 14.6481 2.45142 14.5814C2.3315 13.3954 2.09492 13.3165 2.09492 13.3165C1.76861 13.3628 1.40232 14.1486 1.40232 14.1486C0.932608 15.0863 0.607265 16.0891 0.437249 17.1235C-0.886766 22.8925 1.21632 27.164 1.21632 27.164C3.72975 33.9613 7.96448 32.5638 7.96448 32.5638C8.15211 32.5028 8.52084 32.2538 8.99889 31.2988C9.47041 30.356 10.0488 28.7234 10.6623 25.9031C10.6819 25.812 10.7022 25.7201 10.7218 25.6258C10.7479 25.5265 10.7724 25.4313 10.7952 25.3427C10.8589 25.1946 10.9698 25.1108 11.146 25.4679C11.146 25.4679 12.2881 30.0355 14.1571 32.576C14.4205 32.9111 14.7056 33.2287 15.0104 33.5269C15.65 34.1508 16.3785 34.6657 17.1983 34.9789C17.4804 35.0235 17.769 35.0029 18.0418 34.9187C23.7523 33.8295 24.192 19.0562 24.192 19.0489C24.3063 17.5846 24.3336 16.1148 24.2736 14.6473Z" fill="white"/>
<path d="M34.2563 27.0539H34.2514C34.1226 26.9628 33.988 26.8603 33.8501 26.748C34.1288 27.0577 34.4779 27.2962 34.8682 27.4436C34.6567 27.3266 34.4521 27.1976 34.2555 27.0572L34.2563 27.0539Z" fill="white"/>
<path d="M35.8455 27.1406C35.8117 27.0492 35.7688 26.9614 35.7174 26.8786L35.7125 26.8705C35.6619 26.7892 35.6187 26.7257 35.6187 26.7257C34.8029 25.5779 34.6398 23.5337 34.5402 22.9024C34.5231 22.7902 34.5149 22.7267 34.5149 22.7267C34.5149 22.7267 34.3289 20.8826 34.1952 19.2183C34.1038 18.0851 34.0646 17.4514 33.9863 15.9148C33.9863 15.9148 33.9292 9.56981 34.1919 5.38536C34.28 3.97807 34.404 2.81401 34.5794 2.21286C34.6022 1.76302 34.5745 1.5686 34.5549 1.49213C34.1593 0.338644 33.5613 1.32944 33.2815 1.91595C33.2314 2.02441 33.18 2.14182 33.1273 2.26817C32.8729 2.89912 32.6606 3.54615 32.4918 4.20503C31.9909 6.09226 31.4786 9.00445 31.1678 13.4671C31.1678 13.4671 31.0862 16.8234 31.3799 20.1261C31.3799 20.1261 32.0244 24.8222 33.8476 26.7412C33.9855 26.8534 34.1201 26.9559 34.249 27.047H34.2539C34.4505 27.1875 34.655 27.3165 34.8665 27.4334C34.9481 27.4782 35.024 27.5148 35.0974 27.5538C35.914 27.7857 35.9311 27.4204 35.8455 27.1406Z" fill="white"/>
</g>
<defs>
<clipPath id="clip0_3629_44334">
<rect width="49" height="35" fill="white"/>
</clipPath>
</defs>
</svg>
