<svg width="32" height="32" viewBox="0 0 32 32" fill="none" xmlns="http://www.w3.org/2000/svg">
<g clip-path="url(#clip0_5598_7144)">
<path d="M16.0004 2.28564C13.288 2.28564 10.6365 3.08997 8.38118 4.59692C6.12587 6.10386 4.36808 8.24574 3.33008 10.7517C2.29208 13.2577 2.02049 16.0151 2.54966 18.6755C3.07882 21.3358 4.38498 23.7794 6.30296 25.6974C8.22094 27.6154 10.6646 28.9215 13.3249 29.4507C15.9852 29.9799 18.7427 29.7083 21.2487 28.6703C23.7546 27.6323 25.8965 25.8745 27.4034 23.6192C28.9104 21.3639 29.7147 18.7124 29.7147 15.9999C29.7111 12.3638 28.265 8.87762 25.6939 6.30648C23.1227 3.73533 19.6366 2.28928 16.0004 2.28564Z" fill="#0D4C3F"/>
<path d="M22.0003 17.1429H17.1431V22C17.1431 22.3031 17.0227 22.5938 16.8084 22.8082C16.5941 23.0225 16.3034 23.1429 16.0003 23.1429C15.6972 23.1429 15.4065 23.0225 15.1922 22.8082C14.9778 22.5938 14.8574 22.3031 14.8574 22V17.1429H10.0003C9.69717 17.1429 9.40648 17.0225 9.19216 16.8082C8.97783 16.5938 8.85742 16.3031 8.85742 16C8.85742 15.6969 8.97783 15.4062 9.19216 15.1919C9.40648 14.9776 9.69717 14.8572 10.0003 14.8572H14.8574V10C14.8574 9.69693 14.9778 9.40624 15.1922 9.19191C15.4065 8.97759 15.6972 8.85718 16.0003 8.85718C16.3034 8.85718 16.5941 8.97759 16.8084 9.19191C17.0227 9.40624 17.1431 9.69693 17.1431 10V14.8572H22.0003C22.3034 14.8572 22.5941 14.9776 22.8084 15.1919C23.0227 15.4062 23.1431 15.6969 23.1431 16C23.1431 16.3031 23.0227 16.5938 22.8084 16.8082C22.5941 17.0225 22.3034 17.1429 22.0003 17.1429Z" fill="#FAFAFA"/>
</g>
<defs>
<clipPath id="clip0_5598_7144">
<rect width="32" height="32" fill="white"/>
</clipPath>
</defs>
</svg>
