<svg width="16" height="17" viewBox="0 0 16 17" fill="none" xmlns="http://www.w3.org/2000/svg">
<path d="M9.14298 0.495469V7.73379C9.14309 7.86524 9.18668 7.99126 9.26417 8.08417C9.34166 8.17707 9.44671 8.22926 9.55624 8.22926H13.3624C13.4091 8.2293 13.4552 8.24091 13.498 8.26336C13.5408 8.28582 13.5793 8.31864 13.611 8.35976C13.6427 8.40089 13.667 8.44943 13.6823 8.50235C13.6977 8.55527 13.7038 8.61142 13.7002 8.6673C13.6122 9.96311 13.1441 11.1795 12.3793 12.1003C11.6145 13.0211 10.6025 13.5866 9.52299 13.6964C9.41952 13.7064 9.32295 13.7626 9.25247 13.8541C9.18199 13.9455 9.14276 14.0654 9.14258 14.19V15.947C9.14253 16.0146 9.15401 16.0815 9.17632 16.1436C9.19862 16.2056 9.23127 16.2616 9.27226 16.3079C9.31325 16.3543 9.36171 16.3901 9.41467 16.4132C9.46762 16.4362 9.52394 16.446 9.58017 16.442C13.1584 16.1704 16.0001 12.5906 16.0001 8.22877V0.495469C16 0.364102 15.9565 0.238152 15.8791 0.145262C15.8017 0.0523713 15.6967 0.000128854 15.5872 0L9.55624 0C9.44671 -6.32974e-08 9.34166 0.0521854 9.26417 0.14509C9.18668 0.237994 9.14309 0.364018 9.14298 0.495469Z" fill="#FBD13E"/>
<path d="M0.412856 8.22913H4.21778C4.26451 8.2291 4.31074 8.24066 4.35356 8.26309C4.39639 8.28552 4.43489 8.31832 4.46665 8.35946C4.49841 8.40059 4.52275 8.44915 4.53812 8.5021C4.5535 8.55506 4.55959 8.61125 4.55602 8.66716C4.46789 9.96293 3.99985 11.1792 3.23505 12.1C2.47026 13.0208 1.45823 13.5863 0.37879 13.6962C0.275546 13.7066 0.179314 13.7631 0.10916 13.8546C0.039005 13.9461 4.57555e-05 14.0659 1.36996e-07 14.1902V15.9472C-4.57488e-05 16.0148 0.0114357 16.0817 0.0337378 16.1438C0.05604 16.2059 0.0886912 16.2618 0.129682 16.3082C0.170673 16.3545 0.219136 16.3904 0.27209 16.4134C0.325044 16.4365 0.381367 16.4463 0.437595 16.4422C4.01501 16.1706 6.85714 12.5909 6.85714 8.22913V0.495461C6.85714 0.430396 6.84646 0.365968 6.82572 0.305856C6.80497 0.245744 6.77456 0.191125 6.73622 0.145117C6.69788 0.0991094 6.65237 0.062614 6.60228 0.0377147C6.55219 0.0128155 6.4985 0 6.44429 0L0.412856 0C0.30336 0 0.198348 0.0522002 0.120923 0.145117C0.0434974 0.238034 1.36996e-07 0.364057 1.36996e-07 0.495461V7.73367C1.36996e-07 7.79873 0.010679 7.86316 0.0314269 7.92327C0.0521749 7.98339 0.0825856 8.03801 0.120923 8.08401C0.15926 8.13002 0.204773 8.16652 0.254863 8.19142C0.304953 8.21632 0.358639 8.22913 0.412856 8.22913Z" fill="#FBD13E"/>
</svg>
