<svg width="32" height="32" viewBox="0 0 32 32" fill="none" xmlns="http://www.w3.org/2000/svg">
<path d="M7.90618 10.2972C10.0273 12.4229 12.1477 14.5456 14.2673 16.6652C14.8388 17.2389 15.3965 17.4835 16.0525 17.4698H16.0799C16.7199 17.4698 17.273 17.2229 17.8445 16.6492C19.609 14.8786 21.3767 13.1094 23.1473 11.3418L25.1542 9.33495L26.2468 8.24695C27.081 7.41952 27.9405 6.56695 28.761 5.71209C28.9076 5.56957 29.0162 5.39263 29.0769 5.19741C29.1376 5.00218 29.1484 4.79488 29.1085 4.59438C29.0681 4.43001 28.9865 4.27865 28.8713 4.15466C28.7561 4.03066 28.6111 3.93812 28.4502 3.88581C27.9725 3.71895 27.5862 3.84466 27.1153 4.31781C25.7927 5.64657 24.4677 6.97304 23.1405 8.29723C21.129 10.3109 19.0468 12.3909 17.0148 14.4504C16.896 14.5949 16.7494 14.714 16.5837 14.8008C16.418 14.8876 16.2366 14.9402 16.0502 14.9555C15.6433 14.9555 15.337 14.7018 15.0673 14.4298C11.8353 11.1589 8.5279 7.86066 5.33018 4.66981L4.89818 4.24238C4.63891 3.93711 4.27064 3.74518 3.8719 3.70752C3.73825 3.71295 3.60711 3.74555 3.48647 3.80331C3.36582 3.86108 3.25821 3.94281 3.17018 4.04352C2.48447 4.72923 3.10161 5.48809 3.39875 5.78295C4.89818 7.29 6.40066 8.79476 7.90618 10.2972Z" fill="white"/>
<path d="M16.9896 25.264C16.8748 25.4057 16.7322 25.5226 16.5707 25.6075C16.4092 25.6924 16.2321 25.7435 16.0502 25.7577C15.6548 25.7577 15.3645 25.5131 15.0971 25.248C11.7142 21.8194 8.33135 18.4525 4.87764 15.008C4.7562 14.8749 4.60971 14.767 4.44656 14.6905C4.28341 14.614 4.10678 14.5704 3.92678 14.5623C3.79004 14.5635 3.655 14.5927 3.52999 14.6481C3.40497 14.7036 3.29264 14.784 3.19992 14.8845C2.74278 15.3668 2.77935 15.9588 3.32564 16.5074C6.0304 19.2167 8.73821 21.9284 11.4491 24.6423L14.4205 27.6137C14.85 28.0315 15.4215 28.2715 16.0205 28.2857C16.6477 28.2701 17.2446 28.013 17.6868 27.568L24.6079 20.6468L28.6788 16.576C28.755 16.505 28.8261 16.4286 28.8913 16.3474C28.991 16.2126 29.0577 16.0563 29.0861 15.891C29.1146 15.7258 29.1039 15.5562 29.055 15.3958C29.0062 15.2354 28.9204 15.0886 28.8047 14.9673C28.6889 14.846 28.5464 14.7535 28.3885 14.6971C27.9931 14.5485 27.6342 14.5691 27.0719 15.1337C25.9976 16.2125 24.9211 17.2906 23.8422 18.368C21.5999 20.6217 19.2662 22.9554 16.9896 25.264Z" fill="white"/>
</svg>
