<svg width="14" height="14" viewBox="0 0 14 14" fill="none" xmlns="http://www.w3.org/2000/svg">
<path d="M13.4936 5.04846L9.2776 4.40389L7.38731 0.378749C7.24674 0.0781775 6.75302 0.0781775 6.61245 0.378749L4.72331 4.40389L0.507308 5.04846C0.429532 5.06041 0.356546 5.09354 0.296351 5.14422C0.236156 5.19489 0.191075 5.26117 0.16605 5.33577C0.141025 5.41037 0.137022 5.49042 0.15448 5.56715C0.171938 5.64388 0.210183 5.71432 0.265022 5.77075L3.32788 8.91018L2.60445 13.349C2.59173 13.4283 2.60152 13.5095 2.63271 13.5835C2.6639 13.6574 2.71523 13.7212 2.78086 13.7674C2.84648 13.8136 2.92377 13.8404 3.00392 13.8449C3.08406 13.8493 3.16384 13.8311 3.23417 13.7925L7.0056 11.7113L10.777 13.7936C10.8475 13.8322 10.9274 13.8503 11.0077 13.8458C11.088 13.8413 11.1654 13.8143 11.2311 13.768C11.2968 13.7217 11.3482 13.6579 11.3794 13.5838C11.4107 13.5098 11.4206 13.4284 11.4079 13.349L10.6833 8.91132L13.7462 5.77189C13.8013 5.71557 13.8399 5.64513 13.8576 5.56832C13.8753 5.49152 13.8714 5.41131 13.8465 5.33654C13.8216 5.26176 13.7765 5.1953 13.7163 5.14448C13.656 5.09366 13.5829 5.06043 13.505 5.04846H13.4936Z" fill="#FFC233"/>
</svg>
