<svg width="56" height="56" viewBox="0 0 56 56" fill="none" xmlns="http://www.w3.org/2000/svg">
<g clip-path="url(#clip0_4600_58012)">
<path d="M20.0921 48.4856L20.0041 48.4456C19.1281 48.0016 12.6761 45.0616 4.40412 50.1056C4.22566 50.2041 4.09151 50.3669 4.02907 50.561C3.96663 50.755 3.98059 50.9655 4.06812 51.1496C4.1167 51.249 4.18536 51.3372 4.26975 51.4087C4.35414 51.4802 4.45245 51.5334 4.55845 51.5649C4.66445 51.5965 4.77584 51.6058 4.8856 51.5921C4.99536 51.5785 5.10109 51.5422 5.19612 51.4856C13.1481 46.6136 19.2641 49.8536 19.3281 49.8856L19.4241 49.9296C21.2115 50.6185 23.1086 50.9789 25.0241 50.9936C25.1393 50.9947 25.2534 50.971 25.3585 50.924C25.4637 50.877 25.5574 50.8078 25.6334 50.7212C25.7094 50.6346 25.7657 50.5326 25.7986 50.4222C25.8316 50.3119 25.8402 50.1957 25.8241 50.0816C25.7987 49.8879 25.7034 49.7102 25.556 49.582C25.4086 49.4538 25.2194 49.3839 25.0241 49.3856C23.3399 49.3791 21.6701 49.0743 20.0921 48.4856Z" fill="#888888"/>
<path d="M21.9522 12.0018C21.1205 12.0018 20.3076 11.7551 19.6161 11.293C18.9247 10.8309 18.3859 10.174 18.0678 9.40563C17.7497 8.63721 17.6667 7.79173 17.8292 6.97612C17.9918 6.16052 18.3926 5.41144 18.9809 4.82366C19.5692 4.23588 20.3187 3.8358 21.1345 3.67404C21.9502 3.51228 22.7956 3.59611 23.5637 3.91491C24.3319 4.23372 24.9881 4.77318 25.4496 5.46505C25.9111 6.15692 26.157 6.97011 26.1562 7.80175C26.154 8.9157 25.7103 9.98337 24.9223 10.7707C24.1342 11.558 23.0661 12.0007 21.9522 12.0018ZM21.9522 5.20175C21.4371 5.20175 20.9337 5.35447 20.5055 5.6406C20.0772 5.92674 19.7435 6.33343 19.5464 6.80924C19.3493 7.28506 19.2977 7.80864 19.3982 8.31377C19.4987 8.81889 19.7467 9.28288 20.1109 9.64706C20.475 10.0112 20.939 10.2592 21.4442 10.3597C21.9493 10.4602 22.4729 10.4086 22.9487 10.2115C23.4245 10.0144 23.8312 9.68068 24.1173 9.25246C24.4034 8.82423 24.5562 8.32078 24.5562 7.80575C24.5551 7.11545 24.2804 6.45373 23.7923 5.96561C23.3042 5.4775 22.6425 5.20281 21.9522 5.20175Z" fill="#888888"/>
<path d="M31.4042 18.9375H32.9642V12.2255C32.9681 12.1856 32.9681 12.1454 32.9642 12.1055L31.4162 13.6575L31.4042 18.9375Z" fill="#888888"/>
<path d="M32.9683 20.5H31.4043V21.78H32.9683V20.5Z" fill="#888888"/>
<path d="M20.5001 41.4902H15.5841V42.9022H20.5001V41.4902Z" fill="#888888"/>
<path d="M32.1843 11.4473C31.979 11.4523 31.7836 11.5362 31.6384 11.6813C31.4932 11.8265 31.4094 12.022 31.4043 12.2273V13.6593L32.9523 12.1073C32.9253 11.9232 32.8327 11.755 32.6916 11.6338C32.5505 11.5125 32.3704 11.4463 32.1843 11.4473Z" fill="#888888"/>
<path d="M51.3721 46.0388C48.5721 45.4468 43.9681 45.3508 38.5961 48.6228C38.4175 48.7264 38.2838 48.8927 38.221 49.0893C38.1582 49.2859 38.1707 49.4989 38.2561 49.6868C38.3058 49.7846 38.3751 49.8712 38.4597 49.9411C38.5442 50.011 38.6423 50.0627 38.7477 50.0931C38.8531 50.1235 38.9637 50.1319 39.0724 50.1177C39.1812 50.1036 39.286 50.0672 39.3801 50.0108C44.3001 46.9988 48.5161 47.0908 51.0281 47.6108C51.1465 47.6369 51.2693 47.6358 51.3872 47.6075C51.5051 47.5791 51.6151 47.5244 51.7087 47.4473C51.8023 47.3702 51.8772 47.2729 51.9277 47.1626C51.9782 47.0524 52.0029 46.9321 52.0001 46.8108C51.998 46.6301 51.9348 46.4555 51.8207 46.3153C51.7067 46.1751 51.5486 46.0777 51.3721 46.0388Z" fill="#888888"/>
<path d="M10.7321 44.5622C10.5466 44.5666 10.3654 44.5063 10.2194 44.3917C10.0735 44.2772 9.97192 44.1154 9.93208 43.9342C9.9141 43.8261 9.91985 43.7153 9.94894 43.6096C9.97803 43.504 10.0297 43.4059 10.1005 43.3221C10.1713 43.2384 10.2594 43.1711 10.3588 43.1248C10.4582 43.0786 10.5665 43.0545 10.6761 43.0542L29.3321 43.0022C29.5319 43.0012 29.7232 42.9211 29.8641 42.7794C30.005 42.6377 30.0841 42.4461 30.0841 42.2462C30.0841 42.0457 30.0044 41.8534 29.8627 41.7117C29.7209 41.5699 29.5286 41.4902 29.3281 41.4902H27.0881L26.6601 42.9062H21.3601L21.7841 41.4902H20.5001V42.9062H15.6001V41.4902H10.8001C10.189 41.489 9.60055 41.7209 9.15458 42.1386C8.70862 42.5563 8.43878 43.1284 8.40008 43.7382C8.38879 44.0494 8.44035 44.3596 8.55167 44.6503C8.66299 44.9411 8.8318 45.2064 9.048 45.4305C9.26419 45.6545 9.52334 45.8327 9.80995 45.9543C10.0966 46.0759 10.4047 46.1384 10.7161 46.1382H26.5161C26.6937 46.1387 26.866 46.078 27.0041 45.9662C27.1209 45.8606 27.204 45.7228 27.2429 45.5702C27.2817 45.4175 27.2747 45.2568 27.2226 45.1081C27.1705 44.9594 27.0756 44.8295 26.9499 44.7345C26.8242 44.6395 26.6733 44.5838 26.5161 44.5742L10.7321 44.5622Z" fill="#888888"/>
<path d="M38.1201 43.0531C38.2745 43.0523 38.425 43.0049 38.5521 42.9171L40.5041 41.5531C40.5858 41.4951 40.6783 41.4542 40.7761 41.4326C40.8739 41.411 40.9751 41.4094 41.0736 41.4276C41.172 41.4459 41.2659 41.4838 41.3494 41.539C41.433 41.5942 41.5046 41.6657 41.5601 41.7491L41.6161 41.8331C41.7236 41.9935 41.7657 42.1889 41.7337 42.3793C41.7017 42.5697 41.5981 42.7407 41.4441 42.8571L39.3601 44.4011C39.2303 44.5003 39.0714 44.5537 38.9081 44.5531H37.4561C37.2963 44.563 37.1432 44.6206 37.0165 44.7184C36.8899 44.8162 36.7954 44.9498 36.7455 45.1019C36.6955 45.2539 36.6923 45.4175 36.7363 45.5714C36.7802 45.7252 36.8693 45.8624 36.9921 45.9651C37.1271 46.0629 37.2893 46.1161 37.4561 46.1171H39.4281C39.5911 46.1157 39.7494 46.0625 39.8801 45.9651L42.2801 44.1811C42.7468 43.8422 43.0779 43.3483 43.2142 42.7878C43.3505 42.2273 43.2831 41.6366 43.0241 41.1211C42.8662 40.8251 42.6473 40.5659 42.3819 40.3607C42.1165 40.1555 41.8106 40.0089 41.4843 39.9307C41.1581 39.8524 40.8189 39.8443 40.4893 39.9067C40.1597 39.9692 39.8471 40.1009 39.5721 40.2931L38.0681 41.3451C37.941 41.4329 37.7905 41.4803 37.6361 41.4811H34.8921C34.7923 41.4811 34.6934 41.5008 34.6012 41.539C34.509 41.5772 34.4253 41.6332 34.3547 41.7037C34.2841 41.7743 34.2281 41.8581 34.1899 41.9503C34.1517 42.0425 34.1321 42.1413 34.1321 42.2411C34.1331 42.4403 34.2118 42.6312 34.3516 42.7732C34.4913 42.9152 34.6809 42.997 34.8801 43.0011L38.1201 43.0531Z" fill="#888888"/>
<path d="M31.2241 44.5617H31.4001V44.4297L31.2241 44.5617Z" fill="#888888"/>
<path d="M32.9681 44.5625H33.0721L32.9681 44.4785V44.5625Z" fill="#888888"/>
<path d="M36.2242 46.9665L35.1202 46.1265L33.0722 44.5625H32.9642V46.4465L34.6602 47.7425C34.8538 47.8915 35.0107 48.083 35.1189 48.3021C35.227 48.5212 35.2836 48.7621 35.2842 49.0065V49.2425C35.2842 49.4547 35.1999 49.6582 35.0499 49.8082C34.8998 49.9582 34.6964 50.0425 34.4842 50.0425H29.9362C29.724 50.0425 29.5205 49.9582 29.3705 49.8082C29.2205 49.6582 29.1362 49.4547 29.1362 49.2425V48.8665C29.1368 48.6188 29.1949 48.3746 29.306 48.1532C29.417 47.9317 29.578 47.7391 29.7762 47.5905L31.4002 46.3905V44.5625H31.2202L29.1242 46.1265L28.2162 46.8025C28.018 46.9511 27.857 47.1437 27.746 47.3652C27.6349 47.5866 27.5768 47.8308 27.5762 48.0785V50.4025C27.5762 50.7208 27.7026 51.026 27.9276 51.251C28.1527 51.4761 28.4579 51.6025 28.7762 51.6025H35.6562C35.9744 51.6025 36.2797 51.4761 36.5047 51.251C36.7298 51.026 36.8562 50.7208 36.8562 50.4025V48.2225C36.8534 47.9788 36.7951 47.739 36.6855 47.5214C36.576 47.3037 36.4182 47.1139 36.2242 46.9665Z" fill="#888888"/>
<path d="M32.204 23.3418H31.404V46.8898C31.3773 47.007 31.3774 47.1286 31.4041 47.2458C31.4309 47.3629 31.4837 47.4725 31.5586 47.5665C31.6336 47.6604 31.7287 47.7362 31.837 47.7884C31.9453 47.8405 32.0639 47.8676 32.184 47.8676C32.3042 47.8676 32.4228 47.8405 32.5311 47.7884C32.6394 47.7362 32.7345 47.6604 32.8094 47.5665C32.8844 47.4725 32.9372 47.3629 32.9639 47.2458C32.9907 47.1286 32.9907 47.007 32.964 46.8898V23.3418H32.204Z" fill="#888888"/>
<path d="M21.3601 42.9022H26.6761L27.1041 41.4902H21.7841L21.3601 42.9022Z" fill="#888888"/>
<path d="M20.5001 33.8801C20.4972 33.5121 20.6121 33.1529 20.828 32.855C21.0439 32.557 21.3495 32.3359 21.7001 32.2241C21.9656 32.1358 22.2478 32.1094 22.5251 32.1468C22.8024 32.1842 23.0675 32.2846 23.3001 32.4401C23.5939 32.6507 23.8146 32.9477 23.9315 33.2897C24.0484 33.6318 24.0556 34.0018 23.9521 34.3481L21.7921 41.4881H27.1121L29.6201 33.2001C29.7989 32.6093 29.8141 31.9811 29.6641 31.3823C29.514 30.7836 29.2044 30.2368 28.7681 29.8001L24.6481 25.6801C24.4954 25.5347 24.4063 25.3349 24.4001 25.1241V21.9241L25.2001 23.0081C25.2742 23.1069 25.3702 23.1872 25.4805 23.2428C25.5909 23.2983 25.7126 23.3275 25.8361 23.3281H34.6361C34.942 23.3283 35.2445 23.2646 35.5244 23.1413C35.8043 23.0179 36.0554 22.8376 36.2616 22.6118C36.4679 22.3859 36.6248 22.1195 36.7224 21.8296C36.8199 21.5398 36.8559 21.2327 36.8281 20.9281C36.7598 20.3679 36.4858 19.8531 36.0593 19.4835C35.6329 19.114 35.0843 18.916 34.5201 18.9281H28.4601C28.3322 18.9277 28.2062 18.8966 28.0927 18.8375C27.9793 18.7783 27.8817 18.6928 27.8081 18.5881L27.2241 17.7481L27.7241 17.3241L31.2721 13.7761L31.4041 13.6481V12.2241C31.4079 12.0304 31.4837 11.845 31.6168 11.7041C31.7498 11.5632 31.9305 11.4768 32.1237 11.4619C32.3169 11.4469 32.5087 11.5044 32.6618 11.6231C32.815 11.7418 32.9185 11.9133 32.9521 12.1041L33.7001 11.3561C33.9206 11.1358 34.0955 10.8742 34.2148 10.5863C34.3342 10.2984 34.3956 9.98978 34.3956 9.67811C34.3956 9.36643 34.3342 9.05782 34.2148 8.7699C34.0955 8.48198 33.9206 8.22039 33.7001 8.00011C33.242 7.58044 32.6433 7.34766 32.0221 7.34766C31.4009 7.34766 30.8022 7.58044 30.3441 8.00011L30.3081 8.03211L27.9081 10.4321L25.6081 12.7321H19.8961C18.7556 12.7353 17.6629 13.1906 16.8576 13.9981C16.0523 14.8057 15.6001 15.8996 15.6001 17.0401V41.4881H20.5001V33.8801ZM27.5441 20.5001H35.2801C35.2865 20.5001 35.2926 20.5026 35.2971 20.5071C35.3016 20.5116 35.3041 20.5177 35.3041 20.5241V21.7561C35.3005 21.7582 35.2963 21.7593 35.2921 21.7593C35.2879 21.7593 35.2837 21.7582 35.2801 21.7561H26.6481C26.5246 21.7555 26.4029 21.7263 26.2925 21.6708C26.1822 21.6152 26.0862 21.5349 26.0121 21.4361L24.4441 19.3321C24.4441 19.3321 24.4441 19.3321 24.4161 19.3321V18.4801H25.6001L26.9441 20.1761C27.0141 20.271 27.1041 20.3492 27.2078 20.4052C27.3116 20.4612 27.4264 20.4936 27.5441 20.5001ZM18.9361 33.8641V41.3401H17.1441V17.9041C17.1504 16.9513 17.5317 16.0392 18.2055 15.3655C18.8792 14.6917 19.7913 14.3104 20.7441 14.3041H26.2681L29.0241 11.5481L31.4521 9.12411C31.55 9.02543 31.672 8.95398 31.806 8.9168C31.94 8.87963 32.0813 8.87801 32.2161 8.91211H32.2561C32.2866 8.91929 32.3161 8.93003 32.3441 8.94411L32.4281 8.98411L32.4761 9.01611L32.5161 9.05211L32.5481 9.08011V9.10011C32.5649 9.11698 32.5797 9.13578 32.5921 9.15611L32.6521 9.23611C32.6521 9.25611 32.6521 9.28011 32.6841 9.30011C32.6996 9.3279 32.7116 9.35745 32.7201 9.38811C32.7286 9.41019 32.7353 9.43293 32.7401 9.45611C32.742 9.48674 32.742 9.51747 32.7401 9.54811C32.7418 9.57074 32.7418 9.59347 32.7401 9.61611C32.7421 9.64808 32.7421 9.68014 32.7401 9.71211C32.742 9.73473 32.742 9.75748 32.7401 9.78011L32.7161 9.87611C32.7161 9.87611 32.7161 9.92011 32.7161 9.94011C32.7034 9.97493 32.6873 10.0084 32.6681 10.0401L32.6441 10.0881C32.6116 10.1361 32.5755 10.1816 32.5361 10.2241L30.1081 12.6481L26.0281 16.8001H24.4001C24.1975 16.8001 23.9969 16.8401 23.8098 16.9177C23.6227 16.9954 23.4528 17.1091 23.3097 17.2526C23.1667 17.396 23.0533 17.5662 22.9762 17.7535C22.899 17.9408 22.8596 18.1415 22.8601 18.3441V25.7721C22.8599 25.9834 22.9433 26.1861 23.0921 26.3361L27.4921 30.7361C27.7807 31.0247 27.9855 31.3863 28.0848 31.7821C28.1842 32.178 28.1742 32.5934 28.0561 32.9841L25.5201 41.3361H23.4641L25.4161 34.8721C25.6682 34.0833 25.6226 33.2296 25.2881 32.4721C24.9694 31.7701 24.4145 31.2022 23.7201 30.8674C23.0257 30.5327 22.2358 30.4522 21.4881 30.6401H21.4201C20.7046 30.8212 20.0707 31.2376 19.6202 31.8222C19.1697 32.4069 18.9288 33.126 18.9361 33.8641Z" fill="#888888"/>
</g>
<defs>
<clipPath id="clip0_4600_58012">
<rect width="56" height="56" fill="white"/>
</clipPath>
</defs>
</svg>
