<svg width="56" height="56" viewBox="0 0 56 56" fill="none" xmlns="http://www.w3.org/2000/svg">
<g clip-path="url(#clip0_4600_57860)">
<path d="M45.0479 49.4131C42.1159 49.4131 39.0199 48.5211 37.4479 47.9891C37.0351 47.8549 36.6338 47.6877 36.2479 47.4891C24.0879 41.2011 21.6719 29.5611 21.1999 24.8491C21.0719 23.6884 21.2708 22.515 21.774 21.4612C22.2772 20.4075 23.0648 19.5152 24.0479 18.8851C26.3159 17.4811 28.7759 18.0011 30.7999 20.2771C30.9545 20.4598 31.1508 20.6028 31.3721 20.694C31.5934 20.7852 31.8334 20.8219 32.0719 20.8011C32.1937 20.7983 32.313 20.7654 32.419 20.7054C32.5251 20.6453 32.6147 20.5601 32.6799 20.4571C33.2359 19.5891 32.7719 17.3891 32.4519 16.4371C29.6839 9.67709 25.2519 7.04509 19.2839 8.61309C16.7547 9.27423 14.4486 10.6004 12.605 12.4538C10.7614 14.3072 9.44755 16.6204 8.7999 19.1531C5.6479 31.4931 17.7679 43.7931 17.8919 43.9131L16.7599 45.0451C14.4437 42.6001 12.4293 39.8861 10.7599 36.9611C7.0719 30.5411 5.8639 24.2491 7.2639 18.7571C7.98338 15.9516 9.43967 13.3895 11.482 11.3359C13.5243 9.28232 16.0784 7.81197 18.8799 7.07709C23.6039 5.83709 30.0559 6.35309 33.9439 15.8771V15.9251C34.0679 16.2931 35.1439 19.5851 34.0079 21.3411C33.8143 21.6407 33.5547 21.8921 33.2489 22.0758C32.9431 22.2596 32.5993 22.3708 32.2439 22.4011C31.75 22.4467 31.2523 22.3735 30.7924 22.1878C30.3324 22.002 29.9236 21.7089 29.5999 21.3331C28.5599 20.1531 26.8999 19.0051 24.8919 20.2451C24.1653 20.7189 23.5849 21.3855 23.2154 22.1703C22.846 22.9551 22.7021 23.8272 22.7999 24.6891C23.2479 29.1411 25.5279 40.1371 36.9839 46.0691C37.2971 46.2272 37.6221 46.3609 37.9559 46.4691C39.7159 47.0611 45.6919 48.8451 48.6679 47.0091C49.1245 46.7238 49.5087 46.3366 49.7905 45.8779C50.0723 45.4191 50.2439 44.9013 50.2919 44.3651L51.8919 44.1451C51.8694 44.9884 51.6421 45.8137 51.2296 46.5496C50.817 47.2855 50.2316 47.9099 49.5239 48.3691C48.2559 49.1371 46.6799 49.4131 45.0479 49.4131Z" fill="#888888"/>
<path d="M5.63194 33.5272C5.57058 33.6237 5.49023 33.7067 5.39579 33.7713C5.30135 33.8358 5.19478 33.8804 5.08255 33.9025C4.97032 33.9246 4.85478 33.9236 4.74293 33.8997C4.63109 33.8757 4.52528 33.8293 4.43194 33.7632L4.49994 33.8152C4.32875 33.6898 4.21078 33.5048 4.16931 33.2967C4.12784 33.0887 4.16589 32.8726 4.27594 32.6912C5.07594 31.4112 6.67594 28.3912 6.77594 24.9512L8.37594 25.0072C8.22794 28.8392 6.50394 32.1032 5.63194 33.5272Z" fill="#888888"/>
<path d="M14.0439 22.4896C13.9362 22.4661 13.8344 22.4207 13.7451 22.356C13.6557 22.2913 13.5807 22.2089 13.5247 22.1139C13.4688 22.0188 13.433 21.9133 13.4198 21.8038C13.4066 21.6943 13.4162 21.5832 13.4479 21.4776C14.3999 18.1616 17.1999 13.3176 22.3439 13.6576C22.4542 13.6671 22.5613 13.6993 22.6585 13.7524C22.7557 13.8054 22.8408 13.878 22.9085 13.9656C22.9762 14.0532 23.0249 14.1539 23.0517 14.2613C23.0784 14.3687 23.0826 14.4805 23.0639 14.5896C23.0305 14.7875 22.924 14.9655 22.7654 15.0885C22.6069 15.2115 22.4079 15.2704 22.2079 15.2536C17.5759 14.9856 15.5679 20.0536 14.9799 21.9496C14.9197 22.1403 14.7901 22.3016 14.6169 22.4015C14.4436 22.5015 14.2392 22.5329 14.0439 22.4896Z" fill="#888888"/>
<path d="M50.9958 44.9502H32.3358V43.3503H50.9958C51.2169 43.3416 51.4324 43.4209 51.5951 43.5709C51.7578 43.7208 51.8545 43.9292 51.8638 44.1502C51.8534 44.371 51.7565 44.5787 51.594 44.7284C51.4316 44.8782 51.2166 44.9579 50.9958 44.9502Z" fill="#888888"/>
<path d="M44.112 26.0334C43.3611 26.0342 42.6268 25.8122 42.002 25.3956C41.3772 24.979 40.89 24.3864 40.6021 23.6928C40.3142 22.9993 40.2384 22.2359 40.3845 21.4993C40.5305 20.7627 40.8917 20.0859 41.4224 19.5546C41.9531 19.0234 42.6295 18.6614 43.366 18.5146C44.1024 18.3678 44.8659 18.4428 45.5598 18.73C46.2536 19.0172 46.8467 19.5037 47.264 20.128C47.6813 20.7524 47.904 21.4865 47.904 22.2374C47.903 23.2432 47.5032 24.2075 46.7924 24.919C46.0816 25.6305 45.1178 26.0313 44.112 26.0334ZM44.112 20.0334C43.6774 20.0326 43.2522 20.1608 42.8905 20.4018C42.5287 20.6428 42.2467 20.9858 42.0799 21.3872C41.9132 21.7886 41.8694 22.2305 41.954 22.6568C42.0386 23.0832 42.2479 23.4749 42.5552 23.7822C42.8626 24.0896 43.2542 24.2988 43.6806 24.3834C44.1069 24.468 44.5488 24.4242 44.9502 24.2575C45.3517 24.0908 45.6946 23.8087 45.9356 23.4469C46.1766 23.0852 46.3048 22.6601 46.304 22.2254C46.2998 21.6465 46.0671 21.0926 45.6566 20.6843C45.2461 20.2761 44.691 20.0464 44.112 20.0454V20.0334Z" fill="#888888"/>
<path d="M41.2638 38.801L35.3358 36.441C32.8638 35.005 33.2438 32.001 33.7918 30.589L33.8438 30.485L36.8158 25.285C38.6278 22.681 40.6798 23.077 40.7678 23.093L40.4398 24.661L40.6038 23.861L40.4598 24.661C40.4158 24.661 39.3158 24.509 38.1478 26.169L35.2638 31.221C35.1278 31.621 34.3678 33.977 36.0918 35.025L40.9758 36.961L43.1998 35.149L39.5998 32.249L41.7798 28.885L43.1198 29.757L41.7238 31.913L44.7758 34.401C44.888 34.4929 44.9784 34.6086 45.0404 34.7397C45.1025 34.8707 45.1347 35.014 45.1347 35.159C45.1347 35.304 45.1025 35.4472 45.0404 35.5783C44.9784 35.7094 44.888 35.8251 44.7758 35.917L41.2638 38.801Z" fill="#888888"/>
<path d="M30.9199 43.417C30.4305 42.9967 30.1124 42.4113 30.0261 41.772C29.9398 41.1327 30.0914 40.4839 30.4519 39.949L34.5439 33.877L39.1999 36.373L34.7999 42.885C34.5927 43.1908 34.3234 43.4495 34.0096 43.6444C33.6958 43.8393 33.3445 43.966 32.9786 44.0161C32.6126 44.0663 32.2401 44.0389 31.8855 43.9357C31.5308 43.8324 31.2018 43.6557 30.9199 43.417ZM31.9639 42.217C32.0742 42.3117 32.2033 42.3819 32.3427 42.423C32.4821 42.4642 32.6287 42.4753 32.7727 42.4556C32.9167 42.436 33.0549 42.386 33.1782 42.309C33.3015 42.232 33.4071 42.1297 33.4879 42.009L36.8839 36.961L35.0599 35.985L31.7799 40.857C31.6422 41.0651 31.5849 41.3163 31.6188 41.5636C31.6526 41.8109 31.7753 42.0375 31.9639 42.201V42.217Z" fill="#888888"/>
<path d="M43.0158 44.9481C42.3004 44.947 41.6147 44.6621 41.1092 44.1559C40.6037 43.6496 40.3198 42.9635 40.3198 42.2481V38.1881L45.1198 35.0801L45.6918 42.2481C45.6918 42.96 45.4107 43.6432 44.9095 44.1488C44.4083 44.6545 43.7277 44.9418 43.0158 44.9481ZM42.9958 43.3481C43.2798 43.3481 43.5523 43.2358 43.7539 43.0358C43.9554 42.8357 44.0697 42.5641 44.0718 42.2801L43.7518 37.2801L41.9198 38.9041V42.2681C41.9193 42.4097 41.9467 42.5501 42.0006 42.6811C42.0544 42.8121 42.1336 42.9312 42.2336 43.0315C42.3335 43.1319 42.4523 43.2115 42.5831 43.2658C42.7139 43.3201 42.8542 43.3481 42.9958 43.3481Z" fill="#888888"/>
<path d="M50 28.672L49.964 28.728C49.981 28.7098 49.9957 28.6896 50.008 28.668L50 28.672Z" fill="#888888"/>
<path d="M50.5119 26.0763C49.8679 24.5683 47.5759 24.3923 47.3119 24.3763H47.1079L46.9199 24.4643C44.6239 25.5603 42.4439 23.8963 42.3519 23.8283L42.1479 23.6643H41.8879C41.1879 23.6363 39.0879 23.5483 38.3919 24.9483C37.6959 26.3483 39.0359 27.9323 39.3039 28.2403L39.4279 28.3563C41.1089 29.6226 43.1594 30.3014 45.2639 30.2883C48.6519 30.0843 49.7439 29.0163 49.9679 28.7483L50.0039 28.6923C50.6599 27.7083 50.8359 26.8363 50.5119 26.0763ZM41.0479 27.5003C40.5707 27.2189 40.1889 26.8009 39.9519 26.3003C39.8355 26.1012 39.7957 25.8666 39.8399 25.6403C39.8839 25.5523 40.0479 25.4323 40.4119 25.3523C41.0299 25.2254 41.673 25.3248 42.2239 25.6323C43.6144 26.4175 45.2575 26.6258 46.7999 26.2123C47.3214 26.0448 47.8836 26.0532 48.3999 26.2363C48.6623 26.3107 48.8894 26.4767 49.0399 26.7043C49.0885 26.8688 49.0743 27.0456 48.9999 27.2003C48.8872 27.4841 48.7082 27.7367 48.4779 27.9372C48.2475 28.1376 47.9725 28.2799 47.6759 28.3523C46.5708 28.665 45.4138 28.7507 44.2747 28.6042C43.1356 28.4578 42.038 28.0823 41.0479 27.5003Z" fill="#888888"/>
</g>
<defs>
<clipPath id="clip0_4600_57860">
<rect width="56" height="56" fill="white"/>
</clipPath>
</defs>
</svg>
