<svg width="33" height="32" viewBox="0 0 33 32" fill="none" xmlns="http://www.w3.org/2000/svg">
<g clip-path="url(#clip0_5233_4876)">
<path d="M16.1418 29.7157C18.8542 29.7157 21.5057 28.9114 23.761 27.4044C26.0163 25.8975 27.7741 23.7556 28.8121 21.2496C29.8501 18.7437 30.1217 15.9862 29.5925 13.3259C29.0634 10.6656 27.7572 8.22192 25.8392 6.30394C23.9213 4.38596 21.4776 3.0798 18.8173 2.55063C16.157 2.02146 13.3995 2.29305 10.8935 3.33105C8.38759 4.36906 6.24571 6.12685 4.73876 8.38215C3.23182 10.6375 2.42749 13.289 2.42749 16.0014C2.42749 19.6387 3.87238 23.1269 6.44431 25.6989C9.01624 28.2708 12.5045 29.7157 16.1418 29.7157ZM8.70406 15.7043L21.9269 10.6048C22.5395 10.3763 23.0698 10.7557 22.8778 11.6837L20.6263 22.2894C20.4595 23.0414 20.0138 23.2243 19.3875 22.87L15.9589 20.3443L14.3132 21.9443C14.2323 22.0492 14.1284 22.1343 14.0096 22.1929C13.8907 22.2516 13.76 22.2822 13.6275 22.2825L13.8561 18.7831L20.2103 13.0437C20.4869 12.7991 20.1486 12.662 19.7829 12.9043L11.9338 17.8483L8.54863 16.7923C7.81263 16.5637 7.79663 16.0585 8.70406 15.7043Z" fill="#0D4C3F"/>
</g>
<defs>
<clipPath id="clip0_5233_4876">
<rect width="32" height="32" fill="white" transform="translate(0.141846 0.000976562)"/>
</clipPath>
</defs>
</svg>
