<svg width="56" height="56" viewBox="0 0 56 56" fill="none" xmlns="http://www.w3.org/2000/svg">
<g clip-path="url(#clip0_4600_57888)">
<path d="M47.8638 12.0954C47.7732 12.0414 47.6729 12.0058 47.5686 11.9907C47.4642 11.9756 47.3579 11.9812 47.2558 12.0074C47.1536 12.0332 47.0575 12.0791 46.9731 12.1422C46.8886 12.2054 46.8175 12.2846 46.7638 12.3754L45.8958 13.8434C45.7871 14.0269 45.7557 14.2461 45.8086 14.4528C45.8614 14.6594 45.9943 14.8366 46.1778 14.9454C46.3613 15.0541 46.5805 15.0855 46.7872 15.0326C46.9939 14.9797 47.1711 14.8469 47.2798 14.6634L48.1358 13.1994C48.1909 13.1092 48.2277 13.0089 48.2439 12.9044C48.26 12.7999 48.2554 12.6933 48.2301 12.5906C48.2048 12.488 48.1594 12.3913 48.0965 12.3063C48.0336 12.2213 47.9545 12.1496 47.8638 12.0954Z" fill="#888888"/>
<path d="M49.144 17.3382L50.656 16.4902C50.7467 16.4365 50.8259 16.3654 50.8891 16.281C50.9523 16.1965 50.9981 16.1004 51.024 15.9982C51.0501 15.8961 51.0558 15.7898 51.0407 15.6854C51.0256 15.5811 50.99 15.4808 50.936 15.3902C50.8319 15.2112 50.6625 15.0794 50.4633 15.0228C50.2641 14.9661 50.0507 14.9888 49.868 15.0862L48.36 15.9342C48.168 16.0364 48.0242 16.2104 47.96 16.4182C47.9315 16.5202 47.9236 16.6268 47.9366 16.7318C47.9497 16.8369 47.9835 16.9383 48.036 17.0302C48.0872 17.1245 48.1569 17.2075 48.2408 17.2743C48.3248 17.3411 48.4213 17.3904 48.5247 17.4191C48.6281 17.4478 48.7362 17.4555 48.8426 17.4416C48.9489 17.4277 49.0515 17.3925 49.144 17.3382Z" fill="#888888"/>
<path d="M51.1519 18.9609H49.4079C49.1957 18.9609 48.9923 19.0452 48.8422 19.1953C48.6922 19.3453 48.6079 19.5488 48.6079 19.7609C48.6079 19.9731 48.6922 20.1766 48.8422 20.3266C48.9923 20.4767 49.1957 20.5609 49.4079 20.5609H51.1519C51.3641 20.5609 51.5676 20.4767 51.7176 20.3266C51.8676 20.1766 51.9519 19.9731 51.9519 19.7609C51.9519 19.5488 51.8676 19.3453 51.7176 19.1953C51.5676 19.0452 51.3641 18.9609 51.1519 18.9609Z" fill="#888888"/>
<path d="M8.09982 50.2231C8.20179 50.2515 8.30839 50.2595 8.41344 50.2464C8.51849 50.2334 8.61992 50.1996 8.71182 50.1471L49.8558 26.3991C50.0404 26.293 50.1753 26.1179 50.2308 25.9124C50.2863 25.7069 50.2579 25.4877 50.1518 25.3031C50.0457 25.1185 49.8707 24.9836 49.6651 24.9281C49.4596 24.8726 49.2404 24.901 49.0558 25.0071L42.5438 28.7671V28.7231C42.5083 28.6512 42.464 28.584 42.4118 28.5231L36.4518 22.5871C36.3086 22.4421 36.1154 22.3572 35.9118 22.3497C35.7081 22.3423 35.5092 22.4129 35.3558 22.5471L28.5558 28.4831C28.4757 28.5522 28.41 28.6363 28.3624 28.7308C28.3149 28.8253 28.2864 28.9282 28.2785 29.0337C28.2708 29.1392 28.2838 29.2452 28.317 29.3456C28.3501 29.4461 28.4027 29.539 28.4718 29.6191C28.5409 29.6992 28.6251 29.7649 28.7195 29.8125C28.814 29.8601 28.9169 29.8886 29.0224 29.8964C29.1279 29.9042 29.2339 29.8911 29.3343 29.858C29.4348 29.8248 29.5277 29.7722 29.6078 29.7031L35.8518 24.2551L35.8798 24.2831L41.1558 29.5631L41.1078 29.5911L25.6638 38.5071V24.7991H25.8198C26.4692 24.7732 27.0834 24.497 27.5337 24.0284C27.984 23.5597 28.2355 22.935 28.2355 22.2851C28.2355 21.6352 27.984 21.0105 27.5337 20.5418C27.0834 20.0732 26.4692 19.797 25.8198 19.7711H25.6678V17.2111C25.6678 16.9989 25.5835 16.7954 25.4335 16.6454C25.2835 16.4954 25.08 16.4111 24.8678 16.4111C24.6556 16.4111 24.4522 16.4954 24.3021 16.6454C24.1521 16.7954 24.0678 16.9989 24.0678 17.2111V19.7711H20.6278L16.3318 15.1391V14.6711C16.3318 14.4589 16.2475 14.2554 16.0975 14.1054C15.9475 13.9554 15.744 13.8711 15.5318 13.8711H10.4398C10.2277 13.8711 10.0242 13.9554 9.87414 14.1054C9.72411 14.2554 9.63982 14.4589 9.63982 14.6711V24.8271C9.62171 30.3096 7.836 35.6401 4.54782 40.0271L4.49182 40.1111C4.05425 40.8857 3.93734 41.8009 4.16611 42.6606C4.39487 43.5204 4.95114 44.2564 5.71582 44.7111C6.22349 45.0067 6.80036 45.1626 7.38782 45.1631C7.6808 45.1638 7.97262 45.1262 8.25582 45.0511C8.67317 44.9439 9.06497 44.7546 9.40836 44.4943C9.75175 44.234 10.0398 43.9079 10.2558 43.5351L11.6438 41.5351C13.3814 38.9972 14.6645 36.1765 15.4358 33.1991V33.1471L15.4838 33.1711L17.2518 34.0671V36.7311C17.2777 37.3774 17.5526 37.9885 18.019 38.4367C18.4854 38.8848 19.107 39.135 19.7538 39.135C20.4006 39.135 21.0223 38.8848 21.4887 38.4367C21.9551 37.9885 22.23 37.3774 22.2558 36.7311V30.9991C22.2564 30.8581 22.2197 30.7195 22.1494 30.5973C22.0792 30.4751 21.9779 30.3736 21.8558 30.3031L16.2958 27.1031V27.0751C16.2958 26.9791 16.2958 26.8831 16.2958 26.7871C16.2958 26.6911 16.2958 26.4991 16.2958 26.3551V21.7791L18.8598 24.5471C18.9345 24.6287 19.0253 24.694 19.1266 24.7388C19.2278 24.7835 19.3372 24.8068 19.4478 24.8071H24.0558V39.2071C24.0593 39.2574 24.0687 39.307 24.0838 39.3551V39.3911H24.0518L7.91982 48.7511C7.82767 48.8027 7.74665 48.872 7.68143 48.9551C7.61621 49.0382 7.56808 49.1333 7.53982 49.2351C7.51137 49.3371 7.50344 49.4437 7.51648 49.5487C7.52953 49.6538 7.56329 49.7552 7.61582 49.8471C7.66782 49.9385 7.73734 50.0188 7.82039 50.0833C7.90344 50.1478 7.99839 50.1953 8.09982 50.2231ZM14.7158 26.5471C14.6951 31.5669 13.1617 36.4639 10.3158 40.5991L8.89182 42.6751C8.66666 43.0726 8.29324 43.3648 7.85323 43.4877C7.41321 43.6107 6.94242 43.5544 6.54382 43.3311H6.51982C6.12489 43.0984 5.8355 42.7217 5.71243 42.2802C5.58936 41.8386 5.64219 41.3665 5.85982 40.9631C8.99197 36.7808 10.8391 31.7773 11.1758 26.5631V26.5231H14.7158V26.5471ZM14.7158 24.8951H11.2358V15.4751H14.7158V24.8951ZM20.6598 31.4631V36.7231C20.6598 36.9597 20.5658 37.1866 20.3986 37.3538C20.2313 37.5211 20.0044 37.6151 19.7678 37.6151C19.5312 37.6151 19.3044 37.5211 19.1371 37.3538C18.9698 37.1866 18.8758 36.9597 18.8758 36.7231V33.5631C18.8761 33.4147 18.8351 33.2691 18.7574 33.1427C18.6797 33.0162 18.5684 32.9139 18.4358 32.8471L15.8198 31.5271V31.4911C15.9878 30.6391 16.1118 29.7871 16.1918 28.9591V28.8911L16.2518 28.9271L20.6598 31.4631ZM19.8558 23.1991L16.3638 19.4311V17.5031L16.3998 17.5991L19.6798 21.1391C19.755 21.2212 19.8464 21.2868 19.9484 21.3316C20.0503 21.3763 20.1605 21.3993 20.2718 21.3991H24.6038C24.6842 21.4329 24.7706 21.4503 24.8578 21.4503C24.945 21.4503 25.0314 21.4329 25.1118 21.3991H25.8198C26.037 21.4314 26.2353 21.5407 26.3786 21.707C26.522 21.8733 26.6008 22.0855 26.6008 22.3051C26.6008 22.5246 26.522 22.7369 26.3786 22.9032C26.2353 23.0695 26.037 23.1787 25.8198 23.2111L19.8558 23.1991Z" fill="#888888"/>
<path d="M9.52385 7.65205C9.22225 8.11171 9.01465 8.62654 8.91304 9.16684C8.81143 9.70715 8.81783 10.2622 8.93185 10.8C9.12831 11.7475 9.6468 12.5978 10.3992 13.2062C11.1516 13.8147 12.0915 14.1438 13.0592 14.1377C14.0268 14.1316 14.9624 13.7906 15.7071 13.1726C16.4517 12.5547 16.9594 11.698 17.1439 10.748V10.712H18.9599C19.172 10.712 19.3755 10.6278 19.5255 10.4777C19.6756 10.3277 19.7599 10.1242 19.7599 9.91205C19.7599 9.69987 19.6756 9.49639 19.5255 9.34636C19.3755 9.19633 19.172 9.11205 18.9599 9.11205H17.1519V9.07605C16.9512 8.1343 16.4334 7.28997 15.6849 6.68421C14.9365 6.07845 14.0027 5.74798 13.0399 5.74805C12.7483 5.74801 12.4575 5.7775 12.1719 5.83605C11.6323 5.94863 11.1205 6.16711 10.666 6.47882C10.2114 6.79054 9.82324 7.18931 9.52385 7.65205ZM15.4639 10.8C15.2904 11.3083 14.9631 11.75 14.5273 12.064C14.0915 12.3779 13.5689 12.5485 13.0319 12.552C12.4949 12.5479 11.9726 12.3771 11.5369 12.0632C11.1013 11.7494 10.7738 11.308 10.5999 10.8L10.5799 10.74H15.4839L15.4639 10.8ZM15.4639 9.07205L15.4839 9.13205H10.5799L10.5999 9.07205C10.7702 8.56183 11.0967 8.11812 11.5332 7.80371C11.9697 7.4893 12.4939 7.32013 13.0319 7.32013C13.5698 7.32013 14.094 7.4893 14.5305 7.80371C14.967 8.11812 15.2935 8.56183 15.4639 9.07205Z" fill="#888888"/>
<path d="M7.89573 12.8281C7.00811 12.8292 6.15715 13.1823 5.52951 13.8099C4.90186 14.4375 4.54879 15.2885 4.54773 16.1761V23.8121C4.553 25.3732 5.17546 26.8688 6.27928 27.9726C7.3831 29.0764 8.8787 29.6989 10.4397 29.7041C10.8837 29.7041 10.8757 29.1081 10.8757 28.6641L11.2437 16.1761C11.2427 15.2885 10.8896 14.4375 10.262 13.8099C9.63431 13.1823 8.78335 12.8292 7.89573 12.8281ZM9.63573 28.0281L9.59973 28.0001C8.63439 27.7987 7.76738 27.2722 7.14349 26.5085C6.51959 25.7448 6.17658 24.7902 6.17173 23.8041V16.1761C6.17173 15.7146 6.35505 15.2721 6.68136 14.9458C7.00768 14.6194 7.45025 14.4361 7.91173 14.4361C8.37321 14.4361 8.81578 14.6194 9.1421 14.9458C9.46841 15.2721 9.65173 15.7146 9.65173 16.1761L9.63573 28.0281Z" fill="#888888"/>
<path d="M43.5157 16.4004C42.8536 16.4004 42.2063 16.5967 41.6557 16.9646C41.1051 17.3325 40.676 17.8554 40.4226 18.4672C40.1692 19.0789 40.1029 19.7521 40.2321 20.4016C40.3612 21.051 40.6801 21.6476 41.1483 22.1158C41.6166 22.584 42.2131 22.9029 42.8626 23.0321C43.512 23.1612 44.1852 23.0949 44.797 22.8415C45.4087 22.5881 45.9316 22.159 46.2995 21.6084C46.6674 21.0579 46.8637 20.4106 46.8637 19.7484C46.8627 18.8608 46.5096 18.0098 45.882 17.3822C45.2543 16.7545 44.4033 16.4014 43.5157 16.4004ZM43.5157 21.4884C43.1705 21.4892 42.8327 21.3875 42.5453 21.1961C42.2579 21.0048 42.0337 20.7325 41.9013 20.4136C41.7688 20.0948 41.7339 19.7438 41.801 19.4051C41.8682 19.0665 42.0344 18.7553 42.2785 18.5112C42.5227 18.2671 42.8338 18.1009 43.1725 18.0337C43.5112 17.9665 43.8621 18.0014 44.181 18.1339C44.4998 18.2664 44.7722 18.4906 44.9635 18.778C45.1548 19.0654 45.2565 19.4031 45.2557 19.7484C45.2573 19.9781 45.2135 20.2058 45.1268 20.4186C45.0401 20.6313 44.9123 20.8248 44.7506 20.9879C44.5889 21.1511 44.3966 21.2807 44.1847 21.3693C43.9728 21.458 43.7454 21.5039 43.5157 21.5044V21.4884Z" fill="#888888"/>
<path d="M37.5999 18.9609H35.8359C35.6237 18.9609 35.4202 19.0452 35.2702 19.1953C35.1202 19.3453 35.0359 19.5488 35.0359 19.7609C35.0359 19.9731 35.1202 20.1766 35.2702 20.3266C35.4202 20.4767 35.6237 20.5609 35.8359 20.5609H37.5999C37.8121 20.5609 38.0155 20.4767 38.1656 20.3266C38.3156 20.1766 38.3999 19.9731 38.3999 19.7609C38.3999 19.5488 38.3156 19.3453 38.1656 19.1953C38.0155 19.0452 37.8121 18.9609 37.5999 18.9609Z" fill="#888888"/>
<path d="M38.6359 15.7273L37.1279 14.8793C37.0052 14.8125 36.8675 14.7781 36.7279 14.7793C36.6035 14.7783 36.4805 14.8062 36.3688 14.861C36.2571 14.9158 36.1597 14.9959 36.0843 15.0949C36.009 15.1939 35.9578 15.3092 35.9348 15.4315C35.9118 15.5537 35.9177 15.6797 35.9519 15.7993C35.9825 15.9028 36.0337 15.999 36.1024 16.0822C36.1711 16.1654 36.256 16.2338 36.3519 16.2833L37.8639 17.1313C37.9559 17.1837 38.0574 17.2174 38.1625 17.2302C38.2676 17.2431 38.3743 17.235 38.4762 17.2063C38.5782 17.1777 38.6734 17.1291 38.7565 17.0633C38.8395 16.9976 38.9086 16.916 38.9599 16.8233C39.0117 16.7303 39.0444 16.628 39.0561 16.5222C39.0678 16.4164 39.0583 16.3093 39.0282 16.2073C38.998 16.1052 38.9477 16.0102 38.8804 15.9278C38.813 15.8453 38.7299 15.7772 38.6359 15.7273Z" fill="#888888"/>
<path d="M40.2959 12.3755C40.2425 12.2829 40.1711 12.2019 40.086 12.1373C40.0008 12.0728 39.9035 12.0259 39.7999 11.9995C39.6977 11.9734 39.5914 11.9678 39.4871 11.9829C39.3828 11.998 39.2824 12.0335 39.1919 12.0875C39.1005 12.1411 39.0206 12.2124 38.957 12.2971C38.8933 12.3818 38.8471 12.4783 38.8211 12.581C38.795 12.6837 38.7896 12.7906 38.8052 12.8954C38.8208 13.0002 38.8571 13.1009 38.9119 13.1915L39.7839 14.6595C39.8982 14.8253 40.0708 14.9419 40.2672 14.9861C40.4637 15.0302 40.6696 14.9986 40.8438 14.8976C41.018 14.7966 41.1477 14.6337 41.207 14.4412C41.2664 14.2488 41.251 14.0411 41.1639 13.8595L40.2959 12.3755Z" fill="#888888"/>
<path d="M43.5239 10.9609C43.3117 10.9609 43.1082 11.0452 42.9582 11.1953C42.8082 11.3453 42.7239 11.5488 42.7239 11.7609V13.4569C42.7239 13.6691 42.8082 13.8726 42.9582 14.0226C43.1082 14.1727 43.3117 14.2569 43.5239 14.2569C43.7361 14.2569 43.9395 14.1727 44.0896 14.0226C44.2396 13.8726 44.3239 13.6691 44.3239 13.4569V11.7649C44.3244 11.6595 44.3041 11.5551 44.2641 11.4576C44.2242 11.36 44.1653 11.2714 44.091 11.1967C44.0166 11.122 43.9283 11.0627 43.831 11.0222C43.7336 10.9818 43.6293 10.9609 43.5239 10.9609Z" fill="#888888"/>
</g>
<defs>
<clipPath id="clip0_4600_57888">
<rect width="56" height="56" fill="white"/>
</clipPath>
</defs>
</svg>
