<svg width="24" height="24" viewBox="0 0 24 24" fill="none" xmlns="http://www.w3.org/2000/svg">
<g clip-path="url(#clip0_4946_38767)">
<path d="M14.6569 7.02871C14.6048 6.99849 14.5457 6.98253 14.4854 6.98242H9.51402C9.45365 6.98305 9.39451 6.99961 9.34259 7.03042C6.49345 8.69671 4.42773 12.7544 4.42773 16.675C4.42773 19.387 5.84888 22.123 9.02545 22.123H14.974C18.1506 22.123 19.5717 19.3801 19.5717 16.675C19.562 15.3472 19.3428 14.0293 18.922 12.7699C18.9083 12.7264 18.8861 12.6862 18.8567 12.6515C18.8272 12.6167 18.7912 12.5882 18.7506 12.5676C18.6696 12.5271 18.576 12.5204 18.49 12.5487C18.446 12.5623 18.4051 12.5846 18.3699 12.6143C18.3346 12.644 18.3058 12.6805 18.285 12.7216C18.2642 12.7628 18.2519 12.8077 18.2488 12.8536C18.2457 12.8996 18.252 12.9458 18.2672 12.9893C18.6656 14.1776 18.8734 15.4216 18.8826 16.675C18.8826 18.8676 17.854 21.427 14.9792 21.427H9.02545C6.14373 21.427 5.12202 18.8676 5.12202 16.675C5.12202 13.051 7.00773 9.26928 9.59459 7.68356L9.61345 7.67328H14.386L14.4049 7.68356C15.0106 8.06103 15.5596 8.52281 16.0352 9.05499C16.0655 9.08952 16.1024 9.1176 16.1438 9.13756C16.1852 9.15753 16.2302 9.16897 16.2761 9.17121C16.322 9.17345 16.3679 9.16644 16.411 9.1506C16.4541 9.13475 16.4936 9.1104 16.5272 9.07899C16.5617 9.04867 16.5898 9.01172 16.6097 8.97034C16.6297 8.92895 16.6411 8.88397 16.6434 8.83808C16.6456 8.79218 16.6386 8.7463 16.6228 8.70317C16.6069 8.66004 16.5826 8.62053 16.5512 8.58699C16.0016 7.97531 15.363 7.44998 14.6569 7.02871Z" fill="#0D4C3F"/>
<path d="M9.0252 7.67344H14.9738C15.1314 7.67344 15.2874 7.6424 15.433 7.58209C15.5786 7.52179 15.7109 7.4334 15.8223 7.32197C15.9337 7.21054 16.0221 7.07825 16.0824 6.93266C16.1427 6.78707 16.1738 6.63102 16.1738 6.47344C16.1738 6.31585 16.1427 6.15981 16.0824 6.01422C16.0221 5.86863 15.9337 5.73634 15.8223 5.62491C15.7109 5.51348 15.5786 5.42509 15.433 5.36478C15.2874 5.30448 15.1314 5.27344 14.9738 5.27344H9.0252C8.70694 5.27344 8.40171 5.39987 8.17667 5.62491C7.95162 5.84995 7.8252 6.15518 7.8252 6.47344C7.8252 6.7917 7.95162 7.09692 8.17667 7.32197C8.40171 7.54701 8.70694 7.67344 9.0252 7.67344ZM9.0252 5.97287H14.9738C15.0397 5.97287 15.105 5.98586 15.166 6.0111C15.2269 6.03634 15.2823 6.07334 15.3289 6.11998C15.3756 6.16662 15.4126 6.222 15.4378 6.28294C15.4631 6.34388 15.4761 6.40919 15.4761 6.47515C15.4761 6.54111 15.4631 6.60643 15.4378 6.66737C15.4126 6.72831 15.3756 6.78368 15.3289 6.83032C15.2823 6.87696 15.2269 6.91396 15.166 6.9392C15.105 6.96445 15.0397 6.97744 14.9738 6.97744H9.0252C8.89198 6.97744 8.76422 6.92452 8.67003 6.83032C8.57583 6.73613 8.52291 6.60837 8.52291 6.47515C8.52291 6.34194 8.57583 6.21418 8.67003 6.11998C8.76422 6.02579 8.89198 5.97287 9.0252 5.97287Z" fill="#0D4C3F"/>
<path d="M17.0822 2.67783C17.0006 2.44408 16.8477 2.24185 16.645 2.09974C16.4423 1.95762 16.2 1.88279 15.9525 1.88583H8.05646C7.80983 1.88703 7.56957 1.9642 7.36836 2.10682C7.16715 2.24944 7.01477 2.4506 6.93197 2.68291C6.84916 2.91522 6.83994 3.1674 6.90557 3.40514C6.9712 3.64287 7.10848 3.85462 7.29874 4.01155L9.6576 5.89726C9.72966 5.95478 9.82162 5.98131 9.91325 5.97102C10.0049 5.96073 10.0887 5.91447 10.1462 5.8424C10.2037 5.77034 10.2302 5.67838 10.2199 5.58676C10.2096 5.49513 10.1634 5.41135 10.0913 5.35383L7.73417 3.46812C7.65145 3.40289 7.59133 3.3133 7.56232 3.21203C7.53331 3.11076 7.53688 3.00293 7.57251 2.9038C7.60815 2.80466 7.67405 2.71924 7.7609 2.65962C7.84774 2.59999 7.95114 2.56918 8.05646 2.57155H15.9593C16.0635 2.57089 16.1654 2.60279 16.2506 2.66278C16.3358 2.72278 16.4002 2.80788 16.4347 2.90622C16.4693 3.00456 16.4723 3.11122 16.4433 3.21134C16.4143 3.31145 16.3548 3.40002 16.273 3.46469L13.9142 5.3504C13.8781 5.37862 13.848 5.41377 13.8257 5.45381C13.8034 5.49384 13.7894 5.53793 13.7845 5.58347C13.7795 5.62902 13.7837 5.67509 13.7969 5.71898C13.81 5.76286 13.8318 5.80366 13.861 5.83898C13.9202 5.90919 14.004 5.95402 14.0952 5.96423C14.1865 5.97444 14.2781 5.94924 14.3513 5.89383L16.7085 4.00812C16.9019 3.8532 17.042 3.64159 17.109 3.403C17.176 3.16441 17.1666 2.91082 17.0822 2.67783Z" fill="#0D4C3F"/>
<path d="M10.2992 17.4482H12.4249C12.6424 17.4553 12.8591 17.4186 13.0622 17.3402C13.2652 17.2618 13.4504 17.1435 13.6068 16.9921C13.7632 16.8407 13.8875 16.6595 13.9724 16.4591C14.0573 16.2587 14.1011 16.0433 14.1011 15.8257C14.1011 15.608 14.0573 15.3926 13.9724 15.1922C13.8875 14.9918 13.7632 14.8106 13.6068 14.6592C13.4504 14.5078 13.2652 14.3895 13.0622 14.3111C12.8591 14.2327 12.6424 14.196 12.4249 14.2031H11.5678C11.3218 14.2031 11.0859 14.1054 10.912 13.9314C10.738 13.7575 10.6403 13.5216 10.6403 13.2757C10.6403 13.0297 10.738 12.7938 10.912 12.6199C11.0859 12.4459 11.3218 12.3482 11.5678 12.3482H13.6935C13.7858 12.3482 13.8743 12.3116 13.9395 12.2463C14.0048 12.181 14.0415 12.0925 14.0415 12.0002C14.0415 11.9079 14.0048 11.8194 13.9395 11.7542C13.8743 11.6889 13.7858 11.6522 13.6935 11.6522H11.5746C11.3571 11.6452 11.1404 11.6819 10.9373 11.7602C10.7343 11.8386 10.5491 11.957 10.3927 12.1084C10.2364 12.2597 10.112 12.441 10.0271 12.6414C9.9422 12.8418 9.89844 13.0572 9.89844 13.2748C9.89844 13.4924 9.9422 13.7078 10.0271 13.9082C10.112 14.1086 10.2364 14.2899 10.3927 14.4412C10.5491 14.5926 10.7343 14.711 10.9373 14.7893C11.1404 14.8677 11.3571 14.9044 11.5746 14.8974H12.4318C12.6777 14.8974 12.9136 14.9951 13.0875 15.169C13.2615 15.3429 13.3592 15.5788 13.3592 15.8248C13.3592 16.0708 13.2615 16.3067 13.0875 16.4806C12.9136 16.6545 12.6777 16.7522 12.4318 16.7522H10.2992C10.2069 16.7522 10.1184 16.7889 10.0531 16.8542C9.98785 16.9194 9.95118 17.0079 9.95118 17.1002C9.95118 17.1925 9.98785 17.281 10.0531 17.3463C10.1184 17.4116 10.2069 17.4482 10.2992 17.4482Z" fill="#0D4C3F"/>
<path d="M12.0001 16.7521C11.9092 16.7521 11.8219 16.7882 11.7576 16.8525C11.6933 16.9168 11.6572 17.004 11.6572 17.095V18.3704C11.6572 18.4627 11.6939 18.5512 11.7592 18.6165C11.8244 18.6817 11.9129 18.7184 12.0052 18.7184C12.0975 18.7184 12.186 18.6817 12.2513 18.6165C12.3166 18.5512 12.3532 18.4627 12.3532 18.3704V17.1001C12.3539 17.0538 12.3453 17.0078 12.3277 16.9649C12.3101 16.922 12.2841 16.8831 12.2511 16.8506C12.2181 16.8181 12.1788 16.7926 12.1357 16.7756C12.0925 16.7587 12.0464 16.7507 12.0001 16.7521Z" fill="#0D4C3F"/>
<path d="M12.0001 10.3765C11.9092 10.3765 11.8219 10.4126 11.7576 10.4769C11.6933 10.5412 11.6572 10.6284 11.6572 10.7193V11.9999C11.6572 12.0908 11.6933 12.178 11.7576 12.2423C11.8219 12.3066 11.9092 12.3428 12.0001 12.3428C12.091 12.3428 12.1782 12.3066 12.2425 12.2423C12.3068 12.178 12.3429 12.0908 12.3429 11.9999V10.7245C12.3436 10.679 12.3353 10.6339 12.3183 10.5917C12.3014 10.5495 12.2763 10.5111 12.2444 10.4787C12.2125 10.4463 12.1744 10.4206 12.1325 10.403C12.0906 10.3855 12.0455 10.3765 12.0001 10.3765Z" fill="#0D4C3F"/>
<path d="M16.5509 8.58545C16.5509 8.58545 18.3886 10.6083 18.9218 12.77L18.2618 12.9894C18.2618 12.9894 17.4783 10.5003 16.0332 9.04659L16.5509 8.58545Z" fill="#0D4C3F"/>
</g>
<defs>
<clipPath id="clip0_4946_38767">
<rect width="24" height="24" fill="white"/>
</clipPath>
</defs>
</svg>
