<svg width="56" height="56" viewBox="0 0 56 56" fill="none" xmlns="http://www.w3.org/2000/svg">
<g clip-path="url(#clip0_4602_58087)">
<path d="M43.4641 23.5601C43.4641 23.4761 43.4641 23.3921 43.4641 23.3081C43.4401 23.0201 43.4081 22.7321 43.3721 22.4481C43.3721 22.4001 43.3721 22.3521 43.3721 22.3001C43.3241 21.9641 43.2601 21.6321 43.1921 21.3041C43.1921 21.2481 43.1641 21.1921 43.1521 21.1361C43.0881 20.8481 43.0121 20.5601 42.9321 20.2801L42.8841 20.1121C42.7881 19.7881 42.6801 19.4681 42.5641 19.1481C42.5641 19.1161 42.5361 19.0801 42.5201 19.0441C42.4121 18.7601 42.2961 18.4801 42.1681 18.2001L42.0921 18.0281C41.9481 17.7201 41.7961 17.4161 41.6321 17.1201L41.5921 17.0521C41.4401 16.7761 41.2761 16.5041 41.1041 16.2521L41.0481 16.1561V16.1281C40.4816 15.2653 39.8304 14.4613 39.1041 13.7281L39.0801 13.7041C38.9521 13.5761 38.8241 13.4561 38.6801 13.3321C38.6241 13.2761 38.5681 13.2201 38.5081 13.1681L38.2121 12.9081L37.9201 12.6561C35.5607 10.6804 32.662 9.45958 29.6001 9.15208C29.3761 9.12808 29.1521 9.11208 28.9281 9.10008H28.8081C28.5441 9.10008 28.2801 9.08008 28.0081 9.08008C24.0882 9.08038 20.3141 10.5662 17.4461 13.2383C14.5781 15.9103 12.8293 19.57 12.5521 23.4801C12.5281 23.8441 12.5081 24.2081 12.5081 24.5761C12.5081 24.9441 12.5081 25.2321 12.5441 25.5561C12.7941 29.4861 14.531 33.1735 17.4019 35.869C20.2727 38.5645 24.0621 40.0659 28.0001 40.0681C28.2961 40.0681 28.5921 40.0681 28.8881 40.0401H29.1321C29.3481 40.0241 29.5641 40.0041 29.7801 39.9801L30.0441 39.9481L30.6841 39.8481L30.9201 39.8041C31.1641 39.7601 31.4041 39.7081 31.6441 39.6481H31.7481C33.0806 39.3148 34.3626 38.8049 35.5601 38.1321L35.7841 38.0001C36.0121 37.8681 36.2361 37.7321 36.4561 37.6001L36.6121 37.5001C36.8681 37.3281 37.1161 37.1481 37.3601 36.9641L37.5841 36.7881C37.7681 36.6441 37.9441 36.4961 38.1201 36.3441L38.3361 36.1561C38.5601 35.9561 38.7801 35.7561 38.9921 35.5361L39.1641 35.3561C39.3281 35.1801 39.4921 35.0041 39.6521 34.8201C39.7161 34.7521 39.7761 34.6801 39.8361 34.6081C40.0401 34.3681 40.2361 34.1281 40.4201 33.8761L40.4801 33.7921C40.6521 33.5601 40.8161 33.3201 40.9721 33.0801C40.9961 33.0441 41.0241 33.0081 41.0441 32.9721C41.0677 32.9389 41.0891 32.9041 41.1081 32.8681C41.2801 32.5921 41.4481 32.3161 41.6041 32.0321C41.7641 31.7401 41.9081 31.4441 42.0481 31.1441L42.1441 30.9361C42.2681 30.6561 42.3881 30.3721 42.4961 30.0801L42.5201 30.0201C42.6361 29.7041 42.7401 29.3841 42.8361 29.0601C42.8561 29.0001 42.8721 28.9401 42.8881 28.8761C42.9681 28.5961 43.0401 28.3121 43.1041 28.0281L43.1401 27.8801C43.2081 27.5521 43.2681 27.2201 43.3161 26.8881C43.3161 26.8361 43.3161 26.7801 43.3161 26.7281C43.3561 26.4481 43.3841 26.1681 43.4081 25.8841C43.4081 25.8041 43.4081 25.7201 43.4081 25.6361C43.4081 25.3041 43.4441 24.9721 43.4441 24.6321C43.4441 24.2921 43.4841 23.8961 43.4641 23.5601ZM28.0001 38.4001C25.4425 38.3988 22.9355 37.6877 20.7582 36.3459C18.5808 35.004 16.8187 33.0842 15.6681 30.8001L20.2841 26.9761L22.5841 25.0681L25.5001 22.6681C25.5511 22.6272 25.6146 22.6049 25.6801 22.6049C25.7455 22.6049 25.809 22.6272 25.8601 22.6681L38.8921 33.0681C37.6026 34.7278 35.951 36.071 34.0633 36.995C32.1757 37.9191 30.1018 38.3997 28.0001 38.4001ZM39.8081 31.7561L33.6601 26.8441L36.8361 24.2121C36.8871 24.1712 36.9506 24.1489 37.0161 24.1489C37.0815 24.1489 37.145 24.1712 37.1961 24.2121L41.4801 27.6361C41.1505 29.0912 40.5858 30.4828 39.8081 31.7561ZM41.7641 25.8081L38.2001 22.9561C37.8611 22.6799 37.4373 22.5292 37.0001 22.5292C36.5629 22.5292 36.139 22.6799 35.8001 22.9561L32.4001 25.8201L26.8801 21.4201C26.539 21.1459 26.1134 20.9984 25.6758 21.0028C25.2382 21.0072 24.8156 21.1631 24.4801 21.4441L21.5681 23.8441L19.2641 25.7521L15.0001 29.2761C14.314 27.3792 14.0515 25.3551 14.2308 23.3459C14.4101 21.3367 15.0269 19.3912 16.038 17.6457C17.049 15.9002 18.4298 14.3972 20.0835 13.242C21.7371 12.0868 23.6235 11.3075 25.6103 10.9588C27.5971 10.6101 29.6361 10.7004 31.5843 11.2234C33.5324 11.7464 35.3426 12.6894 36.8876 13.9863C38.4326 15.2831 39.6751 16.9024 40.5279 18.7304C41.3807 20.5584 41.8231 22.5509 41.8241 24.5681C41.8241 24.9881 41.8001 25.4001 41.7641 25.8081Z" fill="#888888"/>
<path d="M42.616 9.95153C39.7256 7.06044 36.0426 5.09152 32.033 4.29379C28.0234 3.49606 23.8673 3.90536 20.0903 5.46992C16.3134 7.03448 13.0852 9.68402 10.8143 13.0834C8.54326 16.4828 7.33143 20.4793 7.33203 24.5675C7.33203 33.6115 19.972 46.1155 25.408 51.0755C26.1164 51.7285 27.0446 52.0911 28.008 52.0911C28.9715 52.0911 29.8997 51.7285 30.608 51.0755C36.044 46.1155 48.684 33.6115 48.684 24.5675C48.6896 21.851 48.1561 19.1604 47.1145 16.6515C46.0729 14.1427 44.5439 11.8654 42.616 9.95153ZM29.512 49.8875C29.1004 50.2679 28.5605 50.4791 28 50.4791C27.4396 50.4791 26.8997 50.2679 26.488 49.8875C22.6341 46.3946 19.0493 42.6159 15.764 38.5835C11.232 32.8875 8.93203 28.1835 8.93203 24.5835C8.93203 19.5264 10.941 14.6764 14.5169 11.1004C18.0929 7.52447 22.9429 5.51553 28 5.51553C33.0572 5.51553 37.9072 7.52447 41.4831 11.1004C45.0591 14.6764 47.068 19.5264 47.068 24.5835C47.068 28.1835 44.768 32.9035 40.236 38.5835C36.9508 42.6159 33.3659 46.3946 29.512 49.8875Z" fill="#888888"/>
<path d="M32.4001 15.3965C31.8232 15.3965 31.2593 15.5676 30.7797 15.8882C30.3001 16.2088 29.9263 16.6644 29.7057 17.1975C29.4851 17.7306 29.4276 18.3171 29.5405 18.8828C29.6533 19.4486 29.9314 19.9682 30.3396 20.3758C30.7478 20.7835 31.2678 21.0609 31.8337 21.1729C32.3996 21.285 32.9861 21.2267 33.5188 21.0054C34.0516 20.784 34.5067 20.4097 34.8266 19.9296C35.1466 19.4496 35.3169 18.8854 35.3161 18.3085C35.3151 17.5358 35.0074 16.7951 34.4606 16.2491C33.9139 15.7032 33.1728 15.3965 32.4001 15.3965ZM32.4001 19.6205C32.1406 19.6205 31.887 19.5435 31.6712 19.3994C31.4555 19.2552 31.2873 19.0503 31.188 18.8106C31.0887 18.5708 31.0627 18.307 31.1133 18.0525C31.164 17.798 31.2889 17.5642 31.4724 17.3808C31.6559 17.1973 31.8897 17.0723 32.1442 17.0217C32.3987 16.9711 32.6625 16.9971 32.9022 17.0964C33.1419 17.1957 33.3469 17.3638 33.491 17.5796C33.6352 17.7953 33.7121 18.049 33.7121 18.3085C33.7121 18.6564 33.5739 18.9902 33.3279 19.2362C33.0818 19.4823 32.7481 19.6205 32.4001 19.6205Z" fill="#888888"/>
</g>
<defs>
<clipPath id="clip0_4602_58087">
<rect width="56" height="56" fill="white"/>
</clipPath>
</defs>
</svg>
