<svg width="33" height="32" viewBox="0 0 33 32" fill="none" xmlns="http://www.w3.org/2000/svg">
<g clip-path="url(#clip0_5233_4866)">
<path d="M30.1422 16.0004C30.1422 8.42623 24.0021 2.28613 16.4279 2.28613C8.85372 2.28613 2.71362 8.42623 2.71362 16.0004C2.71362 23.5746 8.85372 29.7147 16.4279 29.7147C24.0021 29.7147 30.1422 23.5746 30.1422 16.0004Z" fill="#0D4C3F"/>
<path fill-rule="evenodd" clip-rule="evenodd" d="M23.948 15.6214C23.8852 13.717 23.089 11.9106 21.7257 10.5794C20.3624 9.24819 18.5374 8.49525 16.6321 8.47785C14.7268 8.46044 12.8884 9.17991 11.501 10.486C10.1136 11.792 9.28449 13.5836 9.18688 15.4866C9.18688 15.5917 9.18688 15.6991 9.18688 15.8066C9.18507 17.142 9.55038 18.4522 10.2429 19.594L8.9126 23.5254L12.9995 22.2248C14.1208 22.8399 15.3825 23.1536 16.6613 23.1355C17.9401 23.1173 19.1924 22.7679 20.2958 22.1213C21.3993 21.4747 22.3162 20.553 22.9571 19.4463C23.598 18.3395 23.941 17.0854 23.9526 15.8066C23.9503 15.7448 23.9503 15.6831 23.948 15.6214ZM16.5652 21.9688C15.3508 21.9717 14.1623 21.6172 13.148 20.9494L10.7617 21.7151L11.5366 19.4294C10.7681 18.3813 10.3541 17.1153 10.3549 15.8157C10.3544 15.6165 10.3643 15.4173 10.3846 15.2191C10.5436 13.6801 11.2712 12.2558 12.425 11.2249C13.5787 10.194 15.0757 9.63073 16.6228 9.64531C18.17 9.65989 19.656 10.2513 20.7902 11.3037C21.9243 12.3562 22.6249 13.7939 22.7549 15.3357C22.7686 15.4957 22.7755 15.6534 22.7755 15.8157C22.7646 17.4542 22.105 19.0216 20.941 20.1748C19.7771 21.328 18.2037 21.9731 16.5652 21.9688Z" fill="white"/>
<path fill-rule="evenodd" clip-rule="evenodd" d="M19.9504 17.2877C19.7676 17.1963 18.8784 16.762 18.7116 16.7026C18.5447 16.6432 18.4259 16.6135 18.3047 16.7917C18.1836 16.97 17.8339 17.3723 17.731 17.4935C17.6281 17.6146 17.5184 17.6283 17.3356 17.5392C16.8017 17.3298 16.3088 17.0281 15.8796 16.6477C15.4845 16.2863 15.1456 15.868 14.8739 15.4066C14.771 15.226 14.8739 15.13 14.9539 15.0386C15.0339 14.9472 15.1344 14.8283 15.2259 14.7255L15.2853 14.6295C15.3276 14.5602 15.3658 14.4884 15.3996 14.4146C15.4243 14.3652 15.4361 14.3103 15.4337 14.2551C15.4313 14.1999 15.4148 14.1462 15.3859 14.0992C15.3401 14.01 14.9767 13.1255 14.8259 12.7666C14.675 12.4077 14.5241 12.4672 14.4167 12.4672C14.3093 12.4672 14.1881 12.4512 14.0716 12.4512C13.9796 12.4548 13.8893 12.4769 13.806 12.5162C13.7228 12.5554 13.6483 12.6111 13.587 12.6797C13.3831 12.8725 13.2215 13.1055 13.1125 13.364C13.0035 13.6225 12.9495 13.9009 12.9539 14.1815C12.9575 14.3889 12.989 14.595 13.0476 14.794C13.1909 15.2423 13.4096 15.6628 13.6944 16.0375C13.7859 16.1563 14.947 18.0283 16.787 18.7529C18.627 19.4775 18.6293 19.2283 18.9607 19.21C19.2921 19.1917 20.0327 18.778 20.1813 18.3552C20.3014 18.0873 20.3388 17.7896 20.2887 17.5003C20.2499 17.4226 20.1287 17.3723 19.9504 17.2877Z" fill="white"/>
</g>
<defs>
<clipPath id="clip0_5233_4866">
<rect width="32" height="32" fill="white" transform="translate(0.427979)"/>
</clipPath>
</defs>
</svg>
