<svg width="56" height="40" viewBox="0 0 56 40" fill="none" xmlns="http://www.w3.org/2000/svg">
<g clip-path="url(#clip0_4613_57074)">
<path d="M32.1335 33.8055C32.1335 33.8102 32.1335 33.813 32.1335 33.8176L32.1392 33.853L32.1335 33.8055Z" fill="#FCDC17"/>
<path d="M14.6255 28.552C14.66 28.4042 14.6786 28.3206 14.6786 28.3206C14.6526 28.3956 14.6348 28.4732 14.6255 28.552Z" fill="#FCDC17"/>
<path d="M27.6835 8.76123C27.683 8.76501 27.683 8.76883 27.6835 8.77261V8.76123Z" fill="#FCDC17"/>
<path d="M33.0697 16.9079C33.0641 16.8446 33.0548 16.7851 33.0464 16.7219L33.0371 16.6615C32.8963 15.7504 32.5439 15.4966 32.1635 15.0439C31.8288 14.6432 31.5575 13.9004 31.5025 13.3026C31.5013 13.2804 31.4946 13.2589 31.483 13.2399C31.4715 13.221 31.4554 13.2051 31.4363 13.1938C31.4191 13.1847 31.3993 13.1816 31.3802 13.1852C31.361 13.1887 31.3436 13.1986 31.3309 13.2133C30.9188 13.6596 30.7715 14.3289 30.6783 14.9899C30.5319 16.0219 30.7827 16.9144 31.1193 17.3866C30.1795 17.1886 29.9567 15.5022 29.9548 15.4938C29.952 15.4748 29.9451 15.4566 29.9344 15.4405C29.9238 15.4244 29.9097 15.4109 29.8933 15.4009C29.879 15.3922 29.8623 15.3882 29.8456 15.3894C29.8289 15.3905 29.813 15.3968 29.8 15.4074C29.7795 15.4222 29.2966 15.7978 29.388 17.1087C29.388 17.1524 29.3935 17.1961 29.3982 17.2397C29.5157 18.5106 30.435 19.471 31.4493 19.378C32.4637 19.285 33.1909 18.1796 33.0697 16.9079Z" fill="#FCDC17"/>
<path d="M33.3904 28.0146C33.4006 27.6948 33.41 27.3639 33.4165 27.005C33.4034 26.3288 33.4053 25.8197 33.4221 25.4776C33.4389 25.1354 33.4578 24.8414 33.479 24.5953C33.4986 24.3413 33.4986 24.0861 33.479 23.832C33.4603 23.568 33.258 22.3288 33.231 22.3092C33.1677 22.0469 33.0252 21.8103 32.8226 21.6315C32.7943 21.5996 32.7631 21.5704 32.7294 21.5441C32.7191 21.5348 32.7079 21.5265 32.6967 21.5181C32.5231 21.36 32.3263 21.2293 32.1131 21.1304C31.9611 21.0505 31.8539 21.0058 31.8539 21.0058C31.8361 21.0096 31.8195 21.0176 31.8054 21.0291C31.5598 20.9743 31.3053 20.9717 31.0585 21.0215C30.8118 21.0713 30.5783 21.1724 30.3734 21.3182C30.3025 21.3294 30.2373 21.4493 30.1776 21.6771C30.1073 21.9703 30.0645 22.2694 30.0499 22.5705C30.0237 22.9822 30.0237 23.3952 30.0499 23.8069C30.0499 23.8069 30.1357 25.3632 30.2065 26.4983V26.5309C30.2363 27.018 30.2643 27.4234 30.2811 27.5861C30.3084 27.8253 30.3349 28.0999 30.3603 28.4097C30.3858 28.7196 30.4213 29.0109 30.4666 29.2836C30.494 29.414 30.5314 29.542 30.5785 29.6667C30.8349 30.5275 31.4763 32.5803 31.8959 33.0386C31.8959 33.0386 32.2828 33.5518 32.5159 33.7461C32.5406 33.7752 32.5728 33.7971 32.6091 33.8093C32.6172 33.8141 32.6261 33.8172 32.6354 33.8185C32.6447 33.8198 32.6541 33.8192 32.6632 33.8167C32.6632 33.8167 33.0361 34.0027 33.0585 32.9465C33.0585 32.9465 33.4417 29.6648 33.3876 28.0137L33.3904 28.0146Z" fill="#FCDC17"/>
<path d="M19.5461 33.5968L19.5773 33.5797L19.5461 33.5968Z" fill="#FCDC17"/>
<path d="M27.9568 38.1825C27.9568 38.1825 39.9213 32.2391 51.9175 32.6686C51.9175 32.6686 58.8904 33.3407 49.3788 34.1384C48.6674 34.1979 44.5531 33.6206 29.5837 38.717C29.5875 38.717 21.6608 41.9337 27.9568 38.1825Z" fill="#FCDC17"/>
<path d="M6.52645 14.5503C6.73852 14.6868 6.97828 14.7747 7.22849 14.8078C7.26392 14.8004 7.31334 14.7297 7.37673 14.5949C7.45005 14.4334 7.5078 14.2653 7.54921 14.0929C7.60327 13.8696 7.63913 13.6424 7.65643 13.4133C7.67711 13.1624 7.66205 12.9098 7.61168 12.6631C7.57811 12.4955 7.52361 12.3328 7.44946 12.1787C7.398 12.0575 7.31613 11.9515 7.21171 11.871C7.06523 11.8049 6.89984 11.7934 6.74555 11.8385C6.59056 11.8665 6.4471 11.9389 6.3327 12.0469C6.2183 12.1548 6.13789 12.2937 6.10131 12.4465C5.99938 12.7836 6.0028 13.2156 6.11157 13.7424C6.15446 13.9488 6.17776 14.1459 6.31761 14.3393C6.37304 14.4161 6.43858 14.4852 6.51247 14.5447C6.51247 14.5447 6.52645 14.5531 6.52645 14.5503Z" fill="#FCDC17"/>
<path d="M8.2921 19.2637C8.2921 19.1038 8.2921 18.9364 8.28464 18.7598C8.26413 18.4232 8.25449 18.1694 8.25574 17.9984C8.25574 17.8273 8.25574 17.6804 8.26599 17.5577C8.27064 17.4305 8.26565 17.3031 8.25108 17.1766C8.23616 17.0455 8.1103 16.4328 8.09538 16.4226C8.05921 16.293 7.98324 16.1779 7.87815 16.0935C7.86309 16.078 7.84654 16.064 7.82873 16.0517L7.81195 16.0386C7.72206 15.9636 7.62112 15.9027 7.51268 15.8583C7.43529 15.8211 7.38122 15.8006 7.38122 15.8006C7.37243 15.8035 7.36422 15.8079 7.35698 15.8137C7.2332 15.792 7.10623 15.7965 6.98432 15.8269C6.8624 15.8573 6.74828 15.913 6.64934 15.9903C6.61392 15.9977 6.58408 16.0582 6.55611 16.1762C6.5275 16.3239 6.51252 16.4739 6.51136 16.6243C6.50696 16.8301 6.51568 17.036 6.53747 17.2407C6.53747 17.2407 6.61205 18.0142 6.67172 18.5794V18.5952C6.69689 18.8379 6.71927 19.0396 6.73046 19.1196C6.7491 19.2386 6.76775 19.3743 6.78733 19.5286C6.80691 19.683 6.83115 19.828 6.85818 19.9619C6.87501 20.0253 6.89651 20.0875 6.92252 20.1478C7.06796 20.5717 7.43063 21.5823 7.6488 21.8017C7.74772 21.9235 7.85621 22.0373 7.97324 22.1419C7.98613 22.1564 8.00299 22.1667 8.02172 22.1717C8.03048 22.1747 8.04001 22.1747 8.04876 22.1717C8.04876 22.1717 8.23523 22.2563 8.22777 21.7292C8.22777 21.7292 8.35083 20.0855 8.2893 19.2627L8.2921 19.2637Z" fill="#FCDC17"/>
<path d="M22.0757 10.7767C22.0671 10.7103 22.0397 10.6478 21.9965 10.5965C21.9534 10.5453 21.8964 10.5074 21.8324 10.4875C21.7018 10.4472 21.4619 10.4386 21.1126 10.4615C21.0045 10.4717 20.8562 10.4931 20.667 10.5256C20.4777 10.5582 20.2605 10.6 20.0143 10.6502C19.6632 10.7227 19.2803 10.8073 18.8657 10.904C18.4511 11.0007 18.0527 11.0977 17.6705 11.195C17.2864 11.288 16.9423 11.3809 16.6365 11.4739C16.4113 11.5326 16.1909 11.6084 15.9774 11.7007L15.9065 11.7147C15.8796 11.725 15.8496 11.7242 15.8232 11.7126C15.7968 11.7009 15.7762 11.6792 15.7657 11.6524C14.9332 6.81812 14.5789 12.0773 14.5789 12.0791C14.4583 12.1517 14.3276 12.2062 14.191 12.2409C14.0046 12.2976 13.7389 12.3729 13.4032 12.4659C13.0676 12.5588 12.6425 12.689 12.1269 12.8563C11.7234 12.9449 11.3287 13.0694 10.9475 13.2282C10.4608 13.4495 10.2016 13.7423 11.147 14.0212C11.6039 13.8972 12.0927 13.7637 12.6136 13.6205C13.214 13.4488 13.8728 13.2648 14.5901 13.0683C14.6246 13.0609 14.6451 13.0683 14.6497 13.0925C14.6544 13.1166 14.6591 13.2254 14.6693 13.4541C14.6796 13.6828 14.6945 13.9645 14.7141 14.2955C14.7337 14.6264 14.7532 14.9732 14.7728 15.3348C14.7924 15.6965 14.8138 16.0209 14.8362 16.3082V16.3435C14.8322 16.3504 14.8288 16.3575 14.826 16.3649C14.665 17.0076 14.5133 17.4136 14.371 17.5828C14.2293 17.752 14.0913 17.7854 13.9617 17.685C13.8321 17.5846 13.7034 17.3968 13.5794 17.1272C13.4554 16.8576 13.3342 16.602 13.213 16.3705C13.1357 16.2102 13.0482 16.0549 12.9511 15.9056C12.9017 15.8275 12.8411 15.757 12.7711 15.6965C12.7326 15.6622 12.6829 15.6431 12.6313 15.6425C12.5746 15.6474 12.5182 15.6558 12.4625 15.6676C12.368 15.6869 12.2077 15.8874 11.9814 16.2691C11.7552 16.6509 11.4407 17.2001 11.0379 17.9165C10.9447 18.0801 10.8738 18.2215 10.8123 18.3367C10.7508 18.452 10.7088 18.5134 10.6855 18.5227C10.6832 18.5234 10.6807 18.5235 10.6783 18.5232C10.6759 18.5228 10.6736 18.522 10.6716 18.5206C10.6695 18.5193 10.6678 18.5176 10.6665 18.5155C10.6652 18.5134 10.6644 18.5111 10.6641 18.5087L10.6566 18.4734C10.6566 18.4502 10.6473 18.3414 10.6445 18.1471C10.6417 17.9528 10.6296 17.7204 10.6109 17.4498C10.5923 17.1793 10.5699 16.892 10.5447 16.5955C10.5236 16.3268 10.4868 16.0595 10.4347 15.795C10.3997 15.5775 10.3099 15.3725 10.1737 15.1991C10.1162 15.1315 10.0406 15.0816 9.9557 15.0554C9.8708 15.0292 9.78015 15.0278 9.69446 15.0513C9.5802 15.079 9.48045 15.1483 9.41476 15.2456C9.41476 15.2456 9.40171 15.2605 9.38119 15.2883C9.27348 15.4363 9.19153 15.6013 9.13879 15.7764C9.13052 15.8033 9.12551 15.8311 9.12387 15.8592C9.11455 15.9782 9.10616 16.112 9.1015 16.2608C9.09217 16.5118 9.08845 16.7907 9.09031 17.0975C9.09217 17.4043 9.09031 17.6971 9.0987 17.9825C9.10709 18.2679 9.11269 18.5255 9.12854 18.7532C9.13818 18.9209 9.15747 19.0879 9.18634 19.2534C9.18634 19.2534 9.46604 20.9538 10.7042 20.5689L10.7219 20.5456C10.7485 20.5357 10.7727 20.5202 10.7927 20.5001C10.9382 20.3857 11.2402 20.0241 11.4743 18.9029C11.4778 18.8849 11.4828 18.8671 11.4892 18.8499C11.5675 18.6389 12.1176 17.1765 12.3833 17.1849C12.3833 17.1849 12.4336 17.1691 12.5604 17.2648C12.5809 17.2936 12.6014 17.3243 12.6247 17.3578C12.7422 17.5437 12.8802 17.738 13.0406 17.9491C13.1922 18.1517 13.3573 18.3439 13.5347 18.5245C13.7044 18.6968 13.8598 18.7684 14.0009 18.7393C14.1183 18.7151 14.2433 18.598 14.3738 18.3879C14.5165 18.1608 14.6388 17.9215 14.7393 17.6729C14.8079 17.5079 14.8658 17.3387 14.9127 17.1663L14.9369 17.4312C14.9705 17.8273 15.0047 18.1706 15.0395 18.4613C15.0743 18.752 15.1199 19.0309 15.1765 19.298C15.2157 19.4839 15.252 19.6578 15.2865 19.8131C15.2865 19.8131 15.2865 19.8279 15.2958 19.853C15.3052 19.8781 15.3033 19.8856 15.3089 19.906C15.5383 20.9426 15.8496 22.1279 16.4277 22.827C16.4277 22.827 16.7307 23.0446 16.7848 22.7341C16.7848 22.7341 16.768 22.484 16.7037 22.0694C16.7037 22.0573 16.699 22.0443 16.6971 22.0322C16.685 21.9513 16.672 21.8667 16.658 21.7747C16.5452 21.0309 16.3876 19.9376 16.2515 18.7904C16.2123 18.4818 16.1983 18.1229 16.1638 17.7464C16.1293 17.3699 16.0911 16.9357 16.051 16.4449C16.0187 16.1108 15.9926 15.7324 15.9727 15.3097C15.9528 14.887 15.9342 14.4842 15.9168 14.1012C15.8994 13.7212 15.8928 13.3937 15.8972 13.1185C15.9019 12.8396 15.913 12.6918 15.9317 12.663C16.0143 12.6165 16.1023 12.5803 16.1937 12.5551C16.3587 12.4965 16.5666 12.4305 16.8118 12.3543C17.057 12.2781 17.3339 12.2018 17.635 12.1219L18.5394 11.882C18.8405 11.8012 19.1221 11.7286 19.3831 11.6626C19.6442 11.5966 19.8493 11.5483 20.0041 11.5176C20.0773 11.5013 20.1514 11.4892 20.226 11.4813C20.2791 11.4758 20.3453 11.472 20.4246 11.4674C20.5355 11.4601 20.646 11.4467 20.7555 11.4274C20.8972 11.4045 21.1089 11.3642 21.3904 11.3066C21.7074 11.2415 21.9069 11.1755 21.9918 11.1095C22.0766 11.0435 22.1093 10.9403 22.0757 10.7767Z" fill="#FCDC17"/>
<path d="M18.5215 14.7046C18.5038 14.7046 18.4852 14.7278 18.4656 14.7641C18.4828 14.743 18.5015 14.7231 18.5215 14.7046Z" fill="#FCDC17"/>
<path d="M19.9575 15.7115C19.9154 15.3484 19.7795 15.0024 19.5631 14.7074C19.5556 14.6972 19.5472 14.6888 19.5388 14.6786C19.5304 14.6684 19.5146 14.647 19.5015 14.6321C19.3352 14.4294 19.1247 14.2672 18.8861 14.1576C18.6476 14.0481 18.3871 13.9942 18.1245 13.9999C18.1021 13.9999 18.0779 13.9999 18.0453 14.0083C17.9384 14.0243 17.833 14.0489 17.7301 14.0817C17.5734 14.125 17.4267 14.1986 17.2985 14.2984C17.1585 14.415 17.0448 14.5598 16.9647 14.7232C16.8551 14.9465 16.7776 15.184 16.7344 15.4288C16.6683 15.7792 16.6219 16.1331 16.5955 16.4887C16.5444 17.0557 16.6078 17.6273 16.782 18.1695C16.9852 18.8593 17.2739 19.3551 17.6481 19.657C18.0223 19.9588 18.5254 20.014 19.1575 19.8225C19.3073 19.7797 19.467 19.6495 19.6367 19.432C19.8264 19.1703 19.9643 18.875 20.0432 18.5618C20.1525 18.1474 20.2058 17.7203 20.2017 17.2919C20.1976 16.7561 20.1153 16.2237 19.9575 15.7115ZM18.8816 17.4313C18.8475 17.661 18.7849 17.8856 18.6951 18.0998C18.6572 18.2038 18.6072 18.3031 18.5459 18.3954C18.5065 18.398 18.4671 18.3903 18.4316 18.373C18.3961 18.3557 18.3658 18.3295 18.3436 18.2969C18.0247 17.9538 18.0257 16.5528 18.0257 16.5528C18.0052 15.4316 18.3287 14.9268 18.462 14.7678C18.4816 14.7316 18.5002 14.7121 18.5179 14.7083C18.5357 14.7046 18.5851 14.7372 18.6494 14.8087C18.739 14.9352 18.8053 15.0765 18.8452 15.2262C18.9342 15.557 18.9799 15.8979 18.9813 16.2404C18.9917 16.6386 18.9582 17.0367 18.8816 17.4276V17.4313Z" fill="#FCDC17"/>
<path d="M11.2737 37.5791C11.2841 37.5801 11.2945 37.5801 11.3049 37.5791C11.2948 37.5803 11.2847 37.5803 11.2746 37.5791H11.2737Z" fill="#FCDC17"/>
<path d="M55.961 29.9158C55.9223 29.8116 55.8736 29.7113 55.8155 29.6165L55.8099 29.6072C55.7521 29.5142 55.7018 29.4417 55.7018 29.4417C54.7694 28.1299 54.5783 25.7946 54.4683 25.0722C54.4487 24.9439 54.4394 24.8714 54.4394 24.8714C54.4394 24.8714 54.2278 22.7639 54.0739 20.8608C53.9704 19.5667 53.9248 18.8425 53.8362 17.0854C53.8362 17.0854 53.77 9.83402 54.0702 5.05179C54.1709 3.44253 54.3135 2.11217 54.5131 1.42608C54.5392 0.91104 54.5075 0.689779 54.4851 0.60239C54.0329 -0.715883 53.3504 0.416455 53.0307 1.08582C52.9738 1.20853 52.9141 1.34241 52.8535 1.48837C52.5634 2.20998 52.3207 2.94971 52.1272 3.70284C51.5548 5.85875 50.9702 9.18789 50.6141 14.2871C50.6023 14.4572 50.5262 14.6164 50.4013 14.7327C50.2764 14.849 50.1118 14.9137 49.9409 14.9137C49.5663 14.918 49.1924 14.9491 48.8221 15.0067C48.6414 15.0241 48.4621 15.0552 48.2861 15.0997C47.5014 15.3122 46.7539 15.6426 46.069 16.0795C45.5151 16.4101 45.0209 16.8312 44.6071 17.3253C44.5926 17.3432 44.577 17.3603 44.5605 17.3764C43.3028 18.6082 42.2297 20.5447 41.8288 23.5811C41.8244 23.6119 41.8223 23.6429 41.8223 23.674C41.8288 24.3081 41.9892 30.8083 45.9832 31.3131C46.0247 31.318 46.0657 31.327 46.1054 31.3401C46.5925 31.4954 47.1145 31.5054 47.6073 31.3689C49.0151 31.0051 50.1833 30.2332 51.1119 29.0531C51.4406 28.6344 51.7417 28.195 52.0135 27.7376C52.0471 27.7804 52.0806 27.8203 52.1142 27.8613C52.1235 27.8715 52.1319 27.8826 52.1403 27.8929C52.172 27.931 52.2037 27.9691 52.2335 28.0054L52.2512 28.0295C52.802 28.695 53.4347 29.2885 54.1345 29.7959H54.1401C54.3653 29.9557 54.599 30.1031 54.8403 30.2375C54.9335 30.2877 55.0212 30.3305 55.1051 30.3751C56.0393 30.6531 56.0588 30.2356 55.961 29.9158ZM50.2999 18.0356C50.2999 18.0467 50.2999 18.0579 50.2999 18.0681L50.284 18.3991C50.2673 18.7883 50.2424 19.2162 50.2094 19.6829C50.1647 20.3027 50.1103 20.9138 50.0463 21.5163C49.9823 22.1187 49.9176 22.6052 49.8524 22.9758C49.5279 24.4633 49.0956 25.666 48.5555 26.5839C48.0154 27.5018 47.5865 28.0019 47.2689 28.0844C47.1726 28.1098 47.0442 28.0236 46.8839 27.8259C46.7235 27.6282 46.5697 27.2777 46.4224 26.7745C46.0931 25.6737 45.9423 24.5275 45.9758 23.3793C45.9996 22.3548 46.1843 21.3403 46.523 20.3728C46.8187 19.5242 47.2855 18.745 47.8945 18.083C48.485 17.4527 49.1478 17.0424 49.8831 16.8521C50.0752 16.8019 50.2011 16.8818 50.2617 17.0882C50.2999 17.237 50.3148 17.5512 50.2999 18.0356Z" fill="#FCDC17"/>
<path d="M27.7414 16.7386C27.7414 16.7386 27.7414 16.7005 27.7358 16.6326C27.678 15.61 27.1764 7.27549 25.9252 3.49917L25.9187 3.48244C25.7866 3.05746 25.6071 2.64863 25.3835 2.26364C25.0413 1.63518 24.5649 1.00301 24.0316 1.01695C24.0316 1.01695 23.5291 1.06901 23.7408 1.22799C23.8133 1.35973 23.8756 1.49679 23.9272 1.63797C24.046 1.94856 24.1453 2.26618 24.2246 2.58902C24.3958 3.2923 24.5163 4.00687 24.5854 4.72727C24.9351 9.5755 25.3593 23.2417 20.155 32.6899C20.0267 32.9104 19.8482 33.0976 19.6339 33.2365L19.6031 33.2533C17.4588 34.4563 13.4246 25.2581 13.4246 25.2581C13.2618 25.0221 13.0439 24.829 12.7897 24.6957C11.9739 24.3098 11.3623 25.2581 11.3623 25.2581C10.3871 26.1236 9.42866 28.4404 8.80121 30.2142C8.17096 31.8681 7.46892 31.6208 7.46892 31.6208C6.54871 31.1439 5.81031 30.2393 5.22109 29.1032C4.73537 28.0616 4.33321 26.9832 4.01839 25.8782C2.99283 22.0721 2.84366 17.765 2.82408 17.0203C2.82408 16.945 2.82408 16.9032 2.82408 16.9032C2.81756 16.8186 2.8101 16.7395 2.80171 16.6633C2.66465 15.3078 2.39428 15.2177 2.39428 15.2177C2.02135 15.2707 1.60274 16.1687 1.60274 16.1687C1.06592 17.2403 0.694105 18.3864 0.499801 19.5685C-1.01336 26.1617 1.39017 31.0434 1.39017 31.0434C4.26266 38.8118 9.10235 37.2146 9.10235 37.2146C9.31678 37.1449 9.73819 36.8604 10.2845 35.769C10.8234 34.6915 11.4844 32.8256 12.1855 29.6025C12.2079 29.4983 12.2312 29.3933 12.2536 29.2854C12.2834 29.172 12.3114 29.0632 12.3375 28.9619C12.4102 28.7927 12.537 28.697 12.7384 29.1051C12.7384 29.1051 14.0437 34.3252 16.1796 37.2285C16.4807 37.6115 16.8065 37.9745 17.1548 38.3153C17.8858 39.0284 18.7183 39.6169 19.6553 39.9748C19.9777 40.0258 20.3075 40.0022 20.6193 39.906C27.1456 38.6612 27.6481 21.7774 27.6481 21.7691C27.7788 20.0955 27.8099 18.4158 27.7414 16.7386Z" fill="#FCDC17"/>
<path d="M39.1501 30.9189H39.1445C38.9972 30.8148 38.8434 30.6976 38.6858 30.5693C39.0044 30.9232 39.4034 31.1958 39.8493 31.3642C39.6076 31.2306 39.3738 31.0831 39.1492 30.9226L39.1501 30.9189Z" fill="#FCDC17"/>
<path d="M40.9662 31.0175C40.9277 30.9131 40.8786 30.8128 40.8198 30.7182L40.8143 30.7089C40.7565 30.6159 40.707 30.5434 40.707 30.5434C39.7747 29.2316 39.5883 26.8954 39.4745 26.1739C39.4549 26.0456 39.4456 25.9731 39.4456 25.9731C39.4456 25.9731 39.233 23.8656 39.0801 21.9635C38.9757 20.6684 38.931 19.9442 38.8415 18.1881C38.8415 18.1881 38.7762 10.9366 39.0764 6.15442C39.1771 4.54609 39.3188 3.21573 39.5193 2.5287C39.5454 2.0146 39.5137 1.7924 39.4913 1.70502C39.0391 0.386743 38.3557 1.51908 38.0359 2.18937C37.9788 2.31333 37.92 2.44751 37.8597 2.59192C37.569 3.313 37.3264 4.05247 37.1334 4.80547C36.561 6.9623 35.9755 10.2905 35.6203 15.3907C35.6203 15.3907 35.5271 19.2265 35.8627 23.001C35.8627 23.001 36.5992 28.368 38.683 30.5611C38.8405 30.6894 38.9944 30.8065 39.1417 30.9106H39.1473C39.3719 31.0711 39.6057 31.2186 39.8474 31.3522C39.9407 31.4033 40.0274 31.4452 40.1113 31.4898C41.0445 31.7548 41.0641 31.3373 40.9662 31.0175Z" fill="#FCDC17"/>
</g>
<defs>
<clipPath id="clip0_4613_57074">
<rect width="56" height="40" fill="white"/>
</clipPath>
</defs>
</svg>
