<svg width="56" height="56" viewBox="0 0 56 56" fill="none" xmlns="http://www.w3.org/2000/svg">
<path d="M37.116 15.8871C37.3282 15.8871 37.5317 15.8028 37.6817 15.6528C37.8318 15.5028 37.916 15.2993 37.916 15.0871V11.0871C37.916 10.8749 37.8318 10.6715 37.6817 10.5214C37.5317 10.3714 37.3282 10.2871 37.116 10.2871C36.9039 10.2871 36.7004 10.3714 36.5504 10.5214C36.4003 10.6715 36.316 10.8749 36.316 11.0871V15.0871C36.316 15.2993 36.4003 15.5028 36.5504 15.6528C36.7004 15.8028 36.9039 15.8871 37.116 15.8871Z" fill="#888888"/>
<path d="M40.3161 12.6879C40.5283 12.6879 40.7318 12.6036 40.8818 12.4536C41.0318 12.3035 41.1161 12.1001 41.1161 11.8879V7.88789C41.1161 7.67572 41.0318 7.47223 40.8818 7.32221C40.7318 7.17218 40.5283 7.08789 40.3161 7.08789C40.1039 7.08789 39.9005 7.17218 39.7504 7.32221C39.6004 7.47223 39.5161 7.67572 39.5161 7.88789V11.8879C39.5161 12.1001 39.6004 12.3035 39.7504 12.4536C39.9005 12.6036 40.1039 12.6879 40.3161 12.6879Z" fill="#888888"/>
<path d="M19.5161 38.2871C19.3039 38.2871 19.1004 38.3714 18.9504 38.5214C18.8003 38.6715 18.7161 38.8749 18.7161 39.0871V43.8871C18.7161 44.0993 18.8003 44.3028 18.9504 44.4528C19.1004 44.6028 19.3039 44.6871 19.5161 44.6871C19.7282 44.6871 19.9317 44.6028 20.0817 44.4528C20.2318 44.3028 20.3161 44.0993 20.3161 43.8871V39.0871C20.3161 38.8749 20.2318 38.6715 20.0817 38.5214C19.9317 38.3714 19.7282 38.2871 19.5161 38.2871Z" fill="#888888"/>
<path d="M20.4561 22.056C19.4783 22.056 18.5224 21.766 17.7093 21.2228C16.8963 20.6795 16.2626 19.9074 15.8884 19.004C15.5142 18.1006 15.4163 17.1065 15.6071 16.1474C15.7979 15.1884 16.2687 14.3075 16.9602 13.616C17.6516 12.9246 18.5325 12.4537 19.4916 12.263C20.4506 12.0722 21.4447 12.1701 22.3481 12.5443C23.2515 12.9185 24.0236 13.5522 24.5669 14.3652C25.1101 15.1783 25.4001 16.1341 25.4001 17.112C25.399 18.4229 24.8778 19.6798 23.9509 20.6067C23.0239 21.5337 21.767 22.0549 20.4561 22.056ZM20.4561 13.768C19.7947 13.768 19.1482 13.9641 18.5983 14.3315C18.0483 14.699 17.6197 15.2212 17.3666 15.8323C17.1135 16.4433 17.0473 17.1157 17.1763 17.7644C17.3054 18.413 17.6239 19.0089 18.0915 19.4765C18.5592 19.9442 19.155 20.2627 19.8037 20.3917C20.4524 20.5207 21.1247 20.4545 21.7358 20.2014C22.3468 19.9483 22.8691 19.5197 23.2365 18.9698C23.604 18.4199 23.8001 17.7734 23.8001 17.112C23.799 16.2254 23.4464 15.3755 22.8195 14.7486C22.1926 14.1217 21.3426 13.769 20.4561 13.768Z" fill="#888888"/>
<path d="M24.7322 35.0879L24.7722 35.1479H26.3202L26.3722 35.0879H24.7322Z" fill="#888888"/>
<path d="M24.4881 35.0879H24.3441V35.1479H24.7721L24.7321 35.0879H24.4881Z" fill="#888888"/>
<path d="M29.4161 34.0899L29.3601 33.2539C29.3403 33.3364 29.3163 33.4179 29.2881 33.4979V34.2299L29.4161 34.0899Z" fill="#888888"/>
<path d="M29.4161 34.0879L29.2881 34.2279V34.2479L29.4161 34.0879Z" fill="#888888"/>
<path d="M35.144 35.2579L35.216 35.3059L35.148 35.2539L35.144 35.2579Z" fill="#888888"/>
<path d="M29.2882 32.2548V31.9548L29.2642 31.8828L29.2882 32.2548Z" fill="#888888"/>
<path d="M29.3601 33.253C29.3969 33.0808 29.4157 32.9052 29.4161 32.729C29.4168 32.4664 29.3736 32.2054 29.2881 31.957V32.257L29.3601 33.253Z" fill="#888888"/>
<path d="M29.2881 32.2559V33.4959C29.3163 33.4158 29.3403 33.3344 29.3601 33.2519L29.2881 32.2559Z" fill="#888888"/>
<path d="M22.7161 42.2871C22.504 42.2871 22.3005 42.3714 22.1505 42.5214C22.0004 42.6715 21.9161 42.8749 21.9161 43.0871V47.0871C21.9161 47.2993 22.0004 47.5028 22.1505 47.6528C22.3005 47.8028 22.504 47.8871 22.7161 47.8871C22.9283 47.8871 23.1318 47.8028 23.2818 47.6528C23.4318 47.5028 23.5161 47.2993 23.5161 47.0871V43.0871C23.5161 42.8749 23.4318 42.6715 23.2818 42.5214C23.1318 42.3714 22.9283 42.2871 22.7161 42.2871Z" fill="#888888"/>
<path d="M39.6001 33.4759L32.9481 28.8319C32.165 28.3113 31.4742 27.6637 30.9041 26.9159V24.6879H33.2601C34.0849 24.6999 34.8919 24.4478 35.5634 23.9686C36.2348 23.4893 36.7354 22.8079 36.9921 22.0239C37.2482 21.1791 37.1972 20.2708 36.8481 19.4599L35.2761 15.7839L34.0761 13.3639C33.8274 12.7658 33.355 12.2884 32.7594 12.0336C32.1639 11.7788 31.4924 11.7667 30.8881 11.9999V6.32794C30.8919 6.13401 30.8275 5.94488 30.7062 5.79356C30.5848 5.64224 30.4142 5.53832 30.2241 5.49994C30.1082 5.47994 29.9894 5.48572 29.876 5.51687C29.7627 5.54801 29.6576 5.60376 29.5682 5.68014C29.4788 5.75652 29.4074 5.85166 29.359 5.95879C29.3106 6.06591 29.2863 6.18239 29.2881 6.29994V19.8999H27.6881C27.1599 19.8079 26.6219 19.7864 26.0881 19.8359C24.4703 19.982 22.8658 20.2495 21.2881 20.6359C20.3521 20.8599 19.7081 21.0359 19.7081 21.0359L17.6521 22.3999L16.3761 23.3559C15.6623 23.8714 15.1373 24.6067 14.8816 25.4492C14.6258 26.2916 14.6534 27.1947 14.9601 28.0199L16.8001 33.1119C17.0101 33.6872 17.3908 34.1846 17.8911 34.5377C18.3915 34.8908 18.9877 35.0828 19.6001 35.0879H22.8001L24.5561 37.8879C24.8649 38.4908 25.3342 38.9965 25.9123 39.3495C26.4904 39.7024 27.1548 39.8887 27.8321 39.8879H28.8641L26.6601 45.4399L26.1961 46.664C26.0337 47.0943 25.9781 47.5576 26.0341 48.0141C26.0901 48.4706 26.256 48.9068 26.5175 49.2851C26.779 49.6635 27.1284 49.9728 27.5358 50.1864C27.9431 50.4001 28.3961 50.5118 28.8561 50.5119C29.6777 50.4708 30.4725 50.2061 31.1548 49.7465C31.8371 49.2869 32.3811 48.6499 32.7281 47.9039L33.1281 46.9519L34.9041 42.8639V43.7279V45.464C34.8938 46.2899 35.196 47.0893 35.75 47.702C36.3041 48.3147 37.0692 48.6954 37.8921 48.7679C38.3298 48.797 38.7688 48.7358 39.1818 48.588C39.5949 48.4403 39.9732 48.2092 40.2931 47.9091C40.6131 47.609 40.868 47.2463 41.0419 46.8436C41.2158 46.4408 41.305 46.0066 41.3041 45.5679V36.7519C41.3042 36.1092 41.1493 35.4758 40.8527 34.9055C40.5561 34.3353 40.1264 33.8449 39.6001 33.4759ZM30.8881 18.3999L31.3801 19.8719H30.8881V18.3999ZM30.8881 21.4719H32.4481C32.6559 21.476 32.8577 21.4018 33.0133 21.2639C33.1689 21.1261 33.267 20.9348 33.2881 20.7279C33.2912 20.6113 33.2818 20.4946 33.2601 20.3799L31.7761 16.3999L30.9761 14.6599C30.9313 14.4566 30.9598 14.244 31.0565 14.0596C31.1532 13.8752 31.3118 13.7308 31.5045 13.652C31.6972 13.5731 31.9115 13.5647 32.1097 13.6284C32.3079 13.692 32.4773 13.8236 32.5881 13.9999L33.6001 15.9239L35.3601 20.0879C35.5463 20.5194 35.5856 21 35.4721 21.4559C35.356 21.9219 35.0874 22.3357 34.7091 22.6315C34.3307 22.9272 33.8643 23.0879 33.3841 23.0879H30.8881V21.4719ZM30.8881 29.2399C31.0374 29.3706 31.1894 29.5039 31.3441 29.6399L30.8881 30.2079V29.2399ZM29.2881 21.4719V23.0719H28.9841L28.1841 21.4719H29.2881ZM19.6281 33.4719C19.341 33.471 19.0612 33.3819 18.8265 33.2166C18.5919 33.0513 18.4137 32.8179 18.3161 32.5479L16.4641 27.4719C16.2797 26.9786 16.2608 26.4386 16.4101 25.9336C16.5595 25.4285 16.869 24.9857 17.2921 24.6719L17.7361 24.3399L20.5361 31.3719C20.5891 31.5096 20.6792 31.6299 20.7964 31.7196C20.9136 31.8092 21.0533 31.8647 21.2001 31.8799H21.2721H24.4721H26.9801C27.1882 31.8945 27.383 31.9874 27.5253 32.1399C27.6676 32.2925 27.7467 32.4933 27.7467 32.7019C27.7467 32.9106 27.6676 33.1114 27.5253 33.264C27.383 33.4165 27.1882 33.5094 26.9801 33.5239L24.3281 33.4639L19.6281 33.4719ZM24.7721 35.1319H24.3441V35.0719H26.3721L26.3201 35.1319L25.4041 36.1479L24.7721 35.1319ZM39.6881 43.5319V45.4839C39.6951 45.8896 39.552 46.2835 39.2862 46.5899C39.0203 46.8963 38.6506 47.0937 38.2481 47.1439C38.0249 47.1664 37.7995 47.1416 37.5865 47.0713C37.3735 47.001 37.1777 46.8867 37.0118 46.7359C36.8458 46.585 36.7134 46.4009 36.6232 46.1956C36.533 45.9902 36.4869 45.7682 36.4881 45.5439V39.1439C36.63 38.4478 36.5857 37.7264 36.3595 37.0529C36.1334 36.3793 35.7334 35.7774 35.2001 35.3079L35.1281 35.2599L34.0881 34.5399C33.9375 34.4268 33.7519 34.3704 33.5639 34.3806C33.3758 34.3909 33.1974 34.4671 33.0601 34.5959C32.9799 34.6768 32.9179 34.7739 32.8783 34.8806C32.8386 34.9874 32.8223 35.1014 32.8302 35.215C32.8382 35.3286 32.8703 35.4392 32.9244 35.5394C32.9785 35.6395 33.0534 35.727 33.1441 35.7959L34.1761 36.5559C34.5583 36.9002 34.8198 37.3581 34.9221 37.8622C35.0244 38.3663 34.9619 38.89 34.7441 39.3559L31.6161 46.3839L31.0041 47.888C30.8694 48.2397 30.6233 48.5377 30.3033 48.7363C29.9833 48.9349 29.607 49.0233 29.2321 48.9879C28.9812 48.9575 28.7405 48.8705 28.5282 48.7334C28.3158 48.5963 28.1375 48.4128 28.0065 48.1966C27.8755 47.9805 27.7953 47.7374 27.772 47.4858C27.7487 47.2341 27.7829 46.9804 27.8721 46.7439L28.1401 46.0399L30.5401 40.0799C30.5807 39.9865 30.6025 39.8859 30.6041 39.7839C30.5801 38.6279 29.2641 38.32 29.2641 38.32H27.8761C27.5728 38.3227 27.2726 38.2594 26.9962 38.1343C26.7199 38.0093 26.4742 37.8256 26.2761 37.5959L29.2681 34.2599V32.2559L29.2441 31.8839C29.0725 31.4221 28.7644 31.0235 28.3606 30.7413C27.9569 30.459 27.4767 30.3065 26.9841 30.3039H24.3241H21.8321L19.0721 23.4079L20.2001 22.6399C20.7103 22.4337 21.2326 22.2587 21.7641 22.1159C23.1338 21.7664 24.5358 21.5586 25.9481 21.4959L26.5321 21.4719L27.0641 22.8279L27.7601 24.2159L28.2761 25.5079C28.5445 26.1782 28.8837 26.8178 29.2881 27.4159V31.9559C29.3735 32.2043 29.4168 32.4653 29.4161 32.7279C29.4157 32.9041 29.3969 33.0797 29.3601 33.2519L29.4161 34.0879L30.1321 33.1999L29.8721 33.5239L31.1441 32.4599L32.6441 30.5839L38.6641 34.7999C38.9799 35.021 39.2379 35.3149 39.4162 35.6568C39.5944 35.9986 39.6877 36.3784 39.6881 36.7639V43.5319Z" fill="#888888"/>
<path d="M29.26 31.8792V38.2792L30.508 39.7592C30.517 39.7699 30.5291 39.7775 30.5426 39.7811C30.556 39.7847 30.5703 39.784 30.5834 39.7792C30.5965 39.7744 30.6078 39.7657 30.6158 39.7543C30.6238 39.7428 30.628 39.7292 30.628 39.7152L30.888 30.1992L29.26 31.8792Z" fill="#888888"/>
</svg>
