<svg width="56" height="56" viewBox="0 0 56 56" fill="none" xmlns="http://www.w3.org/2000/svg">
<g clip-path="url(#clip0_4602_58101)">
<path d="M28.02 35.1089C22.84 35.1089 18.716 31.9089 17.508 26.9369C16.468 22.5209 17.88 17.2009 21.6 11.4929C23.3037 8.87362 25.2742 6.43795 27.48 4.22486C27.6288 4.08303 27.8264 4.00391 28.032 4.00391C28.2376 4.00391 28.4352 4.08303 28.584 4.22486C30.8011 6.4362 32.7824 8.87195 34.496 11.4929C38.204 17.2009 39.6 22.5249 38.524 26.9369C37.324 31.9009 33.204 35.1089 28.024 35.1089H28.02ZM28.02 5.93286C25.712 8.33286 17.056 18.1049 19.048 26.5649C20.292 31.6929 24.648 33.5129 28.008 33.5129C31.364 33.5129 35.716 31.6929 36.956 26.5609C39.032 18.1049 30.348 8.34886 28.032 5.93286H28.02Z" fill="#888888"/>
<path d="M28.04 29.3719C27.6772 29.3703 27.3159 29.3246 26.964 29.2359C26.2099 29.0432 25.5215 28.6511 24.9711 28.1008C24.4208 27.5504 24.0287 26.862 23.836 26.1079C22.864 22.0879 27.292 17.7999 27.48 17.5999C27.6288 17.458 27.8265 17.3789 28.032 17.3789C28.2376 17.3789 28.4353 17.458 28.584 17.5999C28.772 17.7799 33.2 22.0799 32.228 26.0799C31.9939 27.0153 31.4553 27.8464 30.6972 28.4423C29.9391 29.0382 29.0043 29.3652 28.04 29.3719ZM28.04 19.3719C26.98 20.5719 24.812 23.3719 25.392 25.7399C25.5444 26.3262 25.8871 26.8453 26.3664 27.2159C26.8456 27.5865 27.4342 27.7875 28.04 27.7875C28.6458 27.7875 29.2345 27.5865 29.7137 27.2159C30.193 26.8453 30.5356 26.3262 30.688 25.7399C31.256 23.3399 29.092 20.5439 28.032 19.3559L28.04 19.3719Z" fill="#888888"/>
<path d="M36.4 44.0774C36.2112 44.0734 36.03 44.0027 35.8883 43.8778C35.7467 43.753 35.6537 43.5821 35.6259 43.3953C35.5982 43.2085 35.6373 43.018 35.7366 42.8573C35.8358 42.6966 35.9886 42.5763 36.168 42.5174L45.936 39.5254L44.996 36.4014L28.264 41.5134C28.1602 41.5635 28.0467 41.5906 27.9315 41.5928C27.8162 41.595 27.7018 41.5722 27.5962 41.5261C27.4905 41.4799 27.3961 41.4115 27.3193 41.3255C27.2426 41.2394 27.1854 41.1378 27.1515 41.0276C27.1177 40.9174 27.1081 40.8012 27.1234 40.6869C27.1387 40.5726 27.1785 40.463 27.24 40.3656C27.3016 40.2681 27.3836 40.1851 27.4802 40.1223C27.5769 40.0594 27.6859 40.0182 27.8 40.0014L45.292 34.6494C45.4946 34.5882 45.7133 34.6098 45.9 34.7094C45.9947 34.7576 46.0788 34.8242 46.1475 34.9052C46.2162 34.9862 46.268 35.0801 46.3 35.1814L47.724 39.8374C47.776 40.0346 47.7507 40.2442 47.6533 40.4234C47.5559 40.6026 47.3938 40.7378 47.2 40.8014L36.648 44.0414C36.5677 44.0664 36.484 44.0785 36.4 44.0774Z" fill="#888888"/>
<path d="M10.4679 51.9985C10.3365 51.999 10.207 51.966 10.0919 51.9025C9.99725 51.8543 9.91312 51.7878 9.84444 51.7067C9.77577 51.6257 9.72392 51.5318 9.69192 51.4305L8.27992 46.7785C8.21882 46.5759 8.24049 46.3573 8.3402 46.1706C8.43991 45.9839 8.60953 45.8444 8.81192 45.7825L19.5039 42.5225C19.6996 42.4751 19.9059 42.5032 20.0818 42.6012C20.2576 42.6992 20.3901 42.8599 20.4527 43.0512C20.5153 43.2426 20.5034 43.4505 20.4195 43.6335C20.3356 43.8165 20.1858 43.9611 19.9999 44.0385L10.0679 47.0665L11.0199 50.1945L27.7679 45.0785C27.9638 45.0361 28.1685 45.0688 28.3414 45.1701C28.5144 45.2714 28.643 45.434 28.7018 45.6256C28.7607 45.8172 28.7455 46.0239 28.6592 46.2048C28.5729 46.3857 28.4218 46.5276 28.2359 46.6025L10.6999 51.9545C10.6252 51.9806 10.547 51.9954 10.4679 51.9985Z" fill="#888888"/>
<path d="M45.5281 51.9996C45.4494 51.999 45.3712 51.9869 45.2961 51.9636L8.80008 40.8196C8.59843 40.7569 8.42976 40.6169 8.33085 40.4304C8.23194 40.2438 8.21081 40.0257 8.27208 39.8236L9.69208 35.1756C9.72408 35.0743 9.77593 34.9804 9.8446 34.8993C9.91328 34.8183 9.99741 34.7517 10.0921 34.7036C10.2788 34.6039 10.4975 34.5823 10.7001 34.6436L47.2001 45.7836C47.3013 45.8148 47.395 45.8664 47.4754 45.9352C47.5559 46.004 47.6215 46.0885 47.6681 46.1836C47.7677 46.3703 47.7893 46.5889 47.7281 46.7916L46.3081 51.4436C46.2555 51.608 46.1511 51.751 46.0105 51.8512C45.8699 51.9514 45.7007 52.0035 45.5281 51.9996ZM10.0481 39.5276L45.0001 50.2036L45.9561 47.0756L11.0001 36.3996L10.0481 39.5276Z" fill="#888888"/>
</g>
<defs>
<clipPath id="clip0_4602_58101">
<rect width="56" height="56" fill="white"/>
</clipPath>
</defs>
</svg>
