<svg width="56" height="56" viewBox="0 0 56 56" fill="none" xmlns="http://www.w3.org/2000/svg">
<g clip-path="url(#clip0_4600_57721)">
<path d="M3.99998 41.8112C3.99998 42.0234 4.08427 42.2269 4.2343 42.3769C4.38433 42.5269 4.58781 42.6112 4.79998 42.6112H6.56798C9.74127 42.6095 12.8575 41.7677 15.6 40.1712C17.1688 39.2502 18.363 37.806 18.973 36.0921C19.5831 34.3783 19.57 32.5044 18.936 30.7992L23.9 31.4192C24.074 31.4389 24.2496 31.401 24.4 31.3112L30.712 27.7992C30.6927 27.9142 30.6834 28.0306 30.684 28.1472C30.6804 28.6469 30.8532 29.1318 31.1718 29.5167C31.4905 29.9016 31.9346 30.1619 32.4262 30.2517C32.9177 30.3415 33.4252 30.2551 33.8594 30.0078C34.2936 29.7604 34.6266 29.3679 34.8 28.8992L35.36 27.4112H37.36C38.9689 27.4137 40.5392 26.9189 41.856 25.9945C43.1728 25.0701 44.1717 23.7613 44.716 22.2472L44.976 21.9872L46.064 22.5272C46.2136 22.6017 46.3828 22.6275 46.5478 22.601C46.7128 22.5745 46.8653 22.4969 46.984 22.3792L48 21.3432L48.236 21.5792C48.3859 21.7282 48.5886 21.8119 48.8 21.8119C49.0113 21.8119 49.2141 21.7282 49.364 21.5792L51.764 19.1792C51.8384 19.1049 51.8974 19.0167 51.9376 18.9196C51.9779 18.8225 51.9986 18.7184 51.9986 18.6132C51.9986 18.5081 51.9779 18.404 51.9376 18.3069C51.8974 18.2098 51.8384 18.1215 51.764 18.0472L50.828 17.1072C50.8469 16.3819 50.6479 15.6676 50.2566 15.0565C49.8654 14.4454 49.2999 13.9657 48.6332 13.6793C47.9666 13.3929 47.2293 13.313 46.5168 13.4499C45.8042 13.5868 45.1491 13.9342 44.636 14.4472L40.952 18.1312L40.852 18.0512C40.3825 17.7005 39.8292 17.479 39.2474 17.4088C38.6655 17.3386 38.0754 17.4222 37.536 17.6512L33.284 19.4792C33.1739 19.5263 33.0758 19.5974 32.9969 19.6874C32.918 19.7774 32.8603 19.884 32.828 19.9992L32.8 20.1192L31.272 20.8832C30.205 20.1776 28.9914 19.724 27.7232 19.557C26.4549 19.39 25.1653 19.5139 23.952 19.9192L23.716 19.9952C23.3592 19.0591 22.8125 18.207 22.1103 17.4924C21.4082 16.7778 20.5657 16.2163 19.636 15.8432L18.836 15.5312L17.352 14.0472C17.2161 13.9113 17.0358 13.8287 16.8441 13.8148C16.6524 13.8008 16.4621 13.8564 16.308 13.9712L11.052 17.9232C8.09702 20.1313 5.92025 23.2214 4.83598 26.7472C4.77435 26.9446 4.79155 27.1582 4.88398 27.3432C4.97918 27.5323 5.14548 27.676 5.34642 27.7427C5.54736 27.8095 5.76656 27.7938 5.95598 27.6992L8.63998 26.3592L9.83998 27.5592C9.9065 27.6249 9.98357 27.679 10.068 27.7192C10.1638 27.7627 10.2673 27.7869 10.3725 27.7903C10.4777 27.7937 10.5825 27.7764 10.681 27.7392C10.7795 27.702 10.8696 27.6458 10.9463 27.5738C11.023 27.5017 11.0848 27.4152 11.128 27.3192L12.284 24.8352C13.0674 23.1445 14.1425 21.605 15.46 20.2872L16.66 19.0872L20.92 25.4872C20.9802 25.5785 21.0584 25.6565 21.1499 25.7163C21.2414 25.7762 21.3442 25.8167 21.452 25.8352L22.716 26.0432L22.316 26.4432C21.4808 26.0573 20.5569 25.9038 19.6418 25.9989C18.7267 26.0939 17.8541 26.434 17.116 26.9832L16.504 27.4392H13.6C13.4983 27.439 13.3976 27.4594 13.304 27.4992C13.2062 27.538 13.1171 27.5957 13.0416 27.669C12.9662 27.7423 12.9059 27.8297 12.8643 27.9263C12.8227 28.0229 12.8006 28.1268 12.7991 28.2319C12.7977 28.3371 12.817 28.4415 12.856 28.5392L14.456 32.5152C14.7185 33.3096 14.8732 34.1357 14.916 34.9712C12.7864 35.5901 10.502 35.3859 8.51598 34.3992L7.56798 33.9232C7.40877 33.8471 7.22955 33.8233 7.05598 33.8552C6.84793 33.8905 6.66225 34.0066 6.53938 34.1782C6.41652 34.3497 6.36641 34.5629 6.39998 34.7712L7.11598 38.3512L4.21998 41.2472C4.0756 41.3991 3.9966 41.6017 3.99998 41.8112ZM16.304 29.0112L16.8 30.0352C16.8109 30.0531 16.8203 30.0718 16.828 30.0912C16.9016 30.278 16.8983 30.4863 16.8189 30.6707C16.7394 30.855 16.5903 31.0005 16.404 31.0752C16.2209 31.1512 16.0152 31.1518 15.8317 31.0768C15.6482 31.0019 15.5016 30.8576 15.424 30.6752L14.8 29.0112H16.304ZM12 19.1992L13.424 18.1312C13.6007 18.5601 13.9125 18.9196 14.312 19.1552C12.8615 20.6032 11.678 22.2958 10.816 24.1552L10.156 25.5992L9.35598 24.7992C9.23777 24.6809 9.08544 24.6026 8.92042 24.5753C8.75539 24.5481 8.58598 24.5732 8.43598 24.6472L7.06398 25.3352C8.16372 22.9052 9.86204 20.794 12 19.1992ZM17.256 16.2072L15.772 17.6952C15.7476 17.7209 15.7192 17.7425 15.688 17.7592C15.5705 17.833 15.4287 17.8576 15.2932 17.8277C15.1577 17.7978 15.0394 17.7157 14.964 17.5992C14.8898 17.4858 14.8613 17.3484 14.8843 17.2148C14.9073 17.0812 14.9801 16.9613 15.088 16.8792L16.724 15.6512L17.256 16.2072ZM48.8 19.8832L48.164 19.2472C48.0616 19.1689 47.9773 19.0694 47.9167 18.9556C47.8561 18.8418 47.8206 18.7164 47.8127 18.5877C47.8048 18.459 47.8247 18.3301 47.8709 18.2098C47.9172 18.0894 47.9887 17.9804 48.0807 17.8902C48.1728 17.7999 48.2831 17.7304 48.4043 17.6865C48.5255 17.6425 48.6548 17.6251 48.7833 17.6355C48.9118 17.6458 49.0365 17.6837 49.1492 17.7464C49.2618 17.8092 49.3596 17.8954 49.436 17.9992L50.068 18.6312L48.8 19.8832ZM35.956 25.8112L36.556 24.2112H38.732C39.2494 24.2105 39.7596 24.0898 40.2225 23.8587C40.6854 23.6276 41.0884 23.2923 41.4 22.8792L41.52 22.7192C41.7837 22.3695 41.9754 21.971 42.0839 21.5466C42.1924 21.1223 42.2155 20.6806 42.152 20.2472C42.1118 19.9626 42.0352 19.6843 41.924 19.4192L45.764 15.5792C46.145 15.1987 46.6615 14.9849 47.2 14.9849C47.7385 14.9849 48.255 15.1987 48.636 15.5792C48.8004 15.7371 48.9357 15.9226 49.036 16.1272C48.9614 16.1231 48.8866 16.1231 48.812 16.1272C48.3381 16.1269 47.8739 16.2615 47.4737 16.5153C47.0735 16.7691 46.7538 17.1316 46.552 17.5603C46.3502 17.9891 46.2746 18.4665 46.3341 18.9366C46.3936 19.4068 46.5857 19.8502 46.888 20.2152L46.24 20.8392L45.156 20.2952C45.006 20.2212 44.8366 20.1961 44.6716 20.2233C44.5065 20.2506 44.3542 20.3289 44.236 20.4472L43.436 21.2472C43.3479 21.3351 43.2809 21.4418 43.24 21.5592C42.8286 22.7984 42.037 23.8763 40.9778 24.6396C39.9186 25.403 38.6456 25.813 37.34 25.8112H35.956ZM32.3 27.9992L34.272 20.7992L38.168 19.1272C38.5192 18.9773 38.9101 18.9474 39.28 19.0421C39.65 19.1368 39.9784 19.3508 40.2144 19.651C40.4504 19.9513 40.5808 20.3209 40.5854 20.7028C40.59 21.0846 40.4686 21.4574 40.24 21.7632L40.12 21.9232C39.9583 22.1385 39.7487 22.3131 39.5078 22.4333C39.2668 22.5534 39.0012 22.6157 38.732 22.6152H36C35.8372 22.6155 35.6784 22.6654 35.5447 22.7584C35.4111 22.8513 35.309 22.9827 35.252 23.1352L33.3 28.3352C33.2576 28.4678 33.1642 28.5782 33.0404 28.6419C32.9166 28.7057 32.7726 28.7177 32.64 28.6752C32.5074 28.6328 32.3971 28.5394 32.3333 28.4156C32.2695 28.2919 32.2576 28.1478 32.3 28.0152V27.9992ZM31.244 25.7912L22.072 24.2792L17.828 17.9152L18.592 17.1512L19.04 17.3312C19.8689 17.6638 20.6075 18.1875 21.1956 18.8596C21.7837 19.5318 22.2046 20.3335 22.424 21.1992C22.424 21.1992 22.424 21.2392 22.424 21.2592C22.4915 21.4602 22.636 21.6261 22.8257 21.7206C23.0155 21.8151 23.2349 21.8304 23.436 21.7632L24.444 21.4272C25.4948 21.077 26.615 20.9872 27.7082 21.1656C28.8014 21.3439 29.835 21.7851 30.72 22.4512C30.8386 22.5401 30.9796 22.5943 31.1272 22.6077C31.2748 22.6211 31.4233 22.5933 31.556 22.5272L32.232 22.1912L31.244 25.7912ZM23.84 29.7912L18.124 29.0712L17.816 28.4512L18.104 28.2352C18.6715 27.8108 19.3548 27.5693 20.0629 27.5429C20.771 27.5164 21.4704 27.7063 22.068 28.0872C22.2239 28.1869 22.4097 28.2295 22.5935 28.2076C22.7773 28.1857 22.9478 28.1008 23.076 27.9672L24.644 26.3312L28.8 27.0272L23.84 29.7912ZM17.68 32.1592C17.8889 33.0946 17.8758 34.0659 17.6417 34.9953C17.4076 35.9247 16.9591 36.7864 16.332 37.5112L16.4 37.2392C16.6433 35.7376 16.5766 34.2021 16.204 32.7272C16.747 32.7149 17.2688 32.5141 17.68 32.1592ZM6.73198 41.0112L8.56398 39.1992C8.66358 39.1057 8.73756 38.9882 8.77888 38.858C8.82019 38.7277 8.82746 38.5891 8.79998 38.4552L8.31598 36.0552C10.3813 36.9468 12.6794 37.1474 14.868 36.6272C14.868 36.7512 14.836 36.8752 14.816 36.9952L14.488 38.9952C12.1101 40.3006 9.44458 40.9934 6.73198 41.0112Z" fill="#888888"/>
</g>
<defs>
<clipPath id="clip0_4600_57721">
<rect width="56" height="56" fill="white"/>
</clipPath>
</defs>
</svg>
