<?xml version="1.0" encoding="UTF-8"?>
<svg id="a" data-name="Layer 1" xmlns="http://www.w3.org/2000/svg" width="120" height="120" viewBox="0 0 120 120">
  <g>
    <path d="m1.21,74.54s-.06-.05-.09-.08c-.03-.02-.06-.03-.09-.05l.18.13Z" fill="#fff"/>
    <path d="m47.66,26.47c.2-1.15-.63-2.26-1.8-2.33-12.89-.85-19.84,11.26-22.27,19.54-.33,1.12.35,2.29,1.49,2.54h.02c1.01.23,2.04-.36,2.34-1.35,1.47-4.75,6.49-17.41,18.07-16.74,1.04.06,1.97-.63,2.14-1.66Z" fill="#fff"/>
    <path d="m117.49,98.37h-13.79c.37-.84.59-1.77.59-2.75l-1.44-17.92h-.02c-.04-.64-.33-1.28-.89-1.73l-7.61-6.19,3.09-4.78c2.01.48,3.95.66,5.74.66,8.48-.5,11.21-3.18,11.76-3.84.03-.05.06-.1.1-.14,1.63-2.41,2.06-4.59,1.26-6.48-1.61-3.77-7.34-4.21-7.98-4.25h-.19c1.04-1.53,1.65-3.37,1.65-5.35,0-5.23-4.25-9.48-9.48-9.48s-9.48,4.25-9.48,9.48c0,.71.09,1.4.23,2.07-1.69-.02-5.51.56-9,5.56l-7.43,12.98-.13.26c-.98,2.49-1.73,7.05.16,10.76l-8.52,12.64c-.51.76-.83,1.59-.99,2.44-13.88-14.54-17.33-32.2-18.17-40.58-.45-4.5,1.6-8.86,5.24-11.11,5.02-3.1,9.17-.23,11.77,2.72,1.71,1.94,4.19,2.94,6.63,2.68,1.93-.21,3.47-1.14,4.46-2.69,2.8-4.39.15-12.62-.16-13.54l-.04-.12C65.14,5.88,49.01,4.59,37.2,7.69c-14.27,3.75-25.4,14.94-29.04,29.2-1.26,4.93-1.66,10.13-1.25,15.5-.3,8.6-4.29,16.14-6.25,19.34-.55.91-.34,2.07.47,2.73.99.65,2.33.38,2.95-.64,1.28-2.08,3.28-5.74,4.78-10.33,1.68,6.18,4.36,12.52,8.03,18.91,6.9,12.01,14.71,19.88,15.04,20.21l2.83-2.83c-.31-.31-30.61-31.06-22.73-61.9,3.28-12.86,13.32-22.94,26.18-26.32,14.92-3.92,26,2.66,32.92,19.56.79,2.38,1.95,7.88.56,10.05-.34.53-.79.78-1.52.86-1.15.12-2.34-.38-3.19-1.34-5.04-5.72-11.19-6.99-16.87-3.48-4.93,3.04-7.73,8.9-7.12,14.91,1.19,11.78,7.23,40.88,37.61,56.6.92.48,1.9.89,2.99,1.25,3.97,1.33,11.71,3.56,19.04,3.56,4.07,0,8.02-.69,11.12-2.6,3.32-2.05,5.72-5.94,5.91-10.57,0-1.1-.97-2-2.17-2Zm-26.69-12.31v9.57c0,.98.21,1.9.59,2.74h-15.33c.36-.34.7-.72.99-1.15l8.82-13.12,4.93,1.96Zm4,9.62v-8.41l4.59-4.07.8,12.5c-.01,1.48-1.22,2.67-2.69,2.67s-2.69-1.21-2.69-2.69Zm16.2-40.08c.77.31,1.4.71,1.6,1.17.13.3.09.73-.1,1.24-.54,1.45-1.82,2.48-3.31,2.88-3.42.91-10.08,1.83-16.57-2.13-1.19-.73-2.18-1.78-2.74-3.06-.31-.69-.45-1.31-.29-1.64.11-.23.52-.52,1.43-.72,1.54-.35,3.14-.04,4.53.71,2.44,1.3,6.7,2.88,11.41,1.5,1.32-.39,2.75-.45,4.03.05Zm-10.72-15.47c3.02,0,5.48,2.46,5.48,5.48s-2.46,5.48-5.48,5.48-5.48-2.46-5.48-5.48,2.46-5.48,5.48-5.48Zm-22.12,27.93l7.21-12.61c.07-.1.15-.19.22-.29.33,2.54,2.19,4.84,2.68,5.4l.31.29c1.63,1.22,3.28,2.15,4.92,2.86l-4.48,6.92,8.92,7.26-5.51,4.53-6.5-2.57-7.54-4.05c-1.82-2.9-.51-6.97-.24-7.74Zm-8.72,24.06l7.87-11.69c.32.24.65.47,1.02.68l3.72,1.48-8.34,12.4c-.86,1.28-2.64,1.52-3.81.52h0c-.99-.85-1.19-2.31-.46-3.4Zm42.2,15.42c-7.45,4.59-22.39.13-26.79-1.35-.89-.3-1.68-.63-2.42-1.01-1.72-.89-3.35-1.83-4.91-2.8h37.87c-.61,2.28-1.84,3.99-3.75,5.16Z" fill="#fff"/>
  </g>
  <path d="m115.02,61.68s-.06.1-.1.14c.08-.1.11-.15.11-.15h-.02Z" fill="#0d4c40"/>
  <rect x="-10" y="-10" width="140" height="140" fill="none"/>
</svg>