<?xml version="1.0" encoding="UTF-8"?>
<svg id="a" data-name="Layer 1" xmlns="http://www.w3.org/2000/svg" width="120" height="120" viewBox="0 0 120 120">
  <rect x="-10" y="-10" width="140" height="140" fill="none"/>
  <g>
    <path d="m80.56,108.41l-2.76-2.11-5.12-3.91-.27-.2v-52.84h4.24c3.2,0,5.77-2.74,5.49-6-.25-2.89-2.87-5.01-5.77-5.01h-3.96v-16.78c0-.1-.01-.2-.03-.3l1.87-1.87c2.32-2.32,2.32-6.07,0-8.39-4.32-3.4-7.83-.51-8.39,0-.05.05-.09.08-.09.08h0s-5.98,5.98-5.98,5.98l-5.75,5.75h-14.31c-5.96,0-10.78,4.83-10.78,10.78v61.12h-11.98c-3.17,0-5.94,2.44-6.03,5.61-.1,3.28,2.53,5.97,5.79,5.97h39.5c.44,0,.87-.15,1.22-.42,1.45-1.15.63-3.48-1.22-3.48H16.83c-.94,0-1.81-.64-1.96-1.57-.19-1.18.71-2.2,1.86-2.2l46.64-.13c1.04,0,1.88-.85,1.88-1.89s-.84-1.89-1.89-1.89h-5.6l6.29-20.71c.91-3.01.1-6.27-2.13-8.5l-10.3-10.3c-.37-.37-.58-.88-.58-1.41v-8.37.37s0,.02.01.03l2.01,2.71c.37.51.97.8,1.6.8h13.85v52.71l-.44.33-5.24,3.91-2.29,1.71c-1.01.75-1.6,1.93-1.6,3.19v5.82c0,1.65,1.33,2.98,2.98,2.98h17.22c1.65,0,2.98-1.33,2.98-2.98v-5.45c0-1.24-.58-2.41-1.56-3.16Zm-6.14-66.16h3.79s.06.03.06.06v3.08s-.03.06-.06.06h-5.79v-3.2h2Zm-5.91-3.91h-7.36c-.65,0-1.26-.32-1.63-.85l-1.46-2.1,1.25-1.06,8.87-8.87.32-.32v13.2Zm-27.26,56.38v-19.02c0-1.87,1.17-3.58,2.96-4.14,1.35-.42,2.88-.29,4.03.54,1.54,1.11,2.15,3.03,1.62,4.76l-5.39,17.86h-3.22Zm9.73-61.68c-2.13,0-3.86,1.73-3.86,3.86v18.53c0,.53.21,1.03.58,1.41l11.01,11.01c1.47,1.47,2.01,3.63,1.41,5.62h0s-6.34,20.88-6.34,20.88h-5.13l4.88-16.15c.59-1.97.54-4.11-.32-5.98-1.71-3.71-5.73-5.52-9.5-4.57l-.16.04c-3.65.92-6.22,4.21-6.22,7.98v18.69h-4.47v-58.58c0-1.25.25-2.44.71-3.52,1.37-3.24,4.58-5.52,8.33-5.52h13.77l6.89-6.89,6.07-6.07c.52-.52,1.25-.69,1.92-.53.03,0,.06.02.09.03.08.02.15.04.22.08.07.03.14.07.21.11.04.02.08.04.12.07.01,0,.02.01.04.02.04.03.06.06.1.09.03.02.06.05.09.07l.03.03h0s.03.02.04.03c.02.02.03.04.04.05.04.04.08.09.11.14.05.07.1.13.14.2.03.05.06.1.08.16.03.07.07.14.09.22.02.06.04.11.05.17.02.08.03.15.04.23,0,.06.01.11.02.17,0,.08,0,.16,0,.24,0,.06,0,.11-.02.17-.01.08-.04.16-.06.24-.02.05-.03.1-.05.15-.03.09-.08.17-.12.25-.02.04-.04.08-.06.12-.08.12-.17.23-.27.34l-6.07,6.07-10.35,10.35h-4.09Zm15.55,12.4h0s-9.91,0-9.91,0c-.63,0-1.22-.3-1.59-.8l-3.91-5.26s-.06-.02-.08,0v-2.18h2.91s-.01.03,0,.04l3.36,4.25c.38.48.95.76,1.56.76h9.65v3.2h-1.97Zm11.68,68.66c0,1.1-.89,1.99-1.99,1.99h-11.39c-1.1,0-1.99-.89-1.99-1.99v-.95c0-1.25.59-2.44,1.6-3.19l4.06-3.03v1.28c0,1.08.88,1.95,1.95,1.95s1.95-.88,1.95-1.95v-1.11l4.23,3.24c.98.75,1.56,1.92,1.56,3.16v.6Z" fill="#fff"/>
    <path d="m52.58,114.47c-3.89-.02-8.06-.66-12.35-2.26-.07-.03-.14-.06-.21-.09-2.2-1.12-18.33-8.47-38.98,4.14-.89.54-1.3,1.68-.84,2.62.52,1.07,1.84,1.44,2.82.84,19.88-12.18,35.17-4.08,35.33-3.99l.25.11c4.88,1.86,9.59,2.61,13.95,2.66,1.22.01,2.17-1.07,2.01-2.28-.13-.99-.97-1.73-1.96-1.74Z" fill="#fff"/>
    <path d="m44.88,21.01c5.79,0,10.51-4.71,10.51-10.51S50.67,0,44.88,0s-10.51,4.71-10.51,10.51,4.71,10.51,10.51,10.51Zm0-17.01c3.59,0,6.51,2.92,6.51,6.51s-2.92,6.51-6.51,6.51-6.51-2.92-6.51-6.51,2.92-6.51,6.51-6.51Z" fill="#fff"/>
    <path d="m118.43,106.09c-7.01-1.48-18.51-1.72-31.94,6.47-.9.55-1.33,1.71-.86,2.66.53,1.05,1.83,1.41,2.81.81,12.3-7.53,22.84-7.3,29.13-6.01,1.25.26,2.43-.68,2.43-1.95h0c0-.95-.65-1.77-1.57-1.97Z" fill="#fff"/>
    <path d="m89.7,105.93l5.98-4.46c2.38-1.77,3.26-5.04,1.86-7.65-1.7-3.18-5.75-4.09-8.63-2.08l-3.76,2.63c-.32.22-.69.34-1.08.34h-6.84c-1.05,0-1.9.85-1.9,1.9s.83,1.88,1.87,1.9l8.09.11c.39,0,.76-.12,1.08-.34l4.88-3.42c.86-.6,2.05-.38,2.64.49l.14.21c.56.83.37,1.96-.44,2.56l-5.21,3.88c-.33.24-.72.37-1.13.37h-3.63c-1.89,0-2.68,2.41-1.16,3.53.34.25.74.38,1.16.38h4.93c.41,0,.8-.13,1.12-.37Z" fill="#fff"/>
  </g>
</svg>