<?xml version="1.0" encoding="UTF-8"?>
<svg id="a" data-name="Layer 1" xmlns="http://www.w3.org/2000/svg" width="120" height="120" viewBox="0 0 120 120">
  <g>
    <path d="m54.38,92.16c-1.1,0-2-.89-2-2V28.23c0-1.1.89-2,2-2s2,.89,2,2v61.93c0,1.1-.89,2-2,2Z" fill="#fff"/>
    <path d="m25.55,102.6c-6.93,0-12.57-5.58-12.57-12.44s5.64-12.44,12.57-12.44,12.57,5.58,12.57,12.44-5.64,12.44-12.57,12.44Zm0-20.89c-4.73,0-8.57,3.79-8.57,8.45s3.85,8.45,8.57,8.45,8.57-3.79,8.57-8.45-3.85-8.45-8.57-8.45Z" fill="#fff"/>
    <path d="m93.8,102.6c-6.93,0-12.57-5.58-12.57-12.44s5.64-12.44,12.57-12.44,12.57,5.58,12.57,12.44-5.64,12.44-12.57,12.44Zm0-20.89c-4.73,0-8.57,3.79-8.57,8.45s3.85,8.45,8.57,8.45,8.57-3.79,8.57-8.45-3.85-8.45-8.57-8.45Z" fill="#fff"/>
    <path d="m6.36,92.16c-1.68,0-3.27-.65-4.47-1.84C.68,89.12,0,87.52,0,85.82v-8.42c0-5.58.98-11.06,2.94-16.29l1.81-4.96c2.41-6.36,8.57-10.62,15.35-10.62h47.06c5.62,0,10.77,3.3,13.11,8.43l4.33,10.16,26.26,3.96c.21.03.41.07.6.11,2.82.61,5.24,2.27,6.8,4.7,1.57,2.42,2.1,5.31,1.49,8.13l-1.54,7.07c-.43,2.32-2.51,4.06-4.94,4.06h-8.9c-1.1,0-2-.89-2-2s.89-2,2-2h8.9c.5,0,.93-.36,1.02-.85l1.55-7.13c.38-1.77.05-3.59-.94-5.12-.99-1.53-2.51-2.58-4.29-2.96-.12-.03-.25-.05-.37-.07l-27.34-4.13c-.69-.1-1.27-.55-1.54-1.19l-4.75-11.14c-1.68-3.66-5.4-6.05-9.47-6.05H20.13c-5.13-.03-9.82,3.21-11.64,8.01l-1.81,4.95c-1.79,4.79-2.69,9.8-2.69,14.91v8.41c0,.62.25,1.22.71,1.67.45.44,1.04.69,1.67.69h8.63c1.1,0,2,.89,2,2s-.89,2-2,2H6.36Z" fill="#fff"/>
    <path d="m83.23,92.16h-47.13c-1.1,0-2-.89-2-2s.89-2,2-2h47.13c1.1,0,2,.89,2,2s-.89,2-2,2Z" fill="#fff"/>
    <path d="m67.34,43.08h-25.54c-1.1,0-2-.89-2-2v-12.86c0-1.1.89-2,2-2h25.54c1.1,0,2,.89,2,2v12.86c0,1.1-.89,2-2,2Zm-23.54-4h21.55v-8.86h-21.55v8.86Z" fill="#fff"/>
    <path d="m33.66,43.11H14.98c-1.1,0-2-.89-2-2v-21.71c0-1.1.89-2,2-2h18.68c1.1,0,2,.89,2,2v21.71c0,1.1-.89,2-2,2Zm-16.68-4h14.68v-17.72h-14.68v17.72Z" fill="#fff"/>
  </g>
  <rect x="-10" y="-10" width="140" height="140" fill="none"/>
</svg>