<svg width="33" height="32" viewBox="0 0 33 32" fill="none" xmlns="http://www.w3.org/2000/svg">
<g clip-path="url(#clip0_4986_20578)">
<path d="M11.6628 27.7054L11.6125 27.6825C11.1119 27.4288 7.42507 25.7488 2.69821 28.6311C2.59623 28.6873 2.51958 28.7804 2.4839 28.8913C2.44821 29.0022 2.4562 29.1225 2.50621 29.2276C2.53397 29.2844 2.5732 29.3348 2.62143 29.3757C2.66965 29.4165 2.72583 29.4469 2.7864 29.465C2.84697 29.483 2.91062 29.4883 2.97334 29.4805C3.03606 29.4727 3.09648 29.452 3.15078 29.4197C7.69478 26.6356 11.1896 28.4871 11.2262 28.5054L11.2811 28.5305C12.3024 28.9241 13.3865 29.1301 14.4811 29.1385C14.5469 29.1392 14.6121 29.1256 14.6722 29.0987C14.7322 29.0719 14.7858 29.0323 14.8292 28.9828C14.8726 28.9334 14.9048 28.8751 14.9237 28.812C14.9425 28.7489 14.9474 28.6825 14.9382 28.6174C14.9237 28.5067 14.8692 28.4051 14.785 28.3319C14.7008 28.2586 14.5927 28.2187 14.4811 28.2196C13.5186 28.2159 12.5645 28.0418 11.6628 27.7054Z" fill="#0D4C40"/>
<path d="M12.7258 6.85731C12.2505 6.85731 11.786 6.71636 11.3909 6.45229C10.9958 6.18822 10.6879 5.8129 10.5061 5.37381C10.3244 4.93471 10.2769 4.45158 10.3698 3.98552C10.4627 3.51946 10.6917 3.09141 11.0279 2.75554C11.3641 2.41967 11.7924 2.19105 12.2585 2.09862C12.7247 2.00618 13.2078 2.05408 13.6467 2.23626C14.0856 2.41843 14.4606 2.72669 14.7243 3.12205C14.988 3.5174 15.1285 3.98208 15.1281 4.45731C15.1268 5.09385 14.8733 5.70394 14.423 6.15383C13.9727 6.60373 13.3623 6.8567 12.7258 6.85731ZM12.7258 2.97159C12.4315 2.97159 12.1438 3.05886 11.8991 3.22237C11.6544 3.38587 11.4637 3.61826 11.351 3.89016C11.2384 4.16206 11.2089 4.46124 11.2664 4.74989C11.3238 5.03853 11.4655 5.30367 11.6736 5.51177C11.8817 5.71987 12.1468 5.86159 12.4355 5.919C12.7241 5.97642 13.0233 5.94695 13.2952 5.83433C13.5671 5.7217 13.7995 5.53098 13.963 5.28628C14.1265 5.04158 14.2138 4.75389 14.2138 4.45959C14.2132 4.06514 14.0562 3.68701 13.7773 3.40809C13.4984 3.12916 13.1202 2.9722 12.7258 2.97159Z" fill="#0D4C40"/>
<path d="M18.127 10.821H19.0184V6.98556C19.0206 6.96276 19.0206 6.93979 19.0184 6.91699L18.1338 7.80385L18.127 10.821Z" fill="#0D4C40"/>
<path d="M19.0207 11.7148H18.127V12.4463H19.0207V11.7148Z" fill="#0D4C40"/>
<path d="M11.8961 23.708H9.08691V24.5149H11.8961V23.708Z" fill="#0D4C40"/>
<path d="M18.5727 6.54005C18.4554 6.54294 18.3437 6.59083 18.2607 6.6738C18.1777 6.75677 18.1299 6.86846 18.127 6.98576V7.80404L19.0115 6.91719C18.9961 6.81199 18.9432 6.71591 18.8626 6.64661C18.7819 6.57731 18.679 6.53947 18.5727 6.54005Z" fill="#0D4C40"/>
<path d="M29.5375 26.3061C27.9375 25.9678 25.3066 25.913 22.2369 27.7827C22.1349 27.8419 22.0585 27.9369 22.0226 28.0492C21.9867 28.1616 21.9938 28.2833 22.0426 28.3907C22.071 28.4466 22.1106 28.496 22.1589 28.5359C22.2073 28.5759 22.2633 28.6054 22.3235 28.6228C22.3838 28.6402 22.4469 28.645 22.5091 28.6369C22.5713 28.6288 22.6311 28.608 22.6849 28.5758C25.4963 26.8547 27.9055 26.9072 29.3409 27.2044C29.4086 27.2193 29.4787 27.2186 29.5461 27.2024C29.6135 27.1863 29.6763 27.155 29.7298 27.1109C29.7833 27.0669 29.8261 27.0113 29.855 26.9483C29.8838 26.8853 29.898 26.8165 29.8963 26.7472C29.8951 26.644 29.859 26.5442 29.7938 26.4641C29.7287 26.384 29.6383 26.3283 29.5375 26.3061Z" fill="#0D4C40"/>
<path d="M6.31391 25.4634C6.20792 25.4659 6.10437 25.4315 6.02097 25.366C5.93758 25.3005 5.87953 25.2081 5.85677 25.1046C5.84649 25.0428 5.84978 24.9795 5.8664 24.9191C5.88302 24.8587 5.91258 24.8026 5.95302 24.7548C5.99346 24.707 6.04383 24.6685 6.10062 24.6421C6.15741 24.6156 6.21927 24.6019 6.28191 24.6017L16.9425 24.572C17.0567 24.5714 17.166 24.5256 17.2465 24.4447C17.327 24.3637 17.3722 24.2542 17.3722 24.14C17.3722 24.0254 17.3267 23.9156 17.2457 23.8345C17.1647 23.7535 17.0548 23.708 16.9402 23.708H15.6602L15.4156 24.5172H12.3871L12.6293 23.708H11.8956V24.5172H9.09562V23.708H6.35277C6.0036 23.7073 5.66732 23.8398 5.41248 24.0785C5.15765 24.3172 5.00345 24.6441 4.98134 24.9926C4.97489 25.1704 5.00435 25.3476 5.06796 25.5138C5.13157 25.6799 5.22803 25.8315 5.35157 25.9596C5.47512 26.0876 5.6232 26.1894 5.78698 26.2589C5.95075 26.3284 6.12686 26.3641 6.30477 26.364H15.3333C15.4348 26.3643 15.5333 26.3296 15.6122 26.2657C15.679 26.2054 15.7264 26.1266 15.7487 26.0394C15.7709 25.9522 15.7668 25.8603 15.737 25.7754C15.7073 25.6904 15.6531 25.6161 15.5813 25.5619C15.5094 25.5076 15.4232 25.4757 15.3333 25.4703L6.31391 25.4634Z" fill="#0D4C40"/>
<path d="M21.9644 24.601C22.0526 24.6005 22.1387 24.5734 22.2113 24.5232L23.3267 23.7438C23.3734 23.7107 23.4262 23.6873 23.4821 23.6749C23.538 23.6626 23.5958 23.6617 23.6521 23.6721C23.7084 23.6825 23.762 23.7042 23.8098 23.7357C23.8575 23.7673 23.8984 23.8081 23.9301 23.8558L23.9621 23.9038C24.0235 23.9955 24.0476 24.1071 24.0293 24.2159C24.011 24.3247 23.9518 24.4224 23.8638 24.489L22.673 25.3712C22.5988 25.4279 22.508 25.4584 22.4147 25.4581H21.585C21.4937 25.4637 21.4062 25.4966 21.3338 25.5525C21.2614 25.6084 21.2075 25.6848 21.1789 25.7717C21.1504 25.8585 21.1485 25.952 21.1736 26.0399C21.1988 26.1279 21.2497 26.2063 21.3198 26.265C21.397 26.3208 21.4897 26.3512 21.585 26.3518H22.7118C22.805 26.351 22.8954 26.3206 22.9701 26.265L24.3415 25.2455C24.6083 25.0518 24.7975 24.7696 24.8753 24.4493C24.9532 24.129 24.9147 23.7915 24.7667 23.497C24.6765 23.3278 24.5514 23.1797 24.3997 23.0624C24.2481 22.9452 24.0733 22.8614 23.8868 22.8167C23.7004 22.772 23.5066 22.7673 23.3182 22.803C23.1299 22.8387 22.9512 22.914 22.7941 23.0238L21.9347 23.625C21.8621 23.6751 21.7761 23.7022 21.6878 23.7027H20.1198C20.0628 23.7027 20.0063 23.7139 19.9536 23.7357C19.9009 23.7576 19.8531 23.7895 19.8127 23.8299C19.7724 23.8702 19.7404 23.9181 19.7186 23.9708C19.6968 24.0235 19.6855 24.0799 19.6855 24.137C19.6861 24.2508 19.7311 24.3599 19.811 24.441C19.8908 24.5221 19.9992 24.5689 20.113 24.5712L21.9644 24.601Z" fill="#0D4C40"/>
<path d="M18.0244 25.4631H18.125V25.3877L18.0244 25.4631Z" fill="#0D4C40"/>
<path d="M19.0205 25.463H19.0799L19.0205 25.415V25.463Z" fill="#0D4C40"/>
<path d="M20.8812 26.8366L20.2503 26.3566L19.08 25.4629H19.0183V26.5395L19.9875 27.28C20.0981 27.3652 20.1878 27.4746 20.2496 27.5998C20.3114 27.725 20.3437 27.8627 20.344 28.0023V28.1372C20.344 28.2584 20.2959 28.3747 20.2101 28.4604C20.1244 28.5462 20.0081 28.5943 19.8869 28.5943H17.288C17.1668 28.5943 17.0505 28.5462 16.9648 28.4604C16.879 28.3747 16.8309 28.2584 16.8309 28.1372V27.9223C16.8312 27.7808 16.8645 27.6412 16.9279 27.5147C16.9914 27.3882 17.0834 27.2781 17.1966 27.1932L18.1246 26.5075V25.4629H18.0217L16.824 26.3566L16.3052 26.7429C16.1919 26.8278 16.0999 26.9379 16.0365 27.0644C15.973 27.1909 15.9398 27.3305 15.9395 27.472V28.8C15.9395 28.9819 16.0117 29.1563 16.1403 29.2849C16.2689 29.4135 16.4433 29.4857 16.6252 29.4857H20.5566C20.7385 29.4857 20.9129 29.4135 21.0415 29.2849C21.1701 29.1563 21.2423 28.9819 21.2423 28.8V27.5543C21.2407 27.4151 21.2074 27.278 21.1448 27.1537C21.0822 27.0293 20.992 26.9208 20.8812 26.8366Z" fill="#0D4C40"/>
<path d="M18.5838 13.3369H18.1267V26.7929C18.1114 26.8599 18.1114 26.9294 18.1267 26.9963C18.142 27.0633 18.1722 27.1259 18.215 27.1796C18.2578 27.2333 18.3122 27.2766 18.3741 27.3064C18.4359 27.3362 18.5037 27.3516 18.5724 27.3516C18.641 27.3516 18.7088 27.3362 18.7707 27.3064C18.8326 27.2766 18.8869 27.2333 18.9297 27.1796C18.9726 27.1259 19.0027 27.0633 19.018 26.9963C19.0333 26.9294 19.0334 26.8599 19.0181 26.7929V13.3369H18.5838Z" fill="#0D4C40"/>
<path d="M12.3875 24.5149H15.4252L15.6697 23.708H12.6297L12.3875 24.5149Z" fill="#0D4C40"/>
<path d="M11.8957 19.3606C11.8941 19.1504 11.9597 18.9451 12.0831 18.7748C12.2065 18.6046 12.3811 18.4782 12.5814 18.4143C12.7331 18.3639 12.8944 18.3488 13.0529 18.3702C13.2113 18.3915 13.3628 18.4489 13.4957 18.5378C13.6636 18.6581 13.7897 18.8278 13.8565 19.0233C13.9233 19.2187 13.9274 19.4301 13.8683 19.628L12.634 23.708H15.674L17.1071 18.972C17.2093 18.6345 17.218 18.2755 17.1323 17.9333C17.0465 17.5912 16.8696 17.2787 16.6203 17.0292L14.266 14.6749C14.1787 14.5918 14.1278 14.4776 14.1243 14.3572V12.5286L14.5814 13.148C14.6238 13.2045 14.6786 13.2504 14.7417 13.2821C14.8047 13.3139 14.8743 13.3306 14.9448 13.3309H19.9734C20.1482 13.331 20.3211 13.2946 20.481 13.2242C20.6409 13.1537 20.7844 13.0506 20.9023 12.9216C21.0202 12.7925 21.1098 12.6403 21.1656 12.4746C21.2213 12.309 21.2419 12.1335 21.226 11.9595C21.187 11.6394 21.0304 11.3452 20.7867 11.134C20.543 10.9228 20.2295 10.8097 19.9071 10.8166H16.4443C16.3712 10.8164 16.2992 10.7986 16.2343 10.7648C16.1695 10.731 16.1137 10.6822 16.0717 10.6223L15.738 10.1423L16.0237 9.90005L18.0511 7.87262L18.1266 7.79948V6.98576C18.1288 6.87506 18.1721 6.76913 18.2481 6.68861C18.3241 6.6081 18.4273 6.55876 18.5377 6.5502C18.6481 6.54164 18.7578 6.57448 18.8453 6.64232C18.9328 6.71016 18.9919 6.80815 19.0111 6.91719L19.4386 6.48976C19.5646 6.36388 19.6645 6.21441 19.7327 6.04988C19.8009 5.88536 19.836 5.709 19.836 5.5309C19.836 5.35281 19.8009 5.17645 19.7327 5.01193C19.6645 4.8474 19.5646 4.69793 19.4386 4.57205C19.1768 4.33224 18.8347 4.19922 18.4797 4.19922C18.1247 4.19922 17.7826 4.33224 17.5208 4.57205L17.5003 4.59033L16.1288 5.96176L14.8146 7.27605H11.5506C10.8989 7.27786 10.2745 7.53802 9.8143 7.99949C9.35412 8.46095 9.0957 9.08606 9.0957 9.73776V23.708H11.8957V19.3606ZM15.9208 11.7149H20.3414C20.3451 11.7149 20.3485 11.7163 20.3511 11.7189C20.3537 11.7215 20.3551 11.725 20.3551 11.7286V12.4326C20.353 12.4338 20.3507 12.4345 20.3483 12.4345C20.3459 12.4345 20.3435 12.4338 20.3414 12.4326H15.4088C15.3383 12.4323 15.2687 12.4156 15.2057 12.3838C15.1426 12.3521 15.0878 12.3062 15.0454 12.2498L14.1494 11.0475C14.1494 11.0475 14.1494 11.0475 14.1334 11.0475V10.5606H14.81L15.578 11.5298C15.618 11.584 15.6694 11.6287 15.7287 11.6607C15.788 11.6927 15.8536 11.7112 15.9208 11.7149ZM11.002 19.3515V23.6235H9.97799V10.2315C9.98158 9.687 10.1995 9.16584 10.5845 8.78083C10.9695 8.39581 11.4907 8.17793 12.0351 8.17433H15.1917L16.7666 6.59948L18.154 5.21433C18.21 5.15794 18.2797 5.11712 18.3562 5.09587C18.4328 5.07463 18.5135 5.07371 18.5906 5.09319H18.6134C18.6308 5.0973 18.6477 5.10343 18.6637 5.11148L18.7117 5.13433L18.7391 5.15262L18.762 5.17319L18.7803 5.18919V5.20062C18.7899 5.21026 18.7983 5.221 18.8054 5.23262L18.8397 5.27833C18.8397 5.28976 18.8397 5.30348 18.858 5.3149C18.8668 5.33079 18.8737 5.34767 18.8786 5.36519C18.8834 5.37781 18.8872 5.39081 18.89 5.40405C18.8911 5.42155 18.8911 5.43911 18.89 5.45662C18.891 5.46955 18.891 5.48254 18.89 5.49548C18.8911 5.51374 18.8911 5.53207 18.89 5.55033C18.8911 5.56326 18.8911 5.57626 18.89 5.58919L18.8763 5.64405C18.8763 5.64405 18.8763 5.66919 18.8763 5.68062C18.869 5.70052 18.8598 5.71965 18.8488 5.73776L18.8351 5.76519C18.8165 5.79261 18.7959 5.81859 18.7734 5.8429L17.386 7.22805L15.0546 9.60062H14.1243C14.0085 9.60062 13.8939 9.62346 13.787 9.66782C13.6801 9.71219 13.583 9.77721 13.5012 9.85917C13.4195 9.94113 13.3547 10.0384 13.3106 10.1454C13.2665 10.2525 13.244 10.3671 13.2443 10.4829V14.7275C13.2442 14.8482 13.2918 14.964 13.3768 15.0498L15.8911 17.564C16.056 17.729 16.1731 17.9356 16.2298 18.1618C16.2866 18.388 16.2809 18.6254 16.2134 18.8486L14.7643 23.6212H13.5894L14.7048 19.9275C14.8489 19.4768 14.8229 18.9889 14.6317 18.556C14.4496 18.1549 14.1325 17.8304 13.7357 17.6391C13.3389 17.4478 12.8875 17.4018 12.4603 17.5092H12.4214C12.0125 17.6127 11.6503 17.8506 11.3929 18.1847C11.1355 18.5188 10.9978 18.9297 11.002 19.3515Z" fill="#0D4C40"/>
</g>
<defs>
<clipPath id="clip0_4986_20578">
<rect width="32" height="32" fill="white" transform="translate(0.181641)"/>
</clipPath>
</defs>
</svg>
