<?xml version="1.0" encoding="UTF-8"?>
<svg id="a" data-name="Layer 1" xmlns="http://www.w3.org/2000/svg" width="120" height="120" viewBox="0 0 120 120">
  <rect x="-10" y="-10" width="140" height="140" fill="none"/>
  <g>
    <path d="m101.17,52.6c0-2.53-1.31-4.41-3.93-5.6-.69-.32-.95-.72-.94-1.5.03-2.91.02-5.88.01-8.74v-.41c0-.96-.23-1.66-.66-2.09-.33-.33-.79-.49-1.38-.49,0,0-.02,0-.03,0-1.31.01-1.98.86-1.99,2.51-.02,3.09-.03,5.88.01,8.73,0,.39-.03.83-.31,1.11-.22.22-.58.3-1.07.3-2.25-.06-4.57-.06-6.89,0-1.38.03-2.37-.48-3.15-1.67-2.74-4.21-5.72-8.72-9.39-14.18-2.82-4.21-8.6-7.5-14.62-4.81-.26.12-.57.22-.85.1-.28-.12-.42-.43-.52-.71-.9-2.52-2.76-4.18-5.54-4.95-4.08-1.12-8.07-2.2-12.08-3.2-3.11-.77-5.8.83-6.7,3.99l-.13.48c-.18.66-.37,1.31-.58,1.96l-.54,1.65c-3.53,10.79-7.07,21.57-10.62,32.36-.62,1.88-.63,3.33-.05,4.46.57,1.09,1.72,1.88,3.51,2.42,3.96,1.18,7.95,2.51,11.81,3.79l1.96.65c.94.31,1.25.74,1.23,1.71-.09,4.16-.12,7.56-.09,10.7.02,1.94-.56,3.65-1.77,5.24-3.77,4.98-7.57,10.07-11.24,14.99l-2.77,3.7c-2.03,2.71-2.54,5.62-1.54,8.65,1.04,3.14,3.31,5.09,6.58,5.66,3.33.58,6.17-.52,8.2-3.19,2.31-3.02,4.62-6.11,6.86-9.1,2.66-3.54,5.4-7.21,8.15-10.77,2.15-2.8,3.96-5.39,4.24-8.81,0-.18.17-.24.25-.27l.33-.14.13.16c.42.5.85,1.01,1.28,1.52.99,1.18,2.01,2.39,3.05,3.56,1.29,1.45,1.91,3.15,1.88,5.21-.03,1.89-.04,3.78-.05,5.67-.02,2.57-.04,5.14-.08,7.71-.04,2.26.76,4.05,2.45,5.47,1.17.99,2.55,1.73,4.21,2.25,3.72,1.17,7.38-.41,9.11-3.92.72-1.47,1.07-2.98,1.06-4.62-.02-6.97-.03-14.18,0-21.27.02-3.19-1-5.84-3.12-8.11-1.56-1.67-3.09-3.35-4.63-5.04-1.72-1.89-3.5-3.85-5.29-5.74-2.8-2.98-3.48-6.29-2.07-10.14.53-1.46,1.04-2.92,1.57-4.47.25-.72.5-1.46.77-2.22l.19-.55.3.5c2.6,4.27,6.47,6.13,12.21,5.92,2.32-.09,4.68-.07,6.96-.06,1.83.01,3.72.03,5.57-.01.05,0,.09,0,.13,0,.63,0,1.02.11,1.28.37.33.32.39.82.39,1.47-.03,15.4-.03,31.05-.03,46.19v9.59c0,2.83,1.02,3.21,2.01,3.21h0c.56,0,.99-.15,1.3-.47.49-.49.74-1.41.74-2.73v-56.34s0-.19,0-.19c0-.6-.02-1.27.96-1.73,2.54-1.2,3.89-3.16,3.9-5.67ZM33.08,28.53c.56-1.76,1.3-4.07,1.97-6.42.3-1.04.98-1.43,2.01-1.16,1.12.3,2.24.59,3.36.89,2.81.74,5.72,1.51,8.56,2.31,2.21.62,3.04,1.95,2.87,4.58.1,1.13-.39,2.17-.87,3.17-.29.61-.59,1.23-.75,1.88-.06.24-.17.4-.34.5-.11.06-.22.08-.34.08-.18,0-.35-.05-.51-.1l-3.31-.96c-4-1.15-7.99-2.31-11.99-3.43-.37-.1-.59-.25-.7-.45-.15-.27-.07-.58.03-.89Zm4.69,36.21c-.46,0-1-.15-1.61-.38-3.71-1.36-7.71-2.77-11.86-3.81-.45-.11-.93-.28-1.16-.69-.18-.33-.17-.76.05-1.4,1.72-5.09,3.43-10.27,5.08-15.28.91-2.77,1.82-5.53,2.74-8.3.03-.09.05-.2.07-.31.07-.36.17-.91.75-1.01h.06s1.34.39,1.34.39c.78.23,1.52.46,2.26.67l2.65.77c2.98.86,6.06,1.75,9.09,2.58.44.12.82.25.99.58.17.32.06.72-.07,1.07-1.38,3.75-2.74,7.5-4.09,11.25-1.41,3.9-2.82,7.8-4.26,11.69-.38,1.03-.73,1.72-1.31,2.02-.22.11-.46.16-.72.16Zm13,20.6c-.68,3.34-1.95,6.13-4.02,8.76-3.72,4.76-7.39,9.69-10.93,14.46-1.12,1.5-2.24,3.01-3.36,4.51-.8,1.07-2.03,2.39-3.95,2.39-.35,0-.72-.04-1.12-.14-1.51-.37-2.67-1.39-3.19-2.79-.56-1.54-.25-3.35.83-4.84,1.93-2.65,3.94-5.32,5.88-7.89.82-1.09,1.64-2.17,2.45-3.26l1.62-2.17c1.45-1.94,2.9-3.89,4.37-5.82,1.63-2.15,2.4-4.44,2.34-7-.04-2.04-.03-4.12-.02-6.13,0-.89,0-1.79,0-2.68v-.22l.75-.17.11.13c.68.8,1.36,1.61,2.04,2.42,1.6,1.91,3.25,3.88,4.96,5.74,1.3,1.4,1.63,2.68,1.22,4.71Zm14.92-8.64c2.01,2.21,4.1,4.49,6.17,6.71,1.4,1.5,2.08,3.22,2.07,5.27-.01,4.21-.01,8.42-.01,12.63,0,2.88,0,5.75,0,8.62,0,.67-.05,1.24-.16,1.73-.3,1.38-.97,2.38-1.94,2.89-.47.25-1,.37-1.57.37-.61,0-1.26-.14-1.94-.42-2.55-1.05-3.02-1.78-3-4.57,0-1.51,0-3.02,0-4.53,0-2.53,0-5.14.05-7.72.07-3.09-.9-5.77-2.97-8.17-4.35-5.07-8.74-10.25-12.99-15.26l-6.61-7.79.54-.04c5.75-.45,10.24-1.76,14.12-4.12l.17-.1.15.13c.42.35.37.77.34,1.05,0,.08-.02.15-.02.23.13,3.35,1.34,6.28,3.59,8.72,1.34,1.46,2.68,2.92,4.02,4.38Zm29.65-22.03c-.56.23-1.12.23-1.67.22h-.25c-5.77,0-11.55,0-17.32,0-2.98,0-5.29-1.33-6.84-3.92-1.23-2.05-2.51-4.13-3.74-6.13-.86-1.39-1.71-2.77-2.56-4.17-.66-1.08-1.45-1.46-2.52-1.19-.59.15-1.04.53-1.26,1.07-.26.63-.19,1.38.21,2.05.82,1.4,1.71,2.79,2.58,4.14l.17.26c.36.56.45,1.1.28,1.8-1.36,5.86-5.01,9.76-11.17,11.93-2.14.75-4.23,1.21-6.56,1.44l-.43.04,8.6-23.68c.19-.53.38-1.06.57-1.6.37-1.04.75-2.11,1.15-3.15.95-2.44,2.76-4.17,4.97-4.75,2.21-.57,4.64.05,6.66,1.71.85.7,1.6,1.58,2.43,2.83.91,1.37,1.82,2.74,2.73,4.11,2.01,3.03,4.1,6.16,6.1,9.26,1.57,2.43,3.63,3.57,6.46,3.49,2.36-.04,4.76-.03,7.09-.02,1.06,0,2.11.04,3.17,0,.26-.01.52-.02.79.05,1.35.34,2.07,1.02,2.14,2.02.08,1.25-.97,1.84-1.78,2.17Z" fill="#fff"/>
    <path d="m71.93.27s-.04,0-.07,0c-6.44.04-11.67,5.31-11.66,11.76,0,3.15,1.23,6.1,3.45,8.31,2.19,2.18,5.11,3.38,8.21,3.38h.04c6.6-.02,11.76-5.21,11.75-11.82,0-3.1-1.24-6.03-3.46-8.23-2.22-2.2-5.15-3.42-8.26-3.42Zm5.47,17.1c-1.48,1.49-3.42,2.32-5.48,2.32h-.01c-2.04,0-3.97-.81-5.43-2.27-1.46-1.47-2.26-3.4-2.25-5.44.02-4.23,3.49-7.66,7.73-7.66h.03c4.09.01,7.58,3.52,7.63,7.65.02,2-.77,3.92-2.22,5.39Z" fill="#fff"/>
  </g>
</svg>