<svg width="48" height="48" viewBox="0 0 48 48" fill="none" xmlns="http://www.w3.org/2000/svg">
<g clip-path="url(#clip0_3669_43960)">
<path d="M28.2621 9.29724C28.0802 9.29724 27.9058 9.22499 27.7772 9.0964C27.6486 8.9678 27.5764 8.79339 27.5764 8.61152V7.58295C27.5958 6.88583 27.339 6.20926 26.8619 5.70065C26.3847 5.19203 25.7259 4.89258 25.029 4.86752H24.0861C23.9042 4.86752 23.7298 4.79528 23.6012 4.66668C23.4726 4.53809 23.4004 4.36367 23.4004 4.18181C23.4004 3.99995 23.4726 3.82553 23.6012 3.69693C23.7298 3.56834 23.9042 3.49609 24.0861 3.49609H25.029C25.5568 3.5081 26.0772 3.62412 26.5601 3.8375C27.0431 4.05087 27.4792 4.35742 27.8436 4.73959C28.2079 5.12176 28.4933 5.57205 28.6834 6.06466C28.8734 6.55727 28.9645 7.08254 28.9513 7.61038V8.63895C28.9441 8.81661 28.8683 8.98457 28.7397 9.10738C28.6112 9.2302 28.4399 9.29827 28.2621 9.29724Z" fill="#F3C83D"/>
<path d="M19.8275 9.29927C19.6456 9.29927 19.4712 9.22703 19.3426 9.09843C19.214 8.96984 19.1418 8.79542 19.1418 8.61356V7.58499C19.129 7.05698 19.2205 6.53163 19.411 6.039C19.6014 5.54637 19.8871 5.09612 20.2517 4.714C20.6163 4.33187 21.0527 4.02538 21.5358 3.81204C22.019 3.59871 22.5395 3.48272 23.0675 3.4707H24.0961C24.2779 3.4707 24.4524 3.54295 24.581 3.67154C24.7096 3.80014 24.7818 3.97455 24.7818 4.15642C24.7818 4.33828 24.7096 4.51269 24.581 4.64129C24.4524 4.76989 24.2779 4.84213 24.0961 4.84213H23.0675C22.3687 4.86629 21.708 5.16631 21.2299 5.67652C20.7518 6.18672 20.4954 6.86555 20.5167 7.56442V8.59299C20.5194 8.68504 20.5036 8.77671 20.4702 8.86252C20.4367 8.94834 20.3864 9.02653 20.322 9.09245C20.2577 9.15837 20.1808 9.21065 20.0958 9.24619C20.0109 9.28172 19.9196 9.29978 19.8275 9.29927Z" fill="#F3C83D"/>
<path d="M28.2617 23.8654C28.0799 23.8654 27.9055 23.7932 27.777 23.6646C27.6484 23.536 27.5762 23.3616 27.5762 23.1797V8.69743C27.5762 8.51557 27.6484 8.34116 27.777 8.21256C27.9055 8.08396 28.0799 8.01172 28.2617 8.01172C28.4435 8.01172 28.6178 8.08396 28.7464 8.21256C28.875 8.34116 28.9472 8.51557 28.9472 8.69743V23.1797C28.9472 23.3616 28.875 23.536 28.7464 23.6646C28.6178 23.7932 28.4435 23.8654 28.2617 23.8654Z" fill="#F3C83D"/>
<path d="M19.8271 23.8654C19.6453 23.8654 19.4709 23.7932 19.3424 23.6646C19.2138 23.536 19.1416 23.3616 19.1416 23.1797V8.69743C19.1416 8.51557 19.2138 8.34116 19.3424 8.21256C19.4709 8.08396 19.6453 8.01172 19.8271 8.01172C20.0089 8.01172 20.1833 8.08396 20.3118 8.21256C20.4404 8.34116 20.5126 8.51557 20.5126 8.69743V23.1797C20.5126 23.3616 20.4404 23.536 20.3118 23.6646C20.1833 23.7932 20.0089 23.8654 19.8271 23.8654Z" fill="#F3C83D"/>
<path d="M30.3908 16.7992H25.9611C25.7792 16.7992 25.6048 16.7269 25.4762 16.5983C25.3476 16.4697 25.2754 16.2953 25.2754 16.1134C25.2754 15.9316 25.3476 15.7572 25.4762 15.6286C25.6048 15.5 25.7792 15.4277 25.9611 15.4277H30.3908C30.5727 15.4277 30.7471 15.5 30.8757 15.6286C31.0043 15.7572 31.0765 15.9316 31.0765 16.1134C31.0765 16.2953 31.0043 16.4697 30.8757 16.5983C30.7471 16.7269 30.5727 16.7992 30.3908 16.7992Z" fill="#F3C83D"/>
<path d="M22.0422 16.7992H17.6125C17.4306 16.7992 17.2562 16.7269 17.1276 16.5983C16.999 16.4697 16.9268 16.2953 16.9268 16.1134C16.9268 15.9316 16.999 15.7572 17.1276 15.6286C17.2562 15.5 17.4306 15.4277 17.6125 15.4277H22.0422C22.224 15.4277 22.3985 15.5 22.5271 15.6286C22.6557 15.7572 22.7279 15.9316 22.7279 16.1134C22.7279 16.2953 22.6557 16.4697 22.5271 16.5983C22.3985 16.7269 22.224 16.7992 22.0422 16.7992Z" fill="#F3C83D"/>
<path d="M32.6915 24.208H15.3978C14.1538 24.2071 12.961 23.7127 12.0811 22.8334C11.2011 21.9541 10.7059 20.7617 10.7041 19.5177V12.616C10.7168 11.3829 11.2181 10.2052 12.098 9.34133C12.978 8.47744 14.1647 7.99791 15.3978 8.00797H32.6915C33.9337 8.0125 35.1235 8.50891 36.0006 9.38856C36.8777 10.2682 37.3706 11.4595 37.3715 12.7017V19.5177C37.3706 20.7596 36.8776 21.9505 36.0004 22.8296C35.1232 23.7087 33.9334 24.2043 32.6915 24.208ZM15.3978 9.38283C14.5293 9.37275 13.6923 9.70742 13.0702 10.3135C12.4481 10.9195 12.0916 11.7475 12.079 12.616V19.5177C12.0808 20.397 12.4311 21.2398 13.0532 21.8613C13.6754 22.4827 14.5185 22.8322 15.3978 22.8331H32.6915C33.5691 22.8295 34.4096 22.4788 35.0295 21.8576C35.6493 21.2365 35.9983 20.3952 36.0001 19.5177V12.7017C35.9992 11.8217 35.6492 10.9781 35.027 10.3559C34.4048 9.73369 33.5612 9.38373 32.6812 9.38283H15.3978Z" fill="#F3C83D"/>
<path d="M36.6099 33.7508C36.428 33.7508 36.2536 33.6785 36.125 33.5499C35.9964 33.4213 35.9242 33.2469 35.9242 33.065C35.9242 32.2072 35.5836 31.3845 34.9774 30.7776C34.3712 30.1708 33.5488 29.8294 32.691 29.8285H15.3116C14.4544 29.8294 13.6326 30.1703 13.0264 30.7764C12.4203 31.3826 12.0794 32.2044 12.0785 33.0616C12.0785 33.2435 12.0062 33.4179 11.8776 33.5465C11.749 33.6751 11.5746 33.7473 11.3927 33.7473C11.2109 33.7473 11.0365 33.6751 10.9079 33.5465C10.7793 33.4179 10.707 33.2435 10.707 33.0616C10.7097 31.8412 11.1957 30.6716 12.0587 29.8087C12.9216 28.9457 14.0912 28.4597 15.3116 28.457H32.691C33.9126 28.4588 35.0836 28.9449 35.9474 29.8087C36.8111 30.6725 37.2972 31.8435 37.299 33.065C37.299 33.1554 37.2812 33.2448 37.2465 33.3282C37.2118 33.4117 37.161 33.4874 37.097 33.5511C37.0329 33.6148 36.9569 33.6653 36.8734 33.6995C36.7898 33.7338 36.7002 33.7512 36.6099 33.7508Z" fill="#F3C83D"/>
<path d="M39.5077 44.4844H36.6105C36.4287 44.4844 36.2542 44.4122 36.1256 44.2836C35.997 44.155 35.9248 43.9806 35.9248 43.7987C35.9248 43.6169 35.997 43.4424 36.1256 43.3138C36.2542 43.1853 36.4287 43.113 36.6105 43.113H39.446C39.7763 43.0429 40.0692 42.8534 40.2685 42.5807C40.4678 42.308 40.5595 41.9714 40.5259 41.6353V35.7039C40.5465 35.168 40.456 34.6337 40.2601 34.1346C40.0642 33.6354 39.7672 33.1821 39.3877 32.8033L36.3431 30.0844C36.2756 30.0245 36.2205 29.952 36.181 29.8708C36.1415 29.7896 36.1184 29.7015 36.113 29.6114C36.1076 29.5213 36.12 29.431 36.1494 29.3457C36.1789 29.2604 36.2249 29.1817 36.2848 29.1141C36.3447 29.0466 36.4173 28.9915 36.4985 28.952C36.5796 28.9126 36.6678 28.8895 36.7579 28.884C36.848 28.8786 36.9383 28.891 37.0236 28.9205C37.1089 28.95 37.1876 28.996 37.2551 29.0559L40.3408 31.7987C40.863 32.3068 41.2741 32.9177 41.5479 33.5929C41.8218 34.268 41.9524 34.9927 41.9317 35.721V41.577C41.984 42.2592 41.7796 42.9363 41.3584 43.4755C40.9372 44.0147 40.3297 44.377 39.6551 44.4913C39.6059 44.4948 39.5564 44.4925 39.5077 44.4844Z" fill="#F3C83D"/>
<path d="M11.3937 44.5712H8.49659C8.45895 44.5746 8.42108 44.5746 8.38344 44.5712C7.7076 44.4577 7.09876 44.0952 6.67679 43.5552C6.25481 43.0152 6.05028 42.3368 6.10344 41.6535V35.825C6.05987 35.0914 6.18002 34.3574 6.45517 33.6761C6.73032 32.9947 7.15358 32.3831 7.6943 31.8855L10.7594 29.0741C10.827 29.0133 10.9058 28.9664 10.9915 28.9361C11.0771 28.9058 11.1679 28.8927 11.2587 28.8974C11.3494 28.9022 11.4383 28.9248 11.5203 28.964C11.6023 29.0031 11.6758 29.058 11.7366 29.1255C11.7974 29.1931 11.8443 29.2719 11.8746 29.3576C11.9049 29.4432 11.918 29.534 11.9132 29.6248C11.9085 29.7155 11.8859 29.8044 11.8467 29.8864C11.8076 29.9684 11.7527 30.0419 11.6852 30.1027L8.62002 32.9141C8.22804 33.2743 7.92195 33.7179 7.72434 34.2123C7.52674 34.7066 7.44265 35.2389 7.4783 35.7701V41.6947C7.48 41.7118 7.48 41.729 7.4783 41.7461C7.45147 42.0802 7.54792 42.4126 7.74943 42.6804C7.95094 42.9482 8.24356 43.133 8.57202 43.1998H11.4074C11.5893 43.1998 11.7637 43.2721 11.8923 43.4007C12.0209 43.5292 12.0932 43.7037 12.0932 43.8855C12.0932 44.0674 12.0209 44.2418 11.8923 44.3704C11.7637 44.499 11.5893 44.5712 11.4074 44.5712H11.3937Z" fill="#F3C83D"/>
<path d="M36.6099 44.485H11.3927C11.2109 44.485 11.0365 44.4128 10.9079 44.2842C10.7793 44.1556 10.707 43.9812 10.707 43.7993V19.8576C10.707 19.6757 10.7793 19.5013 10.9079 19.3727C11.0365 19.2441 11.2109 19.1719 11.3927 19.1719C11.5746 19.1719 11.749 19.2441 11.8776 19.3727C12.0062 19.5013 12.0785 19.6757 12.0785 19.8576V43.1136H35.9242V19.8576C35.9242 19.6757 35.9964 19.5013 36.125 19.3727C36.2536 19.2441 36.428 19.1719 36.6099 19.1719C36.7918 19.1719 36.9662 19.2441 37.0948 19.3727C37.2234 19.5013 37.2956 19.6757 37.2956 19.8576V43.7993C37.2956 43.9812 37.2234 44.1556 37.0948 44.2842C36.9662 44.4128 36.7918 44.485 36.6099 44.485Z" fill="#F3C83D"/>
</g>
<defs>
<clipPath id="clip0_3669_43960">
<rect width="48" height="48" fill="white"/>
</clipPath>
</defs>
</svg>
