<svg width="32" height="32" viewBox="0 0 32 32" fill="none" xmlns="http://www.w3.org/2000/svg">
<path d="M16 29.7137C23.5742 29.7137 29.7143 23.5736 29.7143 15.9994C29.7143 8.42525 23.5742 2.28516 16 2.28516C8.4258 2.28516 2.28571 8.42525 2.28571 15.9994C2.28571 23.5736 8.4258 29.7137 16 29.7137Z" fill="#FFFDFD"/>
<path d="M11.7623 15.1904L17.4766 9.47612C17.6909 9.26152 17.9817 9.14084 18.2849 9.14063C18.5882 9.14041 18.8791 9.26068 19.0937 9.47498C19.3083 9.68927 19.429 9.98004 19.4292 10.2833C19.4294 10.5866 19.3092 10.8775 19.0949 11.0921L14.1874 15.9995L19.0926 20.9047C19.206 21.0089 19.2972 21.1351 19.3607 21.2755C19.4241 21.4158 19.4585 21.5676 19.4618 21.7217C19.4651 21.8757 19.4372 22.0288 19.3799 22.1718C19.3225 22.3148 19.2368 22.4447 19.1279 22.5537C19.0191 22.6627 18.8893 22.7486 18.7464 22.8062C18.6035 22.8637 18.4504 22.8918 18.2964 22.8888C18.1423 22.8857 17.9905 22.8515 17.85 22.7882C17.7095 22.725 17.5833 22.634 17.4789 22.5207L11.7646 16.8064C11.55 16.5924 11.4293 16.3019 11.4288 15.9989C11.4284 15.6958 11.5484 15.405 11.7623 15.1904Z" fill="#0D4C3F"/>
</svg>
