<svg width="33" height="32" viewBox="0 0 33 32" fill="none" xmlns="http://www.w3.org/2000/svg">
<g clip-path="url(#clip0_4986_20489)">
<path d="M18.493 12.4841C18.0645 12.4841 17.6455 12.357 17.2892 12.1189C16.9329 11.8808 16.6551 11.5424 16.4911 11.1465C16.3271 10.7505 16.2842 10.3148 16.3678 9.89452C16.4514 9.47419 16.6578 9.08809 16.9608 8.78505C17.2639 8.48201 17.65 8.27564 18.0703 8.19203C18.4906 8.10842 18.9263 8.15133 19.3222 8.31533C19.7182 8.47934 20.0566 8.75707 20.2947 9.11341C20.5328 9.46975 20.6599 9.88868 20.6599 10.3172C20.6587 10.8916 20.43 11.442 20.0239 11.8481C19.6178 12.2542 19.0673 12.4829 18.493 12.4841V12.4841ZM18.493 9.05553C18.2453 9.05553 18.0031 9.129 17.7971 9.26663C17.5912 9.40426 17.4306 9.59989 17.3358 9.82877C17.241 10.0576 17.2162 10.3095 17.2645 10.5525C17.3129 10.7954 17.4322 11.0186 17.6073 11.1938C17.7825 11.369 18.0057 11.4883 18.2487 11.5366C18.4916 11.5849 18.7435 11.5601 18.9724 11.4653C19.2012 11.3705 19.3969 11.21 19.5345 11.004C19.6721 10.798 19.7456 10.5558 19.7456 10.3081C19.7426 9.97768 19.6094 9.66177 19.3749 9.42897C19.1403 9.19617 18.8235 9.06527 18.493 9.06468V9.05553Z" fill="#0D4C40"/>
<path d="M27.4644 19.9448C27.3432 19.9448 27.2269 19.993 27.1412 20.0787C27.0554 20.1644 27.0073 20.2807 27.0073 20.402V20.8454L25.5353 19.3757L25.9078 19.0054C26.1316 18.7794 26.2571 18.4743 26.2571 18.1562C26.2571 17.8382 26.1316 17.5331 25.9078 17.3071L22.4427 13.8488C22.3314 13.7373 22.1993 13.6488 22.0538 13.5884C21.9082 13.528 21.7522 13.4969 21.5947 13.4969C21.4372 13.4969 21.2812 13.528 21.1356 13.5884C20.9901 13.6488 20.858 13.7373 20.7467 13.8488L20.3536 14.242L17.4987 11.4442C17.2738 11.2246 16.9719 11.1015 16.6576 11.1014H14.7444L14.2027 10.6214C13.9832 10.4255 13.6992 10.3173 13.405 10.3174H12.8038C12.6459 10.3171 12.4895 10.3481 12.3435 10.4085C12.1976 10.4689 12.0651 10.5575 11.9536 10.6694L9.9787 12.6442C9.75495 12.8702 9.62943 13.1754 9.62943 13.4934C9.62943 13.8114 9.75495 14.1166 9.9787 14.3425L10.6644 15.0282L9.68384 15.9997L3.49413 22.1894C3.26931 22.4271 3.14605 22.7431 3.15051 23.0703C3.15497 23.3975 3.28681 23.71 3.51803 23.9415C3.74924 24.173 4.06161 24.3053 4.38877 24.3102C4.71593 24.315 5.03211 24.1922 5.27013 23.9677L9.99241 19.2454L11.693 20.77L9.21527 23.25C8.97718 23.4981 8.84581 23.8296 8.84936 24.1735C8.8529 24.5173 8.99107 24.8461 9.23423 25.0893C9.47739 25.3324 9.80617 25.4706 10.15 25.4742C10.4939 25.4777 10.8254 25.3463 11.0736 25.1082L14.2736 21.9197C14.7294 21.461 14.9853 20.8406 14.9853 20.194C14.9853 19.5473 14.7294 18.9269 14.2736 18.4682L16.8381 15.9014C17.0417 15.7009 17.3159 15.5886 17.6016 15.5886C17.8872 15.5886 18.1614 15.7009 18.365 15.9014L20.1936 17.7048C20.4188 17.9263 20.7222 18.0505 21.0381 18.0505C21.3541 18.0505 21.6574 17.9263 21.8827 17.7048L22.2187 17.3711L26.4107 21.554H25.8713C25.75 21.554 25.6338 21.6021 25.548 21.6879C25.4623 21.7736 25.4141 21.8899 25.4141 22.0111C25.4141 22.1323 25.4623 22.2486 25.548 22.3343C25.6338 22.4201 25.75 22.4682 25.8713 22.4682H27.3821C27.5231 22.4683 27.6585 22.4134 27.7596 22.3153C27.8608 22.2171 27.9197 22.0834 27.9238 21.9425V20.4042C27.9241 20.3438 27.9125 20.2839 27.8895 20.2281C27.8665 20.1722 27.8327 20.1214 27.79 20.0787C27.7472 20.036 27.6965 20.0021 27.6406 19.9792C27.5847 19.9562 27.5248 19.9445 27.4644 19.9448ZM25.1787 18.4431C25.103 18.5181 25.0007 18.5601 24.8941 18.5601C24.7876 18.5601 24.6853 18.5181 24.6096 18.4431L21.3044 15.1768C21.2651 15.139 21.2338 15.0935 21.2126 15.0432C21.1914 14.9929 21.1806 14.9388 21.181 14.8842C21.179 14.8005 21.2026 14.7181 21.2485 14.648C21.2943 14.5779 21.3604 14.5234 21.438 14.4917C21.5155 14.46 21.6009 14.4526 21.6827 14.4704C21.7646 14.4883 21.8391 14.5305 21.8964 14.5917L25.1673 17.874C25.2047 17.9113 25.2343 17.9557 25.2546 18.0045C25.2748 18.0533 25.2852 18.1057 25.2852 18.1585C25.2852 18.2114 25.2748 18.2637 25.2546 18.3125C25.2343 18.3614 25.2047 18.4057 25.1673 18.4431H25.1787ZM20.797 16.9802L18.925 15.1517C18.5725 14.808 18.099 14.6168 17.6067 14.6194C17.1145 14.6219 16.643 14.8181 16.2941 15.1654L13.613 17.8282L11.3981 15.6134L15.0667 12.0225H16.7718L21.2998 16.4568C21.3346 16.4902 21.3623 16.5303 21.3812 16.5747C21.4 16.6191 21.4097 16.6669 21.4096 16.7151C21.4102 16.7639 21.401 16.8123 21.3826 16.8575C21.3641 16.9026 21.3368 16.9436 21.3021 16.978C21.2336 17.0461 21.141 17.0845 21.0443 17.085C20.9477 17.0854 20.8547 17.0478 20.7856 16.9802H20.797ZM9.75013 24.21C9.74544 24.1533 9.75325 24.0963 9.773 24.043C9.79274 23.9897 9.82395 23.9413 9.86441 23.9014L12.4724 21.2911C12.5466 21.2206 12.6052 21.1354 12.6445 21.0409C12.6839 20.9465 12.7031 20.8448 12.701 20.7425C12.6982 20.6411 12.6746 20.5413 12.6318 20.4493C12.5889 20.3573 12.5277 20.2751 12.4518 20.2077L10.5776 18.5277C10.4242 18.3796 10.2193 18.2969 10.0061 18.2969C9.79295 18.2969 9.58809 18.3796 9.4347 18.5277L4.6347 23.314C4.57723 23.3757 4.49962 23.4149 4.41583 23.4246C4.33203 23.4342 4.24754 23.4136 4.17756 23.3665C4.13722 23.3383 4.10358 23.3015 4.07903 23.2588C4.05447 23.2162 4.03959 23.1686 4.03545 23.1196C4.03131 23.0705 4.038 23.0211 4.05505 22.9749C4.0721 22.9287 4.0991 22.8868 4.13413 22.8522L9.76384 17.2202L10.5684 16.418L10.7398 16.2511L13.005 18.514L13.5787 19.0762C13.7264 19.2183 13.8443 19.3884 13.9255 19.5765C14.0067 19.7647 14.0496 19.9671 14.0517 20.172C14.0539 20.3769 14.0152 20.5802 13.9379 20.77C13.8606 20.9598 13.7462 21.1323 13.6016 21.2774L10.4404 24.4408C10.374 24.5114 10.2847 24.5561 10.1885 24.5669C10.0922 24.5778 9.99518 24.5542 9.9147 24.5002C9.86743 24.4671 9.82813 24.4239 9.79967 24.3737C9.7712 24.3235 9.75428 24.2675 9.75013 24.21ZM11.3273 14.3814L10.4313 13.4854L11.9421 11.9768L12.8564 12.8911L11.3273 14.3814ZM13.5124 12.2442L12.5981 11.33L12.6941 11.2362H13.5193L14.0633 11.7208L13.5124 12.2442Z" fill="#0D4C40"/>
<path d="M29.4388 6.5645C24.3394 8.8205 20.8811 6.65821 20.4057 6.33592L20.3577 6.30621C16.2137 4.09135 12.0308 6.33592 11.9874 6.3565L11.9645 6.37021C7.72454 8.4045 4.1474 7.14507 2.92455 6.57592C2.86648 6.54926 2.81466 6.51071 2.77241 6.46278C2.73016 6.41485 2.69843 6.3586 2.67926 6.29765C2.66009 6.2367 2.65391 6.17241 2.66112 6.10892C2.66833 6.04544 2.68877 5.98417 2.72112 5.92907V5.92907C2.7782 5.83222 2.86896 5.75981 2.97605 5.72565C3.08315 5.6915 3.19908 5.698 3.30169 5.74392C4.61052 6.31512 6.02835 6.59348 7.45599 6.55952C8.88364 6.52557 10.2866 6.18012 11.5668 5.54735C13.0574 4.80166 14.7001 4.41053 16.3668 4.4045C17.93 4.39427 19.4703 4.77955 20.8445 5.5245L20.8971 5.55878C20.9291 5.58392 24.168 7.89707 29.0731 5.72564C29.1824 5.679 29.3057 5.67678 29.4166 5.71945C29.5275 5.76212 29.6175 5.84632 29.6674 5.95421C29.693 6.00921 29.7073 6.06875 29.7097 6.12936C29.712 6.18997 29.7022 6.25043 29.681 6.30723C29.6597 6.36403 29.6273 6.41603 29.5857 6.4602C29.5442 6.50437 29.4942 6.53982 29.4388 6.5645Z" fill="#0D4C40"/>
<path d="M6.35312 15.6911C6.62436 15.6911 6.88951 15.6107 7.11504 15.46C7.34057 15.3093 7.51635 15.0951 7.62015 14.8445C7.72395 14.5939 7.75111 14.3182 7.69819 14.0521C7.64528 13.7861 7.51466 13.5417 7.32286 13.3499C7.13107 13.1581 6.8867 13.0275 6.62067 12.9746C6.35464 12.9217 6.07889 12.9488 5.82829 13.0526C5.5777 13.1564 5.36351 13.3322 5.21282 13.5577C5.06212 13.7833 4.98169 14.0484 4.98169 14.3197C4.98169 14.6834 5.12618 15.0322 5.38337 15.2894C5.64056 15.5466 5.98939 15.6911 6.35312 15.6911V15.6911ZM6.35312 13.8511C6.44353 13.8511 6.53192 13.8779 6.60709 13.9281C6.68227 13.9784 6.74086 14.0498 6.77546 14.1333C6.81006 14.2168 6.81912 14.3088 6.80148 14.3974C6.78384 14.4861 6.7403 14.5676 6.67637 14.6315C6.61243 14.6954 6.53098 14.739 6.4423 14.7566C6.35362 14.7742 6.26171 14.7652 6.17818 14.7306C6.09464 14.696 6.02325 14.6374 5.97302 14.5622C5.92279 14.487 5.89597 14.3987 5.89597 14.3082C5.89597 14.187 5.94414 14.0707 6.02987 13.985C6.1156 13.8993 6.23188 13.8511 6.35312 13.8511V13.8511Z" fill="#0D4C40"/>
<path d="M23.2328 11.7184C23.504 11.7184 23.7692 11.638 23.9947 11.4873C24.2202 11.3366 24.396 11.1224 24.4998 10.8718C24.6036 10.6212 24.6307 10.3455 24.5778 10.0795C24.5249 9.81343 24.3943 9.56907 24.2025 9.37727C24.0107 9.18547 23.7663 9.05486 23.5003 9.00194C23.2343 8.94902 22.9585 8.97618 22.7079 9.07998C22.4573 9.18378 22.2432 9.35956 22.0925 9.58509C21.9418 9.81062 21.8613 10.0758 21.8613 10.347C21.8613 10.7107 22.0058 11.0596 22.263 11.3168C22.5202 11.574 22.869 11.7184 23.2328 11.7184V11.7184ZM23.2328 9.87844C23.3232 9.87844 23.4116 9.90525 23.4867 9.95549C23.5619 10.0057 23.6205 10.0771 23.6551 10.1606C23.6897 10.2442 23.6988 10.3361 23.6811 10.4248C23.6635 10.5134 23.6199 10.5949 23.556 10.6588C23.4921 10.7228 23.4106 10.7663 23.3219 10.7839C23.2333 10.8016 23.1413 10.7925 23.0578 10.7579C22.9743 10.7233 22.9029 10.6647 22.8527 10.5896C22.8024 10.5144 22.7756 10.426 22.7756 10.3356C22.7756 10.2143 22.8238 10.0981 22.9095 10.0123C22.9952 9.92661 23.1115 9.87844 23.2328 9.87844Z" fill="#0D4C40"/>
<path d="M7.67693 12.1781C7.81255 12.1781 7.94512 12.1379 8.05789 12.0625C8.17065 11.9872 8.25854 11.8801 8.31044 11.7548C8.36234 11.6295 8.37592 11.4916 8.34946 11.3586C8.32301 11.2256 8.2577 11.1034 8.1618 11.0075C8.0659 10.9116 7.94372 10.8463 7.8107 10.8198C7.67769 10.7934 7.53981 10.8069 7.41451 10.8588C7.28922 10.9107 7.18212 10.9986 7.10677 11.1114C7.03143 11.2242 6.99121 11.3567 6.99121 11.4924C6.99121 11.6742 7.06346 11.8486 7.19205 11.9772C7.32065 12.1058 7.49506 12.1781 7.67693 12.1781V12.1781ZM7.67693 11.2638C7.72213 11.2638 7.76632 11.2772 7.80391 11.3023C7.8415 11.3274 7.8708 11.3631 7.8881 11.4049C7.9054 11.4467 7.90992 11.4926 7.9011 11.5369C7.89229 11.5813 7.87052 11.622 7.83855 11.654C7.80658 11.6859 7.76586 11.7077 7.72152 11.7165C7.67718 11.7254 7.63122 11.7208 7.58945 11.7035C7.54769 11.6862 7.51199 11.6569 7.48687 11.6193C7.46176 11.5818 7.44835 11.5376 7.44835 11.4924C7.44775 11.462 7.45321 11.4317 7.46442 11.4035C7.47564 11.3752 7.49238 11.3495 7.51366 11.3278C7.53495 11.3061 7.56035 11.2888 7.58839 11.277C7.61642 11.2653 7.64652 11.2592 7.67693 11.2592V11.2638Z" fill="#0D4C40"/>
<path d="M20.7756 22.098C20.9112 22.098 21.0438 22.0578 21.1565 21.9824C21.2693 21.9071 21.3572 21.8 21.4091 21.6747C21.461 21.5494 21.4746 21.4115 21.4481 21.2785C21.4216 21.1455 21.3563 21.0233 21.2604 20.9274C21.1645 20.8315 21.0423 20.7662 20.9093 20.7397C20.7763 20.7133 20.6384 20.7269 20.5131 20.7788C20.3878 20.8307 20.2808 20.9185 20.2054 21.0313C20.1301 21.1441 20.0898 21.2767 20.0898 21.4123C20.0898 21.5941 20.1621 21.7686 20.2907 21.8971C20.4193 22.0257 20.5937 22.098 20.7756 22.098ZM20.7756 21.1837C20.8208 21.1837 20.865 21.1971 20.9025 21.2222C20.9401 21.2473 20.9694 21.283 20.9867 21.3248C21.004 21.3666 21.0086 21.4125 20.9997 21.4569C20.9909 21.5012 20.9691 21.5419 20.9372 21.5739C20.9052 21.6059 20.8645 21.6276 20.8201 21.6365C20.7758 21.6453 20.7299 21.6407 20.6881 21.6234C20.6463 21.6061 20.6106 21.5769 20.5855 21.5393C20.5604 21.5017 20.547 21.4575 20.547 21.4123C20.5464 21.3819 20.5518 21.3517 20.5631 21.3234C20.5743 21.2951 20.591 21.2694 20.6123 21.2477C20.6336 21.226 20.659 21.2087 20.687 21.197C20.7151 21.1852 20.7452 21.1791 20.7756 21.1791V21.1837Z" fill="#0D4C40"/>
<path d="M23.5183 24.5001L23.4909 24.4727C22.8783 23.8349 21.644 22.7881 20.1491 22.7881C19.2806 22.7881 18.3549 23.1607 17.4771 23.8624C17.2789 24.0201 17.089 24.188 16.908 24.3652C16.8509 24.2692 16.7914 24.1732 16.7297 24.0818C16.2611 23.3824 15.7514 23.0281 15.2189 23.0281C15.0976 23.0281 14.9813 23.0762 14.8956 23.162C14.8099 23.2477 14.7617 23.364 14.7617 23.4852V26.9024C14.7617 27.0236 14.8099 27.1399 14.8956 27.2256C14.9813 27.3114 15.0976 27.3595 15.2189 27.3595C15.7514 27.3595 16.2611 27.0052 16.7297 26.3081C16.7914 26.2167 16.8509 26.1207 16.908 26.0247C17.0882 26.2012 17.2774 26.3682 17.4749 26.5252C18.3549 27.2292 19.2806 27.6018 20.1491 27.6018C21.6577 27.6018 22.892 26.5344 23.5 25.9058C23.5945 25.8132 23.6696 25.7026 23.7206 25.5805C23.7716 25.4584 23.7977 25.3273 23.7972 25.1949C23.7971 24.9361 23.6972 24.6872 23.5183 24.5001V24.5001ZM22.8486 25.2749C22.588 25.538 22.3058 25.7788 22.0052 25.9949C21.7766 25.9172 21.5777 25.5767 21.5777 25.1949C21.5777 24.8132 21.7674 24.4749 22.0052 24.3949C22.3048 24.6107 22.5861 24.8507 22.8463 25.1127C22.8672 25.1344 22.879 25.1632 22.8794 25.1934C22.8799 25.2235 22.8688 25.2526 22.8486 25.2749V25.2749ZM20.6611 25.1949C20.6541 25.668 20.8218 26.127 21.132 26.4841C20.8178 26.6077 20.4844 26.6758 20.1469 26.6852C18.9309 26.6852 17.8223 25.6612 17.3811 25.1949C17.8223 24.7378 18.9309 23.7069 20.1423 23.7069C20.4811 23.7167 20.8157 23.784 21.132 23.9058C20.8222 24.2632 20.6546 24.722 20.6611 25.1949V25.1949ZM15.6783 24.2075C15.9359 24.5014 16.1485 24.8318 16.3091 25.1881C16.1539 25.5514 15.9409 25.8872 15.6783 26.1824V24.2075Z" fill="#0D4C40"/>
<path d="M22.2288 25.5055C22.4005 25.5055 22.5397 25.3663 22.5397 25.1946C22.5397 25.023 22.4005 24.8838 22.2288 24.8838C22.0571 24.8838 21.918 25.023 21.918 25.1946C21.918 25.3663 22.0571 25.5055 22.2288 25.5055Z" fill="#0D4C40"/>
</g>
<defs>
<clipPath id="clip0_4986_20489">
<rect width="32" height="32" fill="white" transform="translate(0.181641)"/>
</clipPath>
</defs>
</svg>
