<svg width="24" height="24" viewBox="0 0 24 24" fill="none" xmlns="http://www.w3.org/2000/svg">
<g clip-path="url(#clip0_4946_37454)">
<path d="M13.8857 12L21.8966 3.98915C22.0204 3.86533 22.1186 3.71834 22.1856 3.55656C22.2526 3.39479 22.2871 3.2214 22.2871 3.04629C22.2871 2.87119 22.2526 2.6978 22.1856 2.53602C22.1186 2.37425 22.0204 2.22725 21.8966 2.10343C21.7728 1.97962 21.6258 1.8814 21.464 1.81439C21.3022 1.74738 21.1288 1.71289 20.9537 1.71289C20.6001 1.71289 20.2609 1.85337 20.0109 2.10343L12 10.1143L3.98915 2.10515C3.73909 1.85509 3.39993 1.7146 3.04629 1.7146C2.69265 1.7146 2.3535 1.85509 2.10343 2.10515C1.85337 2.35521 1.71289 2.69437 1.71289 3.04801C1.71289 3.40165 1.85337 3.7408 2.10343 3.99086L10.1143 12L2.10515 20.0109C1.98133 20.1347 1.88311 20.2817 1.8161 20.4435C1.74909 20.6052 1.7146 20.7786 1.7146 20.9537C1.7146 21.1288 1.74909 21.3022 1.8161 21.464C1.88311 21.6258 1.98133 21.7728 2.10515 21.8966C2.22897 22.0204 2.37596 22.1186 2.53774 22.1856C2.69951 22.2526 2.8729 22.2871 3.04801 22.2871C3.22311 22.2871 3.3965 22.2526 3.55828 22.1856C3.72005 22.1186 3.86705 22.0204 3.99086 21.8966L12 13.8857L20.0109 21.8966C20.2609 22.1466 20.6001 22.2871 20.9537 22.2871C21.3074 22.2871 21.6465 22.1466 21.8966 21.8966C22.1466 21.6465 22.2871 21.3074 22.2871 20.9537C22.2871 20.6001 22.1466 20.2609 21.8966 20.0109L13.8857 12Z" fill="#03483F"/>
</g>
<defs>
<clipPath id="clip0_4946_37454">
<rect width="24" height="24" fill="white"/>
</clipPath>
</defs>
</svg>
