<svg width="32" height="32" viewBox="0 0 32 32" fill="none" xmlns="http://www.w3.org/2000/svg">
<path d="M19.1999 4.57136V2.74279C19.1999 2.62155 19.1518 2.50527 19.066 2.41954C18.9803 2.33381 18.864 2.28564 18.7428 2.28564C18.6215 2.28564 18.5053 2.33381 18.4195 2.41954C18.3338 2.50527 18.2856 2.62155 18.2856 2.74279V4.57136C18.2856 4.6926 18.3338 4.80888 18.4195 4.89461C18.5053 4.98034 18.6215 5.0285 18.7428 5.0285C18.864 5.0285 18.9803 4.98034 19.066 4.89461C19.1518 4.80888 19.1999 4.6926 19.1999 4.57136Z" fill="#0D4C3F"/>
<path d="M29.2569 12.8H27.4283C27.3071 12.8 27.1908 12.8482 27.1051 12.9339C27.0194 13.0197 26.9712 13.1359 26.9712 13.2572C26.9712 13.3784 27.0194 13.4947 27.1051 13.5804C27.1908 13.6662 27.3071 13.7143 27.4283 13.7143H29.2569C29.3781 13.7143 29.4944 13.6662 29.5802 13.5804C29.6659 13.4947 29.714 13.3784 29.714 13.2572C29.714 13.1359 29.6659 13.0197 29.5802 12.9339C29.4944 12.8482 29.3781 12.8 29.2569 12.8Z" fill="#0D4C3F"/>
<path d="M24.2284 18.7428C24.0091 18.7433 23.7901 18.7562 23.5724 18.7817C23.5637 18.7679 23.5537 18.7548 23.5427 18.7428C24.4427 17.963 25.1388 16.9752 25.5704 15.8653C26.002 14.7553 26.156 13.5568 26.019 12.3737C25.8821 11.1907 25.4584 10.059 24.7847 9.07699C24.111 8.09495 23.2077 7.29227 22.1533 6.73867C21.0989 6.18508 19.9252 5.89733 18.7343 5.90042C17.5434 5.9035 16.3713 6.19733 15.3197 6.75638C14.2682 7.31544 13.3691 8.12279 12.7005 9.10831C12.0319 10.0938 11.614 11.2277 11.4832 12.4114C10.072 12.6177 8.78207 13.3245 7.84881 14.403C6.91556 15.4814 6.40126 16.8595 6.39979 18.2857C6.39949 18.7675 6.45938 19.2474 6.57808 19.7143C5.32609 19.9046 4.192 20.5603 3.40239 21.5503C2.61278 22.5404 2.2258 23.7919 2.31875 25.0548C2.4117 26.3178 2.97775 27.4992 3.9038 28.363C4.82986 29.2267 6.04772 29.7093 7.31408 29.7143H24.2284C25.6833 29.7143 27.0786 29.1363 28.1074 28.1075C29.1361 27.0788 29.7141 25.6835 29.7141 24.2286C29.7141 22.7737 29.1361 21.3783 28.1074 20.3496C27.0786 19.3208 25.6833 18.7428 24.2284 18.7428ZM18.7427 6.85712C20.0183 6.85764 21.2646 7.23933 22.3218 7.95322C23.3789 8.6671 24.1986 9.68061 24.6757 10.8637C25.1527 12.0467 25.2654 13.3453 24.9991 14.5929C24.7329 15.8404 24.0999 16.9799 23.1815 17.8651C23.1815 17.8491 23.1609 17.8354 23.1518 17.8217C23.0742 17.6878 22.9895 17.5581 22.8981 17.4331C22.8524 17.3691 22.8044 17.3097 22.7564 17.248L22.6009 17.0674C22.4935 16.9486 22.3724 16.8388 22.2604 16.7246L22.1712 16.6491C21.9192 16.4304 21.6431 16.241 21.3484 16.0846C21.3072 16.0617 21.2661 16.0434 21.2249 16.0228C21.0868 15.954 20.9448 15.8929 20.7998 15.84C20.7175 15.808 20.6329 15.7806 20.5484 15.7531C20.4638 15.7257 20.4112 15.7097 20.3404 15.6914C20.1897 15.6525 20.0371 15.6212 19.8832 15.5977L19.7461 15.5817C19.0686 15.4934 18.3798 15.5647 17.7346 15.7897C17.6729 15.6617 17.6089 15.5337 17.5404 15.4103C17.5106 15.3577 17.4764 15.3051 17.4444 15.2526C17.4124 15.2 17.3667 15.1154 17.3232 15.0491C17.2798 14.9828 17.2409 14.9348 17.1998 14.8777C17.1587 14.8206 17.1221 14.7611 17.0809 14.7063C17.0398 14.6514 16.9895 14.5943 16.9438 14.5371C16.8981 14.48 16.8615 14.432 16.8181 14.3817L16.6718 14.2263C16.6215 14.1737 16.5804 14.1257 16.5346 14.08C16.4889 14.0343 16.4295 13.9817 16.3769 13.9314L16.2284 13.7943C16.1781 13.7486 16.1186 13.7028 16.0615 13.6594C16.0044 13.616 15.9587 13.5748 15.9038 13.5337L15.7301 13.4126L15.5655 13.2983C15.5084 13.2617 15.4444 13.2251 15.3804 13.1886L15.2067 13.0834C15.1472 13.0514 15.0809 13.0194 15.0192 12.9897C14.9575 12.96 14.8981 12.9257 14.8364 12.8983L14.6284 12.816C14.5644 12.7886 14.5027 12.7611 14.4364 12.736C14.3701 12.7108 14.3061 12.6903 14.2398 12.6674L14.0409 12.5988C13.9747 12.5783 13.9107 12.5646 13.8444 12.5463C13.7781 12.528 13.7072 12.5074 13.6364 12.4914L13.4352 12.4526L13.2204 12.4137C13.1495 12.4023 13.0832 12.3977 13.0169 12.3886C12.9507 12.3794 12.8729 12.3703 12.7884 12.3657C12.7038 12.3611 12.6512 12.3657 12.5804 12.3543C12.5095 12.3428 12.4569 12.3543 12.3929 12.3543C12.6107 10.8264 13.3731 9.42861 14.54 8.41846C15.7068 7.40831 17.1993 6.85382 18.7427 6.85712ZM24.2284 28.8H7.31408C6.77378 28.8081 6.23718 28.7097 5.73491 28.5104C5.23264 28.3111 4.77454 28.0149 4.38677 27.6386C3.60361 26.8786 3.15445 25.8386 3.13808 24.7474C3.12171 23.6562 3.53948 22.6033 4.29949 21.8201C5.05949 21.0369 6.09947 20.5878 7.19065 20.5714C7.263 20.5696 7.33388 20.5506 7.39746 20.516C7.46104 20.4815 7.5155 20.4323 7.55637 20.3726C7.59695 20.313 7.62286 20.2447 7.632 20.1731C7.64113 20.1016 7.63323 20.029 7.60894 19.9611C7.3495 19.2365 7.26048 18.4619 7.3488 17.6973C7.43711 16.9327 7.70039 16.1988 8.11819 15.5524C8.53599 14.906 9.0971 14.3646 9.75797 13.9701C10.4188 13.5756 11.1617 13.3387 11.9289 13.2777C12.0638 13.2663 12.1941 13.2571 12.3289 13.2571C13.3544 13.2608 14.3543 13.5769 15.1955 14.1633C16.0368 14.7497 16.6793 15.5786 17.0375 16.5394C17.0594 16.5987 17.0933 16.6528 17.1372 16.6982C17.181 16.7437 17.2338 16.7796 17.2923 16.8037C17.3507 16.8277 17.4134 16.8394 17.4766 16.838C17.5398 16.8366 17.6019 16.8221 17.6592 16.7954C18.1415 16.5703 18.6676 16.4548 19.1998 16.4571C19.365 16.4591 19.5299 16.4713 19.6935 16.4937L19.7964 16.5074C19.9367 16.5315 20.0756 16.5636 20.2124 16.6034L20.3815 16.656C20.4889 16.6926 20.5918 16.7337 20.6947 16.7794C20.7975 16.8251 20.8547 16.8571 20.9232 16.8983C20.9918 16.9394 21.0352 16.9623 21.0901 16.9943C21.1998 17.0628 21.3049 17.1337 21.4055 17.2228C21.4558 17.2617 21.5061 17.2983 21.5541 17.3394C21.6021 17.3806 21.6752 17.4446 21.7324 17.4994C21.8186 17.5825 21.9002 17.6703 21.9769 17.7623C22.0175 17.8075 22.0557 17.8548 22.0912 17.904C22.174 18.0161 22.2504 18.1328 22.3198 18.2537L22.3655 18.3337C22.4521 18.4806 22.5285 18.6334 22.5941 18.7908C22.6743 18.9896 22.7355 19.1954 22.7769 19.4057C22.8047 19.5211 22.8763 19.6212 22.9766 19.6847C23.0768 19.7483 23.1979 19.7703 23.3141 19.7463C23.9394 19.621 24.5839 19.6279 25.2064 19.7666C25.8288 19.9052 26.4154 20.1726 26.9284 20.5515C27.4413 20.9304 27.8693 21.4124 28.1849 21.9666C28.5004 22.5207 28.6965 23.1348 28.7606 23.7693C28.8247 24.4038 28.7553 25.0446 28.5569 25.6507C28.3585 26.2568 28.0355 26.8146 27.6087 27.2884C27.1818 27.7622 26.6606 28.1415 26.0784 28.4018C25.4963 28.6621 24.8661 28.7978 24.2284 28.8Z" fill="#0D4C3F"/>
<path d="M12.3429 7.31431C12.4332 7.31438 12.5215 7.28769 12.5967 7.23761C12.6719 7.18752 12.7305 7.11629 12.7652 7.0329C12.8 6.94952 12.8092 6.85771 12.7918 6.76907C12.7744 6.68044 12.7311 6.59894 12.6674 6.53488L10.8389 4.70631C10.7824 4.64396 10.7099 4.59838 10.6293 4.57459C10.5486 4.5508 10.463 4.54971 10.3817 4.57145C10.3034 4.59216 10.232 4.6333 10.1749 4.69066C10.1177 4.74802 10.0768 4.81953 10.0563 4.89789C10.0359 4.97625 10.0366 5.05863 10.0584 5.13662C10.0803 5.2146 10.1224 5.28539 10.1806 5.34174L12.0092 7.17031C12.052 7.21586 12.1037 7.25213 12.1611 7.2769C12.2185 7.30167 12.2804 7.3144 12.3429 7.31431Z" fill="#0D4C3F"/>
<path d="M25.4559 7.17936L27.2844 5.35079C27.3424 5.29439 27.3843 5.22364 27.406 5.14574C27.4277 5.06784 27.4283 4.98558 27.4079 4.90736C27.3871 4.82907 27.346 4.75768 27.2886 4.70051C27.2313 4.64334 27.1598 4.60243 27.0814 4.58197C27.0031 4.56151 26.9207 4.56223 26.8427 4.58406C26.7647 4.60589 26.6939 4.64805 26.6376 4.70621L24.809 6.53479C24.7508 6.59113 24.7087 6.66192 24.6868 6.73991C24.665 6.81789 24.6643 6.90028 24.6848 6.97863C24.7052 7.05699 24.7461 7.1285 24.8033 7.18586C24.8605 7.24322 24.9319 7.28436 25.0101 7.30507C25.0889 7.3257 25.1717 7.32493 25.2501 7.30283C25.3285 7.28073 25.3995 7.2381 25.4559 7.17936Z" fill="#0D4C3F"/>
</svg>
