<svg width="32" height="32" viewBox="0 0 32 32" fill="none" xmlns="http://www.w3.org/2000/svg">
<path d="M25.8745 18.6857L29.5796 14.9805C29.6232 14.938 29.6578 14.8871 29.6814 14.831C29.705 14.7749 29.7172 14.7146 29.7172 14.6537C29.7172 14.5928 29.705 14.5325 29.6814 14.4764C29.6578 14.4202 29.6232 14.3694 29.5796 14.3268C29.5371 14.2833 29.4862 14.2487 29.4301 14.2251C29.374 14.2015 29.3137 14.1893 29.2528 14.1893C29.1919 14.1893 29.1316 14.2015 29.0755 14.2251C29.0193 14.2487 28.9685 14.2833 28.9259 14.3268L26.0071 17.248V5.65026C26.0071 5.52902 25.9589 5.41274 25.8732 5.32701C25.7874 5.24128 25.6712 5.19312 25.5499 5.19312C25.4287 5.19312 25.3124 5.24128 25.2267 5.32701C25.1409 5.41274 25.0928 5.52902 25.0928 5.65026V17.2457L22.1716 14.3268C22.1291 14.2833 22.0782 14.2487 22.0221 14.2251C21.966 14.2015 21.9057 14.1893 21.8448 14.1893C21.7839 14.1893 21.7236 14.2015 21.6675 14.2251C21.6113 14.2487 21.5605 14.2833 21.5179 14.3268C21.4744 14.3694 21.4398 14.4202 21.4162 14.4764C21.3925 14.5325 21.3804 14.5928 21.3804 14.6537C21.3804 14.7146 21.3925 14.7749 21.4162 14.831C21.4398 14.8871 21.4744 14.938 21.5179 14.9805L25.2231 18.6857C25.2656 18.7289 25.3163 18.7632 25.3722 18.7866C25.4281 18.81 25.4882 18.8221 25.5488 18.8221C25.6094 18.8221 25.6694 18.81 25.7253 18.7866C25.7812 18.7632 25.8319 18.7289 25.8745 18.6857Z" fill="#0D4C3F"/>
<path d="M13.0675 5.18848C11.9988 5.18848 10.9541 5.50538 10.0655 6.09912C9.17692 6.69285 8.48435 7.53676 8.07538 8.5241C7.6664 9.51145 7.5594 10.5979 7.76789 11.6461C7.97638 12.6942 8.49101 13.657 9.24669 14.4127C10.0024 15.1684 10.9652 15.683 12.0133 15.8915C13.0615 16.1 14.1479 15.993 15.1353 15.584C16.1226 15.175 16.9665 14.4825 17.5603 13.5939C18.154 12.7053 18.4709 11.6606 18.4709 10.5919C18.4697 9.1592 17.9 7.78552 16.887 6.77244C15.8739 5.75936 14.5002 5.18969 13.0675 5.18848ZM13.0675 15.033C12.1885 15.0335 11.3291 14.7732 10.598 14.2851C9.86693 13.7971 9.29705 13.1031 8.96045 12.2911C8.62386 11.4791 8.53567 10.5855 8.70705 9.72331C8.87843 8.86116 9.30167 8.0692 9.92323 7.44764C10.5448 6.82608 11.3367 6.40284 12.1989 6.23146C13.0611 6.06008 13.9547 6.14827 14.7667 6.48486C15.5787 6.82146 16.2727 7.39134 16.7607 8.12241C17.2488 8.85348 17.5091 9.71288 17.5086 10.5919C17.5068 11.7692 17.0383 12.8978 16.2059 13.7303C15.3734 14.5627 14.2448 15.0312 13.0675 15.033Z" fill="#0D4C3F"/>
<path d="M23.0308 21.2571C21.8573 20.367 20.5754 19.6296 19.2159 19.0628C14.1874 16.8959 9.76222 17.8673 6.92564 19.0628C5.62752 19.6049 4.39959 20.3017 3.2685 21.1382L3.1085 21.2571C2.85404 21.4455 2.64712 21.6907 2.50425 21.9733C2.36139 22.2558 2.28653 22.5679 2.28564 22.8845V25.5062C2.28926 25.8556 2.43138 26.1893 2.6808 26.434C2.93021 26.6787 3.26654 26.8144 3.61593 26.8113H22.5188C22.8682 26.8144 23.2045 26.6787 23.4539 26.434C23.7033 26.1893 23.8455 25.8556 23.8491 25.5062V22.8913C23.8478 22.5743 23.7733 22.2618 23.6314 21.9783C23.4894 21.6948 23.2839 21.448 23.0308 21.2571ZM22.8571 25.5062C22.8565 25.5973 22.8198 25.6845 22.7552 25.7488C22.6905 25.813 22.6031 25.8491 22.5119 25.8491H3.61593C3.52479 25.8491 3.43734 25.813 3.37268 25.7488C3.30802 25.6845 3.27139 25.5973 3.27079 25.5062V22.8845C3.27164 22.7114 3.31352 22.541 3.39298 22.3872C3.47245 22.2335 3.58724 22.1007 3.72793 21.9999L3.86279 21.9016C4.92975 21.1114 6.08871 20.4536 7.31422 19.9428C9.12939 19.1529 11.0878 18.7452 13.0674 18.7452C15.0469 18.7452 17.0053 19.1529 18.8205 19.9428C20.1026 20.4765 21.3134 21.1675 22.4251 21.9999C22.5616 22.1029 22.6722 22.2363 22.7484 22.3894C22.8246 22.5425 22.8641 22.7112 22.8639 22.8822L22.8571 25.5062Z" fill="#0D4C3F"/>
</svg>
