<?xml version="1.0" encoding="UTF-8"?>
<svg id="a" data-name="Layer 1" xmlns="http://www.w3.org/2000/svg" width="120" height="120" viewBox="0 0 120 120">
  <path d="m99.37,11.1l-.38-.22c-1.21-.69-2.45-1.36-3.68-1.99l-.05-.03c-.29-.26-.61-.49-.96-.67-5.97-3.06-12.56-5.28-19.61-6.58-.11-.02-.22-.04-.29-.04-9.55-1.87-19.29-1.86-28.97.02l-.12.02c-7.04,1.3-13.64,3.51-19.61,6.58-.2.1-.38.22-.48.3-2.98,1.52-4.56,2.6-4.58,2.61-1.75,1.12-3.44,2.35-5.04,3.64C5.68,22.79.22,33.22.22,44.09c0,1.89.16,3.78.49,5.63.3,1.71,1.53,3.03,3.21,3.45.87.22,1.76.17,2.59-.13l.13-.05.1.1,34.02,33.39h-21.51c-3.96,0-7.18,3.22-7.18,7.18s3.22,7.18,7.18,7.18h21.6c1.48,0,2.68,1.2,2.68,2.68v14.31c0,1.11.9,2.01,2.01,2.01s2.01-.9,2.01-2.01v-3.01l3.32-3.83c1.8-2.07,2.79-4.73,2.79-7.47v-13.01h12.41v13.01c0,2.75.99,5.4,2.79,7.47l3.32,3.83v3.01c0,1.11.9,2.01,2.01,2.01s2.01-.9,2.01-2.01v-14.31c0-1.48,1.2-2.68,2.68-2.68h21.84c3.96,0,7.18-3.22,7.18-7.18s-3.22-7.18-7.18-7.18h-21.98l.39-.38,33.88-33.25.14.07c.9.41,1.93.51,2.9.26,1.68-.42,2.91-1.74,3.21-3.45.32-1.85.49-3.75.49-5.63,0-12.66-7.44-24.68-20.4-32.99Zm-72.11.97c5.12-2.58,10.42-4.55,15.75-5.87,11.03-2.73,22.33-2.76,33.6-.09,6.91,1.64,12.39,3.98,15.83,5.7l.46.23c.07.04.13.07.2.1l-9.84,18.59c-1.15-.29-2.29-.56-3.44-.8-2.09-.44-4.21-.8-6.3-1.09-1.26-.17-2.57-.33-3.87-.45-6.3-.6-12.76-.58-19.2.07-1.35.14-2.74.31-4.13.5-.47.07-.94.14-1.41.21-3.01.47-5.76,1.04-8.23,1.64l-9.82-18.55c.14-.07.27-.14.4-.21ZM5.28,49.13c-.08.1-.23.19-.48.05l-.09-.05-.02-.11c-.28-1.62-.43-3.28-.43-4.94,0-9.18,4.54-18.17,12.77-25.29,1.78-1.54,3.72-2.99,5.76-4.29.18-.11.37-.2.55-.31l9.36,17.69c-6,1.72-9.52,3.37-9.57,3.4l-.7.34c-7,3.39-12.76,7.93-17.15,13.52Zm38.27,48.22l-.3-.12c-.76-.29-1.56-.44-2.37-.44h-21.6c-.84,0-1.63-.33-2.23-.92-.6-.59-.92-1.38-.92-2.23,0-1.74,1.41-3.15,3.15-3.15h24.28v6.85Zm6.1,6.16c0,1.7-.6,3.37-1.68,4.68l-.4.49v-18.18h2.08v13.01Zm3.74-33.15c3.08-3.65,8.54-4.11,12.19-1.04s4.11,8.54,1.04,12.19-8.54,4.11-12.19,1.04-4.11-8.54-1.04-12.19Zm18.8,38.32l-.4-.49c-1.08-1.32-1.68-2.98-1.68-4.68v-13.01h2.08v18.18Zm28.55-18.18c.84,0,1.63.33,2.23.92.6.6.92,1.39.92,2.23,0,1.74-1.41,3.15-3.15,3.15h-21.84c-.81,0-1.61.15-2.37.44l-.3.12v-6.85h24.52Zm9.3-40.37l-37.13,36.44-6.03-.02c1.02-.66,1.97-1.48,2.79-2.46,4.5-5.33,3.82-13.33-1.51-17.83-5.33-4.5-13.33-3.82-17.83,1.51-4.5,5.33-3.82,13.33,1.51,17.83.39.33.79.62,1.21.89l-6.53-.03-.07-.06L9.59,50.23l.14-.16c3.79-4.36,8.6-7.98,14.3-10.76l.21-.1c.2-.1.39-.19.57-.28,6.54-2.71,13.4-4.64,20.41-5.74.53-.07,1.05-.14,1.59-.21l.56-.07c7.05-.81,14.21-.94,21.28-.36.02,0,1.44.15,3.48.43,2.33.31,4.6.66,6.76,1.04,9.91,1.99,16.2,4.86,16.26,4.89,5.93,2.77,10.94,6.44,14.88,10.9l.14.16-.15.15Zm5.32-1.33s-.08.28-.3.47c-.11.02-.23,0-.34-.14-4.54-5.77-10.55-10.44-17.87-13.86-1.81-.76-3.68-1.48-5.55-2.14-1.35-.47-2.72-.9-4.1-1.31l9.38-17.72c.3.19.51.32.6.38,11.8,7.56,18.56,18.35,18.56,29.61,0,1.58-.13,3.16-.39,4.71Z" fill="#fff"/>
  <rect x="-10" y="-10" width="140" height="140" fill="none"/>
</svg>