<?xml version="1.0" encoding="UTF-8"?>
<svg id="a" data-name="Layer 1" xmlns="http://www.w3.org/2000/svg" width="120" height="120" viewBox="0 0 120 120">
  <g>
    <path d="m119.99,80.37c-.23-4.46-.8-8.89-1.73-13.26l-.16-.6-1.91-7.15-.15-.57c-1.38-4.25-3.09-8.39-5.13-12.36-.72-1.41-1.97-2.48-3.48-2.96.32-1.55.02-3.17-.84-4.5-2.43-3.74-5.16-7.29-8.15-10.6l-.44-.44-5.21-5.21-.44-.44c-3.31-2.99-6.86-5.72-10.6-8.15-1.33-.86-2.95-1.16-4.5-.84-.48-1.51-1.55-2.76-2.96-3.48-3.98-2.04-8.11-3.75-12.36-5.13l-.57-.15-7.15-1.91-.6-.16c-4.37-.93-8.8-1.51-13.26-1.73-3.31-.17-6.14,2.38-6.3,5.7,0,.1,0,.2,0,.3v8.02c0,.39.04.78.11,1.16l2.57,26.94,3.99-.38-2.08-21.89c.36.09.72.14,1.09.16,3.15.18,6.28.58,9.36,1.22l1.48.4,3.89,1.03,1.7.45c2.95.97,5.83,2.16,8.6,3.55l-16.15,17.23,2.92,2.74,17.55-18.72c.47,1,1.2,1.86,2.13,2.47,2.63,1.74,5.13,3.66,7.48,5.76l5.18,5.18c2.1,2.35,4.03,4.85,5.76,7.48.61.93,1.46,1.66,2.47,2.13l-18.71,17.54,2.74,2.92,17.23-16.15c1.39,2.78,2.58,5.65,3.55,8.6l.45,1.7,1.03,3.89.4,1.48c.63,3.09,1.04,6.22,1.22,9.36.02.37.08.73.16,1.09l-21.89-2.08-.38,3.99,26.94,2.57c.38.07.77.11,1.16.11h8.02c3.32,0,6.01-2.69,6.01-6.01,0-.1,0-.2,0-.3Zm-50.71-57.29c-.53.92-1.69,1.26-2.63.78-2.99-1.51-6.09-2.79-9.27-3.84l-7.52-2c-3.28-.67-6.6-1.1-9.95-1.29-.86-.05-1.6-.65-1.82-1.48l-.07-.72v-7.81c0-1.11.9-2,2.01-2,.03,0,.07,0,.1,0,4.25.21,8.47.77,12.63,1.65l7.81,2.09.12.03c4.05,1.31,7.98,2.94,11.77,4.88.98.51,1.37,1.71.86,2.7-.02.03-.03.06-.05.09h0s0,0,0,0l-4,6.92Zm26.33,24.89h0c-.92.53-2.09.25-2.67-.63-1.84-2.79-3.89-5.45-6.12-7.95l-5.5-5.5c-2.5-2.23-5.15-4.28-7.95-6.12-.88-.58-1.16-1.75-.63-2.67l4-6.93c.55-.96,1.78-1.29,2.74-.73.03.02.06.03.09.05,3.57,2.32,6.94,4.91,10.1,7.76l5.72,5.72.09.09c2.85,3.16,5.44,6.53,7.76,10.1.6.93.34,2.17-.59,2.77-.03.02-.06.04-.09.05h0s-6.92,4-6.92,4h-.01Zm19.82,34.09c-.38.4-.9.63-1.45.62h-7.81l-.72-.07c-.84-.22-1.43-.96-1.48-1.82-.19-3.34-.62-6.67-1.29-9.95l-2-7.52c-1.05-3.18-2.33-6.28-3.84-9.27-.48-.95-.13-2.1.78-2.63l6.92-4h0s0,0,0,0h0c.96-.56,2.18-.23,2.74.73.02.03.03.06.05.09,1.94,3.79,3.57,7.72,4.88,11.77l2.12,7.93c.88,4.16,1.43,8.38,1.65,12.63.03.55-.17,1.09-.55,1.48Z" fill="#fff"/>
    <path d="m60.92,76.32l-9.23,9.18-5.17-1.52-.08-.06c-.49-.18-.95-.41-1.4-.65.58.12,1.19.18,1.81.18,4.94,0,8.96-4.02,8.96-8.96s-4.02-8.96-8.96-8.96-8.96,4.02-8.96,8.96c0,.57.06,1.12.16,1.66-.46-.76-.8-1.38-1-1.78l-1.72-5.85,9.18-9.23c1.97-1.98,2.03-5.15.16-7.21h0c-1.93-2.11-5.19-2.29-7.33-.39l-13.27,11.77c-1.19,1.05-1.64,2.7-1.15,4.21l4.67,14.54-.06.06-4.72,4.72h0s0,0,0,0L1.48,107.51c-.95.91-1.48,2.11-1.48,3.38,0,1.28.52,2.48,1.48,3.38.79.75,1.77,1.19,2.8,1.35.22.84.66,1.61,1.31,2.24,1,.95,2.31,1.42,3.62,1.42s2.62-.47,3.62-1.42l20.79-20.01h-.03s.02-.01.02-.01l4.54-4.54,14.37,4.61c1.51.48,3.16.03,4.21-1.15l11.77-13.27c1.9-2.14,1.72-5.41-.39-7.33-2.06-1.88-5.23-1.81-7.21.16Zm-14.08-6.79c2.74,0,4.96,2.23,4.96,4.96s-2.23,4.96-4.96,4.96-4.96-2.23-4.96-4.96,2.23-4.96,4.96-4.96Zm-18.18-4.8l11.32-10.04c.5-.45,1.27-.4,1.72.09.44.48.42,1.23-.04,1.69l-9.18,9.23c-1.03,1.04-1.41,2.55-1,3.95l1.97,6.69-2.7,2.7-3.24-10.1c-.48-1.51-.03-3.16,1.15-4.21ZM4.4,110.27l17.79-17.08-.21,2.21-16.39,15.71c-.21.2-.39.42-.56.65-.23,0-.45-.06-.63-.23-.18-.17-.28-.39-.28-.62s.1-.46.28-.63Zm5.52,4.84c-.39.37-1.02.37-1.4,0-.14-.13-.21-.3-.25-.48.15-.12.31-.22.45-.35l16.29-15.6,2.26-.22-17.36,16.66Zm23.2-22.42l-2,2h-5.18v-5.18l2-2,2.83-2.83,5.18-5.18,5.18,5.18-5.18,5.18-2.83,2.83Zm32.41-11.84l-10.04,11.32c-1.05,1.19-2.7,1.64-4.21,1.15l-9.93-3.19,2.7-2.7,6.52,1.92c1.4.41,2.92.03,3.95-1l9.23-9.18c.46-.46,1.21-.48,1.69-.04h0c.5.45.54,1.22.09,1.72Z" fill="#fff"/>
  </g>
  <rect x="-10" y="-10" width="140" height="140" fill="none"/>
</svg>