<svg width="33" height="32" viewBox="0 0 33 32" fill="none" xmlns="http://www.w3.org/2000/svg">
<g clip-path="url(#clip0_4986_20605)">
<path d="M29.453 28.8115H29.0118C28.8906 28.8115 28.7743 28.8597 28.6886 28.9454C28.6029 29.0311 28.5547 29.1474 28.5547 29.2687C28.5547 29.3899 28.6029 29.5062 28.6886 29.5919C28.7743 29.6776 28.8906 29.7258 29.0118 29.7258H29.453C29.5742 29.7258 29.6905 29.6776 29.7762 29.5919C29.862 29.5062 29.9101 29.3899 29.9101 29.2687C29.9101 29.1474 29.862 29.0311 29.7762 28.9454C29.6905 28.8597 29.5742 28.8115 29.453 28.8115Z" fill="#0D4C40"/>
<path d="M21.0295 22.1944V28.0002C21.0295 28.1214 21.0777 28.2377 21.1634 28.3234C21.2492 28.4091 21.3654 28.4573 21.4867 28.4573C21.6079 28.4573 21.7242 28.4091 21.8099 28.3234C21.8957 28.2377 21.9438 28.1214 21.9438 28.0002V22.1944C21.9438 22.0732 21.8957 21.9569 21.8099 21.8712C21.7242 21.7855 21.6079 21.7373 21.4867 21.7373C21.3654 21.7373 21.2492 21.7855 21.1634 21.8712C21.0777 21.9569 21.0295 22.0732 21.0295 22.1944Z" fill="#0D4C40"/>
<path d="M28.4508 27.1767C28.4083 27.1339 28.3578 27.0999 28.3021 27.0767C28.2464 27.0535 28.1866 27.0415 28.1263 27.0415C28.0659 27.0415 28.0062 27.0535 27.9505 27.0767C27.8948 27.0999 27.8442 27.1339 27.8017 27.1767L26.7526 28.2259L21.8954 19.3185C21.8548 19.248 21.796 19.1897 21.7253 19.1495C21.6546 19.1093 21.5744 19.0888 21.4931 19.0899H9.98684C9.90551 19.0888 9.82536 19.1093 9.75464 19.1495C9.68393 19.1897 9.62521 19.248 9.58455 19.3185L4.72512 28.2327L3.67598 27.1836C3.63321 27.141 3.58246 27.1072 3.52663 27.0842C3.4708 27.0612 3.41099 27.0494 3.3506 27.0495C3.29022 27.0496 3.23045 27.0616 3.1747 27.0848C3.11895 27.108 3.06832 27.142 3.0257 27.1847C2.98307 27.2275 2.94929 27.2783 2.92628 27.3341C2.90327 27.3899 2.89148 27.4497 2.89159 27.5101C2.8917 27.5705 2.90369 27.6303 2.9269 27.686C2.95011 27.7418 2.98407 27.7924 3.02684 27.835L4.01198 28.8179H2.91027C2.78903 28.8179 2.67275 28.8661 2.58702 28.9518C2.50129 29.0375 2.45312 29.1538 2.45312 29.275C2.45312 29.3963 2.50129 29.5126 2.58702 29.5983C2.67275 29.684 2.78903 29.7322 2.91027 29.7322H27.6828C27.8041 29.7322 27.9204 29.684 28.0061 29.5983C28.0918 29.5126 28.14 29.3963 28.14 29.275C28.14 29.1538 28.0918 29.0375 28.0061 28.9518C27.9204 28.8661 27.8041 28.8179 27.6828 28.8179H27.4657L28.4508 27.835C28.4951 27.7924 28.5303 27.7413 28.5543 27.6847C28.5783 27.6282 28.5907 27.5673 28.5907 27.5059C28.5907 27.4444 28.5783 27.3836 28.5543 27.3271C28.5303 27.2705 28.4951 27.2194 28.4508 27.1767ZM5.45427 28.811L10.2543 19.9996H20.716L15.916 28.811H5.45427ZM16.956 28.811L21.4908 20.4979L26.0234 28.811H16.956Z" fill="#0D4C40"/>
<path d="M6.50438 15.1314H12.2575C12.8255 15.1317 13.3722 14.915 13.7858 14.5257C14.1994 14.1364 14.4488 13.6038 14.4829 13.0368C14.5171 12.4698 14.3334 11.9112 13.9695 11.4751C13.6056 11.039 13.0889 10.7582 12.525 10.6903C12.3242 10.1204 11.9725 9.61578 11.5075 9.23014C11.0424 8.8445 10.4813 8.59236 9.88414 8.50062C9.28697 8.40887 8.6761 8.48096 8.1167 8.70921C7.55729 8.93745 7.07035 9.31327 6.70781 9.79659H6.50209C6.14478 9.78613 5.789 9.84748 5.45582 9.977C5.12264 10.1065 4.81883 10.3016 4.5624 10.5506C4.30596 10.7997 4.1021 11.0976 3.96289 11.4269C3.82368 11.7561 3.75195 12.11 3.75195 12.4674C3.75195 12.8249 3.82368 13.1787 3.96289 13.508C4.1021 13.8372 4.30596 14.1352 4.5624 14.3843C4.81883 14.6333 5.12264 14.8284 5.45582 14.9579C5.789 15.0874 6.14478 15.1488 6.50209 15.1383L6.50438 15.1314ZM6.50438 10.7086C6.61788 10.7089 6.73111 10.7196 6.84267 10.7406C6.93458 10.759 7.02993 10.7487 7.11579 10.7111C7.20165 10.6734 7.27387 10.6103 7.32267 10.5303C7.57327 10.123 7.93913 9.79915 8.37391 9.5999C8.80869 9.40065 9.29283 9.33492 9.76499 9.41105C10.2372 9.48717 10.6761 9.70172 11.0262 10.0275C11.3764 10.3533 11.6219 10.7757 11.7318 11.2412C11.7555 11.3439 11.8139 11.4352 11.8972 11.4998C11.9805 11.5643 12.0836 11.5981 12.189 11.5954H12.2438C12.5912 11.5954 12.9243 11.7334 13.1699 11.9791C13.4155 12.2247 13.5535 12.5578 13.5535 12.9052C13.5535 13.2525 13.4155 13.5856 13.1699 13.8313C12.9243 14.0769 12.5912 14.2149 12.2438 14.2149H6.50438C6.26898 14.2234 6.03428 14.1844 5.8143 14.1001C5.59431 14.0159 5.39355 13.8882 5.22401 13.7247C5.05447 13.5612 4.91962 13.3652 4.82752 13.1484C4.73541 12.9316 4.68795 12.6984 4.68795 12.4629C4.68795 12.2273 4.73541 11.9942 4.82752 11.7774C4.91962 11.5606 5.05447 11.3646 5.22401 11.201C5.39355 11.0375 5.59431 10.9098 5.8143 10.8256C6.03428 10.7414 6.26898 10.7024 6.50438 10.7109V10.7086Z" fill="#0D4C40"/>
<path d="M24.5857 10.2649C25.1144 10.2653 25.6313 10.109 26.0711 9.81554C26.5108 9.52211 26.8537 9.10482 27.0562 8.61648C27.2587 8.12815 27.3118 7.59071 27.2088 7.07218C27.1058 6.55365 26.8512 6.07733 26.4774 5.70351C26.1036 5.32969 25.6273 5.07516 25.1087 4.97213C24.5902 4.8691 24.0528 4.92221 23.5644 5.12473C23.0761 5.32725 22.6588 5.67008 22.3654 6.10984C22.0719 6.5496 21.9156 7.06652 21.916 7.59518C21.9172 8.30286 22.1989 8.98122 22.6993 9.48162C23.1997 9.98203 23.878 10.2637 24.5857 10.2649ZM24.5857 5.84204C24.9326 5.84159 25.2717 5.94402 25.5603 6.13639C25.8489 6.32875 26.074 6.6024 26.2071 6.9227C26.3401 7.243 26.3751 7.59558 26.3078 7.9358C26.2404 8.27603 26.0736 8.58862 25.8285 8.83403C25.5834 9.07944 25.271 9.24664 24.9309 9.31447C24.5907 9.3823 24.2381 9.34772 23.9176 9.21509C23.5972 9.08247 23.3232 8.85777 23.1305 8.56941C22.9378 8.28106 22.8349 7.94202 22.8349 7.59518C22.8355 7.1308 23.0201 6.68558 23.3482 6.357C23.6764 6.02842 24.1213 5.84325 24.5857 5.84204Z" fill="#0D4C40"/>
<path d="M24.5863 4.51396C24.7075 4.51396 24.8238 4.4658 24.9095 4.38007C24.9953 4.29434 25.0434 4.17806 25.0434 4.05682V3.61339C25.0434 3.49215 24.9953 3.37587 24.9095 3.29014C24.8238 3.20441 24.7075 3.15625 24.5863 3.15625C24.4651 3.15625 24.3488 3.20441 24.2631 3.29014C24.1773 3.37587 24.1292 3.49215 24.1292 3.61339V4.05454C24.1289 4.11476 24.1405 4.17445 24.1633 4.23018C24.1861 4.28591 24.2198 4.33657 24.2622 4.37926C24.3047 4.42196 24.3552 4.45583 24.4108 4.47895C24.4664 4.50207 24.5261 4.51397 24.5863 4.51396Z" fill="#0D4C40"/>
<path d="M24.127 11.1339V11.5773C24.127 11.6986 24.1751 11.8148 24.2608 11.9006C24.3466 11.9863 24.4629 12.0345 24.5841 12.0345C24.7053 12.0345 24.8216 11.9863 24.9073 11.9006C24.9931 11.8148 25.0412 11.6986 25.0412 11.5773V11.1339C25.0412 11.0127 24.9931 10.8964 24.9073 10.8107C24.8216 10.7249 24.7053 10.6768 24.5841 10.6768C24.4629 10.6768 24.3466 10.7249 24.2608 10.8107C24.1751 10.8964 24.127 11.0127 24.127 11.1339Z" fill="#0D4C40"/>
<path d="M27.667 7.59581C27.667 7.71706 27.7152 7.83333 27.8009 7.91906C27.8866 8.00479 28.0029 8.05296 28.1241 8.05296H28.5653C28.6865 8.05296 28.8028 8.00479 28.8885 7.91906C28.9743 7.83333 29.0224 7.71706 29.0224 7.59581C29.0224 7.47457 28.9743 7.3583 28.8885 7.27257C28.8028 7.18684 28.6865 7.13867 28.5653 7.13867H28.1241C28.0029 7.13867 27.8866 7.18684 27.8009 7.27257C27.7152 7.3583 27.667 7.47457 27.667 7.59581Z" fill="#0D4C40"/>
<path d="M20.6046 8.05491H21.048C21.1693 8.05491 21.2855 8.00675 21.3713 7.92102C21.457 7.83529 21.5052 7.71901 21.5052 7.59777C21.5052 7.47653 21.457 7.36025 21.3713 7.27452C21.2855 7.18879 21.1693 7.14062 21.048 7.14062H20.6046C20.4834 7.14062 20.3671 7.18879 20.2814 7.27452C20.1956 7.36025 20.1475 7.47653 20.1475 7.59777C20.1475 7.71901 20.1956 7.83529 20.2814 7.92102C20.3671 8.00675 20.4834 8.05491 20.6046 8.05491Z" fill="#0D4C40"/>
<path d="M27.0892 5.5519C27.2102 5.55139 27.3261 5.50289 27.4115 5.41704L27.7246 5.1039C27.8107 5.01782 27.8591 4.90106 27.8591 4.77933C27.8591 4.65759 27.8107 4.54084 27.7246 4.45475C27.6385 4.36867 27.5218 4.32031 27.4 4.32031C27.2783 4.32031 27.1616 4.36867 27.0755 4.45475L26.7623 4.7679C26.6971 4.83171 26.6524 4.9136 26.6341 5.00302C26.6157 5.09244 26.6246 5.1853 26.6595 5.26964C26.6944 5.35398 26.7538 5.42594 26.83 5.47624C26.9061 5.52655 26.9956 5.5529 27.0869 5.5519H27.0892Z" fill="#0D4C40"/>
<path d="M21.7584 9.77161L21.4384 10.0848C21.373 10.1487 21.3282 10.2308 21.31 10.3204C21.2917 10.4101 21.3008 10.5031 21.336 10.5876C21.3712 10.672 21.4309 10.744 21.5074 10.7941C21.584 10.8442 21.6738 10.8702 21.7652 10.8688C21.8261 10.8709 21.8867 10.8609 21.9436 10.8393C22.0005 10.8177 22.0526 10.785 22.0967 10.743L22.4098 10.4299C22.4526 10.3871 22.4865 10.3363 22.5097 10.2805C22.5328 10.2246 22.5447 10.1647 22.5447 10.1042C22.5447 10.0437 22.5328 9.9838 22.5097 9.92791C22.4865 9.87202 22.4526 9.82124 22.4098 9.77847C22.367 9.7357 22.3163 9.70177 22.2604 9.67862C22.2045 9.65547 22.1446 9.64355 22.0841 9.64355C22.0236 9.64355 21.9637 9.65547 21.9078 9.67862C21.8519 9.70177 21.8012 9.7357 21.7584 9.77847V9.77161Z" fill="#0D4C40"/>
<path d="M27.4132 9.77171C27.3712 9.72834 27.321 9.69367 27.2656 9.66968C27.2102 9.64569 27.1506 9.63285 27.0902 9.63189C27.0298 9.63094 26.9698 9.64189 26.9137 9.66411C26.8575 9.68634 26.8063 9.71941 26.7629 9.76143C26.7196 9.80345 26.6849 9.85361 26.6609 9.90903C26.6369 9.96445 26.6241 10.0241 26.6231 10.0844C26.6221 10.1448 26.6331 10.2048 26.6553 10.261C26.6775 10.3171 26.7106 10.3683 26.7526 10.4117L27.0772 10.7431C27.1197 10.786 27.1703 10.82 27.226 10.8432C27.2817 10.8664 27.3414 10.8784 27.4018 10.8784C27.4621 10.8784 27.5219 10.8664 27.5776 10.8432C27.6333 10.82 27.6839 10.786 27.7264 10.7431C27.7692 10.7006 27.8032 10.6501 27.8264 10.5944C27.8496 10.5387 27.8616 10.4789 27.8616 10.4186C27.8616 10.3582 27.8496 10.2985 27.8264 10.2428C27.8032 10.1871 27.7692 10.1365 27.7264 10.094L27.4132 9.77171Z" fill="#0D4C40"/>
<path d="M21.7586 5.4175C21.8015 5.46194 21.8531 5.49721 21.91 5.52117C21.967 5.54514 22.0282 5.5573 22.09 5.55693C22.2113 5.55693 22.3275 5.50877 22.4133 5.42304C22.499 5.33731 22.5472 5.22103 22.5472 5.09979C22.5484 5.03902 22.5375 4.97861 22.5152 4.9221C22.4928 4.86558 22.4594 4.81409 22.4169 4.77065L22.0946 4.44836C22.0515 4.40529 22.0004 4.37112 21.9441 4.34781C21.8878 4.3245 21.8275 4.3125 21.7666 4.3125C21.7057 4.3125 21.6454 4.3245 21.5891 4.34781C21.5328 4.37112 21.4817 4.40529 21.4386 4.44836C21.3955 4.49144 21.3614 4.54257 21.338 4.59885C21.3147 4.65513 21.3027 4.71545 21.3027 4.77636C21.3027 4.83728 21.3147 4.8976 21.338 4.95387C21.3614 5.01015 21.3955 5.06129 21.4386 5.10436L21.7586 5.4175Z" fill="#0D4C40"/>
</g>
<defs>
<clipPath id="clip0_4986_20605">
<rect width="32" height="32" fill="white" transform="translate(0.181641)"/>
</clipPath>
</defs>
</svg>
