<?xml version="1.0" encoding="UTF-8"?>
<svg id="a" data-name="Layer 1" xmlns="http://www.w3.org/2000/svg" width="120" height="120" viewBox="0 0 120 120">
  <g>
    <path d="m117.96,67.78l-31.07-3.45c-3.25-.36-6.51-.54-9.78-.54h-13.39c-2.8,0-5.54.76-7.94,2.2l-2.67,1.6,10.31-10.35s0,0,0,0c1.62.77,3.5.76,5.12,0,2.98-1.42,4.24-4.98,2.82-7.96,0,0,0,0,0,0l1.19-1.2s0,0,0,0l6.87,1.72c.68.17,1.4-.03,1.89-.52l11.94-11.94c.78-.78.78-2.04,0-2.82l-9.96-9.96c-.78-.78-2.04-.78-2.82,0l-11.95,11.95c-.49.5-.69,1.21-.52,1.89l1.72,6.87s0,0,0,0l-1.19,1.19s0,0,0,0c-2.39-1.14-5.25-.57-7.02,1.4,0,0,0,0,0,0l-5.73,2.86s0,0,0,0c-.37-1.62-1.18-3.1-2.36-4.27-.43-.43-.9-.81-1.41-1.14,0,0,0,0,0,0h0s-.14-.46-1.63-.86c-.04-.01-.09-.02-.14-.03,3.2-1.84,5.37-5.29,5.37-9.25,0-5.88-4.79-10.67-10.67-10.67s-10.67,4.79-10.67,10.67c0,3.64,1.84,6.86,4.63,8.79-.21,0-.42.02-.64.03-2.38.38-4.48,1.78-5.76,3.83l-8.07,12.92c-.55.88-.33,2.03.49,2.65l1.51,1.13s-.03,0-.04,0l-24.43,3.26c-.59.08-1.11.42-1.43.92-.31.5-.39,1.12-.2,1.68,1.09,3.26,2.76,6.28,4.91,8.94.73.9,2.07.98,2.91.18.76-.72.82-1.89.16-2.7-1.34-1.65-2.46-3.46-3.33-5.41,0,0,0,0,0,0l21.92-2.92c1.95-.26,3.93,0,5.75.72,0,0,0,0,0,0l7.54,5.66s0,0,0,0l-.16.16c-.78.78-.77,2.04,0,2.82.78.78,2.04.77,2.82,0l.65-.66s0,0,0,0c.5.23,1.04.4,1.59.48,3.26.51,6.31-1.72,6.82-4.98,0,0,0,0,0,0,.79-.31,1.56-.69,2.29-1.13l3.58-2.15c1.78-1.07,3.81-1.63,5.88-1.63h4.25s0,0,0,0v7.96h0c0,1.1.89,1.99,1.99,1.99h25.89c.45,0,.89-.15,1.24-.44l8.58-6.87s0,0,0,0l9.34,1.04s0,0,0,0c-.86,2.09-2.02,4.05-3.42,5.82-.65.82-.56,1.99.2,2.7.85.78,2.19.69,2.91-.21,2.06-2.59,3.65-5.53,4.7-8.68l.23-.7c.04-.13.07-.27.09-.41.12-1.09-.67-2.08-1.76-2.2Zm-45.8-29.27l9.74-9.74s0,0,0,0l7.14,7.14s0,0,0,0l-9.74,9.74s0,0,0,0l-5.71-1.43s0,0,0,0l-1.43-5.71s0,0,0,0Zm-6.19,11.34c1.1,0,1.99.89,1.99,1.99s-.89,1.99-1.99,1.99c-1.1,0-1.99-.89-1.99-1.99,0-1.1.89-1.99,1.99-1.99Zm-9.96,5.21s0,0,0,0l4.1-2.05s0,0,0,0c.1.49.26.97.48,1.42,0,0,0,0,0,0l-4.57,4.59s0,0,0,0v-3.97Zm-11.05-26.56c3.68,0,6.67,2.99,6.67,6.67s-2.99,6.67-6.67,6.67-6.67-2.99-6.67-6.67,2.99-6.67,6.67-6.67Zm1.09,45.24c-1.1,0-1.99-.89-1.99-1.99,0-1.1.89-1.99,1.99-1.99s1.99.89,1.99,1.99-.89,1.99-1.99,1.99Zm5.97-10.72s0,0,0,0l-3.35,3.36s0,0,0,0c-.75-.37-1.58-.58-2.42-.6,0,0,0,0,0,0l-4.92-3.94h0s1.75-1.32,1.75-1.32c.88-.66,1.06-1.91.4-2.79-.66-.88-1.91-1.06-2.79-.4l-3.81,2.86c-.13.1-.25.22-.36.35-.69.86-.55,2.11.31,2.8l5.09,4.07s0,0,0,0c-.73.7-1.28,1.57-1.58,2.54,0,0,0,0,0,0l-11.55-8.66s0,0,0,0l7.1-11.37c1.58-3.7,11.32-2.08,11.32-2.08,2.65,0,4.8,2.15,4.81,4.81v10.36Zm25.88,10.72s0,0,0,0h-5.97s0,0,0,0v-5.97s0,0,0,0h5.97s0,0,0,0v5.97Zm9.96,0s0,0,0,0h-5.97s0,0,0,0v-5.83s0,0,0,0c1.52.09,3.04.21,4.54.38l1.43.16s0,0,0,0v5.29Zm7.27,0s0,0,0,0h-3.28s0,0,0,0v-4.85s0,0,0,0l8.21.91s0,0,0,0l-4.93,3.94Z" fill="#fff"/>
    <path d="m118.04,86.5c-5.38-2.48-21-7.99-39.58.93l-.1.05c-.18.1-18.49,9.91-36.61.23-.08-.04-.14-.08-.21-.13-2.08-1.43-17.21-10.89-39.51-1.02-1.04.46-1.5,1.69-1,2.71.47.97,1.62,1.39,2.6.96,21.46-9.49,35.62.62,35.77.73l.23.15c6.81,3.7,13.57,4.94,19.57,4.94,11.46,0,20.14-4.53,21.06-5.03,17-8.14,31.47-2.99,36.15-.85.93.42,2.02.07,2.54-.81h0c.6-1.03.19-2.35-.89-2.85Z" fill="#fff"/>
  </g>
  <rect x="-10" y="-10" width="140" height="140" fill="none"/>
</svg>