<svg width="16" height="17" viewBox="0 0 16 17" fill="none" xmlns="http://www.w3.org/2000/svg">
<g clip-path="url(#clip0_5032_20733)">
<path d="M7.95774 5.43535C8.59202 5.43535 8.9726 5.77821 8.9726 6.34964C8.9726 7.38621 7.12231 7.67192 7.12231 8.93021C7.12231 9.27307 7.34402 9.63764 7.79888 9.63764C8.49717 9.63764 8.4126 9.11992 8.66631 8.74964C9.00917 8.2525 10.5806 7.72107 10.5806 6.34964C10.5806 4.86392 9.24917 4.23535 7.89488 4.23535C6.60459 4.23535 5.42059 5.15535 5.42059 6.19192C5.42059 6.61478 5.73717 6.8365 6.10631 6.8365C7.13259 6.83078 6.60459 5.43535 7.95774 5.43535Z" fill="#D33731"/>
<path d="M8.70861 11.1887C8.70861 11.0172 8.65774 10.8494 8.56242 10.7068C8.46711 10.5642 8.33164 10.453 8.17313 10.3873C8.01463 10.3217 7.84022 10.3045 7.67196 10.338C7.50369 10.3714 7.34913 10.454 7.22782 10.5754C7.10651 10.6967 7.02389 10.8512 6.99042 11.0195C6.95695 11.1878 6.97413 11.3622 7.03978 11.5207C7.10544 11.6792 7.21662 11.8146 7.35927 11.91C7.50191 12.0053 7.66962 12.0561 7.84118 12.0561C8.07096 12.0552 8.29107 11.9636 8.45355 11.8011C8.61603 11.6386 8.70771 11.4185 8.70861 11.1887Z" fill="#D33731"/>
<path d="M14.8572 8.14328C14.8572 6.78706 14.455 5.46131 13.7015 4.33365C12.9481 3.206 11.8771 2.32711 10.6241 1.8081C9.37116 1.2891 7.99242 1.15331 6.66227 1.41789C5.33211 1.68248 4.11029 2.33556 3.1513 3.29455C2.19231 4.25354 1.53923 5.47536 1.27464 6.80552C1.01006 8.13567 1.14585 9.51441 1.66486 10.7674C2.18386 12.0204 3.06275 13.0913 4.1904 13.8448C5.31806 14.5983 6.64381 15.0004 8.00003 15.0004C9.81801 14.9983 11.5609 14.2752 12.8464 12.9897C14.1319 11.7042 14.8551 9.96126 14.8572 8.14328V8.14328ZM1.8286 8.14328C1.8286 6.92269 2.19055 5.7295 2.86867 4.71462C3.5468 3.69973 4.51064 2.90872 5.63832 2.44162C6.76601 1.97452 8.00687 1.85231 9.20401 2.09043C10.4012 2.32856 11.5008 2.91633 12.3639 3.77942C13.227 4.64251 13.8147 5.74215 14.0529 6.93929C14.291 8.13643 14.1688 9.3773 13.7017 10.505C13.2346 11.6327 12.4436 12.5965 11.4287 13.2746C10.4138 13.9528 9.22062 14.3147 8.00003 14.3147C6.3641 14.312 4.79595 13.6609 3.63917 12.5041C2.4824 11.3474 1.83132 9.77921 1.8286 8.14328V8.14328Z" fill="#D33731"/>
</g>
<defs>
<clipPath id="clip0_5032_20733">
<rect width="16" height="16" fill="white" transform="translate(0 0.143555)"/>
</clipPath>
</defs>
</svg>
