<svg width="33" height="33" viewBox="0 0 33 33" fill="none" xmlns="http://www.w3.org/2000/svg">
<g clip-path="url(#clip0_4986_20470)">
<path d="M12.7524 12.7918C12.2697 12.7931 11.7975 12.6512 11.3955 12.3841C10.9936 12.1169 10.6799 11.7365 10.4943 11.291C10.3086 10.8455 10.2593 10.3549 10.3527 9.88133C10.446 9.40779 10.6777 8.97258 11.0185 8.63082C11.3593 8.28905 11.7939 8.05609 12.2672 7.96143C12.7405 7.86677 13.2312 7.91466 13.6772 8.09905C14.1233 8.28344 14.5046 8.59603 14.7729 8.99724C15.0411 9.39846 15.1844 9.87026 15.1844 10.3529C15.1844 10.9985 14.9283 11.6178 14.4725 12.075C14.0166 12.5322 13.398 12.79 12.7524 12.7918ZM12.7524 8.82834C12.4508 8.82834 12.1561 8.91775 11.9053 9.08528C11.6546 9.2528 11.4592 9.4909 11.3438 9.76948C11.2284 10.0481 11.1983 10.3546 11.2571 10.6503C11.3159 10.9461 11.4611 11.2177 11.6743 11.4309C11.8875 11.6442 12.1592 11.7894 12.4549 11.8482C12.7507 11.907 13.0572 11.8768 13.3358 11.7614C13.6144 11.646 13.8525 11.4506 14.02 11.1999C14.1875 10.9492 14.2769 10.6544 14.2769 10.3529C14.2769 9.94857 14.1163 9.56079 13.8304 9.27488C13.5445 8.98896 13.1567 8.82834 12.7524 8.82834Z" fill="#0D4C40"/>
<path d="M2.55146 18.4037C2.79913 19.147 3.17936 19.8393 3.67375 20.4471C3.70903 20.5004 3.75509 20.5457 3.80897 20.5801C3.86285 20.6145 3.92335 20.6372 3.98656 20.6468C4.04976 20.6564 4.11427 20.6526 4.17592 20.6357C4.23757 20.6188 4.29499 20.5891 4.34447 20.5486C4.39394 20.5082 4.43438 20.4577 4.46316 20.4007C4.49195 20.3436 4.50844 20.2811 4.51158 20.2173C4.51472 20.1534 4.50443 20.0896 4.48137 20.03C4.45832 19.9704 4.42302 19.9162 4.37775 19.8711C4.0685 19.4953 3.81027 19.0803 3.60975 18.6368L8.63832 17.9671C9.08328 17.9078 9.536 17.9645 9.95261 18.1317L11.676 19.4254L11.6395 19.4619C11.5649 19.5497 11.5261 19.6623 11.531 19.7773C11.5358 19.8924 11.5839 20.0014 11.6656 20.0825C11.7473 20.1636 11.8566 20.2109 11.9717 20.215C12.0868 20.219 12.1991 20.1794 12.2863 20.1042L12.4349 19.9557C12.5506 20.0083 12.6728 20.0452 12.7983 20.0654C13.156 20.1186 13.5203 20.0284 13.8118 19.8144C14.1034 19.6003 14.2986 19.2798 14.3549 18.9225C14.537 18.8513 14.7129 18.7649 14.8806 18.6642L15.6966 18.1728C16.1036 17.9296 16.5688 17.8008 17.0429 17.8002H18.0097V19.6288C18.0097 19.75 18.0579 19.8663 18.1436 19.9521C18.2294 20.0378 18.3456 20.0859 18.4669 20.0859H24.3823C24.4862 20.0859 24.587 20.0504 24.668 19.9854L26.6292 18.4174L28.764 18.6459C28.5666 19.1236 28.3035 19.5713 27.9823 19.9762C27.9216 20.0714 27.8983 20.1857 27.9168 20.2971C27.9354 20.4085 27.9945 20.509 28.0827 20.5794C28.171 20.6498 28.2822 20.6851 28.3949 20.6783C28.5076 20.6716 28.6139 20.6235 28.6932 20.5431C29.1645 19.9505 29.5282 19.2797 29.7675 18.5614L29.82 18.3991C29.8315 18.369 29.8384 18.3375 29.8406 18.3054C29.8515 18.1866 29.8156 18.0682 29.7404 17.9755C29.6653 17.8828 29.5568 17.8232 29.4383 17.8094L22.3275 17.0185C21.5852 16.9363 20.8389 16.8951 20.092 16.8951H17.0315C16.3917 16.8964 15.7643 17.0718 15.2166 17.4025L14.6063 17.7705L16.9629 15.4002C17.2183 15.5178 17.5037 15.554 17.7803 15.504C18.057 15.4539 18.3116 15.3201 18.5097 15.1205C18.7077 14.921 18.8397 14.6653 18.8876 14.3883C18.9356 14.1113 18.8972 13.8262 18.7777 13.5717L19.052 13.2997L20.6223 13.6905C20.6985 13.7094 20.7782 13.7085 20.8539 13.6876C20.9295 13.6668 20.9986 13.6269 21.0543 13.5717L23.7972 10.8402C23.8816 10.7547 23.929 10.6393 23.929 10.5191C23.929 10.3989 23.8816 10.2835 23.7972 10.1979L21.5115 7.91223C21.4258 7.82709 21.3099 7.7793 21.1892 7.7793C21.0684 7.7793 20.9525 7.82709 20.8669 7.91223L18.1377 10.6551C18.0805 10.7101 18.0386 10.7791 18.0162 10.8553C17.9938 10.9314 17.9915 11.0121 18.0097 11.0894L18.4029 12.6597L18.1309 12.9317C17.8649 12.8069 17.5658 12.7709 17.2777 12.8289C16.9897 12.8869 16.7279 13.0359 16.5309 13.2539L15.2212 13.9077C15.1377 13.5377 14.9506 13.1992 14.6817 12.9317C14.5812 12.8338 14.4709 12.7465 14.3526 12.6711C14.3526 12.6711 14.3206 12.5659 13.98 12.4745C13.5829 12.7008 13.1299 12.8102 12.6732 12.79C12.2166 12.7697 11.775 12.6208 11.3995 12.3602H11.2097C10.9407 12.4042 10.6842 12.5053 10.4575 12.6567C10.2308 12.8081 10.0391 13.0063 9.89546 13.2379L8.05775 16.1979C7.99781 16.295 7.9763 16.4109 7.99745 16.523C8.01859 16.635 8.08086 16.7351 8.17203 16.8037L8.51718 17.0642L2.92404 17.8094C2.85785 17.8186 2.79449 17.8422 2.73842 17.8785C2.68234 17.9148 2.63491 17.963 2.59946 18.0197C2.56387 18.0763 2.54112 18.14 2.53283 18.2063C2.52453 18.2727 2.5309 18.34 2.55146 18.4037ZM18.9606 11.1191L21.1869 8.89052L22.8097 10.5225L20.5926 12.7511L19.2875 12.4242L18.9606 11.1191ZM17.0955 14.1637C17.0955 14.0732 17.1223 13.9849 17.1725 13.9097C17.2227 13.8345 17.2941 13.7759 17.3777 13.7413C17.4612 13.7067 17.5531 13.6977 17.6418 13.7153C17.7305 13.7329 17.8119 13.7765 17.8759 13.8404C17.9398 13.9043 17.9833 13.9858 18.001 14.0745C18.0186 14.1632 18.0095 14.2551 17.9749 14.3386C17.9403 14.4221 17.8818 14.4935 17.8066 14.5438C17.7314 14.594 17.643 14.6208 17.5526 14.6208C17.4314 14.6208 17.3151 14.5726 17.2294 14.4869C17.1436 14.4012 17.0955 14.2849 17.0955 14.1637ZM15.2669 14.9019L16.204 14.4448C16.226 14.5571 16.2621 14.6662 16.3115 14.7694L15.2669 15.8025V14.9019ZM23.4589 18.0608L25.3355 18.2688L24.2086 19.1694H23.4589V18.0608ZM21.1732 17.8322C21.5206 17.8528 21.8589 17.8802 22.2132 17.9191L22.5377 17.9557V19.1671H21.1663L21.1732 17.8322ZM18.8875 17.8002H20.2589V19.1717H18.924L18.8875 17.8002ZM12.5149 18.7145C12.5149 18.6241 12.5417 18.5357 12.5919 18.4605C12.6422 18.3854 12.7136 18.3268 12.7971 18.2922C12.8806 18.2576 12.9725 18.2485 13.0612 18.2662C13.1499 18.2838 13.2313 18.3273 13.2953 18.3913C13.3592 18.4552 13.4028 18.5367 13.4204 18.6253C13.438 18.714 13.429 18.8059 13.3944 18.8895C13.3598 18.973 13.3012 19.0444 13.226 19.0946C13.1508 19.1448 13.0624 19.1717 12.972 19.1717C12.8556 19.1652 12.746 19.1146 12.6657 19.03C12.5854 18.9455 12.5404 18.8334 12.54 18.7168L12.5149 18.7145ZM9.05203 16.3259L10.6749 13.7294C11.036 12.8837 13.2623 13.2539 13.2623 13.2539C13.5521 13.257 13.8291 13.374 14.0332 13.5798C14.2373 13.7856 14.352 14.0635 14.3526 14.3534V16.7168L13.5892 17.4848C13.4177 17.3996 13.2297 17.3528 13.0383 17.3477L11.9137 16.4471L12.3137 16.1454C12.4094 16.0727 12.4727 15.9653 12.4898 15.8464C12.5069 15.7275 12.4765 15.6066 12.4052 15.5099C12.3325 15.4136 12.2246 15.3499 12.1052 15.3328C11.9857 15.3157 11.8643 15.3465 11.7675 15.4185L10.9012 16.0768C10.871 16.0997 10.8435 16.1257 10.8189 16.1545C10.7432 16.2491 10.7081 16.3699 10.7214 16.4903C10.7347 16.6108 10.7952 16.721 10.8897 16.7968L12.0669 17.7271C11.8931 17.888 11.764 18.0912 11.692 18.3168L9.05203 16.3259Z" fill="#0D4C40"/>
<path d="M12.8872 12.3438H12.1375C12.4224 12.3346 12.6723 12.3346 12.8872 12.3438Z" fill="#0D4C40"/>
<path d="M11.4082 12.3607C11.6756 12.3607 11.9179 12.3402 12.1396 12.3379H12.8893C13.2602 12.3423 13.6294 12.386 13.9911 12.4682C13.5939 12.6945 13.1409 12.8038 12.6843 12.7836C12.2276 12.7634 11.786 12.6144 11.4105 12.3539L11.4082 12.3607Z" fill="#0D4C40"/>
<path d="M2.92365 22.102C8.02079 19.8437 11.4814 22.0083 11.9545 22.3306L12.0048 22.3603C16.1465 24.5729 20.3316 22.3306 20.3728 22.3077H20.3956C24.6379 20.262 28.2196 21.5168 29.4379 22.0883C29.4965 22.1147 29.5489 22.1532 29.5916 22.2012C29.6343 22.2492 29.6664 22.3057 29.6858 22.3669C29.7052 22.4282 29.7115 22.4928 29.7042 22.5567C29.697 22.6205 29.6763 22.6821 29.6436 22.7374C29.5866 22.8343 29.4958 22.9067 29.3887 22.9408C29.2816 22.975 29.1657 22.9685 29.0631 22.9226C27.7547 22.3514 26.3374 22.0728 24.9102 22.1064C23.483 22.1399 22.0803 22.4848 20.8002 23.1169C19.3054 23.8645 17.6578 24.2556 15.9865 24.2597C14.4249 24.2661 12.887 23.8777 11.5156 23.1306L11.4631 23.0986C11.4288 23.0734 8.18994 20.7603 3.28708 22.9317C3.18079 22.9619 3.06717 22.9525 2.96723 22.9054C2.8673 22.8583 2.78782 22.7766 2.74349 22.6754C2.69916 22.5742 2.69298 22.4603 2.7261 22.3549C2.75922 22.2495 2.8294 22.1597 2.92365 22.102Z" fill="#0D4C40"/>
</g>
<defs>
<clipPath id="clip0_4986_20470">
<rect width="32" height="32" fill="white" transform="translate(0.181641 0.03125)"/>
</clipPath>
</defs>
</svg>
