<?xml version="1.0" encoding="UTF-8"?>
<svg id="a" data-name="Layer 1" xmlns="http://www.w3.org/2000/svg" width="120" height="120" viewBox="0 0 120 120">
  <g>
    <path d="m60.05,77.77c-12.95,0-23.26-8.02-26.28-20.43-2.6-11.04.92-24.38,10.18-38.61C50.85,8.15,58.38.86,58.7.56c.77-.74,1.99-.74,2.76,0,.32.3,7.88,7.59,14.78,18.18,9.27,14.23,12.76,27.58,10.07,38.61-3,12.41-13.3,20.43-26.24,20.43h-.01Zm.03-72.94c-5.77,6.04-27.41,30.43-22.43,51.58,3.11,12.82,14.01,17.37,22.4,17.37h.01c8.38,0,19.27-4.56,22.37-17.38,5.15-21.14-16.57-45.53-22.35-51.57Z" fill="#fff"/>
    <path d="m60.1,63.43c-.9,0-1.8-.11-2.69-.34-3.84-.98-6.83-3.97-7.81-7.81-2.44-10.05,8.64-20.78,9.11-21.23.77-.74,1.99-.74,2.76,0,.47.45,11.54,11.2,9.11,21.21-.72,2.82-2.48,5.18-4.97,6.65-1.69,1.01-3.59,1.52-5.51,1.52Zm-.02-25.04c-2.65,2.97-8.06,9.95-6.61,15.92.61,2.4,2.5,4.29,4.93,4.91,3.65.93,7.38-1.28,8.31-4.93,1.44-5.94-3.97-12.92-6.62-15.9Z" fill="#fff"/>
    <path d="m81.04,100.19c-.85,0-1.64-.55-1.91-1.41-.32-1.05.27-2.17,1.32-2.49l24.43-7.47-2.39-7.82-41.83,12.79c-1.06.32-2.17-.27-2.49-1.32-.32-1.05.27-2.17,1.32-2.49l43.74-13.38c.51-.15,1.05-.1,1.52.15s.82.67.97,1.18l3.56,11.64c.32,1.05-.27,2.17-1.32,2.49l-26.33,8.06c-.19.06-.39.09-.58.09Z" fill="#fff"/>
    <path d="m16.17,119.98c-.32,0-.65-.08-.94-.23-.47-.25-.82-.67-.97-1.18l-3.53-11.64c-.32-1.05.27-2.17,1.33-2.49l26.73-8.16c1.05-.32,2.17.27,2.49,1.32.32,1.05-.27,2.17-1.33,2.49l-24.82,7.57,2.37,7.82,41.93-12.79c1.06-.32,2.17.27,2.49,1.32.32,1.05-.27,2.17-1.32,2.49l-43.84,13.38c-.19.06-.39.09-.58.09Z" fill="#fff"/>
    <path d="m103.82,119.99c-.19,0-.39-.03-.58-.09L12.04,92.05c-1.05-.32-1.65-1.44-1.32-2.49l3.55-11.63c.15-.51.5-.93.97-1.18.47-.25,1.01-.3,1.52-.15l91.2,27.85c.51.15.93.5,1.18.97.25.47.3,1.01.15,1.52l-3.55,11.63c-.26.86-1.05,1.41-1.91,1.41ZM15.12,88.82l87.38,26.68,2.39-7.81-87.38-26.68-2.39,7.81Z" fill="#fff"/>
  </g>
  <rect x="-10" y="-10" width="140" height="140" fill="none"/>
</svg>