<?xml version="1.0" encoding="UTF-8"?>
<svg id="a" data-name="Layer 1" xmlns="http://www.w3.org/2000/svg" width="120" height="120" viewBox="0 0 120 120">
  <rect x="-10" y="-10" width="140" height="140" fill="none"/>
  <path d="m72.96,104.06c.75.25,1.34.24,1.83-.06.75-.45,1.24-1.59,1.52-3.48,1.23-8.45,4.57-15.86,9.93-22,2.14-2.47,6.97-6.66,7.89-6.66.14,0,5.03,1.67,8.36,2.82,7.47,2.57,8.2,2.78,9.79,2.66,3.53-.32,6.32-2.57,7.27-5.88.58-1.94.41-3.59-.58-5.71-.57-1.26-1.95-2.63-9.2-9.19l-8.63-7.75.19-1.27c.05-.4.15-1.35.26-2.45.07-.73.16-1.52.24-2.29.35-4.02.23-4.5-1.3-5.14-.88-.37-1.08-.36-1.98.08-2.5,1.18-6.28,5.59-7.5,8.75-.35.84-.69,1.35-1.38,1.48-5.65,1.28-9.45,2.62-14.03,4.94l-3.11,1.59-1-.72c-1.16-.9-2.53-1.15-9.75-1.73l-1.57-.14c-3.45-.3-4.3-.38-4.51-.46v.02s-.02-.01-.03-.03c-.04-.02-.04-.04-.04-.07h.02c-.26-1.15-1.02-11.38-1.02-11.48v-1.11l1.88.94c3.48,1.72,7.5,1.67,11.03-.12,3.62-1.84,6.09-5.18,6.78-9.16.67-3.98-.57-7.94-3.42-10.84-2.88-2.94-6.87-4.29-10.94-3.69h0c-6.26.9-10.91,6.53-10.58,12.82l.09,2.27h-2.47c-9.36.06-21.39,5.86-29.94,14.43-3.19,3.16-4.59,6.77-4.27,11.04.17,2.61,1.04,5.04,2.43,6.85,1.08,1.42.96,1.54.9,1.6l-.03.02c-.12.06-4.73.54-5.26.6-7.64.76-9.34,1.1-10.08,1.98-.89,1.03-.82,1.95.23,2.99.78.81.89.84,2.3.67,7.24-.91,12.12-1.37,16.33-1.55l4.86-.18h.02s6.74,2.73,6.74,2.73c1.42.57,6.34,2.56,6.8,2.79h0s.02,0,.02.01c0,0,0,0,0,0h0c.07.14-.09,1.1-2.37,10.49-2.5,10.46-2.59,11.18-1.74,12.89.72,1.42,2.3,2.35,4.12,2.44.09,0,.17,0,.26,0,1.69,0,3.2-.76,3.99-2.01.59-.97,8.76-20.56,9.71-23.29.3-.91.55-2.39.55-3.3v-1.9l1.26.2c.56.08,1.99.26,3.16.38l2.02.17,2.57-2.37c3.55-3.29,7.15-6.08,8.2-6.36.42-.1,1.52-.81,2.5-1.7,3.21-2.86,12.17-6.79,17.75-7.79,3.81-.67,3.91-.72,4.89-3.23.98-2.48,1.19-2.63,1.41-2.58.19.04.27.28.21,1.44-.06.84-.03,1.88.05,2.22.14.36,4.05,4.12,9.07,8.61,9.79,8.8,10.17,9.15,9.11,11.42-.55,1.16-1.76,2.01-2.87,2.01-.38,0-4.92-1.49-9.09-2.94-4.98-1.72-8.81-2.92-9.13-2.92-.88,0-4.38,2.29-7.07,4.63-7.98,6.94-13.33,17.03-15.04,28.43-.37,2.61-.02,3.66,1.38,4.17ZM56.33,22.8c2.21-2.24,5.66-2.94,8.6-1.76,1.35.54,3.33,2.41,4.08,3.84.51.96.66,1.74.66,3.46,0,2.57-.57,3.91-2.44,5.71-1.48,1.44-3.42,2.16-5.36,2.16s-4-.76-5.51-2.27c-1.65-1.68-2.17-3.04-2.17-5.59s.56-3.98,2.15-5.54Zm2.52,41.86l-1.42,1.48h-.06s-3.57-.39-3.57-.39c-3.52-.38-3.61-.41-4.82-1.53-.61-.54-3.62-2.36-6.95-4.11-.98-.5-5.87-3.03-5.87-3.33,0-.37,2.17-2.34,3.28-3.12.74-.53,3.79-2.31,4.06-2.31.12,0,.16,0,1.15,4.23,1.08,4.58,1.72,5.78,3.78,7.13q1.2.8,5.67.74c2.51,0,4.83-.12,5.24-.23.33-.08.53-.11.61.03.1.17-.05.36-1.1,1.41Zm7.92-6.9c-.28.12-4.35.47-7.97.72-6.36.45-7.64.47-8.06.12-.55-.43-.92-1.62-2.3-7.51-.73-3.18-1.21-4.67-2.12-5.15-.79-.41-1.97-.07-4.01.76-4.27,1.74-9.37,5.72-11.6,9.06-.92,1.41-.96,2.67-.11,3.47.31.29,3.53,2.11,7.65,4.26,8.94,4.68,10.01,5.72,9.5,9.33-.08.58-2.27,6.04-4.41,11.18-4.32,10.4-4.54,10.42-4.63,10.43h-.1s-.04-.09-.04-.09c-.06-.23,1.67-7.52,2.28-10.06,1.27-5.28,2.34-10.24,2.34-10.84s-.19-1.19-.49-1.46c-.27-.24-4.7-2.17-10.01-4.31-4.98-2.01-10.09-4.17-10.94-4.6-3.87-2.1-5.43-7.39-3.42-11.56,1.13-2.41,7.25-7.7,12.35-10.69,4.21-2.47,9.63-4.38,14.14-4.97,2.33-.33,3.2-.18,4.06.68.63.63.74,1.29,1.3,7.9.64,7.84.83,8.88,1.88,10.12,1.11,1.34,2.36,1.65,8.94,2.24,5.75.5,5.81.72,5.83.81l.02.09-.08.06Z" fill="#fff"/>
</svg>