<?xml version="1.0" encoding="UTF-8"?>
<svg id="a" data-name="Layer 1" xmlns="http://www.w3.org/2000/svg" width="120" height="120" viewBox="0 0 120 120">
  <path d="m16.52,63.41l-7.95,31.43H3.52c-1.11,0-2.02.9-2.02,2.02h0c0,1.11.9,2.02,2.02,2.02h112.97c1.11,0,2.02-.9,2.02-2.02h0c0-1.11-.9-2.02-2.02-2.02h-5.05s-6.26-24.76-6.26-24.76c-.24-.94-.73-1.79-1.42-2.47l-21.28-20.89-10.26-22.5c-1.1-2.42-3.83-3.64-6.37-2.85l-28.15,8.76c-1.68.52-3,1.85-3.5,3.55l-7.16,24.25-6.67,1.67c-1.89.47-3.36,1.94-3.84,3.83Zm21.73-29.24l29.84-9.28,11.03,24.18,22.06,21.66,6.1,24.11H42.37l3.92-13.9,15.77-8.97,12.24,6.36,6.99,16.5h4.38l-7.48-17.66c-.48-1.13-1.34-2.06-2.42-2.62l-11.24-5.85c-1.59-.83-3.49-.79-5.04.09l-14.74,8.38c-1.21.69-2.09,1.82-2.47,3.16l-4.08,14.5H12.73l7.88-31.16,23.73-5.92c1.08-.27,1.74-1.36,1.47-2.44h0c-.27-1.08-1.36-1.74-2.44-1.47l-11.79,2.94,6.68-22.62Z" fill="#fff"/>
  <rect x="-10" y="-10" width="140" height="140" fill="none"/>
</svg>