<?xml version="1.0" encoding="UTF-8"?>
<svg id="a" data-name="Layer 1" xmlns="http://www.w3.org/2000/svg" width="120" height="120" viewBox="0 0 120 120">
  <g id="b" data-name="outline">
    <path d="m117.99,55.98v-2.01c0-5.56-4.5-10.06-10.06-10.06s-10.06,4.5-10.06,10.06v.28c-1.71-2.36-4.87-3.16-7.51-1.9l-.77.37c-.65-.41-1.34-.74-2.06-1-2.52-.89-5.29-.74-7.69.43l-14.51,6.98c-4.32,2.08-6.57,6.92-5.38,11.56l-5.37-.54-15.07-16.95v-5.27c0-1.11-.9-2.01-2.01-2.01H7.32c-1.11,0-2.01.9-2.01,2.01s.9,2.01,2.01,2.01h12.28c.77,3.65,3.55,6.54,7.17,7.44l1.44.36,14.37,21.55c1.07,1.61,2.61,2.86,4.4,3.57l2.18.87-.22.22-25.07-5.78c-.59-.14-1.21,0-1.69.38,0,0,0,0,0,0L.8,95.39c-.89.67-1.06,1.93-.39,2.82s1.93,1.06,2.82.39c.02-.01.04-.03.06-.05l9.74-7.68c2.9,2.73,7.21,3.31,10.73,1.45l23.3,5.38c1.71.4,3.5.31,5.17-.25l21.83-7.27c4.66-.03,9.29-.74,13.75-2.09v4.11c0,.65.31,1.26.84,1.64l13.78,9.85,3.82,5.73c.47.71,1.34,1.04,2.16.84l8.05-2.01c1.08-.27,1.73-1.36,1.46-2.44-.04-.14-.09-.28-.15-.41l-1.56-3.12,1.56-3.12c.28-.57.28-1.23,0-1.8l-2.01-4.02c-.5-.99-1.71-1.4-2.7-.9l-2.87,1.44-8.3-6.64v-5.05l4.76-2.16c3.26.71,6.47-1.36,7.17-4.62.09-.42.14-.85.14-1.28h0c1.97-1.48,3.33-3.63,3.82-6.04h.2c1.11,0,2.01-.9,2.01-2.01v-8.05c0-1.11-.9-2.01-2.01-2.01Zm-5.56,8.05l-3.6-1.8c-.57-.28-1.23-.28-1.8,0l-3.6,1.8h-3.55v-4.02h16.1v4.02h-3.55Zm-10.91,12.83h1.05c.08.15.17.31.26.45l-1.06.48c-.06-.32-.14-.63-.25-.94Zm-2.64-4.02c-1.67,0-3.02-1.35-3.02-3.02v-3.77c0,1.11.9,2.01,2.01,2.01h.2c.37,1.78,1.21,3.44,2.44,4.78h-1.64Zm3.02-18.86c0-3.33,2.7-6.04,6.04-6.04s6.04,2.7,6.04,6.04v2.01h-12.07v-2.01Zm-8.25,1.92c1.05.37,1.6,1.51,1.24,2.56-.14.41-.41.76-.77,1-.16-.9-.44-1.77-.84-2.59-.18-.36-.37-.72-.59-1.06.32-.05.66-.02.97.09h0Zm-12.06-.11c3-1.45,6.61-.18,8.06,2.82,1.45,3,.18,6.61-2.82,8.06l-1.81.87-5.23-10.88,1.81-.87Zm-5.44,2.62l5.23,10.88-7.25,3.49-5.23-10.88,7.25-3.49Zm-10.73,5.54l4.93,10.26c-3.31.36-6.29-2.03-6.66-5.35-.2-1.81.43-3.62,1.72-4.91Zm-16.94,15.19c-1.04-.41-1.93-1.14-2.55-2.07l-14.8-22.2c-.28-.42-.7-.71-1.19-.84l-2.19-.55c-1.82-.45-3.31-1.78-3.97-3.54h11.71v4.02c0,.49.18.97.51,1.34l16.1,18.11c.34.38.8.61,1.3.67l5.51.55c-1.13.7-2.17,1.52-3.11,2.46l-3.55,3.55-3.78-1.51Zm25.25,7.03c-.22,0-.43.03-.64.1l-22.13,7.38c-.97.32-2,.37-2.99.14l-24.09-5.56c-.54-.12-1.11-.02-1.57.29-1.85,1.23-4.27,1.16-6.05-.17l7.66-6.03,25.22,5.82c.68.16,1.38-.05,1.88-.54l7.65-7.65c1.55-1.55,3.47-2.69,5.58-3.3,1.63,1.06,3.54,1.62,5.48,1.62,1.5,0,2.99-.34,4.35-.99l14.5-6.98c1.25-.6,2.36-1.45,3.26-2.5v2.03c0,.93.18,1.85.54,2.71-2.75,1.03-4.56,3.66-4.57,6.59v4.75c-4.54,1.52-9.3,2.3-14.08,2.29Zm34.96,11.63c.61.49,1.45.58,2.16.23l2.22-1.11.66,1.32-1.56,3.12c-.28.57-.28,1.23,0,1.8l.89,1.78-4.24,1.06-3.24-4.86c-.14-.2-.31-.38-.5-.52l-13.24-9.46v-12.04c0-1.67,1.35-3.02,3.02-3.02s3.02,1.35,3.02,3.02v9.05c0,.61.28,1.19.75,1.57l10.06,8.05Zm-.75-21.69c-1.11,0-2.01-.9-2.01-2.01s.9-2.01,2.01-2.01,2.01.9,2.01,2.01c0,1.11-.9,2.01-2.01,2.01Zm4.5-6.03c-2.21-2.48-6.02-2.7-8.51-.49-.17.15-.33.31-.49.49-.53-.59-.93-1.27-1.19-2.01h1.67c.31,0,.62-.07.9-.21l3.12-1.56,3.12,1.56c.28.14.59.21.9.21h1.67c-.26.74-.67,1.43-1.19,2.01Z" fill="#fff"/>
    <path d="m93.84,43.9c3.33,0,6.04-2.7,6.04-6.04s-2.7-6.04-6.04-6.04-6.04,2.7-6.04,6.04c0,3.33,2.7,6.03,6.04,6.04Zm0-8.05c1.11,0,2.01.9,2.01,2.01s-.9,2.01-2.01,2.01-2.01-.9-2.01-2.01c0-1.11.9-2.01,2.01-2.01Z" fill="#fff"/>
    <path d="m105.92,29.82c3.33,0,6.04-2.7,6.04-6.04s-2.7-6.04-6.04-6.04-6.04,2.7-6.04,6.04c0,3.33,2.7,6.03,6.04,6.04Zm0-8.05c1.11,0,2.01.9,2.01,2.01s-.9,2.01-2.01,2.01-2.01-.9-2.01-2.01c0-1.11.9-2.01,2.01-2.01Z" fill="#fff"/>
    <path d="m81.77,21.77c3.33,0,6.04-2.7,6.04-6.04s-2.7-6.04-6.04-6.04-6.04,2.7-6.04,6.04c0,3.33,2.7,6.03,6.04,6.04Zm0-8.05c1.11,0,2.01.9,2.01,2.01s-.9,2.01-2.01,2.01-2.01-.9-2.01-2.01c0-1.11.9-2.01,2.01-2.01Z" fill="#fff"/>
  </g>
  <rect x="-10" y="-10" width="140" height="140" fill="none"/>
</svg>