<svg width="24" height="24" viewBox="0 0 24 24" fill="none" xmlns="http://www.w3.org/2000/svg">
<g clip-path="url(#clip0_4594_57105)">
<path d="M13.8856 12L21.8965 3.98915C22.0203 3.86533 22.1185 3.71834 22.1855 3.55656C22.2525 3.39479 22.287 3.2214 22.287 3.04629C22.287 2.87119 22.2525 2.6978 22.1855 2.53602C22.1185 2.37425 22.0203 2.22725 21.8965 2.10343C21.7726 1.97962 21.6256 1.8814 21.4639 1.81439C21.3021 1.74738 21.1287 1.71289 20.9536 1.71289C20.6 1.71289 20.2608 1.85337 20.0107 2.10343L11.9999 10.1143L3.98903 2.10515C3.73897 1.85509 3.39981 1.7146 3.04617 1.7146C2.69253 1.7146 2.35337 1.85509 2.10331 2.10515C1.85325 2.35521 1.71277 2.69437 1.71277 3.04801C1.71277 3.40165 1.85325 3.7408 2.10331 3.99086L10.1142 12L2.10503 20.0109C1.98121 20.1347 1.88299 20.2817 1.81598 20.4435C1.74897 20.6052 1.71448 20.7786 1.71448 20.9537C1.71448 21.1288 1.74897 21.3022 1.81598 21.464C1.88299 21.6258 1.98121 21.7728 2.10503 21.8966C2.22884 22.0204 2.37584 22.1186 2.53761 22.1856C2.69939 22.2526 2.87278 22.2871 3.04788 22.2871C3.22299 22.2871 3.39638 22.2526 3.55815 22.1856C3.71993 22.1186 3.86692 22.0204 3.99074 21.8966L11.9999 13.8857L20.0107 21.8966C20.2608 22.1466 20.6 22.2871 20.9536 22.2871C21.3072 22.2871 21.6464 22.1466 21.8965 21.8966C22.1465 21.6465 22.287 21.3074 22.287 20.9537C22.287 20.6001 22.1465 20.2609 21.8965 20.0109L13.8856 12Z" fill="white"/>
</g>
<defs>
<clipPath id="clip0_4594_57105">
<rect width="24" height="24" fill="white"/>
</clipPath>
</defs>
</svg>
