<?xml version="1.0" encoding="UTF-8"?>
<svg id="a" data-name="Layer 1" xmlns="http://www.w3.org/2000/svg" width="120" height="120" viewBox="0 0 120 120">
  <path d="m0,94.53c0,1.1.9,2,2,2h4.42c7.94,0,15.73-2.11,22.58-6.11,8.11-4.76,11.63-14.66,8.33-23.46l12.42,1.55c.42.05.85-.03,1.22-.24l15.81-8.78c-.05.29-.07.58-.07.87,0,2.94,2.38,5.33,5.32,5.33,2.21,0,4.19-1.38,4.96-3.45l1.39-3.71h4.96c8.24,0,15.6-5.16,18.39-12.91l.66-.66,2.71,1.36c.77.38,1.7.23,2.31-.37l2.59-2.59.59.59c.78.78,2.05.78,2.83,0l6-6c.78-.78.78-2.05,0-2.83l-2.35-2.35c.08-2.49-.89-4.9-2.65-6.65-3.54-3.54-9.28-3.54-12.83,0l-9.21,9.21c-.08-.07-.16-.13-.25-.2-2.39-1.78-5.54-2.16-8.29-.99l-10.63,4.56c-.56.24-.98.72-1.14,1.31l-.08.3-3.82,1.91c-5.4-3.57-12.15-4.46-18.29-2.41l-.59.2c-1.81-4.73-5.51-8.49-10.21-10.38l-1.96-.78-3.71-3.71c-.7-.7-1.82-.78-2.61-.19l-13.17,9.88c-7.39,5.52-12.83,13.24-15.54,22.06-.15.49-.11,1.02.12,1.49.49.99,1.7,1.39,2.68.89l6.71-3.36,2.98,2.98c.17.17.36.3.57.4,1,.47,2.19.03,2.66-.97l2.89-6.22c1.96-4.23,4.65-8.08,7.94-11.37l3.04-3.04,10.65,15.97c.31.46.79.77,1.34.86l3.16.53-.97,1.01c-4.25-1.97-9.24-1.46-13,1.34l-1.53,1.15h-7.33c-.25,0-.51.05-.74.14-1.03.41-1.52,1.57-1.11,2.6l3.98,9.94c.65,1.99,1.04,4.05,1.15,6.14-5.33,1.55-11.05,1.04-16.01-1.43l-2.37-1.18c-.4-.2-.85-.26-1.29-.17-1.08.22-1.79,1.27-1.57,2.35l1.79,8.95-7.24,7.24C.21,93.49,0,94,0,94.53Zm30.76-32l1.28,2.56s.04.09.06.14c.39.97-.08,2.07-1.05,2.46-.97.39-2.07-.08-2.46-1.05l-1.64-4.1h3.81Zm-10.74-24.52l3.56-2.67c.44,1.07,1.22,1.97,2.22,2.56-3.62,3.62-6.58,7.85-8.74,12.5l-1.68,3.62-1.98-1.98c-.61-.61-1.54-.76-2.31-.37l-3.43,1.71c2.75-6.09,7-11.38,12.35-15.37Zm13.14-7.48l-3.71,3.71c-.06.06-.13.12-.2.17-.61.41-1.44.24-1.84-.37-.39-.59-.26-1.38.31-1.8l4.09-3.07,1.36,1.36Zm78.83,9.17l-1.59-1.59c-.87-.88-.87-2.29,0-3.17.88-.88,2.3-.88,3.17,0l1.59,1.59-3.17,3.17Zm-32.11,14.83l1.5-4h5.45c2.62,0,5.09-1.24,6.67-3.33l.3-.4c1.33-1.77,1.9-3.99,1.58-6.18-.1-.71-.29-1.41-.57-2.07l9.61-9.61c1.98-1.98,5.19-1.98,7.17,0,.4.4.73.86.98,1.37-.19-.02-.37-.03-.56-.03-1.45,0-2.86.51-3.98,1.43-2.66,2.2-3.03,6.13-.83,8.79l-1.59,1.59-2.71-1.36c-.77-.39-1.7-.23-2.31.37l-2,2c-.22.22-.38.49-.48.78-2.11,6.35-8.06,10.64-14.75,10.63h-3.46Zm-9.13,5.5l4.92-18.05,9.75-4.18c1.42-.61,3.06-.41,4.3.52,1.92,1.44,2.31,4.15.87,6.07l-.3.4c-.82,1.09-2.11,1.73-3.47,1.73h-6.83c-.83,0-1.58.52-1.87,1.3l-4.88,13.01c-.25.66-.97,1.01-1.64.78-.66-.22-1.03-.92-.85-1.59Zm-2.64-5.51l-22.93-3.82-10.61-15.91,1.91-1.91,1.12.45c4.21,1.69,7.35,5.29,8.46,9.69.01.05.03.1.04.15.35,1.05,1.48,1.61,2.53,1.26l2.51-.84c5.32-1.77,11.17-.82,15.65,2.54.61.45,1.42.53,2.09.19l1.68-.84-2.47,9.04Zm-18.51,9.94l-14.29-1.79-.77-1.55.73-.55c2.91-2.17,6.85-2.31,9.91-.37.8.52,1.86.39,2.52-.3l3.92-4.09,10.41,1.74-12.42,6.9Zm-15.4,5.93c1.06,4.74-.19,9.71-3.36,13.39l.11-.69c.61-3.75.44-7.59-.49-11.28,1.38-.02,2.7-.52,3.74-1.42h0Zm-27.37,22.13l4.58-4.58c.47-.47.68-1.15.55-1.81l-1.21-6.04c5.16,2.23,10.91,2.73,16.38,1.43-.04.31-.08.61-.13.92l-.82,4.98c-5.93,3.28-12.58,5.03-19.35,5.1Z" fill="#fff"/>
  <rect x="-10" y="-10" width="140" height="140" fill="none"/>
</svg>