<?xml version="1.0" encoding="UTF-8"?>
<svg id="a" data-name="Layer 1" xmlns="http://www.w3.org/2000/svg" width="120" height="120" viewBox="0 0 120 120">
  <g>
    <path d="m98.66,48.9c-.01-.21-.03-.42-.05-.63-.06-.72-.13-1.43-.23-2.14-.02-.12-.03-.25-.05-.37-.12-.84-.28-1.67-.45-2.49-.03-.14-.07-.28-.1-.42-.16-.72-.35-1.43-.55-2.14-.04-.14-.08-.28-.12-.42-.24-.81-.51-1.62-.81-2.41-.03-.09-.07-.17-.1-.26-.27-.72-.57-1.42-.88-2.11-.07-.14-.13-.29-.2-.43-.36-.77-.74-1.53-1.15-2.27-.03-.06-.06-.11-.1-.17-.39-.69-.79-1.37-1.22-2.04-.05-.08-.09-.16-.14-.24-.02-.02-.04-.04-.05-.06-1.42-2.18-3.05-4.2-4.86-6.05-.01-.01-.02-.02-.03-.04-.02-.02-.04-.04-.07-.06-.31-.32-.64-.62-.97-.93-.14-.14-.28-.28-.43-.41-.24-.22-.5-.44-.75-.65-.24-.21-.48-.43-.73-.63,0,0,0,0,0,0-5.9-4.88-13.02-7.86-20.63-8.64-.02,0-.03,0-.05,0-.56-.06-1.12-.1-1.68-.13-.1,0-.2-.02-.3-.02-.66-.03-1.32-.05-1.98-.05-20.48,0-37.23,15.89-38.64,36-.06.91-.11,1.82-.11,2.74,0,.82.03,1.64.09,2.45,1.26,20.26,18.08,36.3,38.66,36.3.74,0,1.48-.03,2.22-.07.2-.01.41-.03.61-.05.54-.04,1.09-.09,1.62-.15.22-.03.44-.05.66-.08.54-.07,1.07-.15,1.6-.24.2-.03.4-.07.59-.11.61-.12,1.21-.25,1.81-.39.09-.02.17-.03.26-.06.01,0,.02,0,.03-.01,3.37-.84,6.57-2.13,9.53-3.79.19-.11.38-.22.57-.33.57-.33,1.12-.67,1.67-1.03.13-.09.26-.17.39-.25.64-.43,1.26-.88,1.87-1.34.19-.15.38-.3.57-.45.45-.36.9-.73,1.34-1.1.18-.16.36-.31.54-.47.56-.5,1.11-1.02,1.64-1.56.15-.15.29-.3.43-.45.42-.43.82-.88,1.22-1.33.16-.18.31-.36.47-.54.5-.6.99-1.2,1.46-1.83.05-.07.1-.14.15-.21.43-.58.84-1.18,1.23-1.78.06-.09.12-.17.18-.26.06-.09.1-.18.16-.26.43-.69.85-1.38,1.24-2.1,0,0,.01-.02.01-.03.39-.73.76-1.47,1.11-2.22.08-.17.16-.35.24-.52.31-.7.61-1.41.88-2.13.02-.05.04-.11.06-.16.29-.78.55-1.58.79-2.39.05-.15.09-.31.13-.46.2-.7.38-1.41.54-2.13.03-.12.06-.24.08-.37.17-.82.32-1.65.45-2.48.02-.13.03-.26.05-.4.09-.7.17-1.4.23-2.11.02-.21.03-.41.05-.62.05-.83.09-1.66.09-2.51s-.04-1.69-.09-2.52Zm-38.66,37.08c-13.47,0-25.13-7.71-30.83-18.96l11.54-9.56,5.76-4.77,7.28-6.03c.26-.21.64-.22.9,0l32.58,26.04c-6.33,8.09-16.17,13.29-27.23,13.29Zm29.52-16.59l-15.37-12.29,7.94-6.58c.26-.21.64-.22.9,0l10.7,8.55c-.84,3.7-2.26,7.17-4.17,10.31Zm4.89-14.87l-8.92-7.13c-1.74-1.39-4.25-1.37-5.96.05l-8.58,7.11-13.8-11.03c-1.74-1.39-4.25-1.37-5.96.05l-7.28,6.03-5.76,4.77-10.65,8.82c-1.33-3.67-2.06-7.64-2.06-11.77,0-19.09,15.47-34.56,34.56-34.56s34.56,15.47,34.56,34.56c0,1.04-.05,2.07-.15,3.09Z" fill="#fff"/>
    <path d="m96.54,14.88C86.78,5.12,73.8-.25,60-.25s-26.78,5.38-36.54,15.13-15.14,22.74-15.14,36.54c0,22.6,31.61,53.87,45.2,66.26,1.79,1.63,4.09,2.53,6.48,2.53s4.69-.9,6.48-2.53c13.59-12.39,45.2-43.66,45.2-66.26,0-13.8-5.38-26.78-15.14-36.54Zm-32.76,99.84c-2.15,1.96-5.4,1.96-7.55,0-5.89-5.38-17.22-16.2-26.81-28.26-11.33-14.24-17.08-26.03-17.08-35.04C12.33,25.14,33.72,3.76,60,3.76s47.67,21.38,47.67,47.67c0,9.01-5.75,20.8-17.08,35.04-9.6,12.07-20.92,22.88-26.81,28.26Z" fill="#fff"/>
    <path d="m70.97,28.49c-4.02,0-7.29,3.27-7.29,7.29s3.27,7.29,7.29,7.29,7.29-3.27,7.29-7.29-3.27-7.29-7.29-7.29Zm0,10.56c-1.81,0-3.28-1.47-3.28-3.28s1.47-3.28,3.28-3.28,3.28,1.47,3.28,3.28-1.47,3.28-3.28,3.28Z" fill="#fff"/>
  </g>
  <rect x="-10" y="-10" width="140" height="140" fill="none"/>
</svg>