<?xml version="1.0" encoding="UTF-8"?>
<svg id="a" data-name="Layer 1" xmlns="http://www.w3.org/2000/svg" width="120" height="120" viewBox="0 0 120 120">
  <g>
    <path d="m105.41,27.38c.96.57,2.19.25,2.76-.7l2.18-3.67c.57-.95.26-2.19-.69-2.76h-.01c-.46-.28-1-.36-1.53-.23-.52.13-.96.46-1.23.92h0s-2.17,3.69-2.17,3.69c-.56.95-.25,2.19.7,2.76Z" fill="#fff"/>
    <path d="m109.94,31.05c-.15.52-.08,1.06.18,1.53v.02c.56.95,1.78,1.29,2.74.75l3.77-2.12c.46-.27.79-.71.92-1.23s.06-1.06-.22-1.52c-.55-.93-1.72-1.26-2.67-.75l-3.77,2.12c-.47.26-.81.69-.95,1.21Z" fill="#fff"/>
    <path d="m117.88,37.4h-4.36c-1.11,0-2.01.9-2.01,2.01s.9,2.01,2.01,2.01h4.36c1.11,0,2.01-.9,2.01-2.01s-.9-2.01-2.01-2.01Z" fill="#fff"/>
    <path d="m112.63,52.51l-16.28,9.4-.05-.11c-.08-.18-.19-.35-.33-.49l-14.84-14.84c-.75-.75-1.95-.79-2.74-.09l-16.96,14.84c-.84.72-.93,2-.21,2.83.73.84,2,.93,2.84.21l15.57-13.62.07.07,13.2,13.2-.12.07-38.61,22.29v-34.25h.39c1.67-.09,3.22-.82,4.34-2.07,1.13-1.25,1.7-2.86,1.61-4.54-.17-3.23-2.73-5.79-5.96-5.96h-.39s0-6.4,0-6.4c0-1.11-.9-2.01-2.01-2.01s-2.01.9-2.01,2.01v6.4h-8.56l-.03-.04-10.71-11.57v-1.16c0-1.11-.9-2.01-2.01-2.01h-2.59c3.33-1.25,5.91-4.15,6.64-7.79l.02-.09h4.54c1.11,0,2.01-.9,2.01-2.01s-.9-2.01-2.01-2.01h-4.54l-.02-.09c-1.04-4.93-5.41-8.33-10.26-8.33-.71,0-1.44.07-2.17.23-2.74.58-5.09,2.19-6.62,4.54-1.53,2.35-2.05,5.15-1.48,7.89.75,3.57,3.32,6.41,6.6,7.65h-2.83c-.1,0-.19.02-.28.03-1.53-1.62-3.68-2.63-6.08-2.63-4.62,0-8.37,3.75-8.37,8.37v19.08c0,7.02,4.97,12.91,11.56,14.37-1.82,9.44-5.77,18.46-11.57,26.16-.05.07-.1.14-.14.21-2.28,4-.91,9.16,3.06,11.5,1.27.74,2.71,1.13,4.18,1.13h0c.73,0,1.46-.1,2.17-.29,2.12-.55,3.9-1.9,5.01-3.79l3.47-5.05c4.35-6.35,7.54-13.35,9.48-20.79l.03-.13.12.06,4.43,2.24v6.66c0,3.45,2.8,6.25,6.25,6.25s6.25-2.8,6.25-6.25v-14.31c0-.72-.39-1.38-1.01-1.74l-13.9-8.01v-.07c0-.24.02-.48.03-.73.02-.35.04-.72.04-1.08v-11.42l6.41,6.92c.38.41.92.64,1.47.64h11.42v36.05c.01.12.04.25.08.37l.03.08-.08.04-40.37,23.3c-.47.26-.8.7-.95,1.21s-.08,1.06.19,1.53c.27.47.7.8,1.21.95.52.14,1.06.08,1.53-.19h.02s102.83-59.38,102.83-59.38c.96-.56,1.28-1.79.72-2.75-.55-.94-1.78-1.27-2.73-.73ZM16.5,12.63c.89-2.6,3.33-4.36,6.08-4.38,2.75.02,5.19,1.78,6.08,4.38l.05.15h-12.26l.05-.15Zm0,4.31l-.05-.15h12.26l-.05.15c-.89,2.6-3.33,4.36-6.08,4.38h0c-2.75-.02-5.19-1.78-6.08-4.38ZM5.39,49.53v-19.08c0-2.4,1.95-4.35,4.35-4.35s4.35,1.95,4.35,4.35v21.63c0,2.63-.18,5.25-.51,7.85-4.76-1.16-8.18-5.47-8.19-10.4Zm21.4,6.84c-.07,12.6-3.88,24.75-11.01,35.13l-3.56,5.19c-.56,1-1.48,1.72-2.6,2.03-.39.11-.78.16-1.17.16-.73,0-1.46-.19-2.11-.56l-.05-.03c-2.06-1.21-2.78-3.81-1.66-5.92,7.85-10.5,12.45-22.95,13.29-36.02v-.1h8.86v.11Zm.02-4.13h-8.7v-23.54h8.7v23.54Zm14.84,16.42v13.15c0,1.23-1,2.23-2.23,2.23s-2.23-1-2.23-2.23v-7.9c0-.76-.42-1.45-1.11-1.79l-6.54-3.3.02-.08c.41-2.13.73-4.26.92-6.33l.02-.17.15.08,11,6.34Zm-2.02-20.67h-.05l-.03-.04-8.72-9.42v-4.78l.19.21,8.2,8.85c.38.41.92.65,1.48.65h10.81c.4.18.87.18,1.27,0h.04s1.73,0,1.73,0c1.26.2,2.12,1.38,1.92,2.63-.16.98-.92,1.74-1.9,1.9h-14.93Z" fill="#fff"/>
    <path d="m98.79,31.04c-4.62,0-8.37,3.75-8.37,8.37s3.75,8.37,8.37,8.37,8.37-3.75,8.37-8.37-3.75-8.37-8.37-8.37Zm0,12.72c-2.4,0-4.35-1.95-4.35-4.35s1.95-4.35,4.35-4.35,4.35,1.95,4.35,4.35-1.95,4.35-4.35,4.35Z" fill="#fff"/>
    <path d="m79.59,41.42h4.36c1.11,0,2.01-.9,2.01-2.01s-.9-2.01-2.01-2.01h-4.36c-1.11,0-2.01.9-2.01,2.01s.9,2.01,2.01,2.01Z" fill="#fff"/>
    <path d="m80.84,30.71l3.77,2.12c.47.26,1.01.33,1.53.18.52-.14.95-.48,1.21-.95.54-.97.2-2.2-.77-2.74l-3.77-2.12c-.31-.17-.64-.26-.98-.26-.18,0-.37.02-.54.08-.52.15-.95.48-1.21.95-.26.47-.33,1.01-.18,1.53.15.52.48.95.95,1.21Z" fill="#fff"/>
    <path d="m89.46,26.66c.61.92,1.86,1.17,2.78.56.86-.57,1.15-1.69.67-2.6l-2.18-3.68c-.27-.46-.71-.79-1.23-.92-.17-.04-.33-.06-.5-.06-.36,0-.71.09-1.02.28-.46.27-.79.71-.92,1.23-.13.52-.06,1.06.22,1.52l2.18,3.67Z" fill="#fff"/>
    <path d="m98.81,25.66c1.11,0,2.01-.9,2.01-2.01v-4.24c0-1.11-.9-2.01-2.01-2.01s-2.01.9-2.01,2.01v4.24c0,1.11.9,2.01,2.01,2.01Z" fill="#fff"/>
  </g>
  <rect x="-10" y="-10" width="140" height="140" fill="none"/>
</svg>