<svg width="32" height="32" viewBox="0 0 32 32" fill="none" xmlns="http://www.w3.org/2000/svg">
<path d="M16.0004 29.7137C23.5746 29.7137 29.7147 23.5736 29.7147 15.9994C29.7147 8.42525 23.5746 2.28516 16.0004 2.28516C8.42623 2.28516 2.28613 8.42525 2.28613 15.9994C2.28613 23.5736 8.42623 29.7137 16.0004 29.7137Z" fill="#FFFDFD"/>
<path d="M24.3451 15.1065L17.088 7.84933C16.7989 7.56179 16.4077 7.40039 16 7.40039C15.5922 7.40039 15.2011 7.56179 14.912 7.84933L7.65482 15.1065C7.54691 15.2144 7.46131 15.3425 7.40291 15.4835C7.34451 15.6245 7.31445 15.7756 7.31445 15.9282C7.31445 16.2364 7.43689 16.532 7.65482 16.7499C7.87275 16.9678 8.16833 17.0903 8.47653 17.0903C8.78473 17.0903 9.08031 16.9678 9.29825 16.7499L10.2857 15.7716V23.367C10.2863 23.6952 10.4171 24.0097 10.6493 24.2416C10.8816 24.4734 11.1964 24.6036 11.5245 24.6036H14.1714V21.1499C14.1714 21.022 14.2217 20.8991 14.3116 20.808C14.4014 20.7169 14.5235 20.6648 14.6514 20.663H17.3508C17.4785 20.6648 17.6004 20.717 17.6898 20.8082C17.7793 20.8994 17.8291 21.0222 17.8285 21.1499V24.599H20.48C20.8073 24.5978 21.1209 24.4671 21.3522 24.2354C21.5835 24.0037 21.7136 23.6898 21.7142 23.3625V15.7716L22.6971 16.7545C22.915 16.9724 23.2106 17.0948 23.5188 17.0948C23.827 17.0948 24.1226 16.9724 24.3405 16.7545C24.5585 16.5365 24.6809 16.241 24.6809 15.9328C24.6809 15.6246 24.5585 15.329 24.3405 15.111L24.3451 15.1065Z" fill="#0D4C3F"/>
</svg>
