<svg width="24" height="24" viewBox="0 0 24 24" fill="none" xmlns="http://www.w3.org/2000/svg">
<g clip-path="url(#clip0_5452_18722)">
<path d="M13.522 1.75562C12.3049 2.00934 11.4392 3.26419 11.6586 4.45391C11.8043 5.24762 12.2894 5.88362 12.9992 6.22134C13.354 6.39105 13.4209 6.40134 13.9729 6.40134C14.5249 6.40134 14.5866 6.39619 14.9929 6.19219C16.3437 5.52705 16.75 3.87276 15.8706 2.67276C15.346 1.96819 14.362 1.58076 13.522 1.75562Z" fill="#014940"/>
<path d="M10.5153 7.02692C10.025 7.14521 9.09588 7.61321 8.57817 8.00749C7.59245 8.75149 6.85531 9.86063 6.53474 11.0983C6.37188 11.7241 6.32559 12.7715 6.45074 13.0972C6.69245 13.7383 7.44159 13.9818 8.01074 13.6098C8.32102 13.4126 8.44959 13.1538 8.51817 12.6189C8.62445 11.7515 8.92445 11.1429 9.52102 10.5858C9.71302 10.4058 9.88788 10.2652 9.90331 10.2823C9.93759 10.3098 8.41702 17.6315 8.35531 17.7378C8.33302 17.7772 7.60617 18.0926 6.73874 18.4303C5.79759 18.7972 5.08274 19.1109 4.96445 19.2069C4.53588 19.5498 4.34559 20.2595 4.54274 20.7721C4.65588 21.0652 4.96445 21.4303 5.19588 21.5555C5.28674 21.6001 5.47702 21.6618 5.62959 21.6909C5.87131 21.7475 6.03588 21.7252 7.08331 21.5058C8.42388 21.2178 8.98102 21.0275 9.58959 20.6281C10.0799 20.3006 10.817 19.5463 11.0982 19.0801C11.1993 18.9052 11.4085 18.4835 11.5542 18.1389C11.7067 17.7961 11.8353 17.5081 11.8525 17.4909C11.8919 17.4515 13.1982 17.9195 13.5307 18.0926C13.913 18.3018 14.3759 18.7458 14.5953 19.1281C14.6862 19.2858 14.8936 19.8721 15.0633 20.4395C15.2382 21.0035 15.4233 21.5486 15.4799 21.6446C15.6376 21.9155 16.0147 22.1795 16.3576 22.2532C17.1685 22.4383 17.9742 21.7749 17.9742 20.9298C17.9742 20.7206 17.6587 19.4263 17.3725 18.4801C16.973 17.1395 16.3079 16.2789 14.7873 15.1183C14.2525 14.7069 13.9199 14.4138 13.9199 14.3589C13.9199 14.2458 14.4325 11.3692 14.4547 11.3401C14.4667 11.3281 14.6399 11.3966 14.8439 11.4978C15.485 11.8012 16.0439 11.9092 16.793 11.8801C17.525 11.8458 18.0719 11.6949 18.6959 11.3452C19.157 11.0863 19.4005 10.8446 19.4845 10.5566C19.6593 9.96521 19.433 9.42521 18.905 9.18178C18.5947 9.04121 18.3136 9.04635 17.813 9.22121C16.997 9.50235 16.4279 9.31206 15.7747 8.53378C15.329 8.00406 15.0085 7.75035 14.4856 7.50349C14.0742 7.30635 13.8993 7.26692 12.605 7.07492C11.5456 6.91721 11.0107 6.90521 10.5222 7.02349L10.5153 7.02692Z" fill="#014940"/>
</g>
<defs>
<clipPath id="clip0_5452_18722">
<rect width="24" height="24" fill="white"/>
</clipPath>
</defs>
</svg>
