<?xml version="1.0" encoding="utf-8"?>
<!-- Generator: Adobe Illustrator 27.5.0, SVG Export Plug-In . SVG Version: 6.00 Build 0)  -->
<svg version="1.1" id="a" xmlns="http://www.w3.org/2000/svg" xmlns:xlink="http://www.w3.org/1999/xlink" x="0px" y="0px"
	 viewBox="0 0 120 120" style="enable-background:new 0 0 120 120;" xml:space="preserve">
<style type="text/css">
	.st0{fill:#FFFFFF;}
	.st1{fill:none;}
</style>
<g>
	<g>
		<path class="st0" d="M89,73.7L72.4,62.1c0,0,0,0,0,0c0,0,0,0,0,0c-2-1.3-3.7-2.9-5.1-4.8v-5.5h5.9c4.2,0,8.1-2.6,9.3-6.7
			c0.6-2.1,0.5-4.4-0.4-6.4l-3.9-9.2l-3-6c-1.3-3.1-4.8-4.6-7.9-3.4v-1.1V5.8c0-1-0.7-1.9-1.7-2.1c-1.3-0.2-2.3,0.8-2.3,2v34h-4
			c-1-0.2-2.4-0.3-4-0.2c-1.3,0.1-2.7,0.3-4.1,0.5c1.5-2,2.4-4.5,2.4-7.3c0-6.8-5.5-12.4-12.4-12.4c-6.8,0-12.4,5.5-12.4,12.4
			c0,5.3,3.3,9.7,7.9,11.5L34.1,46l0,0l0,0c0,0,0,0,0,0c0,0,0,0,0,0l-3.2,2.4c-3.6,2.7-5,7.4-3.4,11.5L32,72.8c1.1,3,3.9,4.9,7,4.9
			h8l4.4,7c1.6,3.1,4.7,5,8.2,5h2.6l-5.6,13.9l-1.2,3.1c-1.8,4.7,1.7,9.6,6.6,9.6h0c3.9,0,8.2-2.9,9.7-6.5l1-2.4l4.4-10.2v2.2h0v4.3
			c0,4.3,3.2,8,7.5,8.3c4.7,0.3,8.5-3.4,8.5-8v-5.2V81.9C93.2,78.6,91.6,75.6,89,73.7z M67.2,36l1.2,3.7h-1.2V36z M67.2,43.7l3.9,0
			c1.1,0,2-0.8,2.1-1.9c0-0.3,0-0.5-0.1-0.9l-3.7-10l-2.1-4.3c-0.5-1.1,0-2.4,1.1-2.9c1.1-0.5,2.5,0,3,1.1l2.5,4.9l4.4,10.4
			c0.5,1.1,0.6,2.3,0.3,3.4h0c-0.6,2.4-2.7,4.1-5.2,4.1h-6.2V43.7z M67.2,63.1c0.4,0.3,0.7,0.7,1.1,1l-1.1,1.4V63.1z M63.2,43.7v4
			h-0.8l-2-4H63.2z M56.3,43.7l1.3,3.4l1.7,3.5l1.3,3.2c0.7,1.7,1.5,3.3,2.5,4.8v5.2l0,5.9l-0.1,0.1v0c-0.9-2.3-3.1-3.9-5.6-3.9
			l-6.6,0l-0.2,0h-6.1l-6.9-17.2l2.8-1.9c1.3-0.5,2.6-1,3.9-1.3c3.7-1,7.5-1.4,10.5-1.6C55.4,43.7,55.9,43.7,56.3,43.7z M32.8,32.8
			c0-4.6,3.8-8.4,8.4-8.4c4.6,0,8.4,3.8,8.4,8.4c0,4.6-3.8,8.4-8.4,8.4C36.5,41.1,32.8,37.4,32.8,32.8z M39.1,73.7
			c-1.5,0-2.8-0.9-3.3-2.3v0l-4.6-12.7c-0.9-2.5-0.1-5.4,2.1-7l1.1-0.8l7,17.6c0.3,0.7,0.9,1.2,1.6,1.2c0.1,0,0.1,0,0.2,0
			c0,0,0,0,0,0h0h7.4l0.6,0l6.3,0c1.1,0,2,0.9,2,2.1c0,1.1-0.9,2.1-2.1,2.1l-6.6-0.2H39.1z M51.9,77.9h-1.1v-0.2h0.4h0.6h4.1
			l-0.1,0.2l-2.3,2.5L51.9,77.9z M59.7,85.7c-1.5,0-3-0.7-4-1.8l7.4-8.3v10.1H59.7z M89.2,98.9l0,4.9c0,2.1-1.5,4-3.6,4.2
			c-2.4,0.2-4.4-1.6-4.4-4l0-4.7V87.9c0.7-3.5-0.5-7.2-3.2-9.6l-0.2-0.1l-2.6-1.8c-0.8-0.5-1.9-0.5-2.6,0.1c-0.9,0.9-0.7,2.3,0.2,3
			l2.6,1.9c1.9,1.8,2.5,4.6,1.4,7l-7.8,17.6l-1.5,3.8c-0.7,1.8-2.5,3-4.4,2.7c-2.7-0.3-4.3-3.1-3.4-5.6l0.7-1.8l6-14.9
			c0.1-0.2,0.2-0.5,0.2-0.7c0,0,0,0,0,0c0,0,0,0,0,0l0.5-17.5l0.8-0.7l3.8-4.7l15,10.5c1.6,1.1,2.6,3,2.6,4.9V98.9z"/>
		<path class="st0" d="M82.8,29.7c1.1,0,2-0.9,2-2v-10c0-1.1-0.9-2-2-2s-2,0.9-2,2v10C80.8,28.8,81.7,29.7,82.8,29.7z"/>
		<path class="st0" d="M90.8,21.7c1.1,0,2-0.9,2-2v-10c0-1.1-0.9-2-2-2s-2,0.9-2,2v10C88.8,20.8,89.7,21.7,90.8,21.7z"/>
		<path class="st0" d="M38.8,85.7c-1.1,0-2,0.9-2,2v12c0,1.1,0.9,2,2,2s2-0.9,2-2v-12C40.8,86.6,39.9,85.7,38.8,85.7z"/>
		<path class="st0" d="M46.8,95.7c-1.1,0-2,0.9-2,2v10c0,1.1,0.9,2,2,2c1.1,0,2-0.9,2-2v-10C48.8,96.6,47.9,95.7,46.8,95.7z"/>
	</g>
	<path class="st0" d="M82.8,29.7c1.1,0,2-0.9,2-2v-10c0-1.1-0.9-2-2-2s-2,0.9-2,2v10C80.8,28.8,81.7,29.7,82.8,29.7z"/>
	<path class="st0" d="M90.8,21.7c1.1,0,2-0.9,2-2v-10c0-1.1-0.9-2-2-2s-2,0.9-2,2v10C88.8,20.8,89.7,21.7,90.8,21.7z"/>
	<path class="st0" d="M38.8,85.7c-1.1,0-2,0.9-2,2v12c0,1.1,0.9,2,2,2s2-0.9,2-2v-12C40.8,86.6,39.9,85.7,38.8,85.7z"/>
	<path class="st0" d="M46.8,95.7c-1.1,0-2,0.9-2,2v10c0,1.1,0.9,2,2,2s2-0.9,2-2v-10C48.8,96.6,47.9,95.7,46.8,95.7z"/>
</g>
<rect x="-10" y="-10" class="st1" width="140" height="140"/>
</svg>
