<?xml version="1.0" encoding="UTF-8"?>
<svg id="a" data-name="Layer 1" xmlns="http://www.w3.org/2000/svg" width="120" height="120" viewBox="0 0 120 120">
  <path d="m117.86,80.82s0,0,0,0c0,0,0,0,0,0-.23-.53-.48-1.04-.75-1.55-.04-.08-.08-.15-.12-.23-.24-.45-.5-.9-.77-1.33-.13-.21-.26-.41-.4-.62-.13-.2-.26-.39-.4-.58-4.71-6.8-12.5-11-20.98-11-1.56,0-3.12.14-4.65.43l-.31.06-.29-1.02c-.68-2.42-1.2-4.92-1.54-7.42-.2-1.45-.33-2.92-.41-4.37l-.03-.71,1.01-.86c.06-.08.12-.16.18-.24.14-.16.3-.29.48-.4.17-.15.34-.31.5-.48l4.77,1.69c1.04.37,2.18-.17,2.55-1.22s-.17-2.18-1.22-2.55l-4.63-1.64c.04-1.22-.28-2.45-.96-3.51h.02l-.05-.05c-.27-.41-.58-.8-.95-1.14l-7.46-6.77-11.86-10.51h0c5.46-.46,9.77-5.05,9.77-10.63,0-5.88-4.79-10.67-10.67-10.67s-10.67,4.79-10.67,10.67c0,1.17.2,2.3.55,3.36-.01,0-.02,0-.04,0-.7-.12-1.42-.2-2.16-.2-3.42,0-6.63,1.33-9.04,3.75l-19.3,19.3c-.07.07-.12.13-.16.19-1.19,1.58-1.88,3.48-2.03,5.53l-.02.32h-4.95c-1.11,0-2.01.9-2.01,2.01v2.88c0,4.72,3.84,8.55,8.55,8.55h3.23l-1.38,5.95-.31-.04c-1.15-.16-2.32-.24-3.47-.24h0c-6.8,0-13.21,2.66-18.03,7.48-4.19,4.19-6.74,9.58-7.34,15.38,0,.02,0,.04,0,.06-.04.36-.06.73-.08,1.1,0,.07-.01.13-.01.2-.02.43-.03.86-.03,1.3,0,.49.02.97.04,1.46,0,.12.02.24.03.36.03.38.06.75.1,1.12.01.11.03.23.04.34.05.4.11.79.18,1.19.01.07.03.15.04.22.37,1.97.96,3.85,1.75,5.63.02.05.05.1.07.15.17.38.35.75.54,1.12.04.09.09.17.13.26.18.33.36.66.55.98.06.1.11.2.17.3.22.36.44.72.68,1.07.19.28.39.56.59.83.06.08.11.15.16.23.23.3.46.6.7.89.01.02.02.03.04.05,1.44,1.75,3.12,3.33,5.01,4.67l.89.63.2.06c3.87,2.43,8.44,3.86,13.33,3.89l.25.07c12.5,0,23.08-8.94,25.16-21.25l.4-2.34c.26-2.8-.41-6.28-.89-8.29-.25-1.27-.43-1.65-.43-1.65-2.53-7.63-8.6-13.7-16.23-16.22l-.3-.1,1.62-7.01,11.83,6.83,3,13.06,1.77,8.81c.76,3.76,4.14,6.41,7.98,6.24h0c4.66-.2,8.1-4.43,7.35-9.03l-1.12-6.91,18.66-16.9.13.59c.26,1.24.57,2.48.91,3.68l.29,1.02-.29.11c-8.03,3.09-14.11,10.22-15.86,18.62l-.11.54s-.9,5.41.37,10.98c1.5,5.87,5.07,11.05,10.06,14.56l.89.63.49.14c3.8,2.35,8.25,3.74,13.02,3.8l.26.08c8.58,0,16.4-4.26,21.09-11.17.11-.16.22-.33.33-.5.17-.27.34-.53.51-.8.25-.42.48-.84.71-1.27.05-.1.1-.2.15-.29,1.75-3.45,2.75-7.35,2.75-11.49,0-3.63-.77-7.07-2.14-10.2ZM68.73,7.47c3.68,0,6.67,2.99,6.67,6.67s-2.99,6.67-6.67,6.67-6.67-2.99-6.67-6.67,2.99-6.67,6.67-6.67ZM27.45,55.8c-2.5,0-4.53-2.03-4.53-4.53v-.87h3.43l.07.25c.5,1.67,1.34,3.26,2.42,4.6l.46.56h-1.85Zm7.24,15.79c.05.02.1.05.15.07,6.6,3.21,11.32,9.71,12.03,17.34v4.02c-.78,8.37-6.36,15.36-13.96,18.17-.39.14-.79.28-1.19.4-.18.05-.35.1-.53.15-.53.14-1.06.28-1.6.38-.04,0-.08.01-.11.02-1.28.24-2.6.36-3.95.36-11.86,0-21.5-9.64-21.5-21.5s9.64-21.5,21.5-21.5c.82,0,1.66.05,2.49.14l.31.04s.05,0,.08.01l-3.98,17.18-.84,3.61s0,.03,0,.05h0c-.14.61,0,1.23.38,1.72.38.48.96.76,1.57.76l.02-.03c.96,0,1.8-.66,2-1.6l.74-3.42,4.02-17.35c.82.28,1.61.59,2.38.96Zm24.56,19.03c-1.86.08-3.51-1.21-3.88-3.04l-1.87-9.28-3.1-13.56c-.12-.54-.47-1.01-.95-1.29l-15.26-8.81c-2.03-1.17-3.61-3.48-4.13-6.01-.31-1.52-.22-2.98.26-4.24l.11-.29,16,4.42,8.72,8.72c2.24,2.24,3.72,5.06,4.3,8.18l2.21,13.73,1.17,7.07c.37,2.24-1.3,4.3-3.57,4.4Zm5.64-16.68l-1.48-9.18c-.28-1.56-.74-3.04-1.36-4.45l-.21-.49h18.64l-15.58,14.11Zm-5.62-18.14l-.1-.12c-.38-.46-.78-.89-1.17-1.29l-7.67-7.67,10.24-10.24,22.67,16.42v.17c.05.79.1,1.57.17,2.36l.03.38h-24.16Zm24.84-7.34l-.93-.56-7.55-5.5-.02.02-14.08-10.2c-.78-.56-1.92-.47-2.6.21l-12.05,12.05-13.52-3.73,16.86-16.86c1.66-1.66,3.86-2.57,6.2-2.57s4.55.91,6.2,2.57l15.94,14.16h0s7.64,6.89,7.64,6.89c.85.76.93,2.06.19,2.92-.58.67-1.49.88-2.28.6Zm30.46,50.43c-.11.14-.21.29-.28.46-3.37,8-11.15,13.17-19.83,13.17-1.26,0-2.49-.11-3.7-.32-.04,0-.08-.01-.13-.02-.55-.1-1.1-.22-1.64-.37-.11-.03-.22-.06-.33-.09-.42-.12-.84-.25-1.25-.4-.24-.08-.47-.17-.7-.26-.27-.1-.53-.21-.79-.33-6.52-2.86-11.35-8.86-12.58-16.08-.02-.67-.11-1.32-.24-1.96-.04-.55-.07-1.11-.07-1.67,0-9.11,5.69-16.9,13.7-20.04l5.79,20.58c.29,1.04,1.42,1.69,2.48,1.39,1.07-.3,1.69-1.41,1.39-2.48l-5.8-20.6c.14-.03.28-.05.42-.08,1.14-.18,2.3-.28,3.44-.28,8.55,0,16.29,5.07,19.72,12.91.07.17.18.32.29.46,1.03,2.51,1.6,5.26,1.6,8.13s-.54,5.43-1.5,7.87Z" fill="#fff"/>
  <rect x="-10" y="-10" width="140" height="140" fill="none"/>
</svg>