<?xml version="1.0" encoding="UTF-8"?>
<svg id="a" data-name="Layer 1" xmlns="http://www.w3.org/2000/svg" width="120" height="120" viewBox="0 0 120 120">
  <g>
    <path d="m40.49,19.76l10.64,10.33c.85.83,2.03,1.27,3.22,1.19h0s0,0,.01,0c.86-.05,1.67-.37,2.35-.91,3.17-2.5,8.53-7.63,8.85-13.91,0-.01,0-.03,0-.04.02-.18.02-.37-.02-.55-.07-3.56-1.61-6.91-4.32-9.26-2.71-3.1-6.76-4.79-10.84-4.54-.02,0-.04,0-.06,0-5.54.66-9.23,5.65-10.56,7.76-.41.68-.62,1.46-.61,2.26l.06,4.7c.02,1.12.47,2.18,1.28,2.97Zm18.81,2.12l-4.03-5.22c-.22-.29-.22-.7,0-.99.22-.29.62-.4.96-.26l5.09,2.09c-.33,1.56-1.08,3.04-2.01,4.38Zm-16.09-9.91c.79-1.26,3.69-5.41,7.59-5.87l.37-.02c2.78.08,5.41,1.34,7.22,3.45,1.1.92,1.93,2.09,2.46,3.39l-3.09-1.27c-.7-.29-1.44-.41-2.16-.36-1.39.08-2.71.76-3.59,1.91-1.34,1.76-1.33,4.21.02,5.96l4.56,5.9c-.92.9-1.79,1.63-2.41,2.12l-.11.09-.1-.1-10.68-10.36-.1-4.78.03-.04Z" fill="#fff"/>
    <path d="m98.47,82.86c-1.75,0-3.48.26-5.13.78l-1.02.32-3.67-7.24,1.37-.47c3.62-1.24,7.04-1.69,10.46-1.37.68.05,1.13-.22,1.4-.45.41-.36.65-.91.67-1.49l-.07-5.62c-.43-1.96-5.5-23.18-26.18-26.05-.65-.1-1.36.21-1.8.77-.3.38-.58,1.02-.22,1.88.51,1.18,1.07,2.64,1.61,4.2l1.08,3.15-4.69-2.65c.81-1.28,1.15-2.81.92-4.35-.57-3.34-3.53-5.67-6.9-5.47-.03,0-.06,0-.09,0l-6.77.41-.05-.04-18.06-13.9c-1.24-.95-2.77-1.42-4.31-1.32-.29.02-.58.05-.87.11-1.82.37-3.4,1.5-4.32,3.11l-15.52,27.15c-1.32,2.36-1.45,5.25-.35,7.73.28.64.64,1.23,1.06,1.77-4.62.26-8.8,1.84-12.19,6-.28.34-.44.79-.44,1.21v8.38c0,.71.42,1.38,1.06,1.72.37.19,1.11.43,2.02-.19,4.1-3.01,9-4.62,14.14-4.62s10.25,1.69,14.47,4.88l.03-.1.12,1.98-3.66,3.66-.87-.61c-3.01-2.12-6.5-3.25-10.11-3.25-9.67,0-17.54,7.87-17.54,17.54s7.87,17.54,17.54,17.54,17.54-7.87,17.54-17.54c0-3.64-1.12-7.13-3.24-10.1l-.62-.87,2.27-2.27c.35.52.76,1.01,1.24,1.43,1.3,1.15,3,1.82,4.73,1.88,1.43,3.1,2.19,6.46,2.19,9.93,0,1.06.86,1.92,1.92,1.92h23.27c1.06,0,1.92-.86,1.92-1.92,0-8.47,4.19-16.38,11.21-21.16l1.19-.81,3.65,7.27-.85.63c-4.52,3.35-7.12,8.48-7.12,14.07,0,9.67,7.87,17.54,17.54,17.54s17.54-7.87,17.54-17.54-7.85-17.56-17.5-17.56Zm-63.14,17.54c0,7.56-6.15,13.7-13.7,13.7s-13.7-6.15-13.7-13.7,6.15-13.7,13.7-13.7c2.41,0,4.73.63,6.88,1.86l1.43.82-9.66,9.66c-.75.75-.75,1.96,0,2.71.75.75,1.96.74,2.71,0l9.64-9.64.83,1.4c1.22,2.06,1.87,4.45,1.87,6.9Zm42.81-44.09l.11.58c.4,2.1.59,3.82.59,5.27v1.88l-1.74-.71c-2.69-1.1-6.84-2.23-11.37-1.39-4.63.84-8.75,3.51-12.27,7.92l-.62.78-.91-.43c-.42-.2-.9-.42-1.42-.65l-.32-5.26c-.24-3.81-3-7.06-6.72-7.92l-5.25-1.19,6.44-11.26,7.44,5.85c2.09,1.64,4.7,2.46,7.35,2.3h0s7.77-.47,7.77-.47c0,0,.01,0,.02,0,.64-.04,1.27-.17,1.87-.39l9.02,5.09Zm-56.49,16.16c-4.06,0-7.96.85-11.59,2.53l-1.79.83v-4.11l.35-.37c3.33-3.48,7.92-4.59,12.89-4.52.14.04.28.09.42.12l13.51,3.04.38,6.32c-4.16-2.45-9.01-3.85-14.16-3.85Zm18.65,10.7l-.8-13.29c-.12-1.89-1.44-3.45-3.29-3.88l-13.39-3.02c-1.4-.32-2.58-1.29-3.16-2.6-.58-1.31-.51-2.84.19-4.09l15.51-27.13c.34-.6.92-1.02,1.59-1.15.11-.02.22-.03.33-.04,0,0,0,0,0,0,.56-.03,1.12.14,1.57.49l18.05,13.9c.81.62,1.82.93,2.84.87l6.72-.41c1.27-.13,2.45.73,2.73,1.98.11.73-.12,1.47-.62,1.99-.17.21-.4.38-.65.5-.29.14-.6.23-.93.25l-7.77.47c-1.66.1-3.29-.41-4.59-1.44l-11.42-8.97c-.87-.66-2.14-.49-2.82.37-.68.86-.54,2.13.3,2.83l.74.58-8.1,14.15c-.32.56-.35,1.24-.1,1.83.26.59.78,1.02,1.41,1.17l7.94,1.8c1.96.45,3.42,2.17,3.55,4.18l1.08,17.9c.18,1.83-1.05,3.53-2.85,3.94-.13.02-.26.04-.38.04-.85.05-1.7-.21-2.36-.75-.77-.61-1.24-1.52-1.31-2.5Zm28.88,14.17l-.12,1.13h-19.54l-.12-1.13c-.35-3.23-.97-5.41-2.04-7.83,2.54-1.45,4.13-4.26,3.91-7.32l-.5-8.31c1.15.55,1.83.91,1.87.94.84.45,1.91.18,2.45-.64,3.2-4.81,7-7.65,11.29-8.46,6.23-1.16,11.54,2.21,12.45,2.84h0c.41.3.99.4,1.53.26.58-.14,1.04-.53,1.31-1.09,1.73-3.85,1.12-10.82-1.73-19.61l-.82-2.54,2.49.97c12.71,4.97,16.47,18.61,17.09,21.3l.03.29v2.78l-1.22.04c-14.65.47-26.83,11.82-28.33,26.39Zm38.98,12.73c-2.59,2.59-6.03,4.02-9.69,4.02-7.56,0-13.7-6.15-13.7-13.7,0-3.91,1.69-7.64,4.62-10.25l1.23-1.09,6.13,12.19c.48.94,1.63,1.32,2.57.84.45-.23.79-.62.95-1.11s.12-1-.11-1.46l-6.15-12.21,1.6-.35c.92-.2,1.88-.3,2.84-.3,7.56,0,13.7,6.15,13.7,13.7.01,3.66-1.4,7.11-3.99,9.7Z" fill="#fff"/>
  </g>
  <rect x="-10" y="-10" width="140" height="140" fill="none"/>
</svg>