<svg width="9" height="14" viewBox="0 0 9 14" fill="none" xmlns="http://www.w3.org/2000/svg">
<path d="M8.23768 7.80991L2.52339 13.5242C2.3091 13.7388 2.01833 13.8595 1.71506 13.8597C1.41178 13.8599 1.12085 13.7396 0.90625 13.5253C0.691652 13.311 0.570971 13.0203 0.570757 12.717C0.570543 12.4137 0.690812 12.1228 0.905107 11.9082L5.81253 7.00077L0.907393 2.09563C0.793959 1.99137 0.702777 1.86526 0.639326 1.72486C0.575874 1.58447 0.541465 1.43269 0.538165 1.27866C0.534865 1.12463 0.562743 0.971524 0.620123 0.828541C0.677503 0.685558 0.763201 0.555654 0.872066 0.446635C0.98093 0.337617 1.11071 0.251735 1.25361 0.194152C1.39652 0.13657 1.54958 0.108475 1.70362 0.111557C1.85766 0.114639 2.00948 0.148834 2.14996 0.212086C2.29045 0.275338 2.41669 0.366343 2.52111 0.479628L8.23539 6.19391C8.44995 6.40793 8.57072 6.69839 8.57115 7.00144C8.57158 7.30448 8.45163 7.59529 8.23768 7.80991Z" fill="#fff"/>
</svg>
