<?xml version="1.0" encoding="UTF-8"?>
<svg id="a" data-name="Layer 1" xmlns="http://www.w3.org/2000/svg" width="120" height="120" viewBox="0 0 120 120">
  <path d="m112.01,116.53l-12.14-15.61c-.83-1.07-2.15-1.65-3.5-1.54l-20.56,1.71,1.63-14.68c.03-.3,0-.61-.11-.9l-1.49-4.15c-.03-.07-.06-.15-.09-.22l-4.09-8.17,5.61-22.46,10.47-5.23,7.64,2.55c.82.27,1.72,0,2.24-.7h0c.82-1.1.33-2.67-.97-3.11l-7.64-2.55c-1.01-.34-2.11-.26-3.06.22l-9.06,4.53-3.28-13.14,3.71-14.83,17.8-12.46c.91-.64,1.13-1.89.49-2.79h0c-.64-.91-1.89-1.13-2.79-.49l-17.8,12.46c-.79.55-1.36,1.38-1.59,2.31l-3.71,14.83c-.16.64-.16,1.31,0,1.95l3.77,15.08-4.16,16.64c-.59-.72-1.09-1.13-1.09-1.13-.3-.18-.61-.33-.94-.45h.01s-12.36-4.64-12.36-4.64c-.23-.08-.47-.12-.71-.12h-14.68l-1.05-2.45-2.28-5.32,2.99,1.5,4.12,2.06c.28.14.58.21.89.21h7.67c3.08,0,5.71-2.24,6.22-5.28,1.02-5.65-5.89-7.42-5.89-7.42l-7.33-1.22-.65-.36,3.09-2.06c.22-.15.41-.33.55-.55l4.34-6.5c2.92-5.57,0-9.28,0-9.28-1.78-2.03-4.51-2.72-6.94-2.02L49.13.24h-4.07l-4.5,24.03-5.51,5.51-6.1,3.04c-.85-.3-1.72-.48-2.6-.54,1.59-1.86,2.56-4.28,2.56-6.91,0-5.88-4.79-10.67-10.67-10.67s-10.67,4.79-10.67,10.67c0,5.14,3.65,9.44,8.5,10.45-1.15,1.11-1.84,2.65-1.83,4.31v1.82c0,1.26.28,2.5.8,3.64l11.39,24.67c.1.21.23.41.4.58l13.58,13.59,2.73,12.58c.73,3.26,3.63,5.56,6.96,5.54.49,0,.97-.05,1.45-.15,3.89-.76,6.42-4.53,5.66-8.41,0-.02,0-.04-.01-.06-1.2-5.92-3-14.89-3-14.9-.06-.3-.19-.59-.38-.84l-3.2-4.12,1.71-.57,11.2,2.8c.5.13,1.02.2,1.54.2,1.12-.01,2.21-.32,3.17-.88.07-.06.12-.11.18-.17l5.08,10.15-1.21,10.92-.61,5.46-14.65,7.32c-.56.28-1.04.68-1.42,1.18l-4.53,6.04c-.66.89-.49,2.14.4,2.81.89.66,2.14.49,2.81-.4l3.72-4.95c.15-.2.34-.38.56-.51l4.09-2.49s.1-.06.15-.08l10.95-5.48c.23-.11.48-.18.73-.2l21.14-1.76c.68-.06,1.33.23,1.75.77l5.16,6.64,2.51,3.22,3.81,4.9c.68.87,1.94,1.03,2.81.35h0c.87-.68,1.03-1.94.35-2.82ZM44.26,26.22l.93-.93c1.11-1.1,2.9-1.1,4,0,.95.95,1.09,2.44.35,3.56l-4.75,7.12-2.69,1.8,2.16-11.55Zm-7.14,6.99c.19-.1.37-.22.52-.38l1.61-1.61-1.21,6.47-4.68-2.6,3.77-1.88Zm-25.56-7.83c0-3.68,2.99-6.67,6.67-6.67s6.67,2.99,6.67,6.67-2.99,6.67-6.67,6.67-6.67-2.99-6.67-6.67Zm6.67,16.58v-1.82c0-.82.5-1.55,1.26-1.86l3.95-1.58c1.68-.68,3.57-.56,5.14.33l8.68,4.82,3.69,2.05,2.31,1.28c.2.11.42.19.64.22l8.38,1.4c1.27.21,2.13,1.41,1.91,2.68-.19,1.12-1.16,1.94-2.3,1.95h-7.2l-4.72-2.36-3.72-1.86-3.14-1.57c-.99-.49-2.19-.09-2.68.89-.26.53-.28,1.14-.05,1.68l3.27,7.63-7.92,3.39-7.07-15.31c-.29-.62-.44-1.29-.44-1.97Zm35.05,52.77c.17.82.01,1.68-.45,2.38-.51.75-1.3,1.25-2.19,1.4-1.63.31-3.22-.73-3.59-2.35l-2.86-13.15c-.08-.37-.27-.72-.54-.99l-13.75-13.75-2.42-5.25,7.76-3.49,1.15,2.69c.07.16.15.31.26.44l13.71,17.63c.38,1.91,1.87,9.33,2.92,14.45Zm14.08-24.02c-.32,1.26-1.6,2.03-2.86,1.72l-11.78-2.94c-.37-.09-.76-.08-1.12.04l-3.6,1.2-5.68-7.3h11.55l12.02,4.51c1.12.42,1.75,1.62,1.46,2.78h.01Z" fill="#fff"/>
  <rect x="-10" y="-10" width="140" height="140" fill="none"/>
</svg>