<svg width="33" height="32" viewBox="0 0 33 32" fill="none" xmlns="http://www.w3.org/2000/svg">
<g clip-path="url(#clip0_4986_20392)">
<path d="M19.1986 12.4024C19.1372 12.0358 18.9419 11.705 18.6505 11.474C18.3592 11.243 17.9925 11.1284 17.6215 11.1521H17.6009L16.0512 11.2436H16.0398L11.9255 8.06415C11.759 7.93593 11.567 7.84489 11.3624 7.79718C11.1578 7.74947 10.9453 7.74619 10.7393 7.78756C10.5333 7.82894 10.3385 7.914 10.1682 8.03703C9.99782 8.16005 9.85584 8.31817 9.75179 8.50072L6.19293 14.7019C6.04084 14.9699 5.95368 15.2699 5.93845 15.5778C5.92321 15.8856 5.98034 16.1928 6.10523 16.4746C6.23012 16.7563 6.41931 17.0049 6.65762 17.2004C6.89593 17.3959 7.17673 17.5328 7.47751 17.6001L10.5655 18.2859L10.7506 21.351C10.7643 21.5773 10.8225 21.7986 10.9219 22.0024C11.0212 22.2061 11.1598 22.3883 11.3297 22.5384C11.4995 22.6885 11.6973 22.8036 11.9117 22.8772C12.1262 22.9507 12.353 22.9812 12.5792 22.967C12.6364 22.967 12.6958 22.967 12.7529 22.951C13.18 22.8677 13.5618 22.6307 13.8259 22.2849C14.09 21.9391 14.2182 21.5084 14.1861 21.0744L13.9369 16.9807C13.9085 16.5543 13.744 16.1482 13.4674 15.8223C13.1909 15.4964 12.8171 15.2679 12.4009 15.1704L11.2032 14.9007L12.6752 12.327L14.3758 13.6641C14.8521 14.0401 15.4502 14.2272 16.0558 14.1899L17.8318 14.0824C18.0273 14.0737 18.2192 14.0263 18.3964 13.943C18.5655 13.8623 18.7157 13.7471 18.8375 13.6047C18.9844 13.4445 19.0932 13.2531 19.1557 13.0449C19.2183 12.8367 19.2329 12.6171 19.1986 12.4024ZM18.1381 12.9853C18.0974 13.0336 18.0467 13.0726 17.9895 13.0996C17.9231 13.1324 17.8509 13.1518 17.7769 13.1567L16.0009 13.2573C15.6219 13.2803 15.2477 13.1631 14.9495 12.9281L12.3415 10.871C12.2448 10.7946 12.1217 10.7598 11.9994 10.7741C11.877 10.7885 11.7653 10.8509 11.6889 10.9476C11.6126 11.0443 11.5777 11.1673 11.5921 11.2897C11.6064 11.4121 11.6688 11.5238 11.7655 11.6001L11.9346 11.735L10.0832 14.9693C10.0479 15.0328 10.0277 15.1035 10.0241 15.176C10.0206 15.2486 10.0337 15.321 10.0626 15.3876C10.0912 15.4539 10.1352 15.5125 10.1908 15.5586C10.2464 15.6047 10.3122 15.637 10.3826 15.6527L12.1975 16.0641C12.4171 16.1159 12.6143 16.2365 12.7603 16.4084C12.9063 16.5804 12.9935 16.7945 13.0089 17.0196L13.2558 21.111C13.2749 21.3149 13.2194 21.5187 13.0996 21.6847C12.9798 21.8508 12.8038 21.9677 12.6044 22.0139H12.5175C12.3226 22.0263 12.1301 21.9652 11.9781 21.8424C11.8909 21.7735 11.8192 21.687 11.7676 21.5885C11.7161 21.4901 11.6857 21.3819 11.6786 21.271L11.4958 18.2333C11.4774 18.0287 11.3947 17.8352 11.2596 17.6804C11.1246 17.5256 10.944 17.4175 10.7438 17.3716L7.68322 16.6859C7.52428 16.6506 7.37578 16.5787 7.24958 16.4758C7.12337 16.373 7.02296 16.2421 6.95634 16.0935C6.88973 15.9449 6.85876 15.7829 6.8659 15.6202C6.87305 15.4576 6.91812 15.2989 6.99751 15.1567L10.5472 8.95329C10.5844 8.88473 10.6363 8.82522 10.6991 8.77899C10.7619 8.73277 10.8341 8.70097 10.9106 8.68586H10.9861C11.1153 8.67875 11.2427 8.71852 11.3449 8.79786L15.4729 11.9704C15.6585 12.1123 15.8889 12.1828 16.1221 12.1693L17.6581 12.0779C17.7998 12.0641 17.9416 12.1032 18.0563 12.1876C18.1711 12.2719 18.2506 12.3956 18.2798 12.535C18.2925 12.6159 18.2864 12.6987 18.2618 12.7768C18.2372 12.8549 18.1949 12.9263 18.1381 12.9853Z" fill="#0D4C3F"/>
<path d="M13.985 2.75656H13.969C12.7027 2.90742 11.8593 4.04799 11.5553 4.53028C11.4615 4.68607 11.4132 4.86502 11.4159 5.04685L11.4319 6.12114C11.4324 6.24897 11.4583 6.37542 11.5082 6.49313C11.558 6.61085 11.6308 6.71749 11.7222 6.80685L14.1542 9.16342C14.2514 9.2571 14.367 9.32963 14.4937 9.37644C14.6204 9.42326 14.7554 9.44334 14.8902 9.43542C15.0858 9.42372 15.2729 9.35098 15.425 9.22742C16.1496 8.65599 17.3747 7.48342 17.4479 6.04799C17.4605 5.62243 17.3782 5.1994 17.207 4.80958C17.0358 4.41977 16.78 4.07295 16.4582 3.79428C16.1513 3.44544 15.7693 3.17079 15.3409 2.99104C14.9125 2.81128 14.4489 2.73111 13.985 2.75656ZM16.5244 5.99771C16.465 7.11085 15.3359 8.11428 14.8513 8.49599L14.8262 8.51656L14.8102 8.49142L12.3599 6.12342L12.337 5.02856V5.01714C12.5176 4.72914 13.1804 3.78285 14.0742 3.67771H14.1587C14.4732 3.68738 14.7821 3.76251 15.0659 3.89828C15.3496 4.03406 15.6019 4.22751 15.8067 4.46628C16.0326 4.65225 16.2141 4.88617 16.3383 5.15107C16.4624 5.41596 16.526 5.70517 16.5244 5.99771Z" fill="#0D4C3F"/>
<path d="M17.4228 5.81269C17.3993 5.75632 17.3647 5.70523 17.3211 5.66244C17.2776 5.61965 17.2258 5.58603 17.1691 5.56355L15.6719 4.94641C15.4437 4.84696 15.1888 4.82669 14.9478 4.88884C14.7067 4.95099 14.4934 5.09198 14.3418 5.28937C14.1901 5.48676 14.1088 5.72921 14.1109 5.97812C14.1129 6.22703 14.1982 6.46811 14.3531 6.66298L15.6376 8.32698C15.6834 8.38678 15.7432 8.43435 15.8118 8.46545C15.8804 8.49655 15.9556 8.51023 16.0308 8.50526C16.1167 8.50377 16.2005 8.47807 16.2725 8.43113C16.3445 8.38418 16.4018 8.31788 16.4379 8.23984C16.4739 8.1618 16.4872 8.07518 16.4762 7.98993C16.4653 7.90467 16.4305 7.82423 16.3759 7.75784L15.0891 6.09384C15.0639 6.06107 15.0502 6.02089 15.0502 5.97955C15.0502 5.93821 15.0639 5.89803 15.0891 5.86527C15.1142 5.83025 15.1507 5.80499 15.1924 5.79375C15.234 5.78251 15.2782 5.78597 15.3176 5.80355L16.8125 6.42069C16.8978 6.46107 16.9936 6.47403 17.0865 6.45781C17.1795 6.4416 17.2652 6.39699 17.3319 6.33011C17.3985 6.26324 17.4428 6.17738 17.4586 6.08432C17.4745 5.99127 17.4612 5.89559 17.4205 5.81041L17.4228 5.81269Z" fill="#0D4C3F"/>
<path d="M3.70884 20.8274C3.78127 20.8644 3.86276 20.8799 3.94374 20.8723C4.02471 20.8646 4.10181 20.8339 4.16598 20.7839C5.11682 20.0878 6.26715 19.7174 7.44556 19.7281C8.62397 19.7389 9.76738 20.13 10.7054 20.8434L10.9843 19.9291C9.92757 19.2165 8.68165 18.8367 7.40712 18.8388C6.49395 18.8408 5.59221 19.0421 4.76484 19.4285L4.3557 19.6159V18.6788L4.4357 18.5942C5.76598 17.2022 7.96941 17.4697 9.99227 17.9337L9.70655 17.3051C7.36141 16.7931 5.10998 16.3497 3.56712 18.2445C3.50543 18.3212 3.47016 18.4158 3.46655 18.5142V20.4342C3.4684 20.5154 3.49182 20.5945 3.5344 20.6636C3.57698 20.7327 3.63719 20.7892 3.70884 20.8274Z" fill="#0D4C3F"/>
<path d="M10.9244 21.1064L9.9164 22.1122L9.71755 21.9704C8.89389 21.3873 7.88133 21.1347 6.88028 21.2625C5.87924 21.3904 4.96267 21.8894 4.31199 22.6608C3.66131 23.4322 3.32393 24.4197 3.36665 25.428C3.40936 26.4363 3.82905 27.3918 4.54265 28.1053C5.25624 28.8189 6.21173 29.2386 7.22 29.2813C8.22827 29.3241 9.21583 28.9867 9.98722 28.336C10.7586 27.6853 11.2576 26.7688 11.3855 25.7677C11.5133 24.7667 11.2607 23.7541 10.6775 22.9304L10.5358 22.7316L11.4638 21.8013L10.9244 21.1064ZM10.5427 25.2344C10.5442 25.926 10.3173 26.5987 9.89716 27.1479C9.47704 27.6972 8.88725 28.0924 8.21944 28.272C7.55163 28.4516 6.84321 28.4056 6.20424 28.1411C5.56527 27.8766 5.03154 27.4085 4.686 26.8095C4.34045 26.2105 4.20243 25.5141 4.29339 24.8286C4.38435 24.1431 4.69919 23.5068 5.18899 23.0186C5.67879 22.5304 6.31611 22.2177 7.00194 22.129C7.68776 22.0403 8.38368 22.1806 8.98155 22.5282L9.31069 22.7156L7.10269 24.9144C7.01964 24.9969 6.97274 25.109 6.97231 25.226C6.97188 25.343 7.01796 25.4554 7.1004 25.5384C7.18285 25.6215 7.29491 25.6684 7.41193 25.6688C7.52895 25.6693 7.64135 25.6232 7.7244 25.5407L9.92555 23.3373L10.1153 23.6573C10.3973 24.1349 10.545 24.6798 10.5427 25.2344Z" fill="#0D4C3F"/>
<path d="M24.9749 21.2251C24.5775 21.2247 24.1822 21.284 23.8024 21.4011L23.5738 21.4742L22.7349 19.8194L23.0481 19.7119C23.8134 19.4374 24.6287 19.3306 25.4389 19.3988C25.4965 19.4047 25.5546 19.3986 25.6097 19.3809C25.6648 19.3632 25.7156 19.3343 25.7589 19.2959C25.8064 19.2522 25.8445 19.1992 25.8708 19.1403C25.8971 19.0813 25.9112 19.0176 25.9121 18.9531L25.8984 17.6708C25.8001 17.2136 24.6412 12.3725 19.9144 11.7165C19.8364 11.7081 19.7577 11.7199 19.6856 11.7507C19.6136 11.7815 19.5507 11.8304 19.5029 11.8925C19.455 11.9521 19.4248 12.0241 19.4159 12.1001C19.407 12.1761 19.4198 12.2531 19.4526 12.3222C19.5692 12.5919 19.6972 12.9256 19.8184 13.2822L20.0675 14.0022L18.3578 13.0285L17.7269 13.6708L17.7818 13.7142L20.3281 15.1519L20.3532 15.2845C20.4354 15.681 20.4805 16.0842 20.4881 16.4891V16.9142L20.0904 16.7519C19.2719 16.4011 18.3706 16.2901 17.4915 16.4319C16.4332 16.6239 15.4892 17.2342 14.6869 18.2422L14.5452 18.4228L14.3372 18.3245C14.0424 18.1851 13.6355 18.0022 13.1509 17.8056L13.2698 18.7999C14.0104 19.1199 14.4835 19.3714 14.5018 19.3805C14.5968 19.4292 14.7064 19.4412 14.8097 19.4142C14.913 19.3873 15.0027 19.3232 15.0618 19.2342C15.7909 18.1348 16.6618 17.4834 17.6424 17.2982C19.0664 17.0331 20.2801 17.8033 20.4881 17.9474C20.5381 17.983 20.5955 18.007 20.656 18.0176C20.7165 18.0283 20.7786 18.0254 20.8378 18.0091C20.903 17.9922 20.9636 17.9611 21.0154 17.918C21.0671 17.8749 21.1087 17.8209 21.1372 17.7599C21.5326 16.8868 21.3932 15.2936 20.7532 13.2845L20.5658 12.7039L21.1326 12.9325C24.0378 14.0754 24.8972 17.1885 25.0412 17.8011V17.8674V18.5028H24.7624C23.1373 18.5587 21.5871 19.1995 20.3969 20.3073C19.2067 21.4152 18.4566 22.9156 18.2846 24.5325L18.2572 24.7931H13.7864L13.7589 24.5348C13.6754 23.6781 13.4105 22.8491 12.9818 22.1028C12.7532 22.1942 12.1726 22.0525 11.9509 22.1485C12.5777 23.0572 12.9133 24.1349 12.9132 25.2388C12.9132 25.3552 12.9594 25.4668 13.0418 25.5491C13.1241 25.6314 13.2357 25.6776 13.3521 25.6776H18.6686C18.785 25.6776 18.8967 25.6314 18.979 25.5491C19.0613 25.4668 19.1075 25.3552 19.1075 25.2388C19.1075 24.285 19.3408 23.3456 19.787 22.5027C20.2332 21.6597 20.8788 20.9386 21.6675 20.4022L21.9395 20.2171L22.7761 21.8788L22.5795 22.0251C22.0741 22.3945 21.6632 22.8782 21.3803 23.4367C21.0975 23.9952 20.9508 24.6127 20.9521 25.2388C20.953 26.031 21.1886 26.8053 21.6292 27.4637C22.0697 28.1222 22.6955 28.6353 23.4275 28.9384C24.1595 29.2415 24.9649 29.3209 25.742 29.1666C26.519 29.0123 27.233 28.6312 27.7937 28.0715C28.3544 27.5118 28.7366 26.7985 28.8923 26.0217C29.0479 25.2448 28.9698 24.4393 28.668 23.7068C28.3662 22.9743 27.8541 22.3477 27.1964 21.906C26.5387 21.4643 25.7649 21.2273 24.9726 21.2251H24.9749ZM27.1898 27.4468C26.8946 27.7483 26.5416 27.9871 26.1519 28.1488C25.7621 28.3105 25.3437 28.3917 24.9218 28.3877C24.4999 28.3836 24.0831 28.2943 23.6965 28.1252C23.31 27.956 22.9616 27.7105 22.6723 27.4033C22.383 27.0961 22.1588 26.7337 22.0131 26.3377C21.8674 25.9417 21.8032 25.5203 21.8244 25.0989C21.8457 24.6775 21.9518 24.2647 22.1366 23.8854C22.3213 23.506 22.5808 23.1679 22.8995 22.8914L23.1806 22.6422L24.5818 25.4285C24.6077 25.4797 24.6435 25.5252 24.6871 25.5626C24.7307 25.5999 24.7812 25.6283 24.8357 25.6462C24.8903 25.664 24.9478 25.6709 25.005 25.6665C25.0622 25.6621 25.118 25.6465 25.1692 25.6205C25.2204 25.5945 25.266 25.5587 25.3033 25.5152C25.3406 25.4716 25.369 25.4211 25.3869 25.3665C25.4047 25.312 25.4116 25.2545 25.4072 25.1973C25.4028 25.14 25.3872 25.0842 25.3612 25.0331L23.9532 22.2445L24.3189 22.1714C24.533 22.1254 24.7514 22.1024 24.9704 22.1028C25.5897 22.104 26.1949 22.2885 26.7097 22.633C27.2244 22.9775 27.6257 23.4666 27.863 24.0387C28.1003 24.6108 28.163 25.2404 28.0432 25.848C27.9234 26.4557 27.6265 27.0144 27.1898 27.4536V27.4468Z" fill="#0D4C3F"/>
</g>
<defs>
<clipPath id="clip0_4986_20392">
<rect width="32" height="32" fill="white" transform="translate(0.181641)"/>
</clipPath>
</defs>
</svg>
