<svg width="33" height="32" viewBox="0 0 33 32" fill="none" xmlns="http://www.w3.org/2000/svg">
<g clip-path="url(#clip0_4986_20460)">
<path d="M29.4387 15.0857V14.6285C29.4387 14.0187 29.1965 13.4338 28.7653 13.0026C28.334 12.5714 27.7492 12.3291 27.1393 12.3291C26.5295 12.3291 25.9446 12.5714 25.5134 13.0026C25.0822 13.4338 24.8399 14.0187 24.8399 14.6285V14.6925C24.6495 14.4311 24.3736 14.2446 24.0601 14.1653C23.7465 14.086 23.4151 14.1189 23.1233 14.2582L22.9473 14.3428C22.6169 14.1352 22.2393 14.0145 21.8498 13.9917C21.4602 13.9689 21.0711 14.0449 20.7187 14.2125L17.4045 15.8125C16.9303 16.0448 16.5501 16.4328 16.3276 16.9116C16.105 17.3904 16.0535 17.9311 16.1816 18.4434L14.9542 18.32L11.5119 14.4342V13.2411C11.5119 13.1199 11.4637 13.0036 11.378 12.9179C11.2923 12.8321 11.176 12.784 11.0547 12.784H4.14046C4.01922 12.784 3.90295 12.8321 3.81721 12.9179C3.73148 13.0036 3.68332 13.1199 3.68332 13.2411C3.68332 13.3623 3.73148 13.4786 3.81721 13.5644C3.90295 13.6501 4.01922 13.6982 4.14046 13.6982H6.94961C7.03502 14.1072 7.23414 14.4838 7.52406 14.7846C7.81398 15.0855 8.18292 15.2984 8.58846 15.3988L8.91532 15.4811L12.1999 20.4091C12.4462 20.7772 12.7985 21.0618 13.2102 21.2251L13.7085 21.424L13.6582 21.472L7.92332 20.1508C7.85654 20.1354 7.78715 20.1352 7.72029 20.1503C7.65342 20.1653 7.59079 20.1952 7.53704 20.2377L2.65018 24.0891C2.602 24.1256 2.56148 24.1712 2.53093 24.2233C2.50037 24.2754 2.48039 24.3331 2.47211 24.3929C2.46383 24.4528 2.46743 24.5137 2.48268 24.5721C2.49794 24.6306 2.52457 24.6855 2.56104 24.7337C2.59751 24.7819 2.64311 24.8224 2.69524 24.8529C2.74737 24.8835 2.805 24.9035 2.86486 24.9117C2.92471 24.92 2.98561 24.9164 3.04408 24.9012C3.10254 24.8859 3.15743 24.8593 3.20561 24.8228H3.21932L5.43875 23.056C5.7609 23.3611 6.17078 23.5572 6.61046 23.6167C7.05015 23.6761 7.49741 23.5959 7.88904 23.3874L13.2147 24.6171C13.6071 24.7081 14.017 24.6883 14.3987 24.56L19.3862 22.8982C20.4521 22.8918 21.5115 22.7309 22.5313 22.4205V23.3577C22.5309 23.431 22.5482 23.5033 22.5816 23.5685C22.615 23.6338 22.6636 23.69 22.7233 23.7325L25.873 25.984L26.7462 27.2937C26.7988 27.373 26.8749 27.4339 26.9638 27.4679C27.0527 27.5019 27.15 27.5073 27.2422 27.4834L29.0707 27.0262C29.1297 27.0121 29.1852 26.9863 29.234 26.9505C29.2829 26.9147 29.3242 26.8696 29.3554 26.8177C29.3867 26.7658 29.4073 26.7082 29.4161 26.6483C29.4249 26.5883 29.4218 26.5272 29.4067 26.4685C29.3977 26.4365 29.3863 26.4051 29.3725 26.3748L29.0136 25.6594L29.3725 24.9462C29.4046 24.8824 29.4214 24.812 29.4214 24.7405C29.4214 24.6691 29.4046 24.5986 29.3725 24.5348L28.9153 23.6205C28.8886 23.5662 28.8514 23.5178 28.8058 23.478C28.7602 23.4382 28.7071 23.4079 28.6497 23.3887C28.5923 23.3696 28.5317 23.362 28.4713 23.3665C28.411 23.371 28.3521 23.3874 28.2982 23.4148L27.6422 23.7417L25.745 22.224V21.0811L26.8445 20.5714C27.0215 20.611 27.2046 20.6151 27.3832 20.5835C27.5618 20.5519 27.7324 20.4851 27.885 20.3871C28.0376 20.2891 28.1693 20.1618 28.2724 20.0126C28.3755 19.8633 28.448 19.6951 28.4856 19.5177C28.5057 19.4207 28.5156 19.3219 28.5153 19.2228C28.9646 18.8881 29.2753 18.4001 29.3885 17.8514H29.4387C29.56 17.8514 29.6763 17.8032 29.762 17.7175C29.8477 17.6318 29.8959 17.5155 29.8959 17.3942V15.5428C29.8959 15.4216 29.8477 15.3053 29.762 15.2196C29.6763 15.1338 29.56 15.0857 29.4387 15.0857ZM28.1679 16.9142L27.345 16.5028C27.2812 16.4707 27.2108 16.4539 27.1393 16.4539C27.0679 16.4539 26.9974 16.4707 26.9336 16.5028L26.1108 16.9142H25.2993V16H28.9816V16.9142H28.1679ZM25.6719 19.8514H25.9005C25.9175 19.8872 25.9374 19.9216 25.9599 19.9542L25.7153 20.0662C25.7054 19.9938 25.6909 19.922 25.6719 19.8514ZM25.0662 18.9371C24.8843 18.9371 24.7099 18.8649 24.5813 18.7363C24.4527 18.6077 24.3805 18.4333 24.3805 18.2514V17.3714C24.3805 17.4926 24.4286 17.6089 24.5144 17.6946C24.6001 17.7804 24.7164 17.8285 24.8376 17.8285H24.8833C24.968 18.2361 25.1607 18.6134 25.441 18.9211L25.0662 18.9371ZM25.7519 14.624C25.7525 14.2563 25.8991 13.9039 26.1595 13.6444C26.4199 13.3848 26.7728 13.2394 27.1405 13.24C27.5081 13.2406 27.8605 13.3872 28.12 13.6476C28.3796 13.908 28.5251 14.2609 28.5245 14.6285V15.0857H25.7565L25.7519 14.624ZM23.8662 15.0628C23.9234 15.0823 23.9762 15.113 24.0215 15.1531C24.0668 15.1931 24.1037 15.2418 24.1301 15.2962C24.1564 15.3506 24.1717 15.4098 24.1751 15.4701C24.1784 15.5305 24.1698 15.591 24.1496 15.648C24.1171 15.7411 24.0554 15.8213 23.9736 15.8765C23.9199 15.5798 23.8089 15.2965 23.6467 15.0422C23.7234 15.0296 23.8021 15.0366 23.8753 15.0628H23.8662ZM21.1233 15.0377C21.4531 14.8791 21.8323 14.8581 22.1776 14.9792C22.5229 15.1003 22.8059 15.3536 22.9645 15.6834C23.123 16.0132 23.144 16.3924 23.0229 16.7377C22.9018 17.083 22.6485 17.366 22.3187 17.5245L21.8959 17.7188L20.7027 15.232L21.1233 15.0377ZM19.8799 15.6365L21.0753 18.1234L19.4182 18.9211L18.2159 16.4297L19.8799 15.6365ZM17.4205 16.8982L18.5473 19.2434C18.2618 19.2795 17.9722 19.2249 17.7195 19.0873C17.4667 18.9498 17.2637 18.7362 17.139 18.4768C17.0144 18.2174 16.9745 17.9254 17.025 17.6421C17.0755 17.3588 17.2139 17.0986 17.4205 16.8982ZM13.5485 20.3702C13.3107 20.2764 13.1073 20.1121 12.9656 19.8994L9.58275 14.8251C9.52282 14.7309 9.43123 14.6612 9.32446 14.6285L8.82161 14.5051C8.61504 14.4544 8.42388 14.3543 8.26461 14.2134C8.10534 14.0724 7.98272 13.8948 7.90732 13.696H10.5793V14.6102C10.5767 14.7264 10.6184 14.8392 10.6959 14.9257L14.3759 19.0651C14.4524 19.151 14.5585 19.2049 14.673 19.216L15.9347 19.344C15.6765 19.5019 15.4379 19.6899 15.2239 19.904L14.4125 20.7154L13.5485 20.3702ZM19.3176 21.9702C19.2687 21.9698 19.22 21.9775 19.1736 21.9931L14.1245 23.6891C13.9031 23.7624 13.6659 23.7734 13.4387 23.7211L7.92332 22.4502C7.86251 22.4364 7.7995 22.4351 7.73818 22.4465C7.67686 22.4579 7.61852 22.4817 7.56675 22.5165C7.35996 22.6537 7.11571 22.7235 6.86764 22.7161C6.61957 22.7087 6.37989 22.6246 6.18161 22.4754L7.93246 21.104L13.697 22.4342C13.7735 22.4509 13.8529 22.4477 13.9278 22.4249C14.0026 22.4021 14.0703 22.3604 14.1245 22.304L15.873 20.5554C16.2289 20.2014 16.6672 19.9414 17.1485 19.7988C17.5225 20.0404 17.958 20.1697 18.4033 20.1714C18.7471 20.1715 19.0863 20.0934 19.3953 19.9428L22.7119 18.3428C22.9971 18.206 23.2509 18.0114 23.457 17.7714V18.2285C23.4573 18.4413 23.5001 18.6519 23.5827 18.848C23.2762 18.9632 23.012 19.169 22.8254 19.4381C22.6388 19.7072 22.5386 20.0268 22.5382 20.3542V21.44C21.5008 21.7925 20.4132 21.9746 19.3176 21.9794V21.9702ZM27.3176 24.6285C27.3861 24.6839 27.4691 24.7184 27.5567 24.7277C27.6443 24.737 27.7327 24.7208 27.8113 24.6811L28.3187 24.4251L28.4719 24.7291L28.113 25.4422C28.0809 25.5061 28.0641 25.5765 28.0641 25.648C28.0641 25.7194 28.0809 25.7899 28.113 25.8537L28.3165 26.2605L27.3405 26.5142L26.5999 25.4057C26.5689 25.3591 26.5293 25.3187 26.4833 25.2868L23.457 23.1245V20.3817C23.457 20.1998 23.5293 20.0254 23.6579 19.8968C23.7865 19.7682 23.9609 19.696 24.1427 19.696C24.3246 19.696 24.499 19.7682 24.6276 19.8968C24.7562 20.0254 24.8285 20.1998 24.8285 20.3817V22.4525C24.8282 22.5214 24.8434 22.5894 24.8731 22.6516C24.9028 22.7137 24.9461 22.7683 24.9999 22.8114L27.3176 24.6285ZM27.1462 19.6708C27.0558 19.6708 26.9674 19.644 26.8922 19.5938C26.817 19.5435 26.7584 19.4721 26.7238 19.3886C26.6892 19.3051 26.6802 19.2132 26.6978 19.1245C26.7155 19.0358 26.759 18.9544 26.8229 18.8904C26.8869 18.8265 26.9683 18.783 27.057 18.7653C27.1457 18.7477 27.2376 18.7567 27.3211 18.7913C27.4046 18.8259 27.476 18.8845 27.5263 18.9597C27.5765 19.0349 27.6033 19.1233 27.6033 19.2137C27.6046 19.2752 27.5934 19.3364 27.5704 19.3936C27.5474 19.4507 27.5131 19.5026 27.4695 19.5462C27.426 19.5897 27.3741 19.624 27.3169 19.647C27.2598 19.67 27.1986 19.6812 27.137 19.68L27.1462 19.6708ZM28.1725 18.2994C28.0524 18.1641 27.9068 18.0539 27.744 17.9751C27.5812 17.8963 27.4044 17.8505 27.2239 17.8403C27.0433 17.8301 26.8625 17.8557 26.6918 17.9156C26.5212 17.9756 26.3641 18.0687 26.2296 18.1897C26.19 18.2239 26.1526 18.2605 26.1176 18.2994C25.998 18.1662 25.9056 18.0109 25.8456 17.8422H26.225C26.2964 17.8425 26.3669 17.8261 26.4307 17.7942L27.1462 17.4354L27.8593 17.7942C27.9232 17.8261 27.9937 17.8425 28.065 17.8422H28.4467C28.3834 18.0118 28.287 18.1672 28.1633 18.2994H28.1725Z" fill="#0D4C40"/>
<path d="M23.9163 12.32C24.1876 12.32 24.4527 12.2396 24.6783 12.0889C24.9038 11.9382 25.0796 11.724 25.1834 11.4734C25.2872 11.2228 25.3143 10.9471 25.2614 10.681C25.2085 10.415 25.0779 10.1706 24.8861 9.97883C24.6943 9.78703 24.4499 9.65642 24.1839 9.6035C23.9179 9.55058 23.6421 9.57774 23.3915 9.68154C23.1409 9.78534 22.9267 9.96112 22.776 10.1867C22.6254 10.4122 22.5449 10.6773 22.5449 10.9486C22.5449 11.3123 22.6894 11.6611 22.9466 11.9183C23.2038 12.1755 23.5526 12.32 23.9163 12.32ZM23.9163 10.4914C24.0068 10.4914 24.0951 10.5182 24.1703 10.5685C24.2455 10.6187 24.3041 10.6901 24.3387 10.7736C24.3733 10.8572 24.3823 10.9491 24.3647 11.0378C24.3471 11.1264 24.3035 11.2079 24.2396 11.2718C24.1757 11.3358 24.0942 11.3793 24.0055 11.3969C23.9169 11.4146 23.8249 11.4055 23.7414 11.3709C23.6579 11.3363 23.5865 11.2777 23.5363 11.2026C23.486 11.1274 23.4592 11.039 23.4592 10.9486C23.458 10.8878 23.4689 10.8274 23.4913 10.7708C23.5138 10.7143 23.5473 10.6628 23.5898 10.6194C23.6324 10.576 23.6832 10.5415 23.7393 10.5179C23.7953 10.4944 23.8555 10.4823 23.9163 10.4823V10.4914Z" fill="#0D4C40"/>
<path d="M26.6771 9.10126C26.9483 9.10126 27.2135 9.02082 27.439 8.87013C27.6645 8.71944 27.8403 8.50525 27.9441 8.25465C28.0479 8.00406 28.0751 7.72831 28.0222 7.46228C27.9693 7.19625 27.8386 6.95188 27.6468 6.76008C27.455 6.56828 27.2107 6.43767 26.9446 6.38475C26.6786 6.33183 26.4029 6.35899 26.1523 6.46279C25.9017 6.56659 25.6875 6.74237 25.5368 6.9679C25.3861 7.19343 25.3057 7.45859 25.3057 7.72983C25.3057 8.09355 25.4502 8.44238 25.7073 8.69958C25.9645 8.95677 26.3134 9.10126 26.6771 9.10126ZM26.6771 7.27269C26.7675 7.27269 26.8559 7.2995 26.9311 7.34973C27.0062 7.39996 27.0648 7.47136 27.0994 7.55489C27.134 7.63842 27.1431 7.73034 27.1255 7.81901C27.1078 7.90769 27.0643 7.98915 27.0003 8.05308C26.9364 8.11701 26.855 8.16055 26.7663 8.17819C26.6776 8.19583 26.5857 8.18677 26.5022 8.15217C26.4186 8.11757 26.3472 8.05898 26.297 7.9838C26.2468 7.90863 26.22 7.82024 26.22 7.72983C26.2184 7.66884 26.2291 7.60816 26.2514 7.55138C26.2737 7.49459 26.3071 7.44283 26.3497 7.39917C26.3923 7.3555 26.4433 7.3208 26.4995 7.29711C26.5557 7.27343 26.6161 7.26124 26.6771 7.26126V7.27269Z" fill="#0D4C40"/>
<path d="M21.1576 7.26141C21.4288 7.26141 21.694 7.18098 21.9195 7.03029C22.145 6.87959 22.3208 6.6654 22.4246 6.41481C22.5284 6.16421 22.5556 5.88846 22.5026 5.62243C22.4497 5.3564 22.3191 5.11204 22.1273 4.92024C21.9355 4.72844 21.6911 4.59782 21.4251 4.54491C21.1591 4.49199 20.8833 4.51915 20.6327 4.62295C20.3821 4.72675 20.168 4.90253 20.0173 5.12806C19.8666 5.35359 19.7861 5.61874 19.7861 5.88998C19.7861 6.25371 19.9306 6.60254 20.1878 6.85973C20.445 7.11692 20.7938 7.26141 21.1576 7.26141ZM21.1576 5.43284C21.248 5.43284 21.3364 5.45965 21.4115 5.50988C21.4867 5.56012 21.5453 5.63151 21.5799 5.71504C21.6145 5.79858 21.6236 5.89049 21.6059 5.97917C21.5883 6.06785 21.5447 6.1493 21.4808 6.21323C21.4169 6.27717 21.3354 6.3207 21.2467 6.33834C21.1581 6.35598 21.0662 6.34693 20.9826 6.31233C20.8991 6.27773 20.8277 6.21914 20.7775 6.14396C20.7272 6.06878 20.7004 5.9804 20.7004 5.88998C20.6989 5.829 20.7096 5.76832 20.7319 5.71153C20.7542 5.65474 20.7876 5.60299 20.8302 5.55932C20.8728 5.51565 20.9237 5.48096 20.9799 5.45727C21.0362 5.43359 21.0966 5.42139 21.1576 5.42141V5.43284Z" fill="#0D4C40"/>
</g>
<defs>
<clipPath id="clip0_4986_20460">
<rect width="32" height="32" fill="white" transform="translate(0.181641)"/>
</clipPath>
</defs>
</svg>
