<svg width="56" height="56" viewBox="0 0 56 56" fill="none" xmlns="http://www.w3.org/2000/svg">
<path d="M33.2801 21.7025C33.1725 21.0609 32.8307 20.482 32.3209 20.0778C31.8111 19.6736 31.1694 19.4729 30.5201 19.5145H30.4841L27.7721 19.6745H27.7521L20.5521 14.1105C20.2608 13.8862 19.9248 13.7269 19.5667 13.6434C19.2086 13.5599 18.8367 13.5541 18.4762 13.6265C18.1157 13.6989 17.7749 13.8478 17.4768 14.0631C17.1787 14.2784 16.9302 14.5551 16.7481 14.8745L10.5201 25.7265C10.254 26.1957 10.1014 26.7207 10.0748 27.2594C10.0481 27.7981 10.1481 28.3356 10.3666 28.8288C10.5852 29.3219 10.9163 29.7569 11.3333 30.099C11.7504 30.4411 12.2418 30.6807 12.7681 30.7985L18.1721 31.9986L18.4961 37.3626C18.5201 37.7585 18.6219 38.1459 18.7958 38.5024C18.9696 38.859 19.2122 39.1778 19.5094 39.4405C19.8067 39.7031 20.1528 39.9046 20.528 40.0333C20.9033 40.1621 21.3002 40.2155 21.6961 40.1906C21.7961 40.1906 21.9001 40.1906 22.0001 40.1626C22.7476 40.0168 23.4156 39.6021 23.8778 38.9969C24.34 38.3917 24.5643 37.638 24.5081 36.8785L24.0721 29.7146C24.0224 28.9683 23.7344 28.2576 23.2505 27.6873C22.7666 27.117 22.1124 26.7171 21.3841 26.5466L19.2881 26.0746L21.8641 21.5705L24.8401 23.9105C25.6736 24.5684 26.7203 24.896 27.7801 24.8306L30.8881 24.6425C31.2303 24.6272 31.5661 24.5443 31.8761 24.3985C32.172 24.2574 32.435 24.0557 32.6481 23.8065C32.9052 23.5261 33.0956 23.1913 33.2051 22.8269C33.3145 22.4626 33.3402 22.0782 33.2801 21.7025ZM31.4241 22.7225C31.3529 22.8072 31.2642 22.8754 31.1641 22.9225C31.0479 22.98 30.9215 23.0139 30.7921 23.0225L27.6841 23.1985C27.0209 23.2388 26.366 23.0338 25.8441 22.6225L21.2801 19.0225C21.1109 18.8889 20.8955 18.8279 20.6814 18.853C20.4672 18.8782 20.2718 18.9873 20.1381 19.1565C20.0045 19.3258 19.9435 19.5411 19.9686 19.7553C19.9937 19.9695 20.1029 20.1649 20.2721 20.2985L20.5681 20.5345L17.3281 26.1945C17.2664 26.3056 17.231 26.4294 17.2247 26.5564C17.2185 26.6833 17.2416 26.81 17.2921 26.9265C17.3422 27.0426 17.419 27.1452 17.5164 27.2259C17.6137 27.3065 17.7288 27.363 17.8521 27.3906L21.0281 28.1105C21.4124 28.201 21.7575 28.4122 22.013 28.7131C22.2686 29.0139 22.421 29.3887 22.4481 29.7826L22.8801 36.9426C22.9136 37.2993 22.8164 37.656 22.6068 37.9466C22.3971 38.2372 22.0892 38.4418 21.7401 38.5226H21.5881C21.247 38.5444 20.9101 38.4373 20.6441 38.2225C20.4916 38.1019 20.3661 37.9505 20.2759 37.7782C20.1856 37.606 20.1325 37.4166 20.1201 37.2225L19.8001 31.9065C19.7679 31.5485 19.6232 31.2098 19.3869 30.939C19.1505 30.6681 18.8345 30.479 18.4841 30.3986L13.1281 29.1986C12.85 29.1368 12.5901 29.011 12.3693 28.831C12.1484 28.651 11.9727 28.4219 11.8561 28.1619C11.7395 27.9019 11.6853 27.6183 11.6978 27.3337C11.7103 27.0491 11.7892 26.7713 11.9281 26.5225L18.1401 15.6665C18.2052 15.5466 18.2959 15.4424 18.4059 15.3615C18.5158 15.2806 18.6422 15.225 18.7761 15.1985H18.9081C19.1342 15.1861 19.3572 15.2557 19.5361 15.3945L26.7601 20.9465C27.085 21.1948 27.488 21.3182 27.8961 21.2945L30.5841 21.1345C30.8322 21.1106 31.0803 21.1789 31.2811 21.3265C31.4818 21.4741 31.6211 21.6906 31.6721 21.9345C31.6945 22.0761 31.6837 22.221 31.6407 22.3577C31.5976 22.4944 31.5235 22.6193 31.4241 22.7225Z" fill="#888888"/>
<path d="M24.1562 4.82252H24.1282C21.9122 5.08652 20.4362 7.08252 19.9042 7.92652C19.7401 8.19916 19.6555 8.51232 19.6602 8.83052L19.6882 10.7105C19.6892 10.9342 19.7345 11.1555 19.8218 11.3615C19.909 11.5675 20.0363 11.7541 20.1962 11.9105L24.4522 16.0345C24.6224 16.1985 24.8247 16.3254 25.0464 16.4073C25.2681 16.4892 25.5043 16.5244 25.7402 16.5105C26.0826 16.4901 26.41 16.3627 26.6762 16.1465C27.9442 15.1465 30.0882 13.0945 30.2162 10.5825C30.2383 9.83779 30.0943 9.09748 29.7947 8.41531C29.4952 7.73313 29.0475 7.12619 28.4842 6.63852C27.9473 6.02805 27.2787 5.54742 26.529 5.23285C25.7793 4.91828 24.968 4.77798 24.1562 4.82252ZM28.6002 10.4945C28.4962 12.4425 26.5202 14.1985 25.6722 14.8665L25.6282 14.9025L25.6002 14.8585L21.3122 10.7145L21.2722 8.79852V8.77852C21.5882 8.27452 22.7482 6.61852 24.3122 6.43452H24.4602C25.0104 6.45145 25.5511 6.58292 26.0477 6.82053C26.5442 7.05814 26.9858 7.39668 27.3442 7.81452C27.7394 8.13997 28.0571 8.54934 28.2744 9.0129C28.4917 9.47646 28.603 9.98258 28.6002 10.4945Z" fill="#888888"/>
<path d="M30.1722 10.1708C30.1311 10.0721 30.0706 9.9827 29.9944 9.90781C29.9181 9.83293 29.8276 9.77408 29.7282 9.73475L27.1082 8.65475C26.7089 8.48071 26.2628 8.44525 25.841 8.55401C25.4192 8.66277 25.0459 8.9095 24.7805 9.25493C24.5151 9.60036 24.3728 10.0246 24.3764 10.4602C24.38 10.8958 24.5292 11.3177 24.8002 11.6588L27.0482 14.5707C27.1283 14.6754 27.2331 14.7586 27.3531 14.8131C27.4731 14.8675 27.6047 14.8914 27.7362 14.8827C27.8866 14.8801 28.0333 14.8352 28.1593 14.753C28.2853 14.6708 28.3856 14.5548 28.4486 14.4183C28.5117 14.2817 28.535 14.1301 28.5158 13.9809C28.4966 13.8317 28.4358 13.6909 28.3402 13.5747L26.0882 10.6628C26.0441 10.6054 26.0202 10.5351 26.0202 10.4628C26.0202 10.3904 26.0441 10.3201 26.0882 10.2628C26.1323 10.2015 26.1961 10.1573 26.269 10.1376C26.3419 10.1179 26.4193 10.124 26.4882 10.1548L29.1042 11.2348C29.2536 11.3054 29.4211 11.3281 29.5838 11.2997C29.7466 11.2713 29.8965 11.1933 30.0131 11.0762C30.1297 10.9592 30.2072 10.8089 30.235 10.6461C30.2628 10.4833 30.2394 10.3158 30.1682 10.1668L30.1722 10.1708Z" fill="#888888"/>
<path d="M6.17217 36.4467C6.29893 36.5114 6.44153 36.5387 6.58324 36.5252C6.72495 36.5118 6.85987 36.4581 6.97217 36.3707C8.63614 35.1524 10.6492 34.5043 12.7114 34.523C14.7736 34.5418 16.7746 35.2263 18.4162 36.4747L18.9042 34.8747C17.0549 33.6276 14.8746 32.9631 12.6442 32.9667C11.0461 32.9702 9.46808 33.3224 8.02017 33.9987L7.30417 34.3267V32.6867L7.44417 32.5387C9.77217 30.1027 13.6282 30.5707 17.1682 31.3827L16.6682 30.2827C12.5642 29.3867 8.62417 28.6107 5.92417 31.9267C5.81621 32.0609 5.75448 32.2265 5.74817 32.3987V35.7587C5.75141 35.9007 5.79239 36.0392 5.86691 36.1601C5.94142 36.2811 6.04678 36.38 6.17217 36.4467Z" fill="#888888"/>
<path d="M18.8001 36.9355L17.0361 38.6955L16.6881 38.4475C15.2467 37.4271 13.4748 36.985 11.7229 37.2087C9.9711 37.4324 8.36711 38.3057 7.22841 39.6556C6.08972 41.0055 5.49932 42.7338 5.57407 44.4983C5.64882 46.2627 6.38328 47.9348 7.63207 49.1836C8.88085 50.4324 10.553 51.1669 12.3174 51.2416C14.0819 51.3164 15.8101 50.726 17.1601 49.5873C18.51 48.4486 19.3833 46.8446 19.607 45.0928C19.8307 43.3409 19.3886 41.569 18.3681 40.1275L18.1201 39.7795L19.7441 38.1515L18.8001 36.9355ZM18.1321 44.1595C18.1348 45.3697 17.7377 46.5469 17.0025 47.5082C16.2673 48.4694 15.2351 49.1609 14.0665 49.4752C12.8978 49.7895 11.658 49.709 10.5398 49.2462C9.42165 48.7834 8.48764 47.9642 7.88293 46.9159C7.27822 45.8676 7.03669 44.649 7.19587 43.4493C7.35504 42.2496 7.90601 41.1361 8.76316 40.2818C9.62031 39.4275 10.7356 38.8802 11.9358 38.725C13.136 38.5698 14.3539 38.8154 15.4001 39.4235L15.9761 39.7515L12.1121 43.5995C11.9668 43.7438 11.8847 43.9399 11.884 44.1447C11.8832 44.3495 11.9639 44.5462 12.1081 44.6915C12.2524 44.8369 12.4485 44.919 12.6533 44.9197C12.8581 44.9205 13.0548 44.8398 13.2001 44.6955L17.0521 40.8395L17.3841 41.3995C17.8777 42.2353 18.1361 43.1889 18.1321 44.1595Z" fill="#888888"/>
<path d="M43.3881 37.1426C42.6925 37.142 42.0008 37.2458 41.3361 37.4506L40.9361 37.5786L39.4681 34.6826L40.0161 34.4946C41.3554 34.0143 42.7822 33.8274 44.2001 33.9466C44.3008 33.957 44.4026 33.9464 44.4989 33.9154C44.5953 33.8844 44.6842 33.8337 44.7601 33.7666C44.8431 33.6901 44.9097 33.5974 44.9558 33.4942C45.0019 33.3911 45.0265 33.2796 45.0281 33.1666L45.0041 30.9226C44.8321 30.1226 42.8041 21.6506 34.5321 20.5026C34.3957 20.488 34.2579 20.5086 34.1318 20.5625C34.0057 20.6165 33.8956 20.7019 33.8121 20.8106C33.7282 20.915 33.6754 21.041 33.6598 21.174C33.6443 21.307 33.6665 21.4417 33.7241 21.5626C33.9281 22.0346 34.1521 22.6186 34.3641 23.2426L34.8001 24.5026L31.8081 22.7986L30.7041 23.9226L30.8001 23.9986L35.2561 26.5146L35.3001 26.7466C35.4438 27.4405 35.5228 28.1462 35.5361 28.8546V29.5986L34.8401 29.3146C33.4078 28.7007 31.8305 28.5064 30.2921 28.7546C28.4401 29.0906 26.7881 30.1586 25.3841 31.9226L25.1361 32.2386L24.7721 32.0666C24.2561 31.8226 23.5441 31.5026 22.6961 31.1586L22.9041 32.8986C24.2001 33.4586 25.0281 33.8986 25.0601 33.9146C25.2263 33.9999 25.4182 34.0209 25.5989 33.9737C25.7797 33.9265 25.9367 33.8143 26.0401 33.6586C27.3161 31.7346 28.8401 30.5946 30.5561 30.2706C33.0481 29.8066 35.1721 31.1546 35.5361 31.4066C35.6237 31.4689 35.724 31.511 35.8299 31.5296C35.9357 31.5483 36.0444 31.5432 36.1481 31.5146C36.2621 31.485 36.3682 31.4306 36.4588 31.3552C36.5494 31.2799 36.6222 31.1854 36.6721 31.0786C37.3641 29.5506 37.1201 26.7626 36.0001 23.2466L35.6721 22.2306L36.6641 22.6306C41.7481 24.6306 43.2521 30.0786 43.5041 31.1506V31.2666V32.3786H43.0161C40.1722 32.4764 37.4594 33.5979 35.3765 35.5366C33.2937 37.4754 31.9811 40.1011 31.6801 42.9306L31.6321 43.3866H23.8081L23.7601 42.9346C23.6139 41.4355 23.1503 39.9847 22.4001 38.6786C22.0001 38.8386 20.9841 38.5906 20.5961 38.7586C21.6929 40.3488 22.2802 42.2349 22.2801 44.1666C22.2801 44.3703 22.361 44.5657 22.505 44.7097C22.649 44.8537 22.8444 44.9346 23.0481 44.9346H32.3521C32.5558 44.9346 32.7511 44.8537 32.8951 44.7097C33.0392 44.5657 33.1201 44.3703 33.1201 44.1666C33.1201 42.4975 33.5283 40.8537 34.3092 39.3784C35.09 37.9032 36.2198 36.6413 37.6001 35.7026L38.0761 35.3786L39.5401 38.2866L39.1961 38.5426C38.3116 39.1891 37.5925 40.0357 37.0975 41.0131C36.6026 41.9905 36.3458 43.0711 36.3481 44.1666C36.3497 45.5531 36.762 46.908 37.533 48.0603C38.304 49.2125 39.3991 50.1106 40.6801 50.6409C41.9611 51.1713 43.3705 51.3103 44.7304 51.0403C46.0903 50.7703 47.3397 50.1034 48.3209 49.1239C49.3021 48.1444 49.9711 46.8961 50.2434 45.5367C50.5157 44.1772 50.3792 42.7676 49.851 41.4857C49.3228 40.2038 48.4266 39.1072 47.2757 38.3342C46.1247 37.5612 44.7705 37.1466 43.3841 37.1426H43.3881ZM47.2641 48.0306C46.7476 48.5583 46.1297 48.9762 45.4477 49.2592C44.7656 49.5421 44.0334 49.6843 43.2951 49.6772C42.5567 49.6701 41.8274 49.5139 41.1509 49.2178C40.4744 48.9218 39.8648 48.4921 39.3585 47.9546C38.8522 47.417 38.4598 46.7827 38.2049 46.0897C37.9499 45.3967 37.8376 44.6594 37.8747 43.9219C37.9119 43.1844 38.0977 42.4621 38.421 41.7982C38.7442 41.1343 39.1984 40.5426 39.7561 40.0586L40.2481 39.6226L42.7001 44.4986C42.7455 44.5882 42.8081 44.6679 42.8844 44.7333C42.9606 44.7987 43.049 44.8484 43.1445 44.8796C43.2399 44.9108 43.3406 44.9228 43.4407 44.9151C43.5409 44.9074 43.6385 44.8801 43.7281 44.8346C43.8176 44.7892 43.8974 44.7266 43.9627 44.6503C44.0281 44.5741 44.0778 44.4857 44.109 44.3902C44.1402 44.2948 44.1523 44.1941 44.1446 44.094C44.1369 43.9938 44.1095 43.8962 44.0641 43.8066L41.6001 38.9266L42.2401 38.7986C42.6147 38.7182 42.9969 38.6779 43.3801 38.6786C44.464 38.6808 45.523 39.0036 46.4238 39.6065C47.3246 40.2093 48.0269 41.0653 48.4422 42.0665C48.8575 43.0677 48.9672 44.1694 48.7576 45.2329C48.5479 46.2963 48.0283 47.274 47.2641 48.0426V48.0306Z" fill="#888888"/>
</svg>
