<svg width="56" height="56" viewBox="0 0 56 56" fill="none" xmlns="http://www.w3.org/2000/svg">
<g clip-path="url(#clip0_4600_57746)">
<path d="M43.748 8.43862L43.596 8.35062C43.112 8.07462 42.616 7.80662 42.124 7.55062C42.0039 7.44396 41.8692 7.35505 41.724 7.28662C39.2523 6.02996 36.6094 5.14317 33.88 4.65462H33.764C29.934 3.90158 25.994 3.90158 22.164 4.65462H22.116C19.388 5.14382 16.7465 6.0306 14.276 7.28662C14.2093 7.32075 14.1452 7.35951 14.084 7.40262C13.4536 7.71482 12.8419 8.06341 12.252 8.44662C11.5589 8.89454 10.8912 9.38062 10.252 9.90262C6.28398 13.1266 4.09998 17.2986 4.09998 21.6466C4.10115 22.4015 4.16672 23.1549 4.29598 23.8986C4.35245 24.2287 4.50402 24.535 4.7321 24.7802C4.96019 25.0253 5.25486 25.1985 5.57998 25.2786C5.92165 25.3546 6.27824 25.3267 6.60398 25.1986L6.65998 25.1786L6.69998 25.2186L20.3 38.5746H11.704C10.9423 38.5746 10.2118 38.8772 9.67317 39.4158C9.13456 39.9544 8.83198 40.6849 8.83198 41.4466C8.83198 42.2083 9.13456 42.9388 9.67317 43.4774C10.2118 44.016 10.9423 44.3186 11.704 44.3186H20.348C20.632 44.3197 20.904 44.433 21.1048 44.6338C21.3056 44.8346 21.4189 45.1066 21.42 45.3906V51.1146C21.42 51.3268 21.5043 51.5303 21.6543 51.6803C21.8043 51.8303 22.0078 51.9146 22.22 51.9146C22.4321 51.9146 22.6356 51.8303 22.7857 51.6803C22.9357 51.5303 23.02 51.3268 23.02 51.1146V49.9146L24.356 48.3986C25.0762 47.5698 25.4725 46.5086 25.472 45.4106V40.2106H30.436V45.4106C30.4358 46.5078 30.8305 47.5685 31.548 48.3986L32.876 49.9306V51.1306C32.876 51.3428 32.9603 51.5463 33.1103 51.6963C33.2603 51.8463 33.4638 51.9306 33.676 51.9306C33.8881 51.9306 34.0916 51.8463 34.2417 51.6963C34.3917 51.5463 34.476 51.3428 34.476 51.1306V45.4026C34.476 45.1183 34.5889 44.8456 34.79 44.6446C34.991 44.4436 35.2637 44.3306 35.548 44.3306H44.284C45.0457 44.3306 45.7762 44.028 46.3148 43.4894C46.8534 42.9508 47.156 42.2203 47.156 41.4586C47.156 40.6969 46.8534 39.9664 46.3148 39.4278C45.7762 38.8892 45.0457 38.5866 44.284 38.5866H35.484L35.644 38.4306L49.2 25.1306L49.256 25.1586C49.6194 25.3249 50.0288 25.3616 50.416 25.2626C50.7412 25.1842 51.0363 25.012 51.2646 24.7674C51.4929 24.5228 51.6443 24.2165 51.7 23.8866C51.8291 23.1429 51.8946 22.3895 51.896 21.6346C51.912 16.5706 48.936 11.7626 43.748 8.43862ZM21.42 42.9386L21.296 42.8946C20.9934 42.7786 20.6721 42.719 20.348 42.7186H11.704C11.3701 42.7176 11.0503 42.5845 10.8142 42.3484C10.5781 42.1123 10.445 41.7925 10.444 41.4586C10.445 41.1248 10.5781 40.8049 10.8142 40.5688C11.0503 40.3328 11.3701 40.1997 11.704 40.1986H21.42V42.9386ZM23.86 45.4026C23.8623 46.084 23.6292 46.7453 23.2 47.2746L23.044 47.4706V40.1986H23.872L23.86 45.4026ZM32.876 47.4706L32.716 47.2746C32.2836 46.7466 32.0476 46.0851 32.048 45.4026V40.2026H32.876V47.4706ZM44.296 40.1986C44.6298 40.1997 44.9497 40.3328 45.1858 40.5688C45.4218 40.8049 45.5549 41.1248 45.556 41.4586C45.5549 41.7925 45.4218 42.1123 45.1858 42.3484C44.9497 42.5845 44.6298 42.7176 44.296 42.7186H35.56C35.2359 42.719 34.9146 42.7786 34.612 42.8946L34.488 42.9386V40.1986H44.296ZM48 24.0506L33.164 38.6266L22.608 38.5866L22.58 38.5626L7.83598 24.0906L7.89198 24.0266C9.48559 22.2224 11.427 20.7585 13.6 19.7226L13.684 19.6826L13.912 19.5706C16.5364 18.4842 19.2812 17.7147 22.088 17.2786L22.728 17.1946L22.948 17.1706C25.775 16.8435 28.6273 16.7939 31.464 17.0226C31.464 17.0226 32.036 17.0866 32.856 17.1946C33.784 17.3186 34.696 17.4586 35.56 17.5946C37.7905 18.0223 39.9713 18.6777 42.068 19.5506C44.3303 20.5799 46.3564 22.064 48.02 23.9106L48.076 23.9746L48 24.0506ZM50.128 23.5186C50.105 23.5906 50.0636 23.6554 50.008 23.7066C49.9824 23.7104 49.9562 23.7071 49.9323 23.6973C49.9084 23.6874 49.8875 23.6713 49.872 23.6506C47.9604 21.2642 45.5109 19.3644 42.724 18.1066C42.004 17.7986 41.256 17.5106 40.508 17.2506C39.0033 16.728 37.4669 16.3018 35.908 15.9746C35.072 15.8026 34.224 15.6546 33.388 15.5386C32.884 15.4706 32.364 15.4106 31.84 15.3586C29.2852 15.118 26.713 15.1274 24.16 15.3866C23.62 15.4426 23.064 15.5106 22.508 15.5866L21.944 15.6746C18.948 16.1057 16.0208 16.9246 13.236 18.1106L12.956 18.2426C10.2912 19.4984 7.94991 21.3485 6.11198 23.6506C6.07998 23.6906 6.01998 23.7266 5.91598 23.6506H5.87998V23.6066C5.76656 22.9554 5.70902 22.2957 5.70798 21.6346C5.70798 17.9586 7.52398 14.3666 10.82 11.5146C11.5454 10.8876 12.3154 10.3141 13.124 9.79862C13.712 9.45462 14.324 9.13062 14.912 8.82662C16.9147 7.81392 19.0236 7.02644 21.2 6.47862C25.6117 5.38472 30.2224 5.37237 34.64 6.44262C36.8303 6.95979 38.9547 7.72472 40.972 8.72262L41.156 8.81462C41.7447 9.10968 42.3175 9.43546 42.872 9.79062C47.6 12.7986 50.3 17.1306 50.3 21.6346C50.3 22.2659 50.2479 22.896 50.144 23.5186H50.128Z" fill="#888888"/>
<path d="M14.1363 7.76328L12.7222 8.51172L17.7311 17.976L19.1453 17.2275L14.1363 7.76328Z" fill="#888888"/>
<path d="M41.8159 7.75842L36.807 17.2227L38.2212 17.9711L43.2301 8.50686L41.8159 7.75842Z" fill="#888888"/>
<path d="M24.736 38.2389C23.9714 37.5934 23.4154 36.7356 23.1382 35.7741C22.861 34.8126 22.8751 33.7905 23.1788 32.837C23.4825 31.8835 24.062 31.0415 24.8442 30.4173C25.6264 29.7932 26.5761 29.415 27.5732 29.3306C28.5703 29.2461 29.5701 29.4592 30.4461 29.9429C31.3221 30.4266 32.035 31.1592 32.4947 32.048C32.9544 32.9369 33.1402 33.9421 33.0287 34.9365C32.9171 35.9309 32.5132 36.87 31.868 37.6349C31.0019 38.6601 29.7643 39.2995 28.427 39.4128C27.0898 39.5261 25.7622 39.1038 24.736 38.2389ZM30.232 31.7269C29.7103 31.2841 29.0689 31.0059 28.389 30.9277C27.7091 30.8494 27.0213 30.9745 26.4125 31.2872C25.8037 31.5998 25.3013 32.086 24.9689 32.6842C24.6365 33.2824 24.4889 33.9658 24.5448 34.6478C24.6008 35.3299 24.8578 35.9801 25.2833 36.5161C25.7087 37.0521 26.2836 37.45 26.9352 37.6592C27.5868 37.8685 28.2858 37.8798 28.9439 37.6918C29.6019 37.5038 30.1894 37.1248 30.632 36.6029C31.2255 35.9032 31.5167 34.9965 31.4417 34.0821C31.3667 33.1677 30.9316 32.3205 30.232 31.7269Z" fill="#888888"/>
</g>
<defs>
<clipPath id="clip0_4600_57746">
<rect width="56" height="56" fill="white"/>
</clipPath>
</defs>
</svg>
