<svg width="56" height="56" viewBox="0 0 56 56" fill="none" xmlns="http://www.w3.org/2000/svg">
<g clip-path="url(#clip0_4602_58177)">
<path d="M33.2 45.6261C33.3133 45.6816 33.4378 45.7104 33.564 45.7104C33.6902 45.7104 33.8147 45.6816 33.928 45.6261C34.228 45.4421 34.424 44.9901 34.536 44.2341C34.9757 40.9768 36.3561 37.9185 38.508 35.4341C39.364 34.4421 41.308 32.7661 41.664 32.7661C41.72 32.7661 43.664 33.4341 45.008 33.8941C47.996 34.9261 48.288 35.0061 48.924 34.9581C49.5922 34.9142 50.2304 34.6645 50.7511 34.2434C51.2718 33.8223 51.6493 33.2504 51.832 32.6061C51.9483 32.2288 51.9881 31.832 51.9489 31.4391C51.9098 31.0462 51.7925 30.6651 51.604 30.3181C51.372 29.8141 50.804 29.2661 47.924 26.6421L44.468 23.5461L44.544 23.0381C44.564 22.8741 44.604 22.4941 44.648 22.0541C44.68 21.7661 44.712 21.4461 44.744 21.1421C44.884 19.5421 44.832 19.3381 44.224 19.0821C44.1026 19.0067 43.9612 18.9697 43.8184 18.9761C43.6756 18.9826 43.5381 19.0321 43.424 19.1181C42.424 19.5861 40.912 21.3541 40.424 22.6181C40.284 22.9501 40.152 23.1541 39.872 23.2101C37.9253 23.6151 36.0418 24.2797 34.272 25.1861L33.008 25.8021L32.608 25.5141C32.144 25.1541 31.6 25.0541 28.708 24.8221L28.08 24.7661C26.7 24.6421 26.36 24.6141 26.276 24.5821C26.2728 24.5774 26.271 24.5718 26.271 24.5661C26.271 24.5604 26.2728 24.5548 26.276 24.5501C26.172 24.0901 25.876 20.0021 25.876 19.9581V19.5101L26.628 19.8861C27.3139 20.2235 28.0694 20.395 28.8337 20.3867C29.5981 20.3783 30.3497 20.1904 31.028 19.8381C31.7364 19.4837 32.3511 18.9672 32.8223 18.3305C33.2935 17.6939 33.608 16.9551 33.74 16.1741C33.8737 15.3937 33.8182 14.5926 33.578 13.8381C33.3379 13.0836 32.9202 12.3977 32.36 11.8381C31.8031 11.263 31.117 10.8291 30.3587 10.5724C29.6004 10.3156 28.7918 10.2436 28 10.3621C26.7831 10.5392 25.6749 11.1609 24.8896 12.1073C24.1043 13.0536 23.6976 14.2574 23.748 15.4861L23.784 16.4021H22.8C19.052 16.4021 14.24 18.7381 10.82 22.1701C10.2182 22.7244 9.75129 23.4091 9.45521 24.1718C9.15914 24.9346 9.04174 25.755 9.11202 26.5701C9.16355 27.5584 9.50125 28.5103 10.084 29.3101C10.516 29.8781 10.484 29.9261 10.444 29.9501C10.396 29.9741 8.55202 30.1701 8.34002 30.1901C5.28402 30.4981 4.60402 30.6301 4.30802 30.9901C3.95202 31.3901 3.98002 31.7901 4.40002 32.1901C4.71202 32.5141 4.75602 32.5261 5.32002 32.4581C8.21602 32.0941 10.168 31.9101 11.848 31.8381L13.792 31.7661L16.488 32.8541C17.056 33.0861 19.02 33.8781 19.208 33.9741C19.236 34.0301 19.172 34.4101 18.26 38.1661C17.264 42.3501 17.224 42.6381 17.568 43.3221C17.7317 43.6162 17.9705 43.8615 18.26 44.033C18.5496 44.2044 18.8795 44.296 19.216 44.2981H19.32C19.6327 44.3115 19.9436 44.2451 20.2235 44.1051C20.5034 43.9652 20.7431 43.7563 20.92 43.4981C21.156 43.0981 24.424 35.2741 24.808 34.1821C24.9394 33.7538 25.0134 33.3099 25.028 32.8621V32.1021L25.528 32.1821C25.752 32.2141 26.328 32.2861 26.792 32.3341L27.6 32.4021L28.628 31.4541C30.048 30.1381 31.488 29.0221 31.908 28.9141C32.2751 28.7437 32.6116 28.514 32.904 28.2341C34.188 27.0861 37.772 25.5141 40.008 25.1141C41.532 24.8501 41.568 24.8261 41.96 23.8221C42.352 22.8181 42.44 22.8021 42.532 22.8021C42.624 22.8021 42.64 22.9101 42.612 23.3741C42.5864 23.6701 42.5944 23.968 42.636 24.2621C43.7858 25.4713 44.9967 26.6208 46.264 27.7061C50.18 31.2261 50.332 31.3661 49.908 32.2741C49.8053 32.4977 49.6448 32.6897 49.4429 32.8304C49.2411 32.9711 49.0053 33.0552 48.76 33.0741C48.608 33.0741 46.792 32.4781 45.124 31.8981C43.124 31.2101 41.6 30.7301 41.472 30.7301C41.12 30.7301 39.72 31.6461 38.648 32.5821C35.448 35.3541 33.316 39.3821 32.628 43.9501C32.48 45.0021 32.62 45.4261 33.2 45.6261ZM26.532 13.1221C26.9748 12.6829 27.5363 12.3827 28.1475 12.2583C28.7586 12.1339 29.3928 12.1909 29.972 12.4221C30.6493 12.7677 31.214 13.2991 31.6 13.9541C31.8151 14.3819 31.9066 14.8612 31.864 15.3381C31.8967 15.7692 31.8251 16.2018 31.6552 16.5994C31.4853 16.997 31.2222 17.3478 30.888 17.6221C30.3133 18.1786 29.544 18.4887 28.744 18.4861C28.3347 18.4865 27.9294 18.4062 27.5512 18.2497C27.173 18.0932 26.8294 17.8636 26.54 17.5741C26.2338 17.2927 25.9963 16.9448 25.8458 16.5571C25.6953 16.1695 25.6359 15.7524 25.672 15.3381C25.6377 14.9277 25.6973 14.5148 25.8463 14.1309C25.9953 13.7469 26.2298 13.4019 26.532 13.1221ZM27.54 29.8701L26.972 30.4581H26.948L25.52 30.3021C24.112 30.1501 24.076 30.1381 23.592 29.6941C22.7 29.0829 21.7672 28.5336 20.8 28.0501C20.4 27.8461 18.452 26.8501 18.452 26.7141C18.452 26.5781 19.32 25.7821 19.764 25.4661C20.274 25.1205 20.8088 24.813 21.364 24.5461C21.412 24.5461 21.428 24.5461 21.824 26.2341C22.256 28.0661 22.512 28.5461 23.336 29.0861C23.816 29.4061 23.816 29.4101 25.604 29.3861C26.3054 29.3993 27.0068 29.3672 27.704 29.2901C27.832 29.2621 27.912 29.2461 27.944 29.2901C27.976 29.3341 27.964 29.4461 27.54 29.8701ZM30.708 27.1101C30.6 27.1581 28.972 27.2941 27.508 27.3981C24.964 27.5781 24.452 27.5861 24.284 27.4461C24.116 27.3061 23.932 26.8021 23.38 24.4421C23.088 23.1701 22.896 22.5701 22.532 22.3821C22.168 22.1941 21.732 22.3541 20.932 22.6861C19.224 23.3821 17.184 24.9741 16.292 26.3101C15.924 26.8741 15.892 27.3781 16.248 27.6981C16.372 27.8141 17.66 28.5421 19.308 29.4021C22.884 31.2741 23.308 31.6901 23.108 33.1341C23.076 33.3621 22.2 35.5341 21.344 37.6061C19.616 41.7661 19.528 41.7741 19.492 41.7781H19.452V41.7381C19.428 41.6461 20.12 38.7301 20.364 37.7141C20.852 35.6021 21.28 33.6221 21.28 33.3821C21.2942 33.1704 21.2237 32.9618 21.084 32.8021C20.98 32.7061 19.208 31.9341 17.084 31.0781C15.084 30.2781 13.048 29.4101 12.712 29.2381C11.164 28.3981 10.536 26.2781 11.34 24.6101C11.796 23.6501 14.244 21.5301 16.284 20.3381C18.0257 19.3225 19.9432 18.644 21.936 18.3381C22.868 18.2101 23.216 18.2661 23.56 18.6101C23.812 18.8621 23.856 19.1261 24.08 21.7701C24.336 24.9061 24.412 25.3221 24.828 25.8221C25.244 26.3221 25.776 26.4821 28.404 26.7181C30.704 26.9181 30.728 27.0061 30.736 27.0421V27.0741L30.708 27.1101Z" fill="#888888"/>
</g>
<defs>
<clipPath id="clip0_4602_58177">
<rect width="56" height="56" fill="white"/>
</clipPath>
</defs>
</svg>
