<svg width="56" height="56" viewBox="0 0 56 56" fill="none" xmlns="http://www.w3.org/2000/svg">
<g clip-path="url(#clip0_4602_58071)">
<path d="M25.752 47.8212C25.5399 47.8212 25.3364 47.7369 25.1863 47.5869C25.0363 47.4369 24.952 47.2334 24.952 47.0212V22.2492C24.952 22.037 25.0363 21.8336 25.1863 21.6835C25.3364 21.5335 25.5399 21.4492 25.752 21.4492C25.9642 21.4492 26.1677 21.5335 26.3177 21.6835C26.4677 21.8336 26.552 22.037 26.552 22.2492V47.0252C26.551 47.2367 26.4662 47.4391 26.3163 47.5883C26.1664 47.7375 25.9635 47.8212 25.752 47.8212Z" fill="#888888"/>
<path d="M14.22 52.0008C13.2369 51.9913 12.2787 51.6911 11.466 51.138C10.6533 50.5849 10.0225 49.8036 9.65303 48.8926C9.28358 47.9816 9.19202 46.9816 9.38988 46.0187C9.58775 45.0557 10.0662 44.1729 10.7649 43.4814C11.4637 42.7899 12.3514 42.3206 13.3164 42.1328C14.2813 41.9449 15.2803 42.0469 16.1874 42.4258C17.0945 42.8047 17.8692 43.4436 18.4138 44.262C18.9585 45.0804 19.2487 46.0417 19.248 47.0248C19.2395 48.3509 18.7054 49.6195 17.7628 50.5524C16.8202 51.4852 15.5461 52.0061 14.22 52.0008ZM14.22 43.6448C13.5536 43.6543 12.9049 43.8605 12.3554 44.2376C11.8059 44.6147 11.3802 45.1458 11.1317 45.7642C10.8832 46.3826 10.8231 47.0607 10.9589 47.7131C11.0947 48.3656 11.4203 48.9633 11.8949 49.4313C12.3694 49.8992 12.9717 50.2164 13.626 50.3429C14.2803 50.4695 14.9575 50.3998 15.5723 50.1426C16.1871 49.8855 16.7122 49.4523 17.0815 48.8975C17.4508 48.3428 17.6479 47.6912 17.648 47.0248C17.6406 46.1223 17.2755 45.2596 16.6328 44.626C15.9902 43.9923 15.1225 43.6395 14.22 43.6448Z" fill="#888888"/>
<path d="M41.52 52.0008C40.537 51.9913 39.5788 51.6911 38.7661 51.138C37.9534 50.5849 37.3225 49.8036 36.9531 48.8926C36.5836 47.9816 36.4921 46.9816 36.6899 46.0187C36.8878 45.0557 37.3662 44.1729 38.065 43.4814C38.7637 42.7899 39.6515 42.3206 40.6164 42.1328C41.5814 41.9449 42.5804 42.0469 43.4875 42.4258C44.3946 42.8047 45.1693 43.4436 45.7139 44.262C46.2585 45.0804 46.5488 46.0417 46.548 47.0248C46.5395 48.3509 46.0054 49.6195 45.0628 50.5524C44.1203 51.4852 42.8462 52.0061 41.52 52.0008ZM41.52 43.6448C40.8536 43.6543 40.2049 43.8605 39.6554 44.2376C39.106 44.6147 38.6802 45.1458 38.4317 45.7642C38.1833 46.3826 38.1231 47.0607 38.2589 47.7131C38.3947 48.3656 38.7203 48.9633 39.1949 49.4313C39.6695 49.8992 40.2717 50.2164 40.9261 50.3429C41.5804 50.4695 42.2575 50.3998 42.8723 50.1426C43.4871 49.8855 44.0122 49.4523 44.3815 48.8975C44.7509 48.3428 44.9479 47.6912 44.948 47.0248C44.9406 46.1223 44.5755 45.2596 43.9329 44.626C43.2902 43.9923 42.4225 43.6395 41.52 43.6448Z" fill="#888888"/>
<path d="M6.5439 47.8218C5.8709 47.8208 5.22564 47.5535 4.749 47.0784C4.27237 46.6032 4.00307 45.9588 3.9999 45.2858V41.9218C3.99647 39.6954 4.39485 37.4867 5.1759 35.4018L5.8999 33.4018C6.37682 32.1604 7.21808 31.0922 8.31318 30.3376C9.40828 29.5831 10.706 29.1774 12.0359 29.1738H30.8639C31.969 29.1753 33.0504 29.4938 33.9799 30.0915C34.9094 30.6892 35.648 31.541 36.1079 32.5458L37.8439 36.6098L48.3439 38.2098L48.5839 38.2538C49.139 38.3726 49.6652 38.5995 50.1326 38.9218C50.5999 39.244 50.9991 39.6552 51.3075 40.1318C51.6158 40.6084 51.8272 41.1411 51.9295 41.6994C52.0319 42.2578 52.0231 42.8308 51.9039 43.3858L51.2839 46.2138C51.1961 46.6727 50.9504 47.0863 50.5894 47.383C50.2285 47.6796 49.7751 47.8405 49.3079 47.8378H45.7479C45.5357 47.8378 45.3322 47.7535 45.1822 47.6035C45.0322 47.4535 44.9479 47.25 44.9479 47.0378C44.9479 46.8257 45.0322 46.6222 45.1822 46.4721C45.3322 46.3221 45.5357 46.2378 45.7479 46.2378H49.3079C49.4044 46.2389 49.498 46.2051 49.5715 46.1426C49.645 46.0802 49.6934 45.9932 49.7079 45.8978L50.3319 43.0458C50.4826 42.3399 50.3469 41.6029 49.9547 40.9969C49.5624 40.3909 48.9457 39.9654 48.2399 39.8138L48.0919 39.7858L37.1639 38.1258C37.0288 38.1051 36.9012 38.0501 36.7933 37.9661C36.6855 37.8821 36.601 37.7718 36.5479 37.6458L34.6479 33.2018C34.3094 32.4826 33.7729 31.8749 33.1013 31.4498C32.4296 31.0247 31.6507 30.7999 30.8559 30.8018H12.0559C11.0473 30.8019 10.0624 31.1078 9.23118 31.6791C8.39995 32.2504 7.76145 33.0602 7.3999 34.0018L6.6799 36.0018C5.96814 37.8945 5.60232 39.8997 5.5999 41.9218V45.2818C5.60008 45.4062 5.62491 45.5292 5.67298 45.6439C5.72104 45.7585 5.79137 45.8625 5.8799 45.9498C6.0591 46.1263 6.30039 46.2254 6.5519 46.2258H9.9999C10.2121 46.2258 10.4156 46.3101 10.5656 46.4601C10.7156 46.6102 10.7999 46.8137 10.7999 47.0258C10.7999 47.238 10.7156 47.4415 10.5656 47.5915C10.4156 47.7415 10.2121 47.8258 9.9999 47.8258H6.5439V47.8218Z" fill="#888888"/>
<path d="M37.292 47.8188H18.44C18.2278 47.8188 18.0244 47.7345 17.8743 47.5844C17.7243 47.4344 17.64 47.2309 17.64 47.0188C17.64 46.8066 17.7243 46.6031 17.8743 46.4531C18.0244 46.303 18.2278 46.2188 18.44 46.2188H37.292C37.5042 46.2188 37.7077 46.303 37.8577 46.4531C38.0077 46.6031 38.092 46.8066 38.092 47.0188C38.092 47.2309 38.0077 47.4344 37.8577 47.5844C37.7077 47.7345 37.5042 47.8188 37.292 47.8188Z" fill="#888888"/>
<path d="M30.936 28.1932H20.716C20.5038 28.1932 20.3004 28.1089 20.1503 27.9589C20.0003 27.8089 19.916 27.6054 19.916 27.3932V22.2492C19.916 22.037 20.0003 21.8336 20.1503 21.6835C20.3004 21.5335 20.5038 21.4492 20.716 21.4492H30.936C31.1482 21.4492 31.3517 21.5335 31.5017 21.6835C31.6517 21.8336 31.736 22.037 31.736 22.2492V27.3932C31.736 27.6054 31.6517 27.8089 31.5017 27.9589C31.3517 28.1089 31.1482 28.1932 30.936 28.1932ZM21.516 26.5932H30.136V23.0492H21.516V26.5932Z" fill="#888888"/>
<path d="M17.464 28.2059H9.99995C9.78778 28.2059 9.58429 28.1216 9.43427 27.9716C9.28424 27.8215 9.19995 27.6181 9.19995 27.4059V18.7219C9.19995 18.5097 9.28424 18.3062 9.43427 18.1562C9.58429 18.0062 9.78778 17.9219 9.99995 17.9219H17.464C17.6761 17.9219 17.8796 18.0062 18.0296 18.1562C18.1797 18.3062 18.264 18.5097 18.264 18.7219V27.4059C18.264 27.6181 18.1797 27.8215 18.0296 27.9716C17.8796 28.1216 17.6761 28.2059 17.464 28.2059ZM10.8 26.6059H16.664V19.5179H10.8V26.6059Z" fill="#888888"/>
</g>
<defs>
<clipPath id="clip0_4602_58071">
<rect width="56" height="56" fill="white"/>
</clipPath>
</defs>
</svg>
