<svg width="56" height="56" viewBox="0 0 56 56" fill="none" xmlns="http://www.w3.org/2000/svg">
<g clip-path="url(#clip0_4600_57792)">
<path d="M51.2 26.4021V25.6021C51.2 24.5349 50.776 23.5114 50.0214 22.7567C49.2668 22.0021 48.2432 21.5781 47.176 21.5781C46.1088 21.5781 45.0853 22.0021 44.3306 22.7567C43.576 23.5114 43.152 24.5349 43.152 25.6021V25.7141C42.8188 25.2567 42.336 24.9303 41.7873 24.7915C41.2386 24.6526 40.6587 24.7102 40.148 24.9541L39.84 25.1021C39.2617 24.7389 38.601 24.5275 37.9193 24.4876C37.2375 24.4478 36.5567 24.5807 35.94 24.8741L30.14 27.6741C29.3101 28.0806 28.6449 28.7595 28.2554 29.5975C27.8659 30.4355 27.7758 31.3817 28 32.2781L25.852 32.0621L19.828 25.2621V23.1741C19.828 22.962 19.7437 22.7585 19.5937 22.6084C19.4437 22.4584 19.2402 22.3741 19.028 22.3741H6.928C6.71583 22.3741 6.51235 22.4584 6.36232 22.6084C6.21229 22.7585 6.128 22.962 6.128 23.1741C6.128 23.3863 6.21229 23.5898 6.36232 23.7398C6.51235 23.8898 6.71583 23.9741 6.928 23.9741H11.844C11.9935 24.6898 12.3419 25.3488 12.8493 25.8753C13.3566 26.4017 14.0023 26.7743 14.712 26.9501L15.284 27.0941L21.032 35.7181C21.463 36.3623 22.0796 36.8603 22.8 37.1461L23.672 37.4941L23.584 37.5781L13.548 35.2661C13.4311 35.2392 13.3097 35.2388 13.1927 35.2651C13.0757 35.2915 12.9661 35.3437 12.872 35.4181L4.32 42.1581C4.23569 42.222 4.16478 42.3018 4.11131 42.393C4.05785 42.4842 4.02287 42.5851 4.00839 42.6898C3.9939 42.7946 4.00019 42.9011 4.02689 43.0034C4.05359 43.1058 4.10018 43.2018 4.164 43.2861C4.22782 43.3704 4.30763 43.4413 4.39885 43.4948C4.49008 43.5483 4.59095 43.5833 4.69569 43.5977C4.80044 43.6122 4.90701 43.6059 5.00932 43.5792C5.11164 43.5525 5.20769 43.5059 5.292 43.4421H5.316L9.2 40.3501C9.76376 40.884 10.481 41.2273 11.2505 41.3314C12.02 41.4355 12.8027 41.2951 13.488 40.9301L22.808 43.0821C23.4946 43.2414 24.2119 43.2068 24.88 42.9821L33.608 40.0741C35.4734 40.0629 37.3274 39.7813 39.112 39.2381V40.8781C39.1113 41.0064 39.1415 41.133 39.2 41.2471C39.2584 41.3613 39.3435 41.4597 39.448 41.5341L44.96 45.4741L46.488 47.7661C46.5801 47.905 46.7132 48.0116 46.8688 48.0711C47.0245 48.1306 47.1948 48.1401 47.356 48.0981L50.556 47.2981C50.6591 47.2733 50.7562 47.2283 50.8417 47.1656C50.9273 47.103 50.9995 47.024 51.0542 46.9331C51.1089 46.8423 51.145 46.7415 51.1604 46.6367C51.1758 46.5318 51.1703 46.4248 51.144 46.3221C51.1282 46.266 51.1082 46.2112 51.084 46.1581L50.456 44.9061L51.084 43.6581C51.1403 43.5465 51.1696 43.4232 51.1696 43.2981C51.1696 43.1731 51.1403 43.0498 51.084 42.9381L50.284 41.3381C50.2372 41.2431 50.1721 41.1583 50.0923 41.0887C50.0125 41.0191 49.9197 40.966 49.8192 40.9325C49.7188 40.899 49.6126 40.8858 49.507 40.8936C49.4014 40.9014 49.2984 40.9302 49.204 40.9781L48.056 41.5501L44.736 38.8941V36.8941L46.66 36.0021C46.9698 36.0715 47.2902 36.0787 47.6028 36.0233C47.9153 35.968 48.2138 35.8511 48.4809 35.6796C48.748 35.5081 48.9785 35.2854 49.1589 35.0242C49.3393 34.763 49.4661 34.4686 49.532 34.1581C49.5671 33.9884 49.5845 33.8155 49.584 33.6421C50.3703 33.0564 50.914 32.2024 51.112 31.2421H51.2C51.4122 31.2421 51.6157 31.1578 51.7657 31.0078C51.9157 30.8578 52 30.6543 52 30.4421V27.2021C52 26.99 51.9157 26.7865 51.7657 26.6364C51.6157 26.4864 51.4122 26.4021 51.2 26.4021ZM48.976 29.6021L47.536 28.8821C47.4243 28.8259 47.301 28.7965 47.176 28.7965C47.051 28.7965 46.9277 28.8259 46.816 28.8821L45.376 29.6021H43.956V28.0021H50.4V29.6021H48.976ZM44.608 34.7421H45.008C45.0379 34.8048 45.0727 34.865 45.112 34.9221L44.684 35.1181C44.6666 34.9913 44.6412 34.8657 44.608 34.7421ZM43.548 33.1421C43.2297 33.1421 42.9245 33.0157 42.6995 32.7907C42.4744 32.5656 42.348 32.2604 42.348 31.9421V30.4021C42.348 30.6143 42.4323 30.8178 42.5823 30.9678C42.7323 31.1178 42.9358 31.2021 43.148 31.2021H43.228C43.3763 31.9154 43.7133 32.5757 44.204 33.1141L43.548 33.1421ZM44.748 25.5941C44.7491 24.9507 45.0057 24.3341 45.4614 23.8799C45.9171 23.4256 46.5346 23.1711 47.178 23.1721C47.8214 23.1732 48.4381 23.4298 48.8923 23.8855C49.3465 24.3412 49.6011 24.9587 49.6 25.6021V26.4021H44.756L44.748 25.5941ZM41.448 26.3621C41.5482 26.3963 41.6406 26.45 41.7198 26.5201C41.7991 26.5902 41.8637 26.6753 41.9098 26.7706C41.9559 26.8658 41.9827 26.9693 41.9886 27.0749C41.9944 27.1806 41.9793 27.2864 41.944 27.3861C41.8872 27.5492 41.7791 27.6895 41.636 27.7861C41.542 27.2669 41.3477 26.771 41.064 26.3261C41.1982 26.3039 41.3359 26.3163 41.464 26.3621H41.448ZM36.648 26.3181C37.2251 26.0407 37.8888 26.0039 38.493 26.2158C39.0973 26.4277 39.5926 26.871 39.87 27.4481C40.1474 28.0252 40.1842 28.6889 39.9723 29.2932C39.7604 29.8974 39.3171 30.3927 38.74 30.6701L38 31.0101L35.912 26.6581L36.648 26.3181ZM34.472 27.3661L36.564 31.7181L33.664 33.1141L31.56 28.7541L34.472 27.3661ZM30.168 29.5741L32.14 33.6781C31.6404 33.7413 31.1336 33.6458 30.6913 33.405C30.249 33.1643 29.8936 32.7905 29.6755 32.3366C29.4574 31.8827 29.3876 31.3716 29.476 30.8759C29.5644 30.3801 29.8065 29.9247 30.168 29.5741ZM23.392 35.6501C22.9759 35.486 22.62 35.1984 22.372 34.8261L16.452 25.9461C16.3471 25.7813 16.1868 25.6593 16 25.6021L15.12 25.3861C14.7585 25.2975 14.424 25.1223 14.1453 24.8756C13.8665 24.6289 13.6519 24.3182 13.52 23.9701H18.196V25.5701C18.1914 25.7734 18.2643 25.9707 18.4 26.1221L24.84 33.3661C24.9739 33.5164 25.1596 33.6107 25.36 33.6301L27.568 33.8541C27.1161 34.1306 26.6986 34.4595 26.324 34.8341L24.904 36.2541L23.392 35.6501ZM33.488 38.4501C33.4024 38.4494 33.3172 38.4629 33.236 38.4901L24.4 41.4581C24.0127 41.5863 23.5976 41.6057 23.2 41.5141L13.548 39.2901C13.4416 39.2659 13.3313 39.2636 13.224 39.2836C13.1167 39.3035 13.0146 39.3452 12.924 39.4061C12.5621 39.6463 12.1347 39.7683 11.7006 39.7554C11.2664 39.7425 10.847 39.5953 10.5 39.3341L13.564 36.9341L23.652 39.2621C23.7858 39.2913 23.9248 39.2857 24.0558 39.2457C24.1867 39.2058 24.3053 39.133 24.4 39.0341L27.46 35.9741C28.0828 35.3546 28.8498 34.8997 29.692 34.6501C30.3466 35.0729 31.1087 35.2992 31.888 35.3021C32.4895 35.3024 33.0832 35.1656 33.624 34.9021L39.428 32.1021C39.9272 31.8626 40.3712 31.5221 40.732 31.1021V31.9021C40.7325 32.2745 40.8073 32.643 40.952 32.9861C40.4156 33.1877 39.9533 33.548 39.6267 34.0189C39.3001 34.4898 39.1248 35.0491 39.124 35.6221V37.5221C37.3086 38.139 35.4053 38.4578 33.488 38.4661V38.4501ZM47.488 43.1021C47.6078 43.1991 47.7531 43.2593 47.9064 43.2756C48.0597 43.292 48.2144 43.2637 48.352 43.1941L49.24 42.7461L49.508 43.2781L48.88 44.5261C48.8237 44.6378 48.7944 44.7611 48.7944 44.8861C48.7944 45.0112 48.8237 45.1345 48.88 45.2461L49.236 45.9581L47.528 46.4021L46.232 44.4621C46.1777 44.3805 46.1085 44.31 46.028 44.2541L40.732 40.4701V35.6701C40.732 35.3519 40.8584 35.0466 41.0835 34.8216C41.3085 34.5966 41.6137 34.4701 41.932 34.4701C42.2503 34.4701 42.5555 34.5966 42.7805 34.8216C43.0056 35.0466 43.132 35.3519 43.132 35.6701V39.2941C43.1315 39.4146 43.1582 39.5337 43.2101 39.6425C43.2621 39.7512 43.3379 39.8468 43.432 39.9221L47.488 43.1021ZM47.188 34.4261C47.0298 34.4261 46.8751 34.3792 46.7435 34.2913C46.612 34.2034 46.5094 34.0785 46.4489 33.9323C46.3883 33.7861 46.3725 33.6252 46.4034 33.4701C46.4342 33.3149 46.5104 33.1723 46.6223 33.0604C46.7342 32.9486 46.8767 32.8724 47.0319 32.8415C47.1871 32.8106 47.348 32.8265 47.4941 32.887C47.6403 32.9476 47.7653 33.0501 47.8532 33.1817C47.9411 33.3132 47.988 33.4679 47.988 33.6261C47.9902 33.7339 47.9706 33.841 47.9303 33.941C47.8901 34.0409 47.8301 34.1318 47.7538 34.208C47.6776 34.2842 47.5868 34.3442 47.4868 34.3844C47.3868 34.4247 47.2798 34.4443 47.172 34.4421L47.188 34.4261ZM48.984 32.0261C48.7739 31.7893 48.5191 31.5965 48.2342 31.4586C47.9493 31.3207 47.64 31.2405 47.324 31.2226C47.0079 31.2048 46.6915 31.2496 46.3929 31.3546C46.0943 31.4595 45.8194 31.6225 45.584 31.8341C45.5148 31.894 45.4493 31.9581 45.388 32.0261C45.1786 31.7931 45.0169 31.5213 44.912 31.2261H45.576C45.7009 31.2266 45.8242 31.1978 45.936 31.1421L47.188 30.5141L48.436 31.1421C48.5478 31.1978 48.6711 31.2266 48.796 31.2261H49.464C49.3531 31.5229 49.1845 31.7948 48.968 32.0261H48.984Z" fill="#888888"/>
<path d="M41.5359 21.5598C42.0106 21.5598 42.4746 21.419 42.8693 21.1553C43.264 20.8916 43.5716 20.5167 43.7532 20.0782C43.9349 19.6397 43.9824 19.1571 43.8898 18.6915C43.7972 18.226 43.5686 17.7984 43.233 17.4627C42.8973 17.1271 42.4697 16.8985 42.0041 16.8059C41.5386 16.7133 41.056 16.7608 40.6175 16.9425C40.1789 17.1241 39.8041 17.4317 39.5404 17.8264C39.2767 18.2211 39.1359 18.6851 39.1359 19.1598C39.1359 19.7963 39.3888 20.4067 39.8389 20.8568C40.289 21.3069 40.8994 21.5598 41.5359 21.5598ZM41.5359 18.3598C41.6941 18.3598 41.8488 18.4067 41.9804 18.4946C42.1119 18.5825 42.2145 18.7074 42.275 18.8536C42.3356 18.9998 42.3514 19.1607 42.3206 19.3158C42.2897 19.471 42.2135 19.6136 42.1016 19.7255C41.9897 19.8373 41.8472 19.9135 41.692 19.9444C41.5368 19.9753 41.376 19.9594 41.2298 19.8989C41.0836 19.8383 40.9587 19.7358 40.8708 19.6042C40.7828 19.4727 40.7359 19.318 40.7359 19.1598C40.7338 19.0534 40.7529 18.9476 40.7922 18.8487C40.8314 18.7498 40.89 18.6597 40.9645 18.5837C41.039 18.5077 41.1279 18.4474 41.226 18.4062C41.3242 18.365 41.4295 18.3437 41.5359 18.3438V18.3598Z" fill="#888888"/>
<path d="M46.368 15.9289C46.8426 15.9289 47.3067 15.7882 47.7013 15.5244C48.096 15.2607 48.4036 14.8859 48.5853 14.4473C48.7669 14.0088 48.8145 13.5262 48.7218 13.0607C48.6292 12.5951 48.4007 12.1675 48.065 11.8319C47.7294 11.4962 47.3017 11.2676 46.8362 11.175C46.3706 11.0824 45.8881 11.1299 45.4495 11.3116C45.011 11.4932 44.6361 11.8009 44.3724 12.1955C44.1087 12.5902 43.968 13.0542 43.968 13.5289C43.968 14.1654 44.2208 14.7759 44.6709 15.226C45.121 15.6761 45.7314 15.9289 46.368 15.9289ZM46.368 12.7289C46.5262 12.7289 46.6809 12.7758 46.8124 12.8637C46.944 12.9516 47.0465 13.0766 47.1071 13.2228C47.1676 13.3689 47.1835 13.5298 47.1526 13.685C47.1217 13.8402 47.0455 13.9827 46.9336 14.0946C46.8218 14.2065 46.6792 14.2827 46.524 14.3135C46.3688 14.3444 46.208 14.3286 46.0618 14.268C45.9156 14.2075 45.7907 14.1049 45.7028 13.9734C45.6149 13.8418 45.568 13.6871 45.568 13.5289C45.5653 13.4222 45.584 13.316 45.623 13.2166C45.662 13.1172 45.7205 13.0267 45.7951 12.9502C45.8696 12.8738 45.9587 12.8131 46.0571 12.7717C46.1555 12.7302 46.2612 12.7089 46.368 12.7089V12.7289Z" fill="#888888"/>
<path d="M36.708 12.7082C37.1827 12.7082 37.6467 12.5674 38.0414 12.3037C38.436 12.04 38.7436 11.6652 38.9253 11.2266C39.1069 10.7881 39.1545 10.3055 39.0619 9.83999C38.9693 9.37443 38.7407 8.94679 38.405 8.61115C38.0694 8.2755 37.6418 8.04692 37.1762 7.95432C36.7106 7.86171 36.2281 7.90924 35.7895 8.09089C35.351 8.27254 34.9762 8.58016 34.7125 8.97484C34.4487 9.36951 34.308 9.83353 34.308 10.3082C34.308 10.9447 34.5608 11.5552 35.0109 12.0053C35.461 12.4553 36.0715 12.7082 36.708 12.7082ZM36.708 9.5082C36.8662 9.5082 37.0209 9.55512 37.1524 9.64303C37.284 9.73093 37.3865 9.85588 37.4471 10.0021C37.5076 10.1482 37.5235 10.3091 37.4926 10.4643C37.4617 10.6195 37.3856 10.762 37.2737 10.8739C37.1618 10.9858 37.0192 11.062 36.8641 11.0928C36.7089 11.1237 36.548 11.1079 36.4018 11.0473C36.2557 10.9868 36.1307 10.8842 36.0428 10.7527C35.9549 10.6211 35.908 10.4664 35.908 10.3082C35.9053 10.2015 35.924 10.0953 35.963 9.99591C36.0021 9.89653 36.0606 9.80596 36.1351 9.72955C36.2097 9.65313 36.2988 9.5924 36.3971 9.55096C36.4955 9.50951 36.6012 9.48817 36.708 9.4882V9.5082Z" fill="#888888"/>
</g>
<defs>
<clipPath id="clip0_4600_57792">
<rect width="56" height="56" fill="white"/>
</clipPath>
</defs>
</svg>
